<svg width="69" height="62" viewBox="0 0 69 62" fill="none" xmlns="http://www.w3.org/2000/svg">
<rect y="16" width="46" height="46" rx="11" fill="#FAF7FF"/>
<path d="M35.614 7.62806C36.3454 5.28983 39.6546 5.28983 40.386 7.62807L44.2235 19.8964C44.5528 20.9495 45.5337 21.6621 46.637 21.65L59.4907 21.5085C61.9405 21.4815 62.9631 24.6288 60.9653 26.0469L50.4833 33.4877C49.5835 34.1264 49.2089 35.2794 49.5614 36.3249L53.668 48.5058C54.4507 50.8274 51.7734 52.7725 49.8074 51.3107L39.4916 43.641C38.6062 42.9827 37.3938 42.9827 36.5084 43.641L26.1926 51.3108C24.2266 52.7725 21.5493 50.8274 22.332 48.5058L26.4386 36.3249C26.7911 35.2794 26.4165 34.1263 25.5167 33.4877L15.0347 26.0469C13.0369 24.6288 14.0595 21.4815 16.5093 21.5085L29.363 21.65C30.4664 21.6621 31.4472 20.9495 31.7765 19.8964L35.614 7.62806Z" stroke="#4D05BC" stroke-width="1.5"/>
</svg>
