<svg width="65" height="56" viewBox="0 0 65 56" fill="none" xmlns="http://www.w3.org/2000/svg">
<rect y="10" width="46" height="46" rx="11" fill="#FAF7FF"/>
<path fill-rule="evenodd" clip-rule="evenodd" d="M39 6.42458C34.0017 0.646413 25.6494 -1.13929 19.3868 4.15178C13.1241 9.44284 12.2424 18.2892 17.1605 24.547C21.2496 29.7498 33.6245 40.7232 37.6803 44.275C38.1339 44.6723 38.3609 44.871 38.6256 44.949C38.8564 45.017 39.1092 45.017 39.3403 44.949C39.605 44.871 39.8317 44.6723 40.2856 44.275C44.3414 40.7232 56.7162 29.7498 60.8053 24.547C65.7234 18.2892 64.9492 9.38718 58.5789 4.15178C52.2087 -1.08363 43.9984 0.646413 39 6.42458Z" stroke="#4D05BC" stroke-width="1.5" stroke-linecap="round" stroke-linejoin="round"/>
</svg>
