<svg width="66" height="59" viewBox="0 0 66 59" fill="none" xmlns="http://www.w3.org/2000/svg">
<rect y="13" width="46" height="46" rx="11" fill="#FAF7FF"/>
<path d="M40.5 30.9444V39.1111M40.5 30.9444C33.9151 30.9444 28.4223 26.2682 27.1612 20.0556M40.5 30.9444C47.0851 30.9444 52.5777 26.2682 53.8389 20.0556M40.5 39.1111C43.0317 39.1111 44.2975 39.1111 45.336 39.3893C48.1541 40.1445 50.3555 42.3459 51.1107 45.164C51.3889 46.2025 51.3889 47.4683 51.3889 50H29.6111C29.6111 47.4683 29.6111 46.2025 29.8894 45.164C30.6445 42.3459 32.8458 40.1445 35.664 39.3893C36.7025 39.1111 37.9683 39.1111 40.5 39.1111ZM27.1612 20.0556H26.8889H26.2083C24.311 20.0556 23.3623 20.0556 22.5734 19.8986C19.3338 19.2542 16.8013 16.7218 16.1569 13.4821C16 12.6932 16 11.7446 16 9.84722C16 9.21477 16 8.89856 16.0523 8.63559C16.2671 7.55571 17.1113 6.71155 18.1911 6.49674C18.4541 6.44444 18.7703 6.44444 19.4028 6.44444H26.8889M27.1612 20.0556C26.9826 19.176 26.8889 18.2656 26.8889 17.3333V5.27778C26.8889 3.82651 26.8889 3.1009 27.1585 2.5411C27.426 1.98547 27.8744 1.53715 28.43 1.26958C28.9898 1 29.7154 1 31.1667 1H49.8334C51.2846 1 52.0101 1 52.5701 1.26958C53.1257 1.53715 53.574 1.98547 53.8416 2.5411C54.1111 3.1009 54.1111 3.82651 54.1111 5.27778V17.3333C54.1111 18.2656 54.0175 19.176 53.8389 20.0556M53.8389 20.0556H54.1111H54.7917C56.6891 20.0556 57.6378 20.0556 58.4267 19.8986C61.6661 19.2542 64.1986 16.7218 64.8432 13.4821C65 12.6932 65 11.7446 65 9.84722C65 9.21477 65 8.89856 64.9477 8.63559C64.733 7.55571 63.8888 6.71155 62.8089 6.49674C62.5459 6.44444 62.2296 6.44444 61.5972 6.44444H54.1111" stroke="#4D05BC" stroke-width="1.5" stroke-linecap="round" stroke-linejoin="round"/>
</svg>
