<svg width="65" height="56" viewBox="0 0 65 56" fill="none" xmlns="http://www.w3.org/2000/svg">
<rect y="10" width="46" height="46" rx="11" fill="#FAF7FF"/>
<path d="M35 1.59634C41.3333 -0.236992 56 1.09634 64 21.0963C63.8333 22.2631 63 25.2967 61 28.0967" stroke="#4D05BC" stroke-width="1.5" stroke-linecap="round"/>
<path d="M24.5 6.5C22 8.66667 16.6 14.4 15 20C16 25 21.1 35.9 33.5 39.5C37.6667 40.3333 48 40.3 54 35.5" stroke="#4D05BC" stroke-width="1.5" stroke-linecap="round"/>
<path d="M20 1L60 40" stroke="#4D05BC" stroke-width="1.5" stroke-linecap="round"/>
<path d="M46 27.2548C44.2423 29.0125 41.8583 30 39.3726 30C36.8868 30 34.5029 29.0125 32.7452 27.2548C30.9875 25.4971 30 23.1132 30 20.6274C30 18.1417 30.9875 15.7577 32.7452 14" stroke="#4D05BC" stroke-width="1.5" stroke-linecap="round"/>
</svg>
