<svg width="55" height="59" viewBox="0 0 55 59" fill="none" xmlns="http://www.w3.org/2000/svg">
<rect y="13" width="46" height="46" rx="11" fill="#FAF7FF"/>
<path d="M32.255 47.5373C32.8085 47.86 33.0853 48.0215 33.4758 48.1053C33.779 48.1703 34.221 48.1703 34.5242 48.1053C34.9147 48.0215 35.1915 47.86 35.745 47.5373C40.615 44.696 54 35.771 54 23.5V10C54 8.60517 54 7.90775 53.7315 7.3762C53.4935 6.90495 53.1217 6.5288 52.6532 6.28522C52.125 6.01047 51.4157 6.0021 49.997 5.98533C42.568 5.89748 38.284 5.28403 34 1C29.716 5.28403 25.432 5.89748 18.003 5.98533C16.5843 6.0021 15.875 6.01047 15.3466 6.28522C14.8782 6.5288 14.5065 6.90495 14.2685 7.3762C14 7.90775 14 8.60517 14 10V23.5C14 35.771 27.3849 44.696 32.255 47.5373Z" stroke="#4D05BC" stroke-width="1.5" stroke-linecap="round" stroke-linejoin="round"/>
</svg>
