<svg width="56" height="53" viewBox="0 0 56 53" fill="none" xmlns="http://www.w3.org/2000/svg">
<rect y="7" width="46" height="46" rx="11" fill="#FAF7FF"/>
<path d="M19.1508 37C16.2139 34.0507 14.2138 30.2931 13.4035 26.2025C12.5932 22.1116 13.0091 17.8715 14.5985 14.0182C16.188 10.1648 18.8796 6.87124 22.333 4.55403C25.7864 2.23682 29.8465 1 34 1C38.1535 1 42.2135 2.23682 45.667 4.55403C49.1202 6.87124 51.8119 10.1648 53.4014 14.0182C54.991 17.8715 55.4068 22.1116 54.5964 26.2025C53.7861 30.2931 51.7861 34.0507 48.8492 37" stroke="#4D05BC" stroke-width="1.5" stroke-linecap="round" stroke-linejoin="round"/>
<path d="M34 22L45 17" stroke="#4D05BC" stroke-width="1.5" stroke-linecap="round" stroke-linejoin="round"/>
</svg>
