<svg width="62" height="59" viewBox="0 0 62 59" fill="none" xmlns="http://www.w3.org/2000/svg">
<rect y="13" width="46" height="46" rx="11" fill="#FAF7FF"/>
<path d="M48.5339 34.978C46.6248 34.2643 43.8409 32.1799 43.8409 30.8822C43.8409 30.0225 43.8409 28.9485 43.8409 27.4764C44.9441 26.249 45.7831 23.757 46.2817 20.9323C47.4447 20.5171 48.1092 19.8526 48.9395 16.9455C49.8219 13.8487 47.6105 13.954 47.6105 13.954C49.3992 8.03252 47.0446 2.46748 43.1005 2.87604C40.3801 -1.88328 31.2682 3.96323 28.4131 3.55572C28.4131 5.18794 29.0928 6.4117 29.0928 6.4117C28.1004 8.29609 28.4832 12.0535 28.7619 13.954C28.6007 13.9511 26.6008 13.972 27.4491 16.9455C28.2794 19.8525 28.9439 20.5171 30.107 20.9323C30.6047 23.757 31.4435 26.249 32.5478 27.4764C32.5478 28.9485 32.5478 30.0225 32.5478 30.8822C32.5478 32.1799 29.5905 34.3657 27.8549 34.978C24.269 36.2406 15.4575 39.8719 16.0263 46.6739C16.1627 48.3062 25.1382 50.0001 38.1943 50.0001C51.2495 50.0001 60.226 48.3062 60.3625 46.6739C60.9312 39.8653 52.097 36.3108 48.5339 34.978Z" stroke="#4D05BC" stroke-width="1.5"/>
</svg>
