<svg width="61" height="57" viewBox="0 0 61 57" fill="none" xmlns="http://www.w3.org/2000/svg">
<rect y="11" width="46" height="46" rx="11" fill="#FAF7FF"/>
<path d="M47.5 23.5C47.5 29.0228 43.0228 33.5 37.5 33.5C31.9771 33.5 27.5 29.0228 27.5 23.5C27.5 17.9771 31.9771 13.5 37.5 13.5C43.0228 13.5 47.5 17.9771 47.5 23.5ZM47.5 23.5V27.25C47.5 30.7017 50.2983 33.5 53.75 33.5C57.2017 33.5 60 30.7017 60 27.25V23.5C60 11.0736 49.9265 1 37.5 1C25.0736 1 15 11.0736 15 23.5C15 35.9265 25.0736 46 37.5 46H47.5" stroke="#4D05BC" stroke-width="1.5" stroke-linecap="round" stroke-linejoin="round"/>
</svg>
