<svg xmlns="http://www.w3.org/2000/svg" width="13" height="13" viewBox="0 0 13 13" fill="none">
    <path d="M6.0217 0.570198C6.1656 0.0977933 6.8344 0.0977939 6.9783 0.570199L8.07593 4.17356C8.14004 4.38404 8.33421 4.52786 8.55423 4.52786H12.1715C12.648 4.52786 12.8544 5.13118 12.4778 5.42308L9.497 7.73312C9.33296 7.86024 9.26451 8.07549 9.32498 8.27402L10.4503 11.9682C10.5923 12.4345 10.051 12.8077 9.66568 12.5091L6.80628 10.2931C6.62599 10.1534 6.37401 10.1534 6.19372 10.2931L3.33432 12.5091C2.94895 12.8077 2.40767 12.4345 2.54974 11.9682L3.67502 8.27402C3.73549 8.07549 3.66704 7.86024 3.503 7.73312L0.522219 5.42308C0.145568 5.13118 0.351982 4.52786 0.8285 4.52786H4.44577C4.66579 4.52786 4.85996 4.38404 4.92407 4.17356L6.0217 0.570198Z" fill="#169B00"/>
</svg>