<svg width="27" height="30" viewBox="0 0 27 30" fill="none" xmlns="http://www.w3.org/2000/svg">
<path d="M9.69757 2.87754C10.7893 -0.959179 16.2107 -0.959179 17.3024 2.87754V2.87754C17.8881 4.93566 19.9963 6.15646 22.0663 5.63606V5.63606C25.9251 4.66596 28.6358 9.37486 25.8687 12.2415V12.2415C24.3844 13.7792 24.3844 16.2208 25.8687 17.7585V17.7585C28.6358 20.6251 25.9251 25.334 22.0663 24.3639V24.3639C19.9963 23.8435 17.8881 25.0643 17.3024 27.1225V27.1225C16.2107 30.9592 10.7893 30.9592 9.69757 27.1225V27.1225C9.11194 25.0643 7.00368 23.8435 4.93371 24.3639V24.3639C1.07491 25.334 -1.63579 20.6251 1.13128 17.7585V17.7585C2.61561 16.2208 2.61561 13.7792 1.13128 12.2415V12.2415C-1.63579 9.37486 1.07491 4.66596 4.93371 5.63606V5.63606C7.00368 6.15646 9.11194 4.93567 9.69757 2.87754V2.87754Z" fill="url(#paint0_linear_244_13)"/>
<defs>
<linearGradient id="paint0_linear_244_13" x1="14" y1="-2" x2="34.7788" y2="13.1669" gradientUnits="userSpaceOnUse">
<stop stop-color="#C43B56"/>
<stop offset="0.3395" stop-color="#982684"/>
<stop offset="0.726" stop-color="#6A10B3"/>
<stop offset="0.9195" stop-color="#5908C5"/>
</linearGradient>
</defs>
</svg>
