<svg id="Layer_1" data-name="Layer 1" xmlns="http://www.w3.org/2000/svg" width="110.43" height="73.3" viewBox="0 0 110.43 73.3"><defs><style>.cls-1{fill:none;stroke:#000;stroke-miterlimit:10;stroke-width:2px;}</style></defs><path class="cls-1" d="M198,524.77l3.68-7.65a1.12,1.12,0,0,1,2,0l3.82,7.57a1.11,1.11,0,0,0,.84.6l8.41,1.14a1.1,1.1,0,0,1,.63,1.88l-6,6a1.09,1.09,0,0,0-.31,1l1.51,8.35a1.1,1.1,0,0,1-1.59,1.18l-7.55-3.87a1.1,1.1,0,0,0-1,0l-7.47,4a1.11,1.11,0,0,1-1.62-1.15l1.36-8.38a1.13,1.13,0,0,0-.33-1l-6.13-5.86a1.11,1.11,0,0,1,.59-1.9l8.38-1.3A1.14,1.14,0,0,0,198,524.77Z" transform="translate(-186.82 -515.5)"/><path class="cls-1" d="M198,567.48l3.68-7.64a1.11,1.11,0,0,1,2,0l3.82,7.57a1.11,1.11,0,0,0,.84.6l8.41,1.14a1.1,1.1,0,0,1,.63,1.88l-6,6a1.09,1.09,0,0,0-.31,1l1.51,8.35a1.1,1.1,0,0,1-1.59,1.18l-7.55-3.87a1.1,1.1,0,0,0-1,0l-7.47,4a1.11,1.11,0,0,1-1.62-1.15l1.36-8.38a1.13,1.13,0,0,0-.33-1l-6.13-5.86a1.11,1.11,0,0,1,.59-1.9l8.38-1.3A1.13,1.13,0,0,0,198,567.48Z" transform="translate(-186.82 -515.5)"/><rect class="cls-1" x="38.95" y="10.83" width="70.49" height="11.23" rx="5.61"/><rect class="cls-1" x="38.95" y="52.39" width="70.49" height="11.23" rx="5.61"/></svg>