<svg xmlns="http://www.w3.org/2000/svg" width="40" height="50" viewBox="0 0 41 51" fill="none">
    <path fill-rule="evenodd" clip-rule="evenodd" d="M24.6207 17.3212C21.632 13.857 16.6379 12.7864 12.8933 15.9586C9.14864 19.1307 8.62145 24.4343 11.5621 28.1861C14.0071 31.3053 21.4064 37.8842 23.8315 40.0136C24.1028 40.2518 24.2385 40.3709 24.3968 40.4177C24.5348 40.4585 24.6859 40.4585 24.8241 40.4177C24.9824 40.3709 25.1179 40.2518 25.3893 40.0136C27.8144 37.8842 35.2137 31.3053 37.6587 28.1861C40.5994 24.4343 40.1365 19.0973 36.3275 15.9586C32.5185 12.8198 27.6093 13.857 24.6207 17.3212Z" stroke="#F4F9FF" stroke-width="1.5" stroke-linecap="round" stroke-linejoin="round"/>
    <rect width="31.6552" height="51" rx="13" fill="url(#paint0_linear_250_779)" fill-opacity="0.1"/>
    <defs>
        <linearGradient id="paint0_linear_250_779" x1="2.35849e-07" y1="25.5" x2="24.181" y2="25.5" gradientUnits="userSpaceOnUse">
            <stop stop-color="white"/>
            <stop offset="1" stop-color="#0AA1FF"/>
        </linearGradient>
    </defs>
</svg>