<svg xmlns="http://www.w3.org/2000/svg" width="627" height="30" viewBox="0 0 627 30" fill="none">
<line x1="141.25" y1="11" x2="141.25" y2="20" stroke="#535353" stroke-width="0.5"/>
<line x1="339.25" y1="11" x2="339.25" y2="20" stroke="#535353" stroke-width="0.5"/>
<line x1="501.25" y1="11" x2="501.25" y2="20" stroke="#535353" stroke-width="0.5"/>
<path d="M117.957 14.1922L116.879 14.4822C115.843 11.0013 114.107 9.49721 111.657 9.49721C109.935 9.49721 108.724 10.6191 108.724 12.398C108.724 14.1008 110.152 15.0087 113.989 16.552C117.53 17.8399 119 19.4179 119 22.1737C119 26.369 115.668 29 110.202 29C107.562 29 104.588 28.4184 102.908 27.7541L102.698 21.925L103.734 21.7175C105.288 25.7061 107.275 27.2146 109.866 27.2146C112.106 27.2146 113.283 25.6771 113.283 24.0991C113.283 22.5211 112.373 21.6066 108.873 20.3607C105.541 19.2729 103.26 17.8682 103.26 14.3655C103.26 10.9179 106.324 7.99605 111.547 7.99605C114.011 7.99605 116.25 8.41159 117.721 9.08385L117.957 14.1922ZM95.4034 16.0197C95.5295 13.2784 94.9693 9.31881 92.6876 9.31881C90.3414 9.31881 89.0619 13.0159 89.0201 16.1865L95.4034 16.0197ZM93.2478 7.9888C98.9873 7.9888 101.753 12.1427 101.801 17.5977H88.894C88.8522 22.4297 91.4419 26.0854 96.2847 26.0854C98.3985 26.0854 99.6164 25.5038 100.904 24.5901L101.505 25.2543C100.078 27.1652 97.1374 28.9928 93.2177 28.9928C86.9181 28.9928 82.5496 24.7141 82.5496 18.6775C82.535 13.2218 86.1203 7.98807 93.2449 7.98807M74.6289 18.0974C74.5028 13.7773 72.9073 10.3573 69.8411 10.3573C69.113 10.3573 68.5528 10.482 67.6855 10.7728L67.9377 27.3748C68.2456 27.4996 68.9737 27.5822 69.4921 27.5822C72.474 27.5822 74.6296 23.4145 74.6296 18.0966M81.0275 17.7645C81.0275 24.5908 76.6598 28.9935 69.2816 28.9935C66.6421 28.9935 63.9197 28.5779 61.5537 28.0384C61.7634 25.2971 61.7634 8.31296 61.5537 5.12208C61.344 3.45412 60.8674 2.67091 59.5741 2.51137L58.7059 2.42797V1.66651L67.8108 0C67.769 1.41196 67.6847 5.12281 67.6847 9.48561C69.2809 8.69659 70.7495 8.23972 72.7387 8.23972C77.4847 8.23972 81.026 12.2283 81.026 17.7659M57.8305 14.0544C55.0165 12.2269 51.9928 13.0159 51.3908 14.0544C51.1246 17.2452 51.1811 22.1766 51.4326 24.7025C51.5587 26.3704 52.0338 27.0702 53.3367 27.195L55.0583 27.3618V28.4496H42.1928V27.3618L43.187 27.195C44.4334 27.0702 44.8734 26.3639 44.9511 24.7025C45.259 22.0026 45.3434 16.3395 44.9511 13.224C44.8668 11.4378 44.4334 10.7728 43.187 10.6133L42.1928 10.4886V9.7416L51.3901 7.99677L51.264 12.6489C53.4196 7.8307 57.7037 7.24909 60.0272 8.53705L57.8305 14.0544ZM27.6483 18.5129C27.6483 23.5944 29.0414 27.7483 31.8275 27.7483C34.8512 27.7483 35.7194 23.6778 35.7194 18.5129C35.7194 13.348 34.382 9.31881 31.5394 9.31881C28.5017 9.31881 27.6483 13.2653 27.6483 18.5129ZM42.2346 18.4295C42.2346 24.2586 38.3428 28.9942 31.3993 28.9942C24.5681 28.9942 21.1243 24.4943 21.1243 18.5948C21.1243 12.8077 25.0161 7.9888 31.9595 7.9888C38.7907 7.9888 42.2346 12.5169 42.2346 18.4295ZM24.3584 8.41231L22.9309 8.82785C21.7269 4.74353 19.5992 2.41709 15.931 2.41709H11.1432C10.877 5.13079 10.7509 9.32607 10.877 13.8535L14.0687 13.6867C16.2243 13.6867 17.1334 12.1493 17.6525 9.90695H18.8565V19.349H17.6525C17.1349 17.0647 16.225 15.5055 14.0687 15.3895L10.877 15.3481C10.877 18.713 10.9188 21.5848 11.1432 23.3376C11.3529 25.8302 12.0524 26.9651 13.9 27.2008L15.6362 27.3676V28.4554H0V27.3676L1.30217 27.2008C3.10804 26.9513 3.85004 25.8229 4.059 23.3376C4.40874 19.2671 4.49306 10.5712 4.059 5.73923C3.84931 3.16477 3.10731 2.12556 1.30217 1.91743L0 1.71002V0.587412H24.3173L24.3584 8.41231Z" fill="#4D05BC"/>
<path d="M178.684 29.2809C186.241 29.2809 192.368 23.1544 192.368 15.597C192.368 8.03959 186.241 1.91309 178.684 1.91309C171.127 1.91309 165 8.03959 165 15.597C165 23.1544 171.127 29.2809 178.684 29.2809Z" fill="#4D05BC"/>
<path d="M198.423 17.6961V7.9695H202.762V16.4087C202.762 18.0775 202.953 19.6986 205.146 19.6986C207.339 19.6986 207.53 18.0775 207.53 16.4087V7.9695H211.869V17.6484C211.869 21.415 209.485 23.4652 205.146 23.4652C200.712 23.5129 198.423 21.415 198.423 17.6961ZM213.013 21.272L215.111 18.3636C215.874 19.3171 217.209 20.1277 218.687 20.1277C219.831 20.1277 220.499 19.6509 220.499 18.745C220.499 17.6961 219.545 17.3623 217.876 16.8855C215.683 16.218 213.728 15.0737 213.728 12.4513C213.728 9.59059 216.112 7.63574 219.45 7.63574C221.786 7.63574 223.502 8.35093 224.647 9.39987L222.692 12.3083C222.072 11.5931 221.023 10.9733 219.688 10.9733C218.544 10.9733 218.067 11.4501 218.067 12.0222C218.067 12.9758 219.211 13.2142 220.451 13.6433C222.93 14.4062 224.837 15.5505 224.837 18.3636C224.837 21.272 222.74 23.4652 218.925 23.4652C216.112 23.5129 213.967 22.3209 213.013 21.272Z" fill="#4D05BC"/>
<path d="M230.654 7.96973H235.422L241.096 23.1794H236.566L235.851 20.9861H230.13L229.415 23.1794H224.98C225.028 23.1794 230.654 7.96973 230.654 7.96973ZM234.755 17.5532L233.563 13.8819C233.324 13.1668 233.134 12.2609 233.038 11.5933H232.895C232.8 12.2609 232.609 13.1668 232.371 13.8819L231.179 17.5532H234.755Z" fill="#4D05BC"/>
<path d="M247.39 11.497H243.623V7.96869H255.495V11.497H251.728V23.1784H247.39V11.497ZM255.781 15.5974C255.781 11.8307 258.451 7.68262 264.125 7.68262C269.799 7.68262 272.469 11.8784 272.469 15.5974C272.469 19.3163 269.799 23.4644 264.125 23.4644C258.451 23.5121 255.781 19.364 255.781 15.5974ZM268.035 15.5974C268.035 12.8796 266.271 11.4493 264.125 11.4493C262.027 11.4493 260.263 12.8796 260.263 15.5974C260.263 18.3151 262.027 19.6978 264.125 19.6978C266.223 19.6978 268.035 18.3151 268.035 15.5974ZM274.042 7.96869H279.668C285.056 7.96869 288.108 10.8294 288.108 15.5974C288.108 20.2699 284.961 23.226 279.668 23.226H274.042V7.96869ZM278.429 19.6978H279.382C282.195 19.6978 283.674 18.3628 283.674 15.5974C283.674 12.832 282.195 11.497 279.382 11.497H278.429V19.6978Z" fill="#4D05BC"/>
<path d="M293.162 7.96973H297.93L303.603 23.1794H299.074L298.359 20.9861H292.637L291.922 23.1794H287.488C287.536 23.1794 293.162 7.96973 293.162 7.96973ZM297.262 17.5532L296.07 13.8819C295.832 13.1668 295.641 12.2609 295.546 11.5933H295.403C295.307 12.2609 295.117 13.1668 294.878 13.8819L293.686 17.5532H297.262Z" fill="#4D05BC"/>
<path d="M305.701 17.7908L300.027 8.0166H304.795L306.846 11.7833C307.275 12.5938 307.895 13.7858 308.038 14.5963H308.133C308.276 13.7858 308.848 12.5938 309.325 11.7833L311.375 8.0166H316L310.326 17.7908V23.2263H305.749V17.7908H305.701Z" fill="#4D05BC"/>
<path d="M428.314 0.188312C432.026 0.21342 435.738 0.21342 439.45 0.188312C439.45 1.58182 439.45 2.97532 439.45 4.36883C437.246 4.33117 435.042 4.36883 432.838 4.33117C432.838 7.14329 432.838 9.95541 432.838 12.7675C434.539 12.7675 436.202 12.7675 437.903 12.7675C437.903 14.0481 437.903 15.3286 437.903 16.6091C436.202 16.6091 434.5 16.6091 432.799 16.6091C432.799 19.0195 432.799 21.4675 432.799 23.9156C432.799 24.3299 432.799 24.7065 432.799 25.1208C435.158 25.1208 437.478 25.0831 439.836 25.1208C439.811 26.4013 439.811 27.6818 439.836 28.9623C435.995 28.9874 432.155 28.9874 428.314 28.9623C428.288 26.5771 428.288 24.1918 428.314 21.8065C428.314 14.613 428.314 7.38182 428.314 0.188312ZM474.211 0C475.474 0 476.737 0 478 0C476.557 4.94632 475.113 9.89264 473.67 14.839C473.554 15.3286 473.322 15.8182 473.244 16.3455C473.244 20.526 473.283 24.7065 473.244 28.8494C471.723 28.8494 470.203 28.8494 468.682 28.8494C468.643 24.6688 468.682 20.526 468.643 16.3455C468.218 14.726 467.676 13.1818 467.174 11.5623C466.143 8.19784 465.099 4.82078 464.042 1.43117C463.887 0.979221 463.732 0.564935 463.616 0.112987C465.086 0.112987 466.516 0.112987 467.947 0.112987C468.372 1.88312 468.875 3.65325 469.339 5.42338C469.88 7.45714 470.422 9.49091 470.963 11.5247C472.046 7.68312 473.128 3.84156 474.211 0ZM393.359 0.188312C394.867 0.188312 396.375 0.188312 397.844 0.188312C398.695 5.58658 399.546 10.9848 400.396 16.3831C400.899 12.7675 401.363 9.18961 401.866 5.61169C402.123 3.8039 402.368 1.9961 402.6 0.188312C403.954 0.188312 405.307 0.188312 406.699 0.188312C406.738 0.301299 406.738 0.414286 406.738 0.527273C407.55 5.72468 408.4 10.8844 409.212 16.0818C409.406 14.8766 409.522 13.6714 409.676 12.5039C410.218 8.38615 410.759 4.28095 411.3 0.188312C412.563 0.188312 413.827 0.188312 415.09 0.188312C413.852 9.79221 412.576 19.3584 411.3 28.9623C409.908 28.9623 408.503 28.9623 407.086 28.9623C406.274 23.2 405.423 17.513 404.611 11.7507C403.644 17.4753 402.716 23.2377 401.788 28.9623C400.396 28.9623 398.966 28.9623 397.574 28.9623C396.182 19.371 394.777 9.77965 393.359 0.188312ZM415.786 0.188312C419.498 0.188312 423.171 0.225974 426.883 0.188312C426.844 1.54416 426.844 2.86234 426.806 4.21818C424.64 4.21818 422.462 4.21818 420.271 4.21818C420.271 7.0052 420.271 9.82987 420.271 12.6169C421.972 12.6545 423.674 12.6169 425.375 12.6545C425.349 13.91 425.349 15.1779 425.375 16.4584C423.674 16.4836 421.959 16.4836 420.232 16.4584C420.232 19.2957 420.232 22.1455 420.232 25.0078C422.591 24.9701 424.911 25.0078 427.27 24.9701C427.308 26.326 427.308 27.6442 427.308 28.9623C424.872 29 422.398 28.9623 419.923 28.9623C418.531 28.9247 417.178 28.9623 415.786 28.9623C415.786 19.371 415.786 9.77965 415.786 0.188312ZM440.88 0.150649C442.311 0.150649 443.742 0.112987 445.211 0.112987C445.172 3.76623 445.172 7.41948 445.172 11.0727C446.758 7.41948 448.304 3.76623 449.89 0.112987C451.398 0.150649 452.867 0.112987 454.336 0.112987C452.712 3.84156 451.011 7.57013 449.348 11.3364C449.323 11.4117 449.323 11.487 449.348 11.5623C451.359 17.3247 453.408 23.087 455.419 28.887C453.95 28.887 452.493 28.887 451.05 28.887C449.761 24.9952 448.459 21.116 447.144 17.2494C446.487 18.4922 445.83 19.7351 445.172 20.9779C445.134 23.6519 445.172 26.2883 445.172 28.9623C443.729 28.9623 442.298 28.9623 440.88 28.9623C440.88 19.3459 440.88 9.74199 440.88 0.150649ZM456.038 0.112987C457.533 0.112987 459.041 0.112987 460.562 0.112987C460.523 4.48182 460.562 8.81299 460.523 13.1818C460.562 17.1364 460.523 21.0909 460.562 25.0831C462.804 25.0455 465.086 25.0831 467.367 25.0455C467.367 26.326 467.367 27.5939 467.367 28.8494C463.616 28.8494 459.827 28.8494 456.038 28.8494C456.038 20.413 456.038 11.9766 456.038 3.54026C456.038 2.41039 456.038 1.28052 456.038 0.112987ZM362.039 28.887C362.039 19.3208 362 9.75455 362.039 0.188312C365.287 0.225974 368.574 0.188312 371.822 0.225974C378.472 0.188312 385.123 0.225974 391.774 0.188312C391.812 2.14675 391.774 4.1052 391.774 6.06364C391.774 13.6463 391.774 21.2416 391.774 28.8494C391.774 28.8494 391.735 28.887 391.696 28.887C383.319 28.887 374.941 28.887 366.563 28.887C365.055 28.887 363.547 28.9247 362.039 28.887Z" fill="#4D05BC"/>
<path fill-rule="evenodd" clip-rule="evenodd" d="M386.399 1.88281C386.553 3.27632 386.785 4.63216 386.979 5.98801C387.752 11.5118 388.538 17.0356 389.337 22.5594C389.531 24.1413 389.801 25.7231 389.995 27.3426C388.448 27.3426 386.914 27.3426 385.393 27.3426C385.123 25.5724 384.929 23.7646 384.697 21.9945C383.512 21.9945 382.313 21.9945 381.101 21.9945C380.869 23.727 380.599 25.4971 380.367 27.2672C378.897 27.3049 377.467 27.3049 376.036 27.3049C377.428 18.8309 378.781 10.3568 380.212 1.88281C382.274 1.88281 384.336 1.88281 386.399 1.88281ZM382.145 13.7841C381.991 15.2529 381.759 16.7218 381.565 18.1906C382.493 18.1906 383.421 18.1906 384.311 18.1906C384.233 18.1153 384.233 18.0023 384.195 17.8893C383.769 14.688 383.344 11.4867 382.919 8.28541C382.648 10.1309 382.416 11.9387 382.145 13.7841ZM369.579 1.88281C369.579 8.61182 369.579 15.3534 369.579 22.1075C369.579 22.5218 369.579 22.9361 369.54 23.3503C371.473 23.3503 373.407 23.3503 375.301 23.3503C375.327 24.656 375.327 25.9742 375.301 27.3049C371.628 27.3049 367.916 27.3049 364.204 27.3049C364.243 25.7607 364.204 24.2166 364.243 22.7101C364.243 15.7551 364.243 8.81268 364.243 1.88281C366.021 1.92047 367.8 1.88281 369.579 1.88281Z" fill="#FEFEFE"/>
<path d="M531.762 7.91513V11.6773H539.321V19.544H531.762V28.8638H524V0.00585938H540.5L541.028 7.91513H531.762Z" fill="#4D05BC"/>
<path d="M563.189 4.44185C565.764 7.20708 567.052 10.5451 567.052 14.4553C567.052 18.3938 565.764 21.7455 563.189 24.5111C560.613 27.2762 557.507 28.6588 553.869 28.6588C550.205 28.6588 547.085 27.2762 544.51 24.5111C541.934 21.7456 540.647 18.3938 540.647 14.4553C540.647 10.545 541.934 7.20708 544.51 4.44185C547.085 1.67662 550.205 0.293945 553.869 0.293945C557.506 0.293945 560.613 1.67662 563.189 4.44185ZM551.639 20.2371C551.639 20.8802 551.864 21.4385 552.316 21.9132C552.767 22.3884 553.312 22.6256 553.949 22.6256C554.586 22.6256 555.124 22.3884 555.562 21.9132C556 21.4385 556.219 20.8802 556.219 20.2371V8.54778C556.219 7.87749 556 7.30526 555.562 6.83002C555.124 6.3555 554.586 6.11776 553.949 6.11776C553.312 6.11776 552.767 6.3555 552.316 6.83002C551.864 7.30526 551.639 7.87749 551.639 8.54778V20.2371Z" fill="#4D05BC"/>
<path d="M579.162 28.9497L575.261 21.6387L571.482 28.9497H562.947L571.075 13.986L563.394 0.00585938H572.172L575.383 6.24776L578.634 0.00585938H587.128L579.609 13.9004L587.9 28.9496H579.162V28.9497Z" fill="#4D05BC"/>
<path d="M597.041 0.00646027C593.687 0.0857164 590.263 1.73155 588.619 4.69416C587.349 6.73612 587.142 9.18345 587.09 11.5201H594.638C594.724 10.15 594.592 8.4772 595.758 7.49219C596.957 6.75752 598.908 7.36682 599.084 8.86294C599.518 10.905 598.475 12.9295 596.996 14.3111C593.865 17.2084 589.166 21.3279 585.956 24.1405L588.774 28.9281L607.225 28.952V22.0191H598.554C600.777 19.8153 603.326 17.8858 605.153 15.3263C607.056 12.6672 607.531 9.11215 606.569 6.02132C605.628 3.01672 602.865 0.739917 599.734 0.212583C598.848 0.0419889 597.942 -0.0218167 597.041 0.00646027Z" fill="#4D05BC"/>
<path d="M616.653 0.36343C612.677 6.32017 608.701 12.2778 604.724 18.234C604.724 20.1945 604.724 22.155 604.724 24.1156C608.611 24.1156 612.497 24.1156 616.384 24.1156C616.384 25.7438 616.384 27.372 616.384 29.0002C618.894 29.0002 621.404 29.0002 623.914 29.0002C623.914 27.372 623.914 25.7438 623.914 24.1156C624.892 24.1156 625.869 24.1156 626.847 24.1156C626.847 21.9071 626.847 19.6986 626.847 17.4902C625.869 17.4902 624.892 17.4902 623.914 17.4902C623.914 11.7028 623.914 5.91535 623.914 0.12793C621.546 0.12793 619.179 0.12793 616.811 0.12793C616.758 0.20643 616.706 0.28493 616.653 0.36343ZM616.813 17.4902C615.539 17.4902 614.264 17.4902 612.99 17.4902C614.264 15.391 615.539 13.2917 616.813 11.1925C616.813 13.2917 616.813 15.391 616.813 17.4902Z" fill="#4D05BC"/>
</svg>