<svg version="1.1" id="Layer_1" xmlns="http://www.w3.org/2000/svg" xmlns:xlink="http://www.w3.org/1999/xlink" x="0" y="0" viewBox="0 0 428.5 260.8" xml:space="preserve"><defs><path id="SVGID_1_" d="M0 0h428.5v260.8H0z"/></defs><clipPath id="SVGID_2_"><use xlink:href="#SVGID_1_" overflow="visible"/></clipPath><path clip-path="url(#SVGID_2_)" d="M0 0h428.5v259.9H0z"/><path clip-path="url(#SVGID_2_)" fill="#ff5f00" d="M176.1 40.1h74.5v122h-74.5z"/><path d="M183.5 101.5c0-25.2 11.2-46.6 29.8-61.5-13-10.2-29.8-16.8-48.4-16.8-42.9 0-78.3 34.5-78.3 78.2 0 43.8 34.5 78.2 78.3 78.2 17.7 0 34.5-6.5 48.4-16.8-18.6-14.7-29.8-37-29.8-61.3z" clip-path="url(#SVGID_2_)" fill="#eb001b"/><path d="M339.1 101.5c0 42.9-34.5 78.2-78.2 78.2-17.7 0-34.5-6.5-48.4-16.8 17.7-14 29.8-36.3 29.8-61.5 0-25.2-11.2-46.6-29.8-61.5 13-10.2 29.8-16.8 48.4-16.8 43.7.2 78.2 35.6 78.2 78.4zm-2.8 48.5v-2.8h-.9v1.9l-.9-1.9h-.9v2.8h.9v-1.9l.9 1.9.9-1.9v1.9zm-4.7 0v-2.8h.9v-.9h-2.8v.9h.9l1 2.8z" clip-path="url(#SVGID_2_)" fill="#f79e1b"/><path d="M342.8 225.4c0-5.6 3.7-9.3 8.4-9.3 5.6 0 8.4 3.7 8.4 9.3 0 5.6-3.7 9.3-8.4 9.3-5.6 0-8.4-3.7-8.4-9.3zm22.4 0v-25.2h-5.6v14.9c-1.9-2.8-4.7-3.7-9.3-3.7-7.5 0-14 6.5-14 14.9s5.6 14.9 14 14.9c3.7 0 7.5-1.9 9.3-3.7v3.7h5.6v-15.8zm-79.2 0c0-5.6 3.7-9.3 8.4-9.3 5.6 0 8.4 3.7 8.4 9.3 0 5.6-3.7 9.3-8.4 9.3s-8.4-3.7-8.4-9.3zm22.3 0v-14h-5.6v3.7c-1.9-2.8-4.7-3.7-9.3-3.7-7.5 0-14 6.5-14 14.9s5.6 14.9 14 14.9c3.7 0 7.5-1.9 9.3-3.7v3.7h5.6v-15.8zm67.1 12.1l.9.9c0-.9-.9-.9-.9-.9zm0 0c.9 0 .9 0 0 0 .9 0 .9.9.9.9v.9h-.9l.9.9h-.9l-.9-.9v.9h-.9v-2.8h1.8zm0 2.8s.9 0 0 0c.9 0 .9 0 1.9-.9v-3.6h-3.6v3.7c.8.8.8.8 1.7.8-.9 0 0 0 0 0zm0-4.6h.9s.9 0 .9.9c0 0 0 .9.9.9v1.9s0 .9-.9.9c0 0-.9 0-.9.9h-1.8s-.9 0-.9-.9c0 0 0-.9-.9-.9v-1.8s0-.9.9-.9c0 0 .9 0 .9-.9h.9zm-44.7-25.2c-3.7 0-5.6 1.9-7.5 3.7v-3.7h-6.5v27.9h5.6v-14.9c0-4.7 1.9-7.5 6.5-7.5.9 0 2.8 0 3.7.9l1.9-5.6c-.9.2-2.8-.8-3.7-.8zm-216.1 14.9c0-5.6 3.7-9.3 8.4-9.3 5.6 0 8.4 3.7 8.4 9.3 0 5.6-3.7 9.3-8.4 9.3-5.6 0-8.4-3.7-8.4-9.3zm22.3 0v-14h-5.6v3.7c-1.9-2.8-4.7-3.7-9.3-3.7-7.5 0-14 6.5-14 14.9s5.6 14.9 14 14.9c3.7 0 7.5-1.9 9.3-3.7v3.7h5.6v-15.8zm75.5-9.3c3.7 0 6.5 2.8 7.5 7.5H205c.9-4.7 2.7-7.5 7.4-7.5zm0-5.6c-8.4 0-14 5.6-14 14.9s5.6 14.9 14 14.9c4.7 0 8.4-.9 11.2-3.7l-2.8-3.7c-2.8 1.9-5.6 2.8-8.4 2.8-3.7 0-7.5-1.9-8.4-7.5h20.5v-2.8c.9-8.4-3.7-14.9-12.1-14.9zm40 14.9c0 8.4 5.6 14.9 14.9 14.9 4.7 0 7.5-.9 10.2-3.7l-3.7-3.7c-1.9 1.9-4.7 2.8-7.5 2.8-4.7 0-8.4-3.7-8.4-9.3 0-5.6 3.7-9.3 8.4-9.3 2.8 0 4.7.9 7.5 2.8l2.8-4.7c-2.8-2.8-5.6-3.7-10.2-3.7-8.4-1-14 5.5-14 13.9zm-85.7-11.1c-2.8-1.9-6.5-2.8-11.2-2.8-7.5 0-11.2 3.7-11.2 9.3 0 4.7 2.8 7.5 9.3 8.4h2.8c3.7.9 5.6 1.9 5.6 2.8 0 1.9-2.8 3.7-6.5 3.7-4.7 0-7.5-.9-9.3-2.8l-2.8 4.7c3.7 2.8 9.3 3.7 12.1 3.7 8.4 0 12.1-3.7 12.1-9.3 0-4.7-3.7-7.5-9.3-8.4h-2.8c-2.8 0-4.7-.9-4.7-2.8s1.9-3.7 5.6-3.7c3.7 0 7.5.9 8.4 2.8l1.9-5.6zm79.2-3.8c-3.7 0-5.6 1.9-7.5 3.7v-3.7h-5.6v27.9h5.6v-14.9c0-4.7 1.9-7.5 6.5-7.5.9 0 2.8 0 3.7.9l1.9-5.6c-1.8.2-3.6-.8-4.6-.8zm-52.1 1h-10.2v-8.4H178v8.4h-5.6v4.7h5.6v13c0 6.5 1.9 10.2 9.3 10.2 2.8 0 5.6-.9 7.5-1.9l-1.9-4.7c-1.9.9-3.7 1.9-5.6 1.9-2.8 0-4.7-1.9-4.7-4.7v-13h10.2v-5.6h1zm-91.3 27.9v-17.7c0-6.5-3.7-11.2-11.2-11.2-3.7 0-7.5.9-10.2 4.7-1.9-2.8-4.7-4.7-9.3-4.7-2.8 0-6.5.9-8.4 3.7v-3.7h-4.7v27.9h5.6v-14.9c0-4.7 2.8-7.5 7.5-7.5 3.7 0 6.5 2.8 6.5 7.5v15.8h5.6v-15.8c0-4.7 2.8-7.5 7.5-7.5 3.7 0 6.5 2.8 6.5 7.5v15.8h4.6z" clip-path="url(#SVGID_2_)" fill="#fff"/></svg>