<svg version="1.1" id="Layer_1" xmlns="http://www.w3.org/2000/svg" x="0" y="0" viewBox="0 0 384.4 340.8" xml:space="preserve"><style>.st4{fill-rule:evenodd;clip-rule:evenodd;fill:#fc654c}</style><path d="M241.1 188H12c-6.6 0-12-5.4-12-12V12C0 5.4 5.4 0 12 0h229.1c6.6 0 12 5.4 12 12v164c0 6.6-5.4 12-12 12z" fill="#fa654d"/><path d="M361.5 340.8H12c-6.6 0-12-5.4-12-12V54c0-6.6 5.4-12 12-12h349.5c6.6 0 12 5.4 12 12v274.8c0 6.6-5.4 12-12 12z" fill="#808088"/><path d="M189.1 263.9l-76.9 30.5v46.4h76.9zm164-194.4l1.2 21-13.6 39.5-32.9 46.8-35.6 34.6.1 129.4h80.8z" fill="#91919a"/><path d="M106.9 73.7H34.1c-2.3 0-4.3-1.9-4.3-4.3 0-2.3 1.9-4.3 4.3-4.3h72.8c2.3 0 4.3 1.9 4.3 4.3s-1.9 4.3-4.3 4.3z" fill="#9e9ea4"/><path class="st4" d="M252.7 145.7h40.7c4.8 0 8.6 3.9 8.6 8.7v22.3c0 4.8-3.9 8.7-8.6 8.7h-17.2l-5 7.4-4.9-6.8-13.6-.6c-4.8 0-8.6-3.9-8.6-8.7v-22.3c-.1-4.8 3.8-8.7 8.6-8.7zM335 8h40.7c4.8 0 8.6 3.9 8.6 8.7V39c0 4.8-3.9 8.7-8.6 8.7h-17.2l-5 7.4-4.9-6.8-13.6-.6c-4.8 0-8.6-3.9-8.6-8.7V16.7c0-4.8 3.9-8.7 8.6-8.7zM91.6 227.7h40.7c4.8 0 8.6 3.9 8.6 8.7v22.3c0 4.8-3.9 8.7-8.6 8.7h-17.2l-5 7.4-4.9-6.8-13.6-.6c-4.8 0-8.6-3.9-8.6-8.7v-22.3c0-4.8 3.9-8.7 8.6-8.7z"/><path d="M23 308.7c133.4 0 332.2-118.5 332.2-235" fill-rule="evenodd" clip-rule="evenodd" fill="none" stroke="#fc654c" stroke-width="2" stroke-miterlimit="10"/><circle class="st4" cx="112.2" cy="294.4" r="5.4"/><circle class="st4" cx="354.3" cy="75.4" r="5.4"/><circle class="st4" cx="272.2" cy="211.4" r="5.4"/><path d="M112.6 241c-2.2-2.4-5.8-1.8-8.1.5-2.3-2.2-6-2.9-8.1-.5-2 2.2-1.5 5.5.4 7.8 2.4 3.1 7.4 7.4 7.7 7.7.3-.3 5.3-4.5 7.7-7.7 1.8-2.4 2.4-5.6.4-7.8zm160-82c-2.2-2.4-5.8-1.8-8.1.5-2.3-2.2-6-2.9-8.1-.5-2 2.2-1.5 5.5.4 7.8 2.4 3.1 7.4 7.4 7.7 7.7.3-.3 5.3-4.5 7.7-7.7 1.8-2.4 2.4-5.6.4-7.8zm81-137c-2.2-2.4-5.8-1.8-8.1.5-2.3-2.2-6-2.9-8.1-.5-2 2.2-1.5 5.5.4 7.8 2.4 3.1 7.4 7.4 7.7 7.7.3-.3 5.3-4.5 7.7-7.7 1.8-2.4 2.4-5.6.4-7.8z" fill="#fff"/></svg>