<svg version="1.1" id="Layer_1" xmlns="http://www.w3.org/2000/svg" x="0" y="0" viewBox="0 0 373.5 395.4" xml:space="preserve"><style>.st2{fill:#fb654d}.st3{fill:#fff}.st5{fill:#5b5b66}.st6{opacity:.45;fill:#fff}</style><path d="M68.1 64.4c32.3-26.6 73.6-42.5 118.6-42.5" fill="none" stroke="#fc654c" stroke-width="9" stroke-miterlimit="10"/><circle cx="186.7" cy="208.6" r="186.7" fill="#7d7d86"/><path class="st2" d="M285.1 162.4H88.4c-4.3 0-7.8-3.5-7.8-7.8v-30c0-4.3 3.5-7.8 7.8-7.8h196.7c4.3 0 7.8 3.5 7.8 7.8v30c0 4.3-3.5 7.8-7.8 7.8z"/><path class="st3" d="M285.1 221.4H88.4c-4.3 0-7.8-3.5-7.8-7.8v-30c0-4.3 3.5-7.8 7.8-7.8h196.7c4.3 0 7.8 3.5 7.8 7.8v30c0 4.4-3.5 7.8-7.8 7.8z"/><path d="M284.2 256.3h-96c-4.2 0-7.7 3.4-7.7 7.7v19.9c0 4.2 3.4 7.7 7.7 7.7h96c4.2 0 7.7-3.4 7.7-7.7V264c0-4.3-3.5-7.7-7.7-7.7z" fill="#fc654c"/><circle class="st5" cx="69.1" cy="68.5" r="23.5"/><circle class="st5" cx="189.1" cy="23.5" r="23.5"/><path class="st6" d="M154.5 135.4h-53.8c-1.1 0-1.9-.9-1.9-1.9v-2c0-1.1.9-1.9 1.9-1.9h53.8c1.1 0 1.9.9 1.9 1.9v2c0 1-.8 1.9-1.9 1.9z"/><path d="M154.5 194.4h-53.8c-1.1 0-1.9-.9-1.9-1.9v-2c0-1.1.9-1.9 1.9-1.9h53.8c1.1 0 1.9.9 1.9 1.9v2c0 1.1-.8 1.9-1.9 1.9zm51.4 14H100.7c-1.1 0-1.9-.9-1.9-1.9v-1.4c0-1.1.9-1.9 1.9-1.9h105.2c1.1 0 1.9.9 1.9 1.9v1.4c0 1.1-.8 1.9-1.9 1.9z" fill="#e9e9e9"/><path d="M221.9 92.1h-66.3c-1.1 0-1.9-.9-1.9-1.9v-3.3c0-1.1.9-1.9 1.9-1.9h66.3c1.1 0 1.9.9 1.9 1.9v3.3c0 1-.9 1.9-1.9 1.9z" opacity=".15" fill="#fff"/><path class="st6" d="M253.1 276.4h-35.4c-1.1 0-1.9-.9-1.9-1.9v-2c0-1.1.9-1.9 1.9-1.9h35.4c1.1 0 1.9.9 1.9 1.9v2c0 1-.8 1.9-1.9 1.9z"/><circle class="st3" cx="189.1" cy="23.5" r="4.1"/><circle class="st2" cx="68.1" cy="68.5" r="4.1"/></svg>