<svg version="1.1" id="Layer_1" xmlns="http://www.w3.org/2000/svg" x="0" y="0" viewBox="0 0 112.4 118.1" xml:space="preserve"><style>.st0{fill:#fa674f}.st6{fill:#ec5e28}</style><path class="st0" d="M75.7 46.1h-3.1c-3.5 3.3-9.2 5.4-15.5 5.4s-12-2.2-15.5-5.4h-2.3c-11.3 0-20.5 7-20.5 15.5h76.6c-.1-8.5-8.9-15.5-19.7-15.5z"/><path d="M111.1 115.4H98.4c.8-1.1 1.3-2.4 1.3-3.9V70.3c0-3.5-2.8-6.3-6.3-6.3h-73c-3.5 0-6.3 2.8-6.3 6.3v41.3c0 1.4.5 2.8 1.3 3.9H1.2c-.7 0-1.2.6-1.2 1.2v.1c0 .7.6 1.2 1.2 1.2h110c.7 0 1.2-.6 1.2-1.2v-.2c-.1-.6-.6-1.2-1.3-1.2z" fill="#f4d2c7"/><path class="st0" d="M82.1 20.9h-5.8v-4.5C76.3 8.8 67.2 0 55.4 0S34.5 8.8 34.5 16.5V21h-5.8c-.6 0-1.2.5-1.2 1.2v18.6c0 .6.5 1.2 1.2 1.2h7c.6 0 1.2-.5 1.2-1.2V16.6c0-6.4 8.3-14.1 18.6-14.1S74 10.1 74 16.5v30.2c0 2.5-2 4.5-4.5 4.5H67V50c0-.6-.5-1.2-1.2-1.2h-9.4c-1.9 0-3.4 1.5-3.4 3.6 0 1.9 1.5 3.4 3.4 3.4h9.4c.6 0 1.2-.5 1.2-1.2v-1.2h2.5c3.8 0 6.8-3.1 6.8-6.8v-4.8h5.8c.6 0 1.2-.5 1.2-1.2V22.1c0-.7-.5-1.2-1.2-1.2z"/><linearGradient id="SVGID_1_" gradientUnits="userSpaceOnUse" x1="39.132" y1="25.612" x2="71.667" y2="25.612"><stop offset="0" stop-color="#ff6542"/><stop offset="1" stop-color="#ffb4a3"/></linearGradient><path d="M71.7 25.8v-4.7c0-9-7.3-16.2-16.3-16.2s-16.3 7.3-16.3 16.3v4.1c0 8.5 6.8 21.2 16.3 21.2 8.8-.1 16.3-11.4 16.3-20.7z" fill="url(#SVGID_1_)"/><path d="M72.3 82.1c0 .1.1.3.1.4v16.1c0 .4-.1.7-.5.9-3.9 2.2-7.8 4.5-11.7 6.7h-.1c-.8-1.2-1.3-2.6-1.9-3.9-.2-.5-.1-1 .5-1.3 2-1 3.9-2.1 5.7-3.4.5-.3 1-.7 1.6-.9.6-.3.7-.6.7-1.3V85.1c.8-.3 1.6-.8 2.3-1.2 1.1-.5 2.1-1.3 3.3-1.8z" fill="#f3906b"/><path d="M72.3 82.1c-1.2.5-2.2 1.3-3.4 1.8-.8.4-1.5 1-2.3 1.2-.1-.5-.5-.6-.8-.8-2.8-1.7-5.6-3.3-8.4-5-.4-.3-.8-.4-1.2.1-.8.3-1.4 1-2.3 1.2-.2 0-.4 0-.5.3-.3 0-.6.1-.8.3-.7.5-1.4.9-2.1 1.3-.5.5-1 .5-1.2-.1-.5-1.2-1-2.4-1.6-3.5 3.1-1.8 6.1-3.5 9.2-5.3.3-.1.5-.1.7 0 4.8 2.8 9.7 5.6 14.5 8.3.1 0 .1.2.2.2z" fill="#ec612c"/><path d="M54.5 106.3c-3-1.7-6.1-3.4-9.1-5.2-.9-.5-1.8-1.1-2.7-1.5-.3-.2-.5-.4-.5-.8V82.5c0-.8.6-.8 1.1-1.1.9 2.8 2.6 5.2 3.5 8 .1.2.2.2.4.2v6.3c0 .3-.1.6.2.8 1 .5 1.8 1.2 2.8 1.6.3.5.9.5 1.2.9v.3c.8 1.2 1.3 2.6 1.8 3.9.5.9 1.2 1.8 1.3 2.9z" fill="#df531d"/><path class="st6" d="M47.7 78.9c.5 1.2 1 2.4 1.6 3.5.3.6.7.5 1.1.3.7-.4 1.4-.9 2.1-1.3.3-.2.5-.3.8-.3-.4.4-.8.8-1.2 1-.6.4-.7.8-.5 1.5 1.1 2.3 2.2 4.7 3.3 7 .5 1 .9 2.1 1.4 3.1.2.5.2 1.2.8 1.5v9.3c-.4 0-.5-.4-.6-.7-.3-1-.9-1.9-1.6-2.6-.3-.3-.8-.3-1-.7 1.3.1 1.3.1.7-1.2-.3-.6-.8-1.2-1-1.8-.4-1.3-1.2-2.4-1.7-3.7-.6-1.9-1.8-3.5-2.5-5.3-.4-.9-.5-1.8-1.1-2.6-.6-.9-.5-.9-1.4-.4v-.2c0-.3.1-.5.3-.7 1-.9 1-.9.4-2.1-.4-1-1-2-1.2-3.1.6-.1 1-.3 1.3-.5z"/><path d="M57.2 104.5v-9.3c0-1.2.1-2.4 0-3.6 0-.7.3-1.1.9-1.3 1.3.4 1.8 1.3 1.9 2.6 0 .8.8 1.4 1.4 1.1.2-.1.4-.2.5.1.1.3 0 .5-.3.5-.4.1-.4.4-.3.7.1.3.2.7.4 1 .3.3-.2.9.4 1 .6.1 1 .8 1.7.4.1-.1.3.1.5.1-1.8 1.3-3.7 2.4-5.7 3.4-.6.3-.8.8-.5 1.3.7 1.3 1.1 2.7 1.9 3.9-.9.6-1.8 1.2-2.8 1.5v-3.4z" fill="#f08d68"/><path d="M57.2 104.5v3.4c-1-.4-1.9-1-2.8-1.6-.1-1.1-.8-2-1.2-2.9-.6-1.3-1.1-2.7-1.8-3.9v-.3c1 .3 1.7 1.1 2.6 1.4.2.4.7.4 1 .7.8.7 1.3 1.6 1.6 2.6.1.2.2.5.6.6z" fill="#e45822"/><path d="M47.1 85.3v.2c-.1 1.4.1 2.8 0 4.1-.2 0-.3-.1-.4-.2-.9-2.8-2.5-5.2-3.5-8 .5-.4 1.1-.7 1.7-1 .6 1.6 1.6 3.1 1.9 4.8.1.1.2.1.3.1z" fill="#e45722"/><path d="M47.1 85.3c-.1 0-.2 0-.2-.1-.3-1.7-1.3-3.2-1.9-4.8.6-.3 1.1-.6 1.7-1 .1 1.1.7 2.1 1.2 3.1.6 1.2.6 1.2-.4 2.1-.3.3-.4.5-.4.7z" fill="#e85b26"/><path d="M64.3 97.7c-.2-.1-.4-.2-.5-.1-.7.4-1.2-.2-1.7-.4-.6-.1-.1-.7-.4-1-.2-.2-.3-.6-.4-1-.1-.3-.1-.6.3-.7.3-.1.5-.2.3-.5-.1-.3-.3-.2-.5-.1-.5.2-1.3-.4-1.4-1.1-.1-1.3-.6-2.2-1.9-2.6l1.8-1.2c2.2-1.2 4.4-2.5 6.6-3.7v10.2c0 .6-.2 1-.7 1.3l-1.5.9z" fill="#ee8b65"/><path d="M66.6 85.4c-2.2 1.2-4.4 2.5-6.6 3.7-.1-.2-.2-.3-.3-.5-1-2.2-2.1-4.4-3.1-6.7-.3-.7-.8-1.4-.4-2.3.4-.4.8-.3 1.2-.1 2.8 1.7 5.6 3.3 8.4 5 .3.2.8.3.8.8v.1z" fill="#e65923"/><path d="M56.1 79.5c-.4.9.1 1.6.4 2.3 1 2.2 2.1 4.5 3.1 6.7.1.2.2.3.3.5l-1.8 1.2c-.7.2-1 .6-.9 1.3.1 1.2 0 2.4 0 3.6-.6-.3-.5-1-.8-1.5-.5-1-.9-2.1-1.4-3.1-1.1-2.3-2.2-4.7-3.3-7-.3-.6-.2-1.1.5-1.5.4-.3.8-.7 1.2-1 .2 0 .4-.1.5-.3.8-.2 1.4-.9 2.2-1.2z" fill="#e95c26"/><path class="st6" d="M53.9 80.7c-.1.2-.2.3-.5.3 0-.3.2-.3.5-.3z"/><path d="M47.1 89.6c.1-1.4-.1-2.8 0-4.1.8-.5.8-.5 1.4.4.5.8.7 1.8 1.1 2.6.8 1.8 1.9 3.5 2.5 5.3.4 1.3 1.2 2.4 1.7 3.7.2.6.7 1.2 1 1.8.6 1.3.6 1.3-.7 1.2-.9-.3-1.6-1.1-2.6-1.4-.3-.4-.9-.5-1.2-.9.2-.2.4-.4.2-.7-.9-1.9-1.9-3.8-2.6-5.7-.1-.3-.3-.5-.6-.5-.2-.5-.2-1.1-.2-1.7z" fill="#ee602a"/><path d="M47.1 91.3c.3 0 .5.2.6.5.8 1.9 1.7 3.8 2.6 5.7.2.3 0 .5-.2.7-1-.4-1.9-1.1-2.8-1.6-.3-.2-.2-.5-.2-.8v-4.5z" fill="#f0612c"/></svg>