<svg version="1.1" id="Layer_1" xmlns="http://www.w3.org/2000/svg" x="0" y="0" viewBox="0 0 101.9 96.7" xml:space="preserve"><style>.st6{fill-rule:evenodd;clip-rule:evenodd;fill:#fb7f6b}</style><path d="M84.9 0H15.3c-3.2 0-5.7 2.5-5.7 5.7v69.8c0 3.2 2.5 5.7 5.7 5.7h41.4c.3 0 .6.1 1 .3l18.5 15.2.1-14.1c0-.7.6-1.4 1.5-1.4h7.4c3.2 0 5.7-2.5 5.7-5.7V5.7c-.3-3-2.8-5.7-6-5.7z" fill="#f4d4c9"/><linearGradient id="SVGID_1_" gradientUnits="userSpaceOnUse" x1="25.694" y1="40.118" x2="63.966" y2="40.118"><stop offset="0" stop-color="#ff6542"/><stop offset="1" stop-color="#ffb4a3"/></linearGradient><path d="M52.7 59.8C50.5 59 49 57 49 54.5c0-1.4.6-2.7 1.4-3.7-2.1-.8-3.5-2.8-3.5-5.2 0-2.4 1.4-4.4 3.5-5.2-.8-1-1.4-2.3-1.4-3.7 0-3.1 2.5-5.6 5.6-5.6h4.2c6.3-7.9 5.4-12.7 4.7-14.5-.8-1.8-2.1-2.6-3-2.7-.6 0-.9.2-1.2.6-2.9 4.9-7.3 8.2-11.1 11.1-.8.7-1.7 1.3-2.5 2-5.6 4.5-9.7 8.1-9.7 8.1l-.3.3h-7.2c-1.5 0-2.7 1.2-2.7 2.7V55c0 1.5 1.2 2.7 2.7 2.7h6.9l.3.8c1.7 4.9 6.7 8.2 12.3 8.2h4.5c-.7-.9-1.1-2.1-1.1-3.3 0-1.4.4-2.7 1.3-3.6z" fill="url(#SVGID_1_)"/><linearGradient id="SVGID_2_" gradientUnits="userSpaceOnUse" x1="51.271" y1="36.559" x2="70.107" y2="36.559"><stop offset="0" stop-color="#ff6542"/><stop offset="1" stop-color="#ffb4a3"/></linearGradient><path d="M66.8 33.3H54.6c-1.9 0-3.3 1.5-3.3 3.3s1.5 3.3 3.3 3.3h12.3c1.9 0 3.3-1.5 3.3-3.3-.1-1.8-1.5-3.3-3.4-3.3z" fill="url(#SVGID_2_)"/><linearGradient id="SVGID_3_" gradientUnits="userSpaceOnUse" x1="51.271" y1="54.453" x2="70.198" y2="54.453"><stop offset="0" stop-color="#ff6542"/><stop offset="1" stop-color="#ffb4a3"/></linearGradient><path d="M66.8 51.2H54.6c-1.9 0-3.3 1.5-3.3 3.3 0 1.9 1.5 3.3 3.3 3.3H67c1.9 0 3.3-1.5 3.3-3.3s-1.6-3.3-3.5-3.3z" fill="url(#SVGID_3_)"/><linearGradient id="SVGID_4_" gradientUnits="userSpaceOnUse" x1="53.614" y1="63.355" x2="66.172" y2="63.355"><stop offset="0" stop-color="#ff6542"/><stop offset="1" stop-color="#ffb4a3"/></linearGradient><path d="M62.9 60.1h-6c-1.9 0-3.3 1.5-3.3 3.3 0 1.9 1.5 3.3 3.3 3.3h6c1.9 0 3.3-1.5 3.3-3.3.1-1.8-1.4-3.3-3.3-3.3z" fill="url(#SVGID_4_)"/><linearGradient id="SVGID_5_" gradientUnits="userSpaceOnUse" x1="49.211" y1="45.461" x2="73.013" y2="45.461"><stop offset="0" stop-color="#ff6542"/><stop offset="1" stop-color="#ffb4a3"/></linearGradient><path d="M69.8 42.2H52.5c-1.9 0-3.3 1.5-3.3 3.3s1.5 3.3 3.3 3.3h17.2c1.9 0 3.3-1.5 3.3-3.3 0-1.8-1.4-3.3-3.2-3.3z" fill="url(#SVGID_5_)"/><path class="st6" d="M101.9 66.8L84.6 78l.4-22.7 16.9 11.5z"/><circle class="st6" cx="8.4" cy="19.4" r="8.4"/></svg>