<?xml version="1.0" encoding="utf-8"?>
<!-- Generator: Adobe Illustrator 26.0.3, SVG Export Plug-In . SVG Version: 6.00 Build 0)  -->
<svg version="1.1" id="Layer_1" xmlns="http://www.w3.org/2000/svg" xmlns:xlink="http://www.w3.org/1999/xlink" x="0px" y="0px"
	 viewBox="0 0 3141.3 904.9" style="enable-background:new 0 0 3141.3 904.9;" xml:space="preserve">
<style type="text/css">
	.st0{fill:#FFFFFF;}
</style>
<g>
	<path class="st0" d="M1566,177.7c-43.8-24-93.5-36.2-149.1-36.2c-57.9,0-109.3,12.3-153.7,37.4c-45,25.1-79.5,60.2-104,106.4
		c-24.6,46.2-36.8,99.4-36.8,160.2s12.9,114,38,160.2c25.1,46.2,60.2,81.8,104.6,107c44.4,25.1,95.3,38,151.4,38
		c69.6,0,127.4-17.5,174.2-52c46.8-34.5,78.9-78.9,97-133.3H1556c-26.9,54.9-73.7,82.4-139.1,82.4c-45.6,0-84.2-14-115.7-42.7
		c-31.6-28.6-49.1-66.1-52.6-113.4h450.7c2.9-18.1,4.1-38,4.7-60.2c0-57.3-12.3-107.6-36.2-151.4
		C1643.1,236.2,1609.2,202.3,1566,177.7z M1249.2,392.8c5.8-45.6,24-81.8,53.8-108.7c29.8-26.9,66.1-40.3,108.1-40.3
		c46.8,0,85.3,14,116.9,40.9c31,26.9,47.3,63.1,47.9,108.1H1249.2z"/>
	<path class="st0" d="M2000.3,637.7c-25.1,0-44.4-7.6-58.5-22.2c-14-14.6-21-35.7-21-63.7V280h153.1V173h-153.1V42.7h-133.9v512.6
		c0,62.5,17,110.5,51.4,143.2c34.5,32.7,83,49.1,145.6,49.1c25.1,0,49.1-2.9,71.3-9.4c22.2-6.4,41.5-15.8,57.3-28.6l-37.4-95.3
		C2055.2,630.1,2030.1,637.7,2000.3,637.7z"/>
	<path class="st0" d="M2310.7,253.1v-83.6h-127.4v571.7h133.9V464.1c0-56.7,14.6-100.5,43.8-130.9c29.2-30.4,70.1-45.6,122.2-45.6
		c9.4,0,19.3,0.6,31,2.9V163.1C2416.5,163.1,2348.7,192.9,2310.7,253.1z"/>
	<path class="st0" d="M3007.5,239.1c-22.8-25.1-49.7-43.8-80.7-56.7c-31-12.9-65.5-19.3-102.3-19.3c-55.5,0-105.2,12.3-149.1,36.2
		c-43.8,24.6-78.3,58.5-102.9,102.3s-36.8,95.3-36.8,153.7s12.3,109.9,36.8,154.3c24.6,44.4,59,78.9,102.9,102.9
		c43.8,24,93.5,36.2,149.1,36.2c39.2,0,74.8-7,107.6-20.5c32.1-13.4,59.6-33.9,81.8-60.8v73.7h127.4V169.5h-133.9V239.1z
		 M2961.3,584.5c-32.1,32.7-72.5,49.1-122.2,49.1c-49.1,0-90-16.4-121.6-49.1c-31.6-33.3-47.3-76-47.3-129.8s15.8-97,47.3-129.8
		c31.6-32.7,72.5-49.1,121.6-49.1c49.1,0,90,16.4,122.2,49.1c32.1,33.3,47.9,76,47.9,129.8S2993.4,551.8,2961.3,584.5z"/>
	<path class="st0" d="M830,192.9l-257.8-173C553,7,527.8,0,500.9,0c-32.1,0-62.5,8.8-85.3,24L237.3,145.6
		c21.6-12.3,48.5-18.7,76.6-18.7c26.3,0,52.6,7.6,71.3,19.9l257.8,173c33.9,22.8,52.6,53.2,52.6,85.3v278.8
		c0,32.1-18.7,62.5-52.6,85.3l-2.3,1.8c2.3-1.8,4.7-3.5,7-4.7l181.8-124.5c33.9-22.8,52.6-53.2,52.6-85.3V277.7
		C882.1,245.5,863.4,215.1,830,192.9z"/>
	<path class="st0" d="M579.3,778c-26.3,0-52.6-7.6-71.3-19.9l-257.8-173c-33.9-22.8-52.6-53.2-52.6-85.3V221
		c0-32.1,18.7-62.5,52.6-85.3l2.3-1.8c-2.3,1.8-4.7,3.5-7,4.7L52.6,263C18.7,285.8,0,316.2,0,348.4v278.8c0,32.1,18.7,62.5,52,84.8
		l257.8,173c19.3,12.9,44.4,19.9,71.3,19.9c32.1,0,62.5-8.8,85.3-24l189.4-121.6C634.2,771.6,607.3,778,579.3,778z"/>
</g>
</svg>
