<svg width="84" height="12" viewBox="0 0 84 12" fill="none" xmlns="http://www.w3.org/2000/svg">
<g id="Feedbuzz 1" clip-path="url(#clip0_3_355)">
<g id="Layer 2">
<g id="Layer 1">
<path id="Vector" d="M10.4076 12L16.9331 7.53335V2.94889L11.3622 6.76061L8.52829 2.77043L8.50358 2.78602L6.52547 0L0 4.46491V9.05458L5.57612 5.23765L10.4076 12Z" fill="#FF4089"/>
<path id="Vector_2" d="M20.7181 0.907837H27.6V2.72707H22.6874V5.38315H26.7954V7.18852H22.6874V10.853H20.7181V0.907837Z" fill="#212121"/>
<path id="Vector_3" d="M27.9829 7.28733C27.9829 5.12851 29.4881 3.36646 31.6145 3.36646C33.6702 3.36646 35.0448 4.87209 35.0448 7.37223C35.0472 7.50521 35.0425 7.63823 35.0307 7.77073H29.7775C29.8499 8.6942 30.7039 9.39071 32.0062 9.39071C32.9264 9.38385 33.8197 9.08481 34.5525 8.53827V10.2224C33.7759 10.7529 32.8518 11.036 31.9056 11.0332C29.5323 11.0246 27.9829 9.40457 27.9829 7.28733ZM33.222 6.47821C33.0773 5.55473 32.4544 4.88595 31.5421 4.88595C30.6298 4.88595 29.9663 5.54087 29.8058 6.47821H33.222Z" fill="#212121"/>
<path id="Vector_4" d="M36.0718 7.28733C36.0718 5.12851 37.577 3.36646 39.7051 3.36646C41.7591 3.36646 43.1337 4.87209 43.1337 7.37223C43.1361 7.50521 43.1314 7.63823 43.1196 7.77073H37.8664C37.9388 8.69421 38.7928 9.39071 40.0951 9.39071C41.0153 9.38385 41.9086 9.08481 42.6414 8.53827V10.2224C41.8648 10.753 40.9407 11.0361 39.9945 11.0332C37.6212 11.0246 36.0718 9.40457 36.0718 7.28733ZM41.3109 6.47821C41.1662 5.55473 40.5433 4.88595 39.6328 4.88595C38.7223 4.88595 38.0552 5.54087 37.8964 6.47821H41.3109Z" fill="#212121"/>
<path id="Vector_5" d="M44.1625 7.20242C44.1625 5.0436 45.6959 3.36644 47.5911 3.36644C48.0194 3.38062 48.4403 3.48007 48.8282 3.65877C49.2162 3.83747 49.5631 4.09169 49.848 4.406V0.421021H51.7891V10.853H50.0386V9.84464C49.4298 10.5377 48.5916 11.0245 47.7235 11.0245C45.7383 11.0245 44.1625 9.37684 44.1625 7.20242ZM48.0446 9.31966C49.1598 9.31966 49.9857 8.41005 49.9857 7.20242C49.9857 5.9948 49.1616 5.07132 48.0446 5.07132C46.9594 5.07132 46.1353 6.02252 46.1353 7.20242C46.1353 8.38233 46.9682 9.31966 48.0534 9.31966H48.0446Z" fill="#212121"/>
<path id="Vector_6" d="M55.463 9.81694V10.8565H53.7125V0.410645H55.6659V4.37484C55.9509 4.06669 56.2967 3.81846 56.6821 3.64515C57.0676 3.47184 57.4849 3.37703 57.9087 3.36646C59.818 3.36646 61.3373 5.04362 61.3373 7.18858C61.3373 9.36126 59.7756 11.0246 57.7922 11.0246C56.9241 11.0246 56.07 10.5134 55.463 9.81694ZM57.4605 9.31968C58.5316 9.31968 59.3557 8.38234 59.3557 7.20244C59.3557 6.02254 58.5316 5.0852 57.4605 5.0852C56.3312 5.0852 55.5071 6.00868 55.5071 7.20244C55.5071 8.3962 56.3312 9.31968 57.4605 9.31968Z" fill="#212121"/>
<path id="Vector_7" d="M63.4513 10.2709C62.9449 9.7511 62.6837 8.92118 62.6837 7.91281V3.53625H64.653V7.71356C64.653 8.19695 64.7677 8.70807 65.0712 9.00608C65.199 9.12383 65.3493 9.21543 65.5136 9.27552C65.6778 9.3356 65.8525 9.36299 66.0276 9.35606C67.0246 9.35606 67.6157 8.57466 67.6157 7.31159V3.53625H69.5974V10.853H67.6757V9.54665C67.1993 10.5134 66.4405 11.0246 65.3606 11.0246C65.0063 11.0371 64.6533 10.9766 64.3245 10.8467C63.9956 10.7169 63.6981 10.5207 63.4513 10.2709Z" fill="#212121"/>
<path id="Vector_8" d="M70.9473 9.30582L74.623 5.1701H71.2226V3.53625H76.894V5.12852L73.2483 9.23478H77.0528V10.853H70.9473V9.30582Z" fill="#212121"/>
<path id="Vector_9" d="M77.8927 9.30582L81.5684 5.1701H78.1715V3.53625H83.8429V5.12852L80.1938 9.23478H83.9947V10.853H77.8927V9.30582Z" fill="#212121"/>
</g>
</g>
</g>
<defs>
<clipPath id="clip0_3_355">
<rect width="84" height="12" fill="white"/>
</clipPath>
</defs>
</svg>
