<svg width="53" height="53" viewBox="0 0 53 53" fill="none" xmlns="http://www.w3.org/2000/svg">
<path d="M22.7412 45.947L23.4323 42.2593C23.5954 41.3888 23.4719 40.4891 23.0801 39.6947L20.0397 33.531C19.4988 32.4344 19.6239 31.1261 20.3629 30.1518C21.2748 28.9494 22.898 28.5392 24.2718 29.1639L29.0856 31.3532C32.874 33.076 37.2772 32.7627 40.7836 30.5209L41.0947 30.3217C42.3373 29.5272 43.467 28.5683 44.4528 27.4715L46.6504 25.0258" stroke="black" stroke-width="2.8"/>
<path d="M15.6102 10.6719L17.5512 17.1036C18.3626 19.7922 21.579 20.8836 23.8591 19.2441L25.2186 18.2666C27.6527 16.5164 30.9436 16.5583 33.3322 18.3701C35.2448 19.8207 37.9084 19.7484 39.7393 18.1961L43.0417 15.3963" stroke="black" stroke-width="2.8"/>
<path d="M44.3991 18.1494C49.149 27.779 45.1933 39.4359 35.5637 44.1859C25.9341 48.9358 14.2772 44.9801 9.52727 35.3505C4.77734 25.7209 8.73308 14.064 18.3627 9.31404C27.9923 4.5641 39.6492 8.51985 44.3991 18.1494Z" stroke="black" stroke-width="2.8"/>
</svg>
