<svg width="92" height="24" viewBox="0 0 92 24" fill="none" xmlns="http://www.w3.org/2000/svg">
<g id="Superviral 1" clip-path="url(#clip0_3_328)">
<g id="Layer 2">
<g id="Layer 1">
<path id="Vector" d="M19.2726 13.6596L20.1672 14.9358C20.4821 15.3747 20.6669 15.8998 20.6989 16.4467C20.7309 16.9936 20.6086 17.5382 20.3472 18.0137C20.0857 18.4891 19.6965 18.8745 19.2274 19.1226C18.7583 19.3706 18.2298 19.4704 17.7069 19.4097L16.2019 19.235C15.6336 19.1669 15.0592 19.288 14.5611 19.5809C14.063 19.8738 13.6668 20.3235 13.4294 20.8654L12.8189 22.3211C12.6066 22.8186 12.2603 23.2412 11.822 23.5379C11.3836 23.8345 10.8721 23.9924 10.3493 23.9924C9.82658 23.9924 9.31504 23.8345 8.87671 23.5379C8.43838 23.2412 8.09206 22.8186 7.87973 22.3211L7.26465 20.8654C7.03205 20.3215 6.63953 19.8686 6.14373 19.5721C5.64793 19.2756 5.07449 19.1507 4.50615 19.2156L2.99642 19.4097C2.47655 19.4669 1.9519 19.3659 1.48603 19.1189C1.02017 18.8719 0.633096 18.4895 0.371715 18.0181C0.110334 17.5466 -0.014134 17.0063 0.0133941 16.4627C0.0409221 15.9191 0.219265 15.3954 0.52681 14.9552L1.42612 13.679C1.7646 13.1975 1.94706 12.6162 1.94706 12.0195C1.94706 11.4227 1.7646 10.8415 1.42612 10.36L0.52681 9.06436C0.219265 8.62414 0.0409221 8.10048 0.0133941 7.55684C-0.014134 7.01321 0.110334 6.47292 0.371715 6.00146C0.633096 5.53 1.02017 5.1476 1.48603 4.9006C1.9519 4.6536 2.47655 4.55261 2.99642 4.60985L4.50615 4.78454C5.07566 4.84942 5.6502 4.72348 6.14628 4.42504C6.64236 4.1266 7.03413 3.6712 7.26465 3.12501L7.87973 1.66929C8.09206 1.17184 8.43838 0.74919 8.87671 0.452559C9.31504 0.155928 9.82658 -0.00195313 10.3493 -0.00195312C10.8721 -0.00195313 11.3836 0.155928 11.822 0.452559C12.2603 0.74919 12.6066 1.17184 12.8189 1.66929L13.4294 3.12501C13.6613 3.67111 14.054 4.12623 14.5508 4.42456C15.0475 4.72289 15.6225 4.84895 16.1925 4.78454L17.7069 4.60985C18.2275 4.55039 18.7534 4.64997 19.2205 4.89644C19.6876 5.14291 20.0757 5.52562 20.3376 5.99789C20.5994 6.47015 20.7236 7.01156 20.695 7.55606C20.6664 8.10057 20.4862 8.62465 20.1765 9.06436L19.2819 10.3405C18.942 10.821 18.7579 11.4017 18.7563 11.9985C18.7546 12.5952 18.9354 13.177 19.2726 13.6596Z" fill="url(#paint0_linear_3_328)"/>
<path id="Vector_2" d="M29.4863 12.131C29.0481 11.9385 28.5983 11.7764 28.1396 11.6457C27.7296 11.5244 27.4174 11.4225 27.2077 11.34C27.0103 11.2648 26.8285 11.1512 26.6718 11.0052C26.6013 10.9383 26.5453 10.8565 26.5076 10.7653C26.4698 10.6741 26.4511 10.5756 26.4528 10.4763C26.451 10.349 26.4805 10.2234 26.5384 10.1113C26.5963 9.9992 26.6807 9.90437 26.7837 9.83578C27.0638 9.65903 27.3886 9.57446 27.7156 9.59316C28.0734 9.57171 28.4268 9.68351 28.7127 9.90857C28.8346 10.01 28.9342 10.1374 29.0049 10.2822C29.0756 10.4269 29.1158 10.5858 29.1228 10.748H30.6884C30.6857 10.3945 30.6088 10.0458 30.4631 9.7265C30.3174 9.40715 30.1065 9.12482 29.845 8.89927C29.2515 8.4371 28.5208 8.20694 27.7808 8.24904C27.2588 8.23813 26.7402 8.33887 26.2571 8.54504C25.8492 8.7145 25.4944 8.99835 25.232 9.3651C24.9995 9.69947 24.8755 10.1023 24.8779 10.5151C24.8574 10.9652 24.9967 11.4074 25.2693 11.7573C25.5212 12.0652 25.8409 12.305 26.2012 12.4561C26.6578 12.6457 27.1246 12.8077 27.5991 12.9413C28.0394 13.0626 28.4682 13.225 28.8805 13.4266C29.0033 13.4809 29.1076 13.5724 29.1798 13.6892C29.2521 13.806 29.2891 13.9427 29.2859 14.0816C29.2862 14.2178 29.2529 14.3517 29.1893 14.4707C29.1256 14.5896 29.0338 14.6896 28.9224 14.761C28.6155 14.9536 28.2597 15.0449 27.902 15.023C27.5263 15.0372 27.157 14.9193 26.8536 14.6882C26.7222 14.5928 26.6125 14.4687 26.532 14.3245C26.4515 14.1804 26.4022 14.0196 26.3876 13.8536H24.7567C24.7693 14.321 24.9225 14.7725 25.1947 15.1443C25.4883 15.5285 25.8718 15.8276 26.3084 16.0129C27.3067 16.4471 28.4282 16.4593 29.435 16.0469C29.8385 15.8739 30.1872 15.5864 30.4415 15.2171C30.6787 14.8669 30.8027 14.4471 30.7956 14.0186C30.8075 13.5778 30.6669 13.1473 30.3995 12.8055C30.1476 12.512 29.8355 12.2815 29.4863 12.131Z" fill="black"/>
<path id="Vector_3" d="M37.7431 12.7376C37.7801 13.3265 37.5963 13.9074 37.2305 14.3583C37.0476 14.5477 36.8289 14.6956 36.5883 14.7925C36.3477 14.8894 36.0904 14.9332 35.8327 14.9211C35.5746 14.9362 35.3164 14.8938 35.0754 14.7968C34.8343 14.6997 34.6159 14.5502 34.4348 14.3583C34.074 13.905 33.8939 13.325 33.9315 12.7376V8.37039H32.4125V12.9947C32.3946 13.6291 32.5342 14.2575 32.8179 14.8192C33.0704 15.3057 33.4565 15.7028 33.9269 15.9596C34.4209 16.2236 34.9698 16.3569 35.5251 16.3477C35.9695 16.3488 36.4086 16.2478 36.8112 16.0518C37.1758 15.879 37.4954 15.6178 37.7431 15.2899V16.2167H39.3041V8.35583H37.7431V12.7376Z" fill="black"/>
<path id="Vector_4" d="M47.3699 8.73432C46.8231 8.40315 46.1991 8.23526 45.5667 8.24908C45.0299 8.23929 44.4989 8.36586 44.0197 8.61786C43.5987 8.83451 43.2294 9.14615 42.9386 9.53012V8.35583H41.373V19.9579H42.9386V15.0764C43.2386 15.4554 43.6117 15.7645 44.0336 15.9838C44.5085 16.2335 45.0348 16.3584 45.5667 16.3477C46.2032 16.3537 46.8284 16.172 47.3699 15.8237C47.9182 15.4713 48.3618 14.9674 48.6514 14.368C48.9684 13.7123 49.1283 12.9864 49.1173 12.2523C49.13 11.5243 48.9699 10.8043 48.6514 10.1561C48.3581 9.5683 47.9147 9.07628 47.3699 8.73432ZM47.2069 13.6789C47.0101 14.0651 46.7151 14.3874 46.3541 14.6106C46.0142 14.8251 45.624 14.9376 45.2265 14.9357C44.8335 14.9358 44.4475 14.827 44.1082 14.6203C43.747 14.4033 43.4528 14.0835 43.2601 13.6983C43.0395 13.262 42.9288 12.7745 42.9386 12.2814C42.9265 11.7897 43.0373 11.3031 43.2601 10.8694C43.4557 10.4877 43.7494 10.1702 44.1082 9.95228C44.4478 9.74708 44.8339 9.63988 45.2265 9.64172C45.6215 9.6399 46.0101 9.74526 46.3541 9.94742C46.7125 10.159 47.0076 10.4697 47.2069 10.8451C47.4297 11.2771 47.5405 11.7621 47.5284 12.2523C47.5398 12.7486 47.4291 13.2397 47.2069 13.6789Z" fill="black"/>
<path id="Vector_5" d="M55.8179 8.73427C55.2338 8.40317 54.577 8.23596 53.9121 8.24903C53.2275 8.23166 52.5501 8.39881 51.9457 8.73427C51.3792 9.06284 50.9175 9.55713 50.6177 10.156C50.2939 10.8161 50.1337 11.5501 50.1518 12.2911C50.1294 13.031 50.2899 13.7645 50.6177 14.4213C50.924 15.0213 51.3899 15.5167 51.9597 15.8479C52.5534 16.185 53.2222 16.3524 53.8981 16.3331C54.6933 16.3606 55.4754 16.1169 56.1254 15.6392C56.7086 15.1986 57.1425 14.5769 57.3649 13.8633H55.6781C55.5231 14.2124 55.2699 14.5042 54.952 14.7001C54.6341 14.8959 54.2666 14.9866 53.8981 14.9599C53.3476 14.9809 52.8117 14.7734 52.408 14.3831C52.0043 13.9927 51.766 13.4515 51.7454 12.8782H57.514C57.5532 12.6133 57.5719 12.3456 57.5699 12.0776C57.5835 11.3742 57.423 10.6791 57.104 10.059C56.802 9.50141 56.3566 9.04264 55.8179 8.73427ZM51.7733 11.602C51.8206 11.0452 52.0647 10.5264 52.4583 10.1463C52.8419 9.78932 53.3419 9.59838 53.8562 9.61256C54.4023 9.59394 54.9355 9.78768 55.3519 10.156C55.552 10.3357 55.7111 10.5597 55.8175 10.8115C55.9239 11.0633 55.975 11.3367 55.967 11.6117L51.7733 11.602Z" fill="black"/>
<path id="Vector_6" d="M60.6779 9.49612V8.35581H59.1169V16.2167H60.6779V12.0825C60.6143 11.4792 60.7818 10.8742 61.1439 10.3987C61.334 10.2248 61.5557 10.0922 61.7957 10.0089C62.0358 9.92555 62.2895 9.89309 62.5418 9.91343H62.9425V8.24905C62.4717 8.23593 62.0059 8.35136 61.5912 8.58387C61.216 8.80037 60.9013 9.11473 60.6779 9.49612Z" fill="black"/>
<path id="Vector_7" d="M67.2993 14.761L65.1605 8.35583H63.4877L66.3533 16.2167H68.2172L71.0922 8.35583H69.4334L67.2993 14.761Z" fill="black"/>
<path id="Vector_8" d="M73.8321 8.35583H72.2711V16.2167H73.8321V8.35583Z" fill="black"/>
<path id="Vector_9" d="M77.4526 9.49612V8.35581H75.887V16.2167H77.4526V12.0825C77.389 11.4792 77.5565 10.8742 77.9186 10.3987C78.1087 10.2248 78.3304 10.0922 78.5704 10.0089C78.8105 9.92555 79.0642 9.89309 79.3165 9.91343H79.7172V8.24905C79.2464 8.23593 78.7806 8.35136 78.3659 8.58387C77.9903 8.79982 77.6755 9.11431 77.4526 9.49612Z" fill="black"/>
<path id="Vector_10" d="M86.8092 9.4961C86.5194 9.11745 86.1536 8.8094 85.7375 8.59355C85.2552 8.34113 84.7207 8.21614 84.1812 8.22962C83.5501 8.21518 82.9275 8.38314 82.3825 8.71486C81.835 9.05622 81.3884 9.54816 81.0918 10.1366C80.771 10.784 80.6108 11.5046 80.6258 12.2329C80.6126 12.9672 80.7726 13.6936 81.0918 14.3485C81.3827 14.9469 81.826 15.4505 82.3732 15.8042C82.9066 16.1516 83.5241 16.3334 84.1532 16.3283C84.6965 16.3382 85.2339 16.2099 85.7188 15.9547C86.1447 15.7418 86.5178 15.4297 86.8092 15.0424V16.2118H88.3841V8.35579H86.8092V9.4961ZM86.4877 13.6983C86.294 14.0811 86.002 14.4003 85.6443 14.6202C85.3036 14.8275 84.9159 14.9364 84.5213 14.9356C84.127 14.9357 83.7402 14.8233 83.403 14.6105C83.0435 14.387 82.75 14.0647 82.5549 13.6789C82.3327 13.2397 82.222 12.7486 82.2334 12.2523C82.2212 11.7621 82.3321 11.277 82.5549 10.8451C82.7532 10.4689 83.0486 10.1579 83.4076 9.94738C83.7498 9.74477 84.137 9.63935 84.5306 9.64167C84.9248 9.6392 85.3125 9.74642 85.6536 9.95223C86.0091 10.173 86.3005 10.4899 86.497 10.8693C86.7198 11.3031 86.8306 11.7896 86.8185 12.2814C86.8254 12.7753 86.7116 13.2629 86.4877 13.6983Z" fill="black"/>
<path id="Vector_11" d="M92 5.65784H90.439V16.2167H92V5.65784Z" fill="black"/>
<path id="Vector_12" d="M73.8368 5.86658H72.2711V7.49699H73.8368V5.86658Z" fill="black"/>
</g>
</g>
</g>
<defs>
<linearGradient id="paint0_linear_3_328" x1="4.42227" y1="4.31871" x2="17.4474" y2="19.8887" gradientUnits="userSpaceOnUse">
<stop stop-color="#C43B56"/>
<stop offset="0.15" stop-color="#BD385E"/>
<stop offset="0.39" stop-color="#A92E72"/>
<stop offset="0.67" stop-color="#881E94"/>
<stop offset="0.99" stop-color="#5B09C3"/>
<stop offset="1" stop-color="#5908C5"/>
</linearGradient>
<clipPath id="clip0_3_328">
<rect width="92" height="24" fill="white"/>
</clipPath>
</defs>
</svg>
