<svg width="54" height="18" viewBox="0 0 54 18" fill="none" xmlns="http://www.w3.org/2000/svg">
<g id="Tikoid_1 1" clip-path="url(#clip0_3_343)">
<g id="Layer 2">
<g id="Layer 1">
<path id="Vector" d="M19.3434 14.7465C18.6449 14.8005 17.9522 14.5802 17.3986 14.128C17.1699 13.8982 16.992 13.6182 16.8774 13.3078C16.7628 12.9974 16.7144 12.6642 16.7356 12.3319V8.2396H15.1284V6.44765H16.7356V4.36339L18.7447 3.87622V6.44765H20.9788V8.2396H18.7608V11.8616C18.7477 12.0063 18.7627 12.1523 18.8049 12.2906C18.847 12.429 18.9154 12.5569 19.0059 12.6665C19.2425 12.8555 19.5382 12.9433 19.8336 12.9122C20.0204 12.9137 20.2071 12.901 20.3921 12.8741C20.5757 12.8423 20.757 12.797 20.9346 12.7385V14.4966C20.6817 14.5795 20.4221 14.6377 20.1591 14.6703C19.8891 14.7144 19.6166 14.7399 19.3434 14.7465Z" fill="black"/>
<path id="Vector_2" d="M23.0039 5.47746C22.6942 5.47411 22.3982 5.34172 22.1807 5.10919C21.9631 4.87666 21.8416 4.56285 21.8427 4.23623C21.8413 4.07784 21.871 3.92086 21.9297 3.77508C21.9885 3.6293 22.0751 3.49786 22.1842 3.38897C22.3976 3.16448 22.6865 3.03807 22.9879 3.03736C23.1373 3.03679 23.2853 3.06758 23.4232 3.12795C23.5612 3.18832 23.6864 3.27705 23.7915 3.38897C23.8988 3.4989 23.9837 3.63072 24.041 3.77639C24.0984 3.92207 24.1269 4.07853 24.125 4.23623C24.1294 4.39869 24.102 4.56036 24.0446 4.71121C23.9873 4.86205 23.9011 4.99886 23.7915 5.11314C23.69 5.22629 23.568 5.31682 23.4327 5.3794C23.2974 5.44198 23.1516 5.47532 23.0039 5.47746ZM21.9914 14.6236V6.44758H24.0286V14.6236H21.9914Z" fill="black"/>
<path id="Vector_3" d="M25.6198 14.6236V3.63889L27.661 3.27881V9.88319L31.0242 6.44755H33.3507L29.654 10.167L33.5516 14.6067H30.9398L27.665 10.8872V14.6067L25.6198 14.6236Z" fill="black"/>
<path id="Vector_4" d="M37.184 14.7804C36.4502 14.7891 35.727 14.5948 35.0865 14.217C34.4719 13.8522 33.9591 13.3233 33.5998 12.6834C33.2304 12.0385 33.0397 11.2974 33.0493 10.5441C33.0382 9.78524 33.2289 9.03826 33.5998 8.38782C33.9579 7.75021 34.4712 7.22513 35.0865 6.867C35.7315 6.49993 36.453 6.30774 37.186 6.30774C37.919 6.30774 38.6405 6.49993 39.2855 6.867C39.8986 7.22823 40.4112 7.7526 40.7722 8.38782C41.1302 9.0407 41.3187 9.7815 41.3187 10.5356C41.3187 11.2897 41.1302 12.0306 40.7722 12.6834C40.414 13.3228 39.9027 13.8516 39.2895 14.217C38.6464 14.5955 37.9205 14.7897 37.184 14.7804ZM37.184 12.9122C37.5728 12.9195 37.9553 12.8076 38.285 12.5902C38.6098 12.3848 38.8773 12.0925 39.0605 11.743C39.2524 11.3732 39.3494 10.957 39.3418 10.5356C39.3511 10.1103 39.2511 9.69017 39.0524 9.31981C38.8677 8.97147 38.6006 8.67956 38.2769 8.47255C37.9533 8.26282 37.5799 8.15412 37.2001 8.15906C36.8126 8.15413 36.4315 8.26265 36.0991 8.47255C35.7737 8.67721 35.506 8.96969 35.3236 9.31981C35.1388 9.68941 35.0423 10.1009 35.0423 10.5187C35.0423 10.9365 35.1388 11.348 35.3236 11.7175C35.5061 12.0648 35.7704 12.3567 36.0911 12.5648C36.4159 12.7896 36.7955 12.9102 37.184 12.9122Z" fill="black"/>
<path id="Vector_5" d="M43.5849 5.47746C43.2752 5.47411 42.9792 5.34172 42.7617 5.10919C42.5441 4.87666 42.4226 4.56285 42.4237 4.23623C42.4223 4.07784 42.452 3.92086 42.5107 3.77508C42.5695 3.6293 42.6561 3.49786 42.7652 3.38897C42.9786 3.16448 43.2675 3.03807 43.5689 3.03736C43.7182 3.03679 43.8662 3.06758 44.0042 3.12795C44.1422 3.18832 44.2674 3.27705 44.3725 3.38897C44.4803 3.49869 44.5658 3.63038 44.6238 3.77603C44.6819 3.92169 44.7112 4.07826 44.71 4.23623C44.7136 4.39896 44.6855 4.56074 44.6275 4.71157C44.5694 4.8624 44.4826 4.99907 44.3725 5.11314C44.271 5.22629 44.149 5.31682 44.0137 5.3794C43.8784 5.44198 43.7326 5.47532 43.5849 5.47746ZM42.5925 14.6236V6.44758H44.6015V14.6236H42.5925Z" fill="black"/>
<path id="Vector_6" d="M49.789 14.7337C49.0826 14.7471 48.3867 14.5519 47.7799 14.1703C47.1908 13.801 46.7012 13.2789 46.3575 12.6537C46.0033 12.0109 45.8214 11.2788 45.8311 10.5356C45.8241 9.79752 46.0045 9.07092 46.3535 8.43109C46.7025 7.79125 47.2075 7.26146 47.8161 6.8966C48.4355 6.52717 49.1377 6.3399 49.8492 6.35436C50.2245 6.35279 50.5981 6.40844 50.9583 6.51957C51.3117 6.63162 51.6495 6.79259 51.9628 6.99827V3.27881H54V14.6236H51.9909V13.95C51.3635 14.469 50.5864 14.7456 49.789 14.7337ZM50.1185 12.8952C50.4693 12.8981 50.8173 12.8291 51.1431 12.6918C51.4472 12.561 51.7212 12.3631 51.9467 12.1115V8.92578C51.7169 8.68583 51.4436 8.4971 51.1431 8.37083C50.8162 8.23844 50.4686 8.17232 50.1185 8.17596C49.7153 8.16923 49.3176 8.27443 48.9652 8.48097C48.629 8.68074 48.3511 8.97375 48.1616 9.32823C47.9641 9.69654 47.8603 10.1125 47.8603 10.5356C47.8603 10.9587 47.9641 11.3746 48.1616 11.7429C48.359 12.1037 48.6449 12.4018 48.9892 12.606C49.3335 12.8102 49.7235 12.913 50.1185 12.9037V12.8952Z" fill="black"/>
<path id="Vector_7" d="M7.3779 1.37675V7.14234H4.99513C4.64985 7.14234 4.31871 7.28695 4.07456 7.54435C3.83041 7.80176 3.69325 8.15087 3.69325 8.5149V10.8533H1.84088C1.50599 10.8528 1.17761 10.7559 0.891093 10.5731C0.60458 10.3903 0.370803 10.1286 0.214952 9.81607C0.0591006 9.50357 -0.0129177 9.15216 0.00665644 8.7997C0.0262306 8.44725 0.136655 8.1071 0.326033 7.81591L4.99513 0.614217C5.15056 0.370134 5.37622 0.185114 5.63888 0.0864005C5.90154 -0.0123129 6.18733 -0.0195038 6.45415 0.0658869C6.72098 0.151277 6.95476 0.324737 7.12105 0.560726C7.28735 0.796714 7.37738 1.08276 7.3779 1.37675Z" fill="url(#paint0_linear_3_343)"/>
<path id="Vector_8" d="M7.37734 7.14233V9.48077C7.37628 9.84445 7.23877 10.1929 6.99485 10.4501C6.75093 10.7072 6.42041 10.8522 6.07545 10.8533H3.69269V8.51489C3.69269 8.15087 3.82985 7.80175 4.074 7.54435C4.31815 7.28694 4.64929 7.14233 4.99457 7.14233H7.37734Z" fill="#E60157"/>
<path id="Vector_9" opacity="0.8" d="M10.7446 10.167L6.07545 17.3687C5.91771 17.6112 5.69051 17.794 5.4271 17.8905C5.16369 17.9869 4.87791 17.992 4.61159 17.9048C4.34526 17.8177 4.11239 17.643 3.94704 17.4063C3.78169 17.1696 3.69256 16.8832 3.69269 16.5893V10.8533H6.07545C6.42041 10.8522 6.75093 10.7072 6.99485 10.4501C7.23877 10.1929 7.37628 9.84445 7.37734 9.48077V7.14233H9.24176C9.57313 7.14812 9.8969 7.24795 10.179 7.4313C10.4611 7.61465 10.6912 7.87477 10.845 8.18428C10.9987 8.4938 11.0706 8.84128 11.0529 9.19019C11.0352 9.53911 10.9287 9.87655 10.7446 10.167Z" fill="url(#paint1_linear_3_343)"/>
</g>
</g>
</g>
<defs>
<linearGradient id="paint0_linear_3_343" x1="3.62494" y1="10.4805" x2="3.93309" y2="-0.181312" gradientUnits="userSpaceOnUse">
<stop stop-color="#ED28B0"/>
<stop offset="1" stop-color="#F51434"/>
</linearGradient>
<linearGradient id="paint1_linear_3_343" x1="3.69269" y1="12.569" x2="11.066" y2="12.569" gradientUnits="userSpaceOnUse">
<stop stop-color="#ED28B0"/>
<stop offset="1" stop-color="#F51434"/>
</linearGradient>
<clipPath id="clip0_3_343">
<rect width="54" height="18" fill="white"/>
</clipPath>
</defs>
</svg>
