<svg width="74" height="18" viewBox="0 0 74 18" fill="none" xmlns="http://www.w3.org/2000/svg">
<g id="Tokpop 1" clip-path="url(#clip0_3_377)">
<g id="Layer 2">
<g id="Layer 1">
<path id="Vector" d="M22.1576 12.8438C21.6527 12.7574 21.1163 12.7092 20.6177 12.8837C19.9093 13.1297 19.4029 13.8145 19.0636 14.521C18.7244 15.2274 18.4972 16.0003 18.0981 16.6818C17.6989 17.3633 17.071 17.9534 16.3168 18.0016C15.2976 18.0648 14.4677 17.134 13.9928 16.1732C13.5179 15.2125 13.2071 14.1287 12.464 13.384C12.1156 13.0116 11.6535 12.7809 11.1592 12.7324H11.0015C10.5067 12.7805 10.044 13.0113 9.69512 13.384C9.47493 13.6113 9.28445 13.8684 9.12871 14.1486C8.75164 14.7836 8.49762 15.5083 8.17103 16.1749C7.69772 17.129 6.86468 18.0598 5.84547 18.0033C5.09132 17.9551 4.45707 17.3584 4.0658 16.6835C3.67452 16.0086 3.43471 15.2357 3.09865 14.5226C2.76259 13.8096 2.24826 13.1314 1.53986 12.8837C1.0413 12.7092 0.504872 12.7574 0 12.8438C2.59693 9.74103 5.19808 6.63825 7.80342 3.53547C8.67748 2.49327 9.54681 1.44941 10.4224 0.408867C10.5455 0.233585 10.7127 0.0982373 10.9052 0.0182495C11.0202 -0.00168864 11.1374 -0.00168864 11.2523 0.0182495C11.4448 0.0982373 11.6121 0.233585 11.7351 0.408867L22.1576 12.8438Z" fill="#6200F5"/>
<path id="Vector_2" d="M22.1576 12.8438C21.6527 12.7574 21.1163 12.7092 20.6177 12.8837C19.9093 13.1297 19.4029 13.8145 19.0636 14.521C18.7244 15.2274 18.4972 16.0003 18.0981 16.6818C17.6989 17.3633 17.071 17.9534 16.3168 18.0016C15.2976 18.0648 14.4677 17.134 13.9928 16.1732C13.5179 15.2125 13.2071 14.1287 12.464 13.384C12.1156 13.0116 11.6535 12.7809 11.1592 12.7324H11.0015C10.5067 12.7805 10.044 13.0113 9.69512 13.384C9.47493 13.6113 9.28445 13.8684 9.12871 14.1486C8.0963 12.6305 7.43558 10.8674 7.20522 9.01566C6.97485 7.16394 7.18196 5.28095 7.80816 3.53381C8.67748 2.49327 9.54681 1.44941 10.4224 0.408867C10.5455 0.233585 10.7127 0.0982373 10.9052 0.0182495C11.0202 -0.00168864 11.1374 -0.00168864 11.2523 0.0182495C11.4448 0.0982373 11.6121 0.233585 11.7351 0.408867L22.1576 12.8438Z" fill="#FF1268"/>
<path id="Vector_3" d="M24.4752 2.20898H32.8372V4.1787H29.5965V13.4638H27.6717V4.1787H24.4752V2.20898Z" fill="#191919"/>
<path id="Vector_4" d="M35.9579 5.49516C36.646 5.49307 37.3225 5.68228 37.919 6.04369C38.5126 6.39547 39.0062 6.90791 39.3487 7.52802C39.6913 8.14814 39.8704 8.8534 39.8675 9.57088C39.8714 10.2954 39.6923 11.0079 39.3484 11.6353C39.0137 12.2613 38.5226 12.7787 37.9285 13.1313C37.3318 13.4857 36.6571 13.6686 35.9721 13.6616C35.4658 13.67 34.9633 13.5682 34.4961 13.3626C34.0289 13.1569 33.607 12.8519 33.2569 12.4664C32.8934 12.0908 32.6064 11.6411 32.4135 11.1446C32.2206 10.6482 32.1259 10.1155 32.1351 9.5792C32.1231 9.00698 32.2298 8.4389 32.4478 7.91464C32.6658 7.39039 32.9898 6.92262 33.3973 6.54401C34.0916 5.86139 35.0083 5.4859 35.9579 5.49516ZM35.9879 7.32359C35.7198 7.31571 35.4531 7.36795 35.2056 7.47684C34.9581 7.58574 34.7354 7.7488 34.5522 7.95522C34.3602 8.17137 34.2108 8.42542 34.1125 8.70272C34.0142 8.98002 33.969 9.27508 33.9794 9.57088C33.9668 9.87197 34.0108 10.1727 34.1091 10.4557C34.2074 10.7388 34.358 10.9984 34.5522 11.2198C34.7356 11.4256 34.9585 11.5881 35.206 11.6964C35.4535 11.8047 35.72 11.8564 35.9879 11.8481C36.2576 11.8555 36.5258 11.8027 36.7749 11.6933C37.0239 11.5839 37.2482 11.4203 37.4331 11.2131C37.627 10.9942 37.7779 10.7369 37.877 10.4562C37.9761 10.1754 38.0215 9.87682 38.0105 9.57753C38.022 9.28091 37.9779 8.98481 37.8808 8.70615C37.7836 8.4275 37.6352 8.17176 37.4441 7.95356C37.2568 7.7474 37.0302 7.58528 36.7793 7.47786C36.5283 7.37044 36.2586 7.32013 35.9879 7.33023V7.32359Z" fill="#191919"/>
<path id="Vector_5" d="M41.0761 2.20898H42.9267V8.89769L45.6499 5.69462H47.9739L44.7979 9.41796L48.3541 13.4638H46.0569L42.9267 9.88172V13.4638H41.0761V2.20898Z" fill="#191919"/>
<path id="Vector_6" d="M50.9494 5.69465V6.55069C51.26 6.21709 51.6278 5.94861 52.0333 5.75948C52.4277 5.58217 52.8525 5.49221 53.2813 5.49519C53.7448 5.48995 54.2038 5.59032 54.627 5.78943C55.0502 5.98854 55.4275 6.28168 55.7331 6.64876C56.4063 7.41448 56.7429 8.3974 56.7429 9.59751C56.77 10.6713 56.3928 11.7128 55.6937 12.4947C55.3834 12.8627 55.0023 13.1568 54.5758 13.3574C54.1492 13.558 53.6869 13.6606 53.2198 13.6583C52.8137 13.6621 52.4109 13.5807 52.0349 13.4189C51.6285 13.2315 51.2583 12.9667 50.9431 12.6377V16.2945H49.113V5.69465H50.9494ZM52.8948 7.29369C52.6248 7.28559 52.3562 7.33733 52.1065 7.44557C51.8567 7.55381 51.6313 7.71613 51.4449 7.92201C51.25 8.1416 51.0987 8.39997 50.9998 8.68197C50.9009 8.96397 50.8564 9.26393 50.869 9.56426C50.8428 10.1806 51.0499 10.7826 51.4449 11.2381C51.6299 11.4465 51.8548 11.6112 52.1048 11.7213C52.3547 11.8313 52.624 11.8842 52.8948 11.8764C53.1616 11.8805 53.4261 11.8249 53.6709 11.7131C53.9157 11.6014 54.1352 11.436 54.3147 11.2281C54.7081 10.7761 54.9162 10.1787 54.8938 9.56593C54.916 8.96195 54.7113 8.37309 54.3242 7.92699C54.1419 7.72112 53.9202 7.55825 53.6739 7.44909C53.4275 7.33994 53.162 7.28698 52.8948 7.29369Z" fill="#191919"/>
<path id="Vector_7" d="M61.4224 5.49526C62.1105 5.4934 62.7869 5.68259 63.3835 6.04379C63.9764 6.39637 64.4694 6.90899 64.8119 7.52892C65.1543 8.14885 65.3339 8.85371 65.332 9.57098C65.3359 10.2955 65.1568 11.008 64.8129 11.6354C64.4803 12.2603 63.9921 12.7776 63.4009 13.1314C62.8003 13.4916 62.1197 13.6774 61.4287 13.67C60.9231 13.6762 60.4218 13.5726 59.956 13.3655C59.4901 13.1585 59.0698 12.8524 58.7213 12.4665C58.3578 12.0909 58.0709 11.6412 57.878 11.1447C57.6851 10.6483 57.5904 10.1156 57.5996 9.57929C57.5879 9.00713 57.6947 8.43915 57.9127 7.91495C58.1307 7.39075 58.4546 6.92293 58.8617 6.54411C59.5564 5.86207 60.4729 5.48668 61.4224 5.49526ZM61.4524 7.32368C61.1842 7.31581 60.9176 7.36805 60.6701 7.47694C60.4226 7.58584 60.1998 7.7489 60.0166 7.95532C59.8244 8.17134 59.6747 8.42533 59.5761 8.70263C59.4775 8.97994 59.4321 9.27507 59.4423 9.57098C59.43 9.87061 59.4737 10.1699 59.5712 10.4517C59.6687 10.7335 59.8179 10.9922 60.0103 11.2132C60.1938 11.4191 60.4167 11.5815 60.6642 11.6898C60.9117 11.7981 61.1782 11.8498 61.4461 11.8416C61.7158 11.8489 61.984 11.7962 62.2331 11.6868C62.4821 11.5773 62.7064 11.4137 62.8913 11.2066C63.0852 10.9876 63.2361 10.7303 63.3352 10.4496C63.4343 10.1689 63.4797 9.87027 63.4687 9.57098C63.4803 9.27422 63.436 8.97797 63.3386 8.69927C63.2411 8.42058 63.0923 8.16492 62.9007 7.94701C62.714 7.74277 62.4885 7.58229 62.2389 7.47604C61.9894 7.36978 61.7214 7.32013 61.4524 7.33033V7.32368Z" fill="#191919"/>
<path id="Vector_8" d="M68.205 5.69466V6.55069C68.5158 6.21667 68.8842 5.94814 69.2905 5.75948C69.6843 5.58203 70.1086 5.49206 70.5369 5.49519C71.0006 5.48993 71.4598 5.59029 71.8833 5.78939C72.3067 5.98849 72.6843 6.28164 72.9903 6.64876C73.6603 7.41227 73.9953 8.39352 73.9953 9.59252C74.0247 10.6673 73.6492 11.7107 72.9508 12.4947C72.6409 12.8626 72.2601 13.1567 71.8338 13.3574C71.4074 13.558 70.9454 13.6606 70.4785 13.6583C70.0719 13.662 69.6686 13.5806 69.2921 13.4189C68.8859 13.231 68.5158 12.9662 68.2003 12.6377V16.2945H66.3701V5.69466H68.205ZM70.1504 7.2937C69.8804 7.2858 69.6119 7.33763 69.3621 7.44586C69.1124 7.55409 68.887 7.71629 68.7004 7.92201C68.5058 8.14181 68.3547 8.40022 68.2558 8.68217C68.157 8.96411 68.1123 9.26397 68.1246 9.56427C68.0983 10.1806 68.3055 10.7826 68.7004 11.2381C68.8855 11.4465 69.1105 11.6111 69.3604 11.7211C69.6103 11.8311 69.8796 11.8841 70.1504 11.8764C70.4171 11.8805 70.6817 11.8249 70.9265 11.7131C71.1713 11.6014 71.3907 11.436 71.5703 11.2281C71.9637 10.7761 72.1717 10.1787 72.1493 9.56593C72.1713 8.96229 71.9673 8.37373 71.5813 7.92699C71.3988 7.72091 71.1769 7.55791 70.9303 7.44875C70.6836 7.33959 70.4178 7.28674 70.1504 7.2937Z" fill="#191919"/>
</g>
</g>
</g>
<defs>
<clipPath id="clip0_3_377">
<rect width="74" height="18" fill="white"/>
</clipPath>
</defs>
</svg>
