<svg width="183" height="164" viewBox="0 0 183 164" fill="none" xmlns="http://www.w3.org/2000/svg">
<g id="Group 30">
<g id="Group 18">
<g id="Group 15">
<g id="Group 4">
<g id="Group" filter="url(#filter0_d_186_2)">
<path id="Vector" d="M105.239 160.843C146.398 160.843 179.765 127.087 179.765 85.4478C179.765 43.8083 146.398 10.0527 105.239 10.0527C64.0798 10.0527 30.7136 43.8083 30.7136 85.4478C30.7136 127.087 64.0798 160.843 105.239 160.843Z" fill="white"/>
</g>
<path id="Vector_2" d="M34.6721 69.3288C53.8209 69.3288 69.3442 53.809 69.3442 34.6644C69.3442 15.5198 53.8209 0 34.6721 0C15.5232 0 0 15.5198 0 34.6644C0 53.809 15.5232 69.3288 34.6721 69.3288Z" fill="#2C2C2C"/>
<g id="Group 23">
<path id="Star 1" d="M30.7485 16.3867C32.353 13.0261 36.9913 13.0261 38.5957 16.3867L40.2011 19.7493C40.9838 21.3886 42.645 22.3795 44.4105 22.2601L48.0318 22.0152C51.6511 21.7705 53.9702 25.9205 51.9554 29.0363L49.9395 32.154C48.9567 33.6739 48.9567 35.6558 49.9395 37.1757L51.9554 40.2934C53.9702 43.4093 51.6511 47.5593 48.0318 47.3145L44.4105 47.0696C42.645 46.9502 40.9838 47.9412 40.2011 49.5804L38.5957 52.943C36.9913 56.3037 32.353 56.3037 30.7485 52.943L29.1431 49.5804C28.3605 47.9412 26.6992 46.9502 24.9338 47.0696L21.3124 47.3145C17.6932 47.5593 15.374 43.4093 17.3888 40.2934L19.4048 37.1757C20.3876 35.6558 20.3876 33.6739 19.4048 32.154L17.3888 29.0363C15.374 25.9205 17.6932 21.7705 21.3124 22.0152L24.9338 22.2601C26.6992 22.3795 28.3605 21.3886 29.1431 19.7493L30.7485 16.3867Z" fill="white"/>
</g>
</g>
</g>
</g>
<path id="Vector_3" d="M133.696 97.9085C138.005 100.241 140.466 104.396 140.158 108.552C139.951 111.085 139.849 111.189 136.567 111.595C134.516 111.899 121.592 112 108.26 112C93.1828 112 77.39 111.695 76.261 111.39C71.7483 110.274 74.2098 102.165 80.16 98.314C84.7744 95.375 94.2101 90.9147 96.7766 90.4054C100.265 89.695 100.676 87.567 96.7766 80.6737C95.8544 79.1523 94.8271 74.4908 94.7254 69.625C94.6236 61.7164 96.1629 56.3445 103.137 53.7104C104.575 53.2044 106.009 53 107.341 53C111.956 53 116.265 55.5335 118.008 59.2867C120.571 64.2531 119.547 77.5336 116.879 82.2989C113.8 87.6708 114.109 89.3965 117.496 90.3081C119.754 90.9179 126.728 94.1618 133.702 97.9118L133.696 97.9085ZM77.902 94.869C76.261 95.9849 74.7217 97.4025 73.491 98.8233C69.592 98.8233 66.6185 98.7227 66.31 98.6189C63.7468 98.0091 65.181 93.3476 68.568 91.3202C71.1313 89.6982 76.3627 87.1647 77.8002 86.8598C79.648 86.4543 80.0582 85.3384 77.8002 81.4879C77.2882 80.6769 76.6712 78.0396 76.6712 75.305C76.5695 70.8447 77.4917 67.8019 81.3907 66.4849C84.6727 65.2684 88.3649 66.7898 89.6974 69.5277C91.0299 72.3661 90.3144 79.6648 88.8769 82.3021C87.2359 85.4455 87.5444 86.2564 89.3889 86.7625C89.7991 86.863 90.6196 87.2685 91.7486 87.7778C87.2359 89.6041 81.0822 92.9486 77.902 94.8755V94.869ZM145.389 91.0152C147.851 92.3323 149.183 94.5641 148.98 96.8964C148.878 98.3172 148.878 98.4178 147.03 98.6189C146.518 98.7195 144.158 98.8233 141.08 98.8233C139.747 97.1008 137.9 95.4788 135.645 94.3629C131.441 91.93 126.311 89.2927 122.517 87.6708C123.544 87.2653 124.467 86.9604 124.877 86.8598C126.826 86.4543 127.135 85.3384 124.877 81.4879C124.467 80.6769 123.748 78.0396 123.748 75.305C123.646 70.8447 124.467 67.8019 128.362 66.4849C131.746 65.2684 135.438 66.7898 136.669 69.5277C138.001 72.3661 137.489 79.6648 136.052 82.3021C134.411 85.4455 134.614 86.2564 136.36 86.7625C137.591 87.168 141.49 88.9943 145.386 91.0217L145.389 91.0152Z" fill="#6F17E1"/>
</g>
<defs>
<filter id="filter0_d_186_2" x="27.7136" y="7.05273" width="155.051" height="156.79" filterUnits="userSpaceOnUse" color-interpolation-filters="sRGB">
<feFlood flood-opacity="0" result="BackgroundImageFix"/>
<feColorMatrix in="SourceAlpha" type="matrix" values="0 0 0 0 0 0 0 0 0 0 0 0 0 0 0 0 0 0 127 0" result="hardAlpha"/>
<feOffset/>
<feGaussianBlur stdDeviation="1.5"/>
<feComposite in2="hardAlpha" operator="out"/>
<feColorMatrix type="matrix" values="0 0 0 0 0 0 0 0 0 0 0 0 0 0 0 0 0 0 0.44 0"/>
<feBlend mode="normal" in2="BackgroundImageFix" result="effect1_dropShadow_186_2"/>
<feBlend mode="normal" in="SourceGraphic" in2="effect1_dropShadow_186_2" result="shape"/>
</filter>
</defs>
</svg>
