<svg width="163" height="146" viewBox="0 0 163 146" fill="none" xmlns="http://www.w3.org/2000/svg">
<path d="M95.4246 145.843C132.745 145.843 163 115.235 163 77.4791C163 39.7228 132.745 9.11523 95.4246 9.11523C58.1038 9.11523 27.8493 39.7228 27.8493 77.4791C27.8493 115.235 58.1038 145.843 95.4246 145.843Z" fill="white"/>
<path d="M31.4386 62.8633C48.8017 62.8633 62.8772 48.7909 62.8772 31.4316C62.8772 14.0724 48.8017 0 31.4386 0C14.0755 0 0 14.0724 0 31.4316C0 48.7909 14.0755 62.8633 31.4386 62.8633Z" fill="#2C2C2C"/>
<path d="M96 122C108.15 122 118 112.15 118 100C118 87.8497 108.15 78 96 78C83.8497 78 74 87.8497 74 100C74 112.15 83.8497 122 96 122Z" fill="#6F17E1"/>
<path fill-rule="evenodd" clip-rule="evenodd" d="M94.875 88C95.9105 88 96.75 88.9234 96.75 90.0625V100.208L102.451 106.479C103.183 107.285 103.183 108.59 102.451 109.396C101.719 110.201 100.532 110.201 99.7993 109.396L93.5493 102.521C93.1975 102.134 93 101.61 93 101.063V90.0625C93 88.9234 93.8395 88 94.875 88Z" fill="white"/>
<path d="M95.0542 30C76.7989 30 62 44.7989 62 63.0542H128.108C128.108 44.7989 113.31 30 95.0542 30Z" fill="#6F17E1"/>
<path d="M95.0542 79.3011L127.548 61.9336" stroke="#6F17E1" stroke-width="2"/>
<path d="M95.6145 79.3011L79.0874 70.6173L62.5603 61.9336" stroke="#6F17E1" stroke-width="2"/>
<path d="M95.6145 79.3014V62.4941" stroke="#6F17E1" stroke-width="2"/>
<path d="M32.8175 34.7264L29.5577 31.7058C29.314 31.4801 29.3542 31.0838 29.6383 30.9116L40.0122 24.6201C40.4846 24.3336 41.0042 24.9121 40.6688 25.3512L33.5546 34.6632C33.3756 34.8975 33.0338 34.9269 32.8175 34.7264Z" fill="white"/>
<path fill-rule="evenodd" clip-rule="evenodd" d="M31.5 16C28.4361 16 25.4406 16.9123 22.8919 18.6224L21.7984 16.9928L22.8919 18.6225C20.343 20.3327 18.3552 22.7644 17.181 25.6111L17.181 25.6111C16.0068 28.4577 15.6994 31.5908 16.2981 34.6133L16.2982 34.6133C16.8969 37.636 18.3745 40.4111 20.5429 42.5888C21.3222 43.3715 21.3195 44.6378 20.5368 45.4172C19.7541 46.1966 18.4878 46.1939 17.7084 45.4112C14.982 42.6731 13.1262 39.186 12.3744 35.3905C11.6226 31.5954 12.0084 27.6613 13.4832 24.0858C14.9581 20.5102 17.4563 17.4526 20.6632 15.3009L21.7775 16.9617L20.6632 15.3009C23.8701 13.1491 27.6413 12 31.5 12C35.3587 12 39.1299 13.1491 42.3369 15.3009C45.5438 17.4527 48.0418 20.5102 49.5167 24.0858C50.9915 27.6612 51.3774 31.5953 50.6256 35.3906C49.8738 39.1859 48.0181 42.6731 45.2917 45.4112C44.5123 46.1939 43.246 46.1966 42.4633 45.4172C41.6805 44.6379 41.6778 43.3715 42.4572 42.5888C44.6256 40.4111 46.1031 37.636 46.7019 34.6133L48.6637 35.0019L46.7019 34.6133C47.3006 31.5908 46.9931 28.4578 45.8189 25.6111L45.8189 25.6111C44.6447 22.7644 42.657 20.3327 40.1082 18.6225C37.5594 16.9123 34.5638 16 31.5 16Z" fill="white"/>
</svg>
