<svg width="183" height="164" viewBox="0 0 183 164" fill="none" xmlns="http://www.w3.org/2000/svg">
<g id="Group 31">
<g id="Group 17">
<g id="Group 16">
<g id="Group 3">
<g id="Group" filter="url(#filter0_d_186_4)">
<path id="Vector" d="M105.239 160.843C146.398 160.843 179.765 127.087 179.765 85.4478C179.765 43.8083 146.398 10.0527 105.239 10.0527C64.0798 10.0527 30.7136 43.8083 30.7136 85.4478C30.7136 127.087 64.0798 160.843 105.239 160.843Z" fill="white"/>
</g>
<path id="Vector_2" d="M34.6721 69.3288C53.8209 69.3288 69.3442 53.809 69.3442 34.6644C69.3442 15.5198 53.8209 0 34.6721 0C15.5232 0 0 15.5198 0 34.6644C0 53.809 15.5232 69.3288 34.6721 69.3288Z" fill="#2C2C2C"/>
</g>
</g>
</g>
<path id="primary" d="M45.8997 31.4599C45.7697 31.2121 45.588 30.9944 45.3662 30.8211C45.1445 30.6478 44.8877 30.5229 44.6129 30.4544L37.2247 28.6129L36.4284 16.0147C36.3976 15.5788 36.2216 15.166 35.9276 14.8403C35.6337 14.5147 35.2382 14.2943 34.8025 14.2134C34.3668 14.1325 33.9152 14.1955 33.5176 14.3928C33.12 14.59 32.7987 14.9105 32.6035 15.3044L22.4891 35.7196C22.3515 35.9951 22.2802 36.2978 22.2807 36.604C22.2813 36.9102 22.3537 37.2117 22.4923 37.4848C22.641 37.756 22.8493 37.9908 23.102 38.1724C23.3547 38.3539 23.6456 38.4776 23.9537 38.5345L33.0923 40.0653L33.8597 52.5275C33.8907 52.9741 34.074 53.3962 34.3799 53.7255C34.6858 54.0548 35.0965 54.2718 35.5452 54.3415C35.7967 54.3868 36.0553 54.3802 36.3048 54.3223C36.6298 54.2516 36.9325 54.1031 37.1861 53.8899C37.4397 53.6767 37.6364 53.4055 37.7586 53.1003L45.8979 33.1044C46.0174 32.8455 46.0793 32.5648 46.0796 32.2812C46.08 31.9975 46.0186 31.7175 45.8997 31.4599Z" fill="white"/>
<path id="Vector_3" d="M65 85.9552C65.112 86.177 65.252 86.4821 65.42 86.8703C65.588 87.2585 66.008 88.0627 66.68 89.2828C67.352 90.5029 68.08 91.6676 68.864 92.7768C69.648 93.886 70.74 95.217 72.14 96.7699C73.54 98.3228 74.996 99.7924 76.508 101.179C78.02 102.565 79.896 103.924 82.136 105.255C84.376 106.586 86.672 107.751 89.024 108.749C91.376 109.747 94.12 110.524 97.256 111.079C100.392 111.633 103.64 111.938 107 111.994C110.36 112.049 113.608 111.744 116.744 111.079C119.88 110.413 122.652 109.609 125.06 108.666C127.468 107.723 129.736 106.586 131.864 105.255C133.992 103.924 135.868 102.538 137.492 101.096C139.116 99.6538 140.572 98.2396 141.86 96.8531C143.148 95.4666 144.24 94.0801 145.136 92.6936C146.032 91.3071 146.76 90.1702 147.32 89.2828C147.88 88.3954 148.3 87.5913 148.58 86.8703L149 85.9552C148.944 85.7334 148.804 85.4283 148.58 85.0401C148.356 84.6519 147.936 83.8755 147.32 82.7108C146.704 81.5461 145.976 80.3815 145.136 79.2168C144.296 78.0522 143.204 76.6934 141.86 75.1405C140.516 73.5877 139.06 72.1457 137.492 70.8147C135.924 69.4836 134.048 68.1249 131.864 66.7384C129.68 65.3519 127.384 64.1872 124.976 63.2444C122.568 62.3016 119.824 61.5251 116.744 60.9151C113.664 60.305 110.416 60 107 60C103.584 60 100.336 60.305 97.256 60.9151C94.176 61.5251 91.404 62.3016 88.94 63.2444C86.476 64.1872 84.208 65.3519 82.136 66.7384C80.064 68.1249 78.188 69.4836 76.508 70.8147C74.828 72.1457 73.372 73.5877 72.14 75.1405C70.908 76.6934 69.816 78.0522 68.864 79.2168C67.912 80.3815 67.184 81.5461 66.68 82.7108C66.176 83.8755 65.756 84.6796 65.42 85.1233L65 85.9552ZM91.292 85.9552C91.292 81.6848 92.804 78.0244 95.828 74.9742C98.852 71.9239 102.576 70.3987 107 70.3987C111.424 70.3987 115.148 71.9239 118.172 74.9742C121.196 78.0244 122.736 81.6848 122.792 85.9552C122.848 90.2256 121.308 93.9137 118.172 97.0194C115.036 100.125 111.312 101.65 107 101.595C102.688 101.539 98.964 100.014 95.828 97.0194C92.692 94.0246 91.18 90.3365 91.292 85.9552ZM96.5 85.9552C96.5 88.8391 97.536 91.3071 99.608 93.3591C101.68 95.4111 104.144 96.4094 107 96.3539C109.856 96.2985 112.32 95.3002 114.392 93.3591C116.464 91.418 117.5 88.95 117.5 85.9552C117.5 82.9604 116.464 80.5201 114.392 78.6345C112.32 76.7489 109.856 75.7229 107 75.5565C104.144 75.3901 96.5 77.6362 96.5 85.9552Z" fill="#6F17E1"/>
</g>
<defs>
<filter id="filter0_d_186_4" x="27.7136" y="7.05273" width="155.051" height="156.79" filterUnits="userSpaceOnUse" color-interpolation-filters="sRGB">
<feFlood flood-opacity="0" result="BackgroundImageFix"/>
<feColorMatrix in="SourceAlpha" type="matrix" values="0 0 0 0 0 0 0 0 0 0 0 0 0 0 0 0 0 0 127 0" result="hardAlpha"/>
<feOffset/>
<feGaussianBlur stdDeviation="1.5"/>
<feComposite in2="hardAlpha" operator="out"/>
<feColorMatrix type="matrix" values="0 0 0 0 0 0 0 0 0 0 0 0 0 0 0 0 0 0 0.44 0"/>
<feBlend mode="normal" in2="BackgroundImageFix" result="effect1_dropShadow_186_4"/>
<feBlend mode="normal" in="SourceGraphic" in2="effect1_dropShadow_186_4" result="shape"/>
</filter>
</defs>
</svg>
