<svg xmlns="http://www.w3.org/2000/svg" viewBox="0 0 368 368" fill="#4d05bb"><path d="M113.2 164c16.9 37.2 52.9 53.4 70.8 53.4 11.8 0 31.4-7 48.3-22.4 -6.2 0.4-12.8 0.6-19.8 0.6 -1.7 0-3.4 0-5.2 0 -3.5 2.7-7.9 4.3-12.5 4.3h-15c-11.3 0-20.5-9.2-20.5-20.5 0-11.3 9.2-20.5 20.5-20.5h15c5.4 0 10.5 2.1 14.2 5.8 1.2 0 2.5 0 3.7 0 19.4 0 32.1-1.8 40.5-3.9 -1.1-2.6-1.7-5.5-1.7-8.5v-52c0-5.4 2-10.6 5.5-14.6 -1.9-14.4-5.2-25.4-10.2-33.5 -10.3-16.7-30.3-24.5-62.7-24.5 -26.9 0-45.5 5.6-56.8 17.1 -8.8 8.9-13.9 21.6-16.2 40.8 3.5 4 5.6 9.3 5.6 14.7v52C116.6 156.5 115.3 160.5 113.2 164z"></path><path d="M76.3 164.5h18c6.8 0 12.3-5.5 12.3-12.3v-52c0-4.5-2.5-8.5-6.1-10.6 4-42.6 20.4-72.1 83.6-72.1 36.3 0 58.9 9.3 71.2 29.3 7.2 11.6 10.6 26.6 12.2 42.9 -3.6 2.1-6 6.1-6 10.5v52c0 5.8 4.1 10.7 9.6 12 -7.9 5.2-24.4 10.5-58.4 10.5 -2.8 0-5.6 0-8.6-0.1 -1.7-3.4-5.3-5.7-9.3-5.7h-15c-5.8 0-10.5 4.7-10.5 10.5 0 5.8 4.7 10.5 10.5 10.5h15c3.5 0 6.6-1.7 8.5-4.4 3.2 0.1 6.3 0.1 9.2 0.1 38.3 0 62.7-6.5 72.6-19.5 0.4-0.6 0.8-1.1 1.2-1.6h5.5c6.8 0 12.3-5.5 12.3-12.3v-52c0-6.8-5.5-12.3-12.3-12.3h-6.8c-1.9-19.6-6.1-36.3-14.8-50.3C254.5 12.3 226.4 0 184 0c-42.3 0-70.5 12.3-86.2 37.6 -8.7 14-12.9 30.7-14.8 50.3h-6.8c-6.8 0-12.3 5.5-12.3 12.3v52C64 159 69.5 164.5 76.3 164.5z"></path><path d="M332.4 317.3c-4.1-25.4-12.5-58-29.3-69.7 -11.5-7.9-51.6-29.3-68.7-38.5l-0.4-0.2c-2-1-4.4-0.8-6.1 0.5 -9 7.1-18.8 11.8-29.2 14.1 -1.8 0.4-3.4 1.7-4 3.5l-10.6 28 -10.6-28c-0.7-1.8-2.2-3.1-4-3.5 -10.4-2.3-20.2-7.1-29.2-14.1 -1.7-1.4-4.1-1.6-6.1-0.5 -16.9 9-57.6 30.9-69 38.7 -19.4 13.1-27.9 60.3-29.4 69.7 -0.1 0.9-0.1 1.9 0.3 2.8 0.7 2 18.5 48 148.1 48 129.6 0 147.4-46 148.1-48C332.4 319.2 332.5 318.2 332.4 317.3zM272 288.2h-51.3v-10.8h51.3V288.2z"></path></svg>