<svg xmlns="http://www.w3.org/2000/svg" viewBox="0 0 512 512" fill="#4d05bb"><path d="M458.8 53.2C424.5 18.9 378.9 0 330.3 0c-48.5 0-94.2 18.9-128.5 53.2L4.4 250.6c-5.9 5.9-5.9 15.4 0 21.2 2.9 2.9 6.8 4.4 10.6 4.4s7.7-1.5 10.6-4.4l126.7-126.7c-5.1 24.9-4.9 50.7 0.5 75.6l-52.4 52.4c-5.9 5.9-5.9 15.4 0 21.2 2.9 2.9 6.8 4.4 10.6 4.4s7.7-1.5 10.6-4.4l41.4-41.4c7 16.5 16.5 32.1 28.6 46.3L5 485.8c-5.9 5.9-5.9 15.4 0 21.2 2.9 2.9 6.8 4.4 10.6 4.4s7.7-1.5 10.6-4.4l186.6-186.6c13.7 11.7 28.9 21.1 45.2 28.2l-7.6 7.6c-5.9 5.9-5.9 15.4 0 21.2 2.9 2.9 6.8 4.4 10.6 4.4 3.8 0 7.7-1.5 10.6-4.4l18.3-18.3c13.1 2.9 26.6 4.5 40.3 4.5 12.4 0 24.6-1.2 36.5-3.6l-126.6 126.6c-5.9 5.9-5.9 15.4 0 21.2 2.9 2.9 6.8 4.4 10.6 4.4s7.7-1.5 10.6-4.4l197.4-197.4C529.7 239.4 529.7 124.1 458.8 53.2zM330.3 333.5c-13.6 0-26.9-1.8-39.7-5.2 -0.7-0.3-1.5-0.5-2.2-0.6 -24.4-7-46.8-20.1-65.3-38.6 -59.2-59.2-59.2-155.4 0-214.6C251.7 45.8 289.8 30 330.3 30c40.5 0 78.6 15.8 107.3 44.4 59.2 59.2 59.2 155.4 0 214.6C408.9 317.7 370.8 333.5 330.3 333.5z"></path><path d="M423.3 88.7c-24.8-24.8-57.9-38.5-93-38.5 -35.1 0-68.2 13.7-93 38.5 -51.3 51.3-51.3 134.7 0 186 25.6 25.6 59.3 38.5 93 38.5 33.7 0 67.4-12.8 93-38.5C474.6 223.5 474.6 140 423.3 88.7zM402.1 253.5c-39.6 39.6-104 39.6-143.6 0 -39.6-39.6-39.6-104 0-143.6 19.2-19.2 44.7-29.7 71.8-29.7 27.1 0 52.6 10.6 71.8 29.7C441.7 149.5 441.7 213.9 402.1 253.5z"></path><path d="M69 346.9l21.3-21.3c5.9-5.9 5.9-15.4 0-21.2 -5.9-5.9-15.4-5.9-21.2 0l-21.3 21.3c-5.9 5.9-5.9 15.4 0 21.2 2.9 2.9 6.8 4.4 10.6 4.4S66.1 349.9 69 346.9z"></path><path d="M241.1 386.7c-5.9-5.9-15.4-5.9-21.2 0l-78.5 78.5c-5.9 5.9-5.9 15.4 0 21.2 2.9 2.9 6.8 4.4 10.6 4.4s7.7-1.5 10.6-4.4l78.5-78.5C247 402 247 392.5 241.1 386.7z"></path><path d="M330.3 97c-8.3 0-15 6.7-15 15v16.7c0 8.3 6.7 15 15 15s15-6.7 15-15v-16.7C345.3 103.7 338.6 97 330.3 97z"></path><path d="M330.3 219.9c-8.3 0-15 6.7-15 15v16.7c0 8.3 6.7 15 15 15s15-6.7 15-15V234.9C345.3 226.6 338.6 219.9 330.3 219.9z"></path><path d="M400.1 166.7h-16.7c-8.3 0-15 6.7-15 15s6.7 15 15 15h16.7c8.3 0 15-6.7 15-15S408.4 166.7 400.1 166.7z"></path><path d="M292.2 181.7c0-8.3-6.7-15-15-15h-16.7c-8.3 0-15 6.7-15 15s6.7 15 15 15h16.7C285.5 196.7 292.2 190 292.2 181.7z"></path><path d="M291.6 121.8c-5.9-5.9-15.4-5.9-21.2 0 -5.9 5.9-5.9 15.4 0 21.2l11.8 11.8c2.9 2.9 6.8 4.4 10.6 4.4s7.7-1.5 10.6-4.4c5.9-5.9 5.9-15.4 0-21.2L291.6 121.8z"></path><path d="M378.5 208.8c-5.9-5.9-15.4-5.9-21.2 0 -5.9 5.9-5.9 15.4 0 21.2l11.8 11.8c2.9 2.9 6.8 4.4 10.6 4.4s7.7-1.5 10.6-4.4c5.9-5.9 5.9-15.4 0-21.2L378.5 208.8z"></path><path d="M367.8 159.2c3.8 0 7.7-1.5 10.6-4.4l11.8-11.8c5.9-5.9 5.9-15.4 0-21.2 -5.9-5.9-15.4-5.9-21.2 0l-11.8 11.8c-5.9 5.9-5.9 15.4 0 21.2C360.1 157.8 364 159.2 367.8 159.2z"></path><path d="M282.1 208.7l-11.8 11.8c-5.9 5.9-5.9 15.4 0 21.2 2.9 2.9 6.8 4.4 10.6 4.4s7.7-1.5 10.6-4.4l11.8-11.8c5.9-5.9 5.9-15.4 0-21.2C297.5 202.8 288 202.8 282.1 208.7z"></path></svg>