<svg xmlns="http://www.w3.org/2000/svg" width="71" height="69" viewBox="0 0 71 69" fill="none">
    <circle cx="17.25" cy="17.25" r="17.25" fill="#4D05BB"/>
    <rect x="10.7069" y="9.51727" width="59.4828" height="59.4828" rx="15" fill="#4D05BB"/>
    <path d="M49.5245 37.4635C49.6741 37.0029 50.3259 37.0029 50.4755 37.4635L51.6839 41.1824C51.7508 41.3884 51.9428 41.5279 52.1594 41.5279H56.0696C56.554 41.5279 56.7554 42.1477 56.3635 42.4324L53.2001 44.7307C53.0248 44.8581 52.9515 45.0838 53.0184 45.2898L54.2268 49.0086C54.3764 49.4693 53.8492 49.8523 53.4573 49.5676L50.2939 47.2693C50.1186 47.1419 49.8814 47.1419 49.7061 47.2693L46.5427 49.5676C46.1508 49.8523 45.6236 49.4693 45.7732 49.0086L46.9816 45.2898C47.0485 45.0838 46.9752 44.8581 46.7999 44.7307L43.6365 42.4324C43.2446 42.1477 43.446 41.5279 43.9304 41.5279H47.8406C48.0572 41.5279 48.2492 41.3884 48.3161 41.1824L49.5245 37.4635Z" fill="white"/>
    <path fill-rule="evenodd" clip-rule="evenodd" d="M18.5586 16.6552C18.5586 17.7068 17.7068 18.5586 16.6552 18.5586C15.6035 18.5586 14.7517 17.7068 14.7517 16.6552C14.7517 15.6035 15.6035 14.7517 16.6552 14.7517C17.7068 14.7517 18.5586 15.6035 18.5586 16.6552ZM16.6552 20.4621C14.5556 20.4621 12.8483 18.7547 12.8483 16.6552C12.8483 14.5557 14.5556 12.8483 16.6552 12.8483C18.7547 12.8483 20.462 14.5557 20.462 16.6552C20.462 18.7547 18.7547 20.4621 16.6552 20.4621ZM16.6552 10.9448C13.5011 10.9448 10.9448 13.5012 10.9448 16.6552C10.9448 19.8092 13.5011 22.3655 16.6552 22.3655C19.8092 22.3655 22.3655 19.8092 22.3655 16.6552C22.3655 13.5012 19.8092 10.9448 16.6552 10.9448ZM16.6552 24.269C12.4571 24.269 9.04136 20.8532 9.04136 16.6552C9.04136 12.4571 12.4571 9.04139 16.6552 9.04139C20.8532 9.04139 24.2689 12.4571 24.2689 16.6552C24.2689 20.8532 20.8532 24.269 16.6552 24.269ZM16.6552 7.13794C11.3988 7.13794 7.13791 11.3988 7.13791 16.6552C7.13791 21.9116 11.3988 26.1724 16.6552 26.1724C21.9115 26.1724 26.1724 21.9116 26.1724 16.6552C26.1724 11.3988 21.9115 7.13794 16.6552 7.13794Z" fill="white"/>
    <path fill-rule="evenodd" clip-rule="evenodd" d="M23 31.3696C23 30.6132 23.599 30 24.3378 30H54.6622C55.401 30 56 30.6132 56 31.3696C56 32.1259 55.401 32.7391 54.6622 32.7391H24.3378C23.599 32.7391 23 32.1259 23 31.3696ZM23 40.5C23 39.7436 23.599 39.1304 24.3378 39.1304H35.0405C35.7794 39.1304 36.3784 39.7436 36.3784 40.5C36.3784 41.2564 35.7794 41.8696 35.0405 41.8696H24.3378C23.599 41.8696 23 41.2564 23 40.5ZM23 49.6304C23 48.8741 23.599 48.2609 24.3378 48.2609H36.8243C37.5632 48.2609 38.1622 48.8741 38.1622 49.6304C38.1622 50.3868 37.5632 51 36.8243 51H24.3378C23.599 51 23 50.3868 23 49.6304Z" fill="white"/>
</svg>