<svg xmlns="http://www.w3.org/2000/svg" viewBox="-38 0 512 512" width="512" fill="#4d05bb"><path d="M218 158.5C164.2 158.5 120.4 202.2 120.4 256 120.4 309.8 164.2 353.6 218 353.6 271.8 353.6 315.5 309.8 315.5 256 315.5 202.2 271.8 158.5 218 158.5ZM275.9 237.6L206 307.5C203.1 310.5 199.2 311.9 195.4 311.9 191.6 311.9 187.7 310.5 184.8 307.5L158.1 280.8C152.2 275 152.2 265.4 158.1 259.6 163.9 253.7 173.4 253.7 179.3 259.6L195.4 275.7 254.7 216.4C260.5 210.5 270 210.5 275.9 216.4 281.8 222.3 281.8 231.8 275.9 237.6ZM275.9 237.6" class="a"></path><path d="M435.5 138.9L435.5 138.5C435.3 133.6 435.1 128.4 435 122.6 434.6 94.4 412.2 71 383.9 69.4 325.1 66.2 279.5 47 240.6 9L240.3 8.7C227.6-2.9 208.4-2.9 195.7 8.7L195.4 9C156.5 47 111 66.2 52.1 69.5 23.9 71 1.4 94.4 1 122.6 0.9 128.4 0.8 133.6 0.5 138.5L0.5 139.4C-0.6 199.5-2.1 274.2 22.9 342 36.7 379.3 57.5 411.7 84.8 438.3 115.9 468.7 156.6 492.8 205.8 509.9 207.4 510.5 209.1 510.9 210.8 511.3 213.2 511.8 215.6 512 218 512 220.4 512 222.8 511.8 225.2 511.3 226.9 510.9 228.6 510.5 230.2 509.9 279.4 492.7 320 468.6 351.1 438.3 378.4 411.6 399.2 379.2 413 341.9 438 273.9 436.6 199.1 435.5 138.9ZM218 383.6C147.6 383.6 90.4 326.4 90.4 256 90.4 185.6 147.6 128.4 218 128.4 288.4 128.4 345.6 185.6 345.6 256 345.6 326.4 288.4 383.6 218 383.6ZM218 383.6" class="a"></path></svg>