<svg xmlns="http://www.w3.org/2000/svg" width="70" height="69" viewBox="0 0 70 69" fill="none">
    <circle cx="17.2034" cy="17.2034" r="17.2034" fill="#4D05BB"/>
    <rect x="10.678" y="9.49152" width="59.322" height="59.322" rx="13" fill="#4D05BB"/>
    <rect x="31.75" y="26.75" width="16.5" height="23.5" rx="1.25" stroke="white" stroke-width="1.5"/>
    <path d="M20 50H25C26.1046 50 27 49.1046 27 48V29C27 27.8954 26.1046 27 25 27H20" stroke="white" stroke-width="1.5"/>
    <path d="M59 50H54C52.8954 50 52 49.1046 52 48V29C52 27.8954 52.8954 27 54 27H59" stroke="white" stroke-width="1.5"/>
    <path d="M39.8098 31.5854C39.8697 31.4011 40.1303 31.4011 40.1902 31.5854L40.8532 33.6257C40.8799 33.7081 40.9567 33.7639 41.0434 33.7639H43.1887C43.3824 33.7639 43.463 34.0119 43.3062 34.1257L41.5706 35.3867C41.5005 35.4377 41.4712 35.5279 41.498 35.6103L42.1609 37.6507C42.2208 37.8349 42.0099 37.9881 41.8532 37.8743L40.1176 36.6133C40.0475 36.5623 39.9525 36.5623 39.8824 36.6133L38.1468 37.8743C37.9901 37.9881 37.7792 37.8349 37.8391 37.6507L38.502 35.6103C38.5288 35.5279 38.4995 35.4377 38.4294 35.3867L36.6938 34.1257C36.537 34.0119 36.6176 33.7639 36.8113 33.7639H38.9566C39.0433 33.7639 39.1201 33.7081 39.1468 33.6257L39.8098 31.5854Z" fill="white"/>
    <path fill-rule="evenodd" clip-rule="evenodd" d="M20.4465 7.50774L17.5728 20.2768L14.252 17.7298L11.0744 21.9079L8.96912 20.2933L12.1803 16.141L8.85946 13.594L20.4465 7.50774Z" fill="white"/>
</svg>