<svg width="237" height="236" viewBox="0 0 237 236" fill="none" xmlns="http://www.w3.org/2000/svg">
<path opacity="0.3" d="M158.012 0H79.0245V78.9878C122.648 78.9878 158.012 43.6237 158.012 0Z" fill="white"/>
<path opacity="0.1" d="M79.0245 78.9878C79.0245 35.364 43.6605 0 0.0367813 0V78.9878H79.0245Z" fill="white"/>
<path opacity="0.6" d="M158.012 0H237V78.9878C193.376 78.9878 158.012 43.6237 158.012 0Z" fill="white"/>
<path d="M158.012 157.012C158.012 113.921 123.079 78.9878 79.9877 78.9878H79.0245V157.012H158.012Z" fill="white"/>
<path opacity="0.3" d="M79.0245 78.9878H0.0367813V157.012H1.00006C44.0918 157.012 79.0245 122.08 79.0245 78.9878Z" fill="white"/>
<path opacity="0.3" d="M158.012 157.012C158.012 113.921 192.945 78.9878 236.037 78.9878H237V157.012H158.012Z" fill="white"/>
<path opacity="0.3" d="M158.012 157.012H79.0245V236C122.648 236 158.012 200.636 158.012 157.012Z" fill="white"/>
<path opacity="0.5" d="M79.0245 236C79.0245 192.376 43.6605 157.012 0.0367813 157.012V236H79.0245Z" fill="white"/>
<path opacity="0.6" d="M158.012 157.012H237V236C193.376 236 158.012 200.636 158.012 157.012Z" fill="white"/>
</svg>
