<svg width="101" height="87" viewBox="0 0 101 87" fill="none" xmlns="http://www.w3.org/2000/svg">
<g id="Group 2">
<path id="Vector 3" d="M75.0797 87L3 43.8595L27.8551 0L101 43.8595L75.0797 87Z" fill="url(#paint0_linear_67_3)"/>
<path id="Star 3" d="M32.6824 5.3714C30.6202 -1.79047 20.3798 -1.79047 18.3176 5.3714C17.2114 9.21324 13.2292 11.4921 9.31922 10.5206C2.03039 8.70979 -3.08982 17.4997 2.13686 22.8508C4.9406 25.7212 4.9406 30.2788 2.13685 33.1492C-3.08982 38.5003 2.03039 47.2902 9.31922 45.4793C13.2292 44.5079 17.2114 46.7868 18.3176 50.6286C20.3798 57.7905 30.6202 57.7905 32.6824 50.6286C33.7886 46.7868 37.7708 44.5079 41.6808 45.4793C48.9696 47.2902 54.0898 38.5003 48.8631 33.1492C46.0594 30.2788 46.0594 25.7212 48.8631 22.8508C54.0898 17.4997 48.9696 8.70979 41.6808 10.5206C37.7708 11.4921 33.7886 9.21324 32.6824 5.3714Z" fill="#FFA800"/>
</g>
<defs>
<linearGradient id="paint0_linear_67_3" x1="-21.4973" y1="1.98708" x2="78.2281" y2="65.2141" gradientUnits="userSpaceOnUse">
<stop offset="0.148184" stop-color="#FFA800"/>
<stop offset="1" stop-color="#9F297C" stop-opacity="0"/>
</linearGradient>
</defs>
</svg>
