<svg width="101" height="87" viewBox="0 0 101 87" fill="none" xmlns="http://www.w3.org/2000/svg">
<path d="M25.9203 87L98 43.8595L73.1449 0L0 43.8595L25.9203 87Z" fill="url(#paint0_linear_67_2)"/>
<path d="M68.3176 5.3714C70.3798 -1.79047 80.6202 -1.79047 82.6824 5.3714C83.7886 9.21324 87.7708 11.4921 91.6808 10.5206C98.9696 8.70979 104.09 17.4997 98.8631 22.8508C96.0594 25.7212 96.0594 30.2788 98.8631 33.1492C104.09 38.5003 98.9696 47.2902 91.6808 45.4793C87.7708 44.5079 83.7886 46.7868 82.6824 50.6286C80.6202 57.7905 70.3798 57.7905 68.3176 50.6286C67.2114 46.7868 63.2292 44.5079 59.3192 45.4793C52.0304 47.2902 46.9102 38.5003 52.1369 33.1492C54.9406 30.2788 54.9406 25.7212 52.1369 22.8508C46.9102 17.4997 52.0304 8.70979 59.3192 10.5206C63.2292 11.4921 67.2114 9.21324 68.3176 5.3714Z" fill="#FFA800"/>
<defs>
<linearGradient id="paint0_linear_67_2" x1="122.497" y1="1.98708" x2="22.7719" y2="65.2141" gradientUnits="userSpaceOnUse">
<stop offset="0.148184" stop-color="#FFA800"/>
<stop offset="1" stop-color="#9F297C" stop-opacity="0"/>
</linearGradient>
</defs>
</svg>
