<svg width="20" height="20" viewBox="0 0 20 20" fill="none" xmlns="http://www.w3.org/2000/svg">
<rect width="20" height="20" rx="3" fill="#22A85A"/>
<path d="M9.28671 4.19529C9.51122 3.5043 10.4888 3.50431 10.7133 4.19529L11.6277 7.00963C11.7281 7.31864 12.0161 7.52786 12.341 7.52786H15.3002C16.0267 7.52786 16.3288 8.45758 15.741 8.88463L13.347 10.624C13.0841 10.815 12.9741 11.1535 13.0746 11.4625L13.989 14.2768C14.2135 14.9678 13.4226 15.5424 12.8349 15.1154L10.4408 13.376C10.178 13.185 9.82203 13.185 9.55916 13.376L7.16514 15.1154C6.57735 15.5424 5.7865 14.9678 6.01101 14.2768L6.92544 11.4625C7.02585 11.1535 6.91586 10.815 6.65299 10.624L4.25897 8.88463C3.67118 8.45757 3.97327 7.52786 4.69981 7.52786H7.65898C7.9839 7.52786 8.27187 7.31864 8.37227 7.00963L9.28671 4.19529Z" fill="#F5F7FE"/>
</svg>
