<svg width="488" height="475" viewBox="0 0 488 475" fill="none" xmlns="http://www.w3.org/2000/svg">
<g filter="url(#filter0_d_74_12)">
<circle cx="257" cy="244" r="221" fill="white"/>
</g>
<path d="M47.4367 175.892C2.46028 149.924 -12.9498 92.4132 13.0174 47.4367C38.9846 2.46028 96.4957 -12.9498 141.472 13.0174C186.449 38.9846 201.859 96.4957 175.892 141.472C149.924 186.449 92.4132 201.859 47.4367 175.892Z" fill="url(#paint0_linear_74_12)"/>
<path d="M104 52.4523V83.8141H91.0754C89.2026 83.8141 87.4064 84.6007 86.0821 86.0009C84.7578 87.401 84.0138 89.3 84.0138 91.2801V104H73.9662C72.1497 103.997 70.3685 103.47 68.8144 102.476C67.2603 101.481 65.9923 100.058 65.1469 98.3578C64.3015 96.658 63.9109 94.7465 64.0171 92.8293C64.1232 90.9121 64.7222 89.0619 65.7494 87.478L91.0754 48.3045C91.9185 46.9768 93.1425 45.9704 94.5673 45.4335C95.992 44.8965 97.5421 44.8574 98.9895 45.3219C100.437 45.7864 101.705 46.7299 102.607 48.0135C103.509 49.2972 103.997 50.8531 104 52.4523Z" fill="white"/>
<path d="M105 83V96.2329C104.994 98.2909 104.21 100.263 102.82 101.718C101.43 103.173 99.5462 103.994 97.5802 104H84V90.7671C84 88.7072 84.7817 86.7316 86.1732 85.2749C87.5647 83.8183 89.452 83 91.4198 83H105Z" fill="white"/>
<path d="M122.311 99.4867L96.9448 138.741C96.0879 140.062 94.8535 141.059 93.4225 141.584C91.9915 142.11 90.4389 142.138 88.9921 141.663C87.5452 141.188 86.2801 140.236 85.3818 138.945C84.4835 137.655 83.9993 136.095 84 134.492V103.227H96.9448C98.8189 103.221 100.614 102.431 101.94 101.029C103.265 99.6277 104.012 97.7283 104.018 95.746V83H114.146C115.947 83.0316 117.706 83.5757 119.238 84.5751C120.771 85.5745 122.021 86.9922 122.856 88.6793C123.692 90.3664 124.082 92.2604 123.986 94.1622C123.89 96.064 123.311 97.9033 122.311 99.4867Z" fill="white"/>
<path d="M297.479 281.138C289.999 278.341 279.091 270.174 279.091 265.089C279.091 261.721 279.091 257.512 279.091 251.744C283.414 246.935 286.701 237.17 288.655 226.102C293.212 224.475 295.816 221.871 299.069 210.48C302.527 198.346 293.861 198.758 293.861 198.758C300.87 175.556 291.644 153.75 276.19 155.351C265.53 136.702 229.826 159.611 218.639 158.014C218.639 164.41 221.302 169.205 221.302 169.205C217.414 176.589 218.914 191.312 220.006 198.758C219.374 198.747 211.538 198.829 214.862 210.48C218.115 221.871 220.719 224.475 225.276 226.102C227.226 237.17 230.513 246.935 234.84 251.744C234.84 257.512 234.84 261.721 234.84 265.089C234.84 270.174 223.252 278.739 216.452 281.138C202.401 286.086 167.874 300.314 170.103 326.967C170.637 333.363 205.807 340 256.965 340C308.12 340 343.294 333.363 343.828 326.967C346.057 300.288 311.441 286.36 297.479 281.138Z" fill="url(#paint1_linear_74_12)"/>
<defs>
<filter id="filter0_d_74_12" x="26" y="13" width="462" height="462" filterUnits="userSpaceOnUse" color-interpolation-filters="sRGB">
<feFlood flood-opacity="0" result="BackgroundImageFix"/>
<feColorMatrix in="SourceAlpha" type="matrix" values="0 0 0 0 0 0 0 0 0 0 0 0 0 0 0 0 0 0 127 0" result="hardAlpha"/>
<feOffset/>
<feGaussianBlur stdDeviation="5"/>
<feComposite in2="hardAlpha" operator="out"/>
<feColorMatrix type="matrix" values="0 0 0 0 0 0 0 0 0 0 0 0 0 0 0 0 0 0 0.04 0"/>
<feBlend mode="normal" in2="BackgroundImageFix" result="effect1_dropShadow_74_12"/>
<feBlend mode="normal" in="SourceGraphic" in2="effect1_dropShadow_74_12" result="shape"/>
</filter>
<linearGradient id="paint0_linear_74_12" x1="94.4545" y1="0.40332" x2="94.4545" y2="188.506" gradientUnits="userSpaceOnUse">
<stop stop-color="#E90205"/>
<stop offset="1" stop-color="#EF268F"/>
</linearGradient>
<linearGradient id="paint1_linear_74_12" x1="256.965" y1="148" x2="256.965" y2="340" gradientUnits="userSpaceOnUse">
<stop stop-color="#E90205"/>
<stop offset="1" stop-color="#EF268F"/>
</linearGradient>
</defs>
</svg>
