<svg width="488" height="475" viewBox="0 0 488 475" fill="none" xmlns="http://www.w3.org/2000/svg">
<g filter="url(#filter0_d_174_3)">
<circle cx="257" cy="244" r="221" fill="white"/>
</g>
<path d="M334.526 175.846C329.609 170.81 323.751 166.816 317.295 164.095C310.838 161.375 303.912 159.983 296.92 160C289.926 159.983 283.001 161.375 276.544 164.095C270.088 166.816 264.231 170.81 259.313 175.846L256.313 178.993L253.313 175.954C243.367 165.881 229.878 160.221 215.813 160.221C201.748 160.221 188.26 165.881 178.314 175.954C168.498 186.098 163 199.736 163 213.941C163 228.145 168.498 241.783 178.314 251.926L250.849 325.619C252.355 327.144 254.397 328 256.527 328C258.656 328 260.699 327.144 262.206 325.619L334.741 251.926C344.56 241.749 350.039 228.072 350 213.842C349.96 199.611 344.403 185.966 334.526 175.846Z" fill="url(#paint0_linear_174_3)"/>
<path d="M47.4367 175.892C2.46028 149.925 -12.9498 92.4137 13.0174 47.4372C38.9846 2.46077 96.4957 -12.9493 141.472 13.0179C186.449 38.985 201.859 96.4962 175.892 141.473C149.924 186.449 92.4132 201.859 47.4367 175.892Z" fill="url(#paint1_linear_174_3)"/>
<path fill-rule="evenodd" clip-rule="evenodd" d="M104 52.4523V83H104.018H105H114.146C115.947 83.0316 117.706 83.5757 119.238 84.5751C120.771 85.5745 122.021 86.9922 122.856 88.6793C123.692 90.3664 124.082 92.2604 123.986 94.1622C123.89 96.064 123.311 97.9033 122.311 99.4867L96.9448 138.741C96.0879 140.062 94.8535 141.059 93.4225 141.584C91.9915 142.11 90.4389 142.138 88.9921 141.663C87.5452 141.188 86.2801 140.236 85.3818 138.945C84.4835 137.655 83.9993 136.095 84 134.492V104L73.9662 104C72.1497 103.997 70.3685 103.47 68.8144 102.476C67.2603 101.481 65.9923 100.058 65.1469 98.3578C64.3015 96.658 63.9109 94.7465 64.0171 92.8293C64.1232 90.9121 64.7222 89.0619 65.7494 87.478L91.0754 48.3045C91.9185 46.9768 93.1425 45.9704 94.5673 45.4335C95.992 44.8965 97.5421 44.8574 98.9895 45.3219C100.437 45.7864 101.705 46.7299 102.607 48.0135C103.509 49.2972 103.997 50.8531 104 52.4523Z" fill="white"/>
<defs>
<filter id="filter0_d_174_3" x="26" y="13.0002" width="462" height="462" filterUnits="userSpaceOnUse" color-interpolation-filters="sRGB">
<feFlood flood-opacity="0" result="BackgroundImageFix"/>
<feColorMatrix in="SourceAlpha" type="matrix" values="0 0 0 0 0 0 0 0 0 0 0 0 0 0 0 0 0 0 127 0" result="hardAlpha"/>
<feOffset/>
<feGaussianBlur stdDeviation="5"/>
<feComposite in2="hardAlpha" operator="out"/>
<feColorMatrix type="matrix" values="0 0 0 0 0 0 0 0 0 0 0 0 0 0 0 0 0 0 0.04 0"/>
<feBlend mode="normal" in2="BackgroundImageFix" result="effect1_dropShadow_174_3"/>
<feBlend mode="normal" in="SourceGraphic" in2="effect1_dropShadow_174_3" result="shape"/>
</filter>
<linearGradient id="paint0_linear_174_3" x1="256.5" y1="160" x2="256.5" y2="328" gradientUnits="userSpaceOnUse">
<stop stop-color="#E90205"/>
<stop offset="1" stop-color="#EF268F"/>
</linearGradient>
<linearGradient id="paint1_linear_174_3" x1="94.4545" y1="0.403809" x2="94.4545" y2="188.506" gradientUnits="userSpaceOnUse">
<stop stop-color="#E90205"/>
<stop offset="1" stop-color="#EF268F"/>
</linearGradient>
</defs>
</svg>
