<svg width="488" height="475" viewBox="0 0 488 475" fill="none" xmlns="http://www.w3.org/2000/svg">
<g filter="url(#filter0_d_74_13)">
<circle cx="257" cy="244" r="221" fill="white"/>
</g>
<path d="M47.4367 175.892C2.46028 149.924 -12.9498 92.4132 13.0174 47.4367C38.9846 2.46028 96.4957 -12.9498 141.472 13.0174C186.449 38.9846 201.859 96.4957 175.892 141.472C149.924 186.449 92.4132 201.859 47.4367 175.892Z" fill="url(#paint0_linear_74_13)"/>
<path d="M199.551 224.562V332H180.335C169.593 332 161 323.405 161 312.781V243.901C161 233.277 169.713 224.562 180.335 224.562H199.551ZM333.944 206.656H276.892V164.875C276.892 151.744 266.151 141 253.141 141H252.067C247.293 141 242.996 143.865 241.086 148.282L208.503 224.562V332H318.308C327.021 332 334.421 325.792 335.973 317.198L351.727 227.666C353.637 216.684 345.282 206.656 334.063 206.656H333.944Z" fill="url(#paint1_linear_74_13)"/>
<path d="M85.4427 135.032C85.4795 134.995 85.5058 134.951 85.5397 134.912L85.5415 134.914L130.672 89.7835L130.659 89.7699C131.01 89.3935 131.217 88.9351 131.291 88.4596L131.328 88.4964L135.232 73.9302L135.181 73.9437C135.372 73.2123 135.224 72.4195 134.737 71.7958L134.758 71.7756L134.558 71.5762C134.553 71.5725 134.552 71.5668 134.547 71.5631C134.544 71.5591 134.538 71.5569 134.534 71.5518L114.019 51.0362C113.384 50.4006 112.493 50.1912 111.679 50.3896L111.682 50.3804L97.1146 54.2836L97.1348 54.3039C96.6312 54.3812 96.145 54.606 95.7564 54.9938C95.7332 55.0172 95.7181 55.0433 95.6964 55.0676L50.7138 100.051C50.6588 100.097 50.599 100.136 50.5466 100.188C49.6067 101.13 49.5869 102.637 50.4799 103.61L50.4723 103.618L81.9137 135.06L81.938 135.036C82.906 136 84.4753 136 85.4427 135.032ZM113.722 72.0728C111.93 70.2822 111.93 67.3782 113.72 65.5881C115.511 63.7968 118.414 63.7974 120.206 65.588C121.997 67.3786 121.996 70.2818 120.204 72.0734C118.416 73.8641 115.512 73.8637 113.722 72.0728Z" fill="white"/>
<defs>
<filter id="filter0_d_74_13" x="26" y="13" width="462" height="462" filterUnits="userSpaceOnUse" color-interpolation-filters="sRGB">
<feFlood flood-opacity="0" result="BackgroundImageFix"/>
<feColorMatrix in="SourceAlpha" type="matrix" values="0 0 0 0 0 0 0 0 0 0 0 0 0 0 0 0 0 0 127 0" result="hardAlpha"/>
<feOffset/>
<feGaussianBlur stdDeviation="5"/>
<feComposite in2="hardAlpha" operator="out"/>
<feColorMatrix type="matrix" values="0 0 0 0 0 0 0 0 0 0 0 0 0 0 0 0 0 0 0.04 0"/>
<feBlend mode="normal" in2="BackgroundImageFix" result="effect1_dropShadow_74_13"/>
<feBlend mode="normal" in="SourceGraphic" in2="effect1_dropShadow_74_13" result="shape"/>
</filter>
<linearGradient id="paint0_linear_74_13" x1="94.4545" y1="0.40332" x2="94.4545" y2="188.506" gradientUnits="userSpaceOnUse">
<stop stop-color="#E90205"/>
<stop offset="1" stop-color="#EF268F"/>
</linearGradient>
<linearGradient id="paint1_linear_74_13" x1="256.5" y1="141" x2="256.5" y2="332" gradientUnits="userSpaceOnUse">
<stop stop-color="#E90205"/>
<stop offset="1" stop-color="#EF268F"/>
</linearGradient>
</defs>
</svg>
