<svg width="488" height="475" viewBox="0 0 488 475" fill="none" xmlns="http://www.w3.org/2000/svg">
<g filter="url(#filter0_d_74_24)">
<circle cx="257" cy="244" r="221" fill="white"/>
</g>
<path d="M47.4372 175.892C2.46077 149.925 -12.9493 92.4134 13.0179 47.437C38.985 2.46053 96.4962 -12.9495 141.473 13.0176C186.449 38.9848 201.859 96.496 175.892 141.472C149.925 186.449 92.4137 201.859 47.4372 175.892Z" fill="url(#paint0_linear_74_24)"/>
<path d="M69.349 85.4375V131H61.1998C56.6444 131 53 127.355 53 122.849V93.6387C53 89.1331 56.695 85.4375 61.1998 85.4375H69.349ZM126.343 77.8438H102.148V60.125C102.148 54.5563 97.5927 50 92.0755 50H91.62C89.5953 50 87.7732 51.215 86.9633 53.0881L73.1452 85.4375V131H119.712C123.407 131 126.545 128.368 127.203 124.723L133.884 86.7537C134.694 82.0963 131.151 77.8438 126.393 77.8438H126.343Z" fill="white"/>
<path d="M341.017 222.291C358.328 231.753 358.328 256.247 341.017 265.709L236.499 322.839C219.675 332.035 199 320.066 199 301.13V186.87C199 167.934 219.675 155.965 236.499 165.161L341.017 222.291Z" fill="url(#paint1_linear_74_24)"/>
<defs>
<filter id="filter0_d_74_24" x="26" y="13.0002" width="462" height="462" filterUnits="userSpaceOnUse" color-interpolation-filters="sRGB">
<feFlood flood-opacity="0" result="BackgroundImageFix"/>
<feColorMatrix in="SourceAlpha" type="matrix" values="0 0 0 0 0 0 0 0 0 0 0 0 0 0 0 0 0 0 127 0" result="hardAlpha"/>
<feOffset/>
<feGaussianBlur stdDeviation="5"/>
<feComposite in2="hardAlpha" operator="out"/>
<feColorMatrix type="matrix" values="0 0 0 0 0 0 0 0 0 0 0 0 0 0 0 0 0 0 0.04 0"/>
<feBlend mode="normal" in2="BackgroundImageFix" result="effect1_dropShadow_74_24"/>
<feBlend mode="normal" in="SourceGraphic" in2="effect1_dropShadow_74_24" result="shape"/>
</filter>
<linearGradient id="paint0_linear_74_24" x1="94.4549" y1="0.403564" x2="94.4549" y2="188.506" gradientUnits="userSpaceOnUse">
<stop stop-color="#E90205"/>
<stop offset="1" stop-color="#EF268F"/>
</linearGradient>
<linearGradient id="paint1_linear_74_24" x1="276.5" y1="162" x2="276.5" y2="326" gradientUnits="userSpaceOnUse">
<stop stop-color="#E90205"/>
<stop offset="1" stop-color="#EF268F"/>
</linearGradient>
</defs>
</svg>
