<svg width="488" height="475" viewBox="0 0 488 475" fill="none" xmlns="http://www.w3.org/2000/svg">
<g filter="url(#filter0_d_74_4)">
<circle cx="257" cy="244" r="221" fill="white"/>
</g>
<path d="M47.4367 175.892C2.46028 149.925 -12.9498 92.4137 13.0174 47.4372C38.9846 2.46077 96.4957 -12.9493 141.472 13.0179C186.449 38.985 201.859 96.4962 175.892 141.473C149.924 186.449 92.4132 201.859 47.4367 175.892Z" fill="url(#paint0_linear_74_4)"/>
<path d="M185 255.6L225.858 302L328 186" stroke="url(#paint1_linear_74_4)" stroke-width="39" stroke-linecap="round" stroke-linejoin="round"/>
<path d="M54 86.6129C54 72.7032 54 65.7485 55.6779 63.4087C57.3557 61.069 64.037 58.8306 77.3996 54.3537L79.9454 53.5008C86.9111 51.1671 90.3938 50.0002 94 50.0002C97.6062 50.0002 101.089 51.1671 108.055 53.5008L110.6 54.3537C123.963 58.8306 130.644 61.069 132.322 63.4087C134 65.7485 134 72.7032 134 86.6129C134 88.7135 134 90.992 134 93.4628C134 117.988 115.16 129.89 103.34 134.944C100.133 136.315 98.5302 137 94 137C89.4698 137 87.8667 136.315 84.6603 134.944C72.8398 129.89 54 117.988 54 93.4628C54 90.992 54 88.7135 54 86.6129Z" fill="white"/>
<defs>
<filter id="filter0_d_74_4" x="26" y="13.0002" width="462" height="462" filterUnits="userSpaceOnUse" color-interpolation-filters="sRGB">
<feFlood flood-opacity="0" result="BackgroundImageFix"/>
<feColorMatrix in="SourceAlpha" type="matrix" values="0 0 0 0 0 0 0 0 0 0 0 0 0 0 0 0 0 0 127 0" result="hardAlpha"/>
<feOffset/>
<feGaussianBlur stdDeviation="5"/>
<feComposite in2="hardAlpha" operator="out"/>
<feColorMatrix type="matrix" values="0 0 0 0 0 0 0 0 0 0 0 0 0 0 0 0 0 0 0.04 0"/>
<feBlend mode="normal" in2="BackgroundImageFix" result="effect1_dropShadow_74_4"/>
<feBlend mode="normal" in="SourceGraphic" in2="effect1_dropShadow_74_4" result="shape"/>
</filter>
<linearGradient id="paint0_linear_74_4" x1="94.4545" y1="0.403809" x2="94.4545" y2="188.506" gradientUnits="userSpaceOnUse">
<stop stop-color="#E90205"/>
<stop offset="1" stop-color="#EF268F"/>
</linearGradient>
<linearGradient id="paint1_linear_74_4" x1="256.5" y1="186" x2="256.5" y2="302" gradientUnits="userSpaceOnUse">
<stop stop-color="#E90205"/>
<stop offset="1" stop-color="#EF268F"/>
</linearGradient>
</defs>
</svg>
