<svg width="72" height="90" viewBox="0 0 72 90" fill="none" xmlns="http://www.w3.org/2000/svg">
<path d="M65.5246 22.8943C62.0292 9.7302 50.0116 0 35.7628 0C21.5139 0 9.49631 9.7302 6.0009 22.8943C2.66123 23.965 0.236328 27.0988 0.236328 30.7895C0.236328 35.3603 3.95498 39.079 8.52582 39.079H12.0785V30.7895C12.0785 17.73 22.7033 7.10525 35.7628 7.10525C48.8223 7.10525 59.447 17.73 59.447 30.7895V39.079H62.9997C67.5706 39.079 71.2892 35.3603 71.2892 30.7895C71.289 27.0988 68.8643 23.9651 65.5246 22.8943Z" fill="url(#paint0_linear_35_3)"/>
<path d="M39.0219 40.1422C37.1695 41.9025 34.2317 41.878 32.4137 40.0599C30.5668 38.213 30.5668 35.208 32.4137 33.3609C34.1464 31.6282 36.8997 31.5215 38.7587 33.0412C45.4829 32.5286 51.2253 30.4531 52.2833 29.445C51.5981 20.9184 44.4663 14.2109 35.7631 14.2109C26.6068 14.2109 19.1841 21.6337 19.1841 30.7899C19.1841 39.9462 26.6068 47.3689 35.7631 47.3689C42.3672 47.3689 48.0679 43.507 50.7337 37.9189C50.5157 37.9897 50.2946 38.0601 50.0676 38.1295C46.6457 39.1761 42.7593 39.8764 39.0219 40.1422Z" fill="url(#paint1_linear_35_3)"/>
<path d="M46.8122 51.7119C43.4583 53.4878 39.6741 54.4738 35.7614 54.4738C31.7638 54.4738 27.9948 53.4768 24.6884 51.7202C12.5931 56.216 3.97485 67.8629 3.97485 81.5235C3.97485 86.2049 7.76997 90.0001 12.4512 90.0001H59.0717C63.7531 90.0001 67.5481 86.2049 67.5481 81.5235C67.5479 67.8546 58.9193 56.2017 46.8122 51.7119Z" fill="url(#paint2_linear_35_3)"/>
<defs>
<linearGradient id="paint0_linear_35_3" x1="35.7628" y1="0" x2="35.7628" y2="39.079" gradientUnits="userSpaceOnUse">
<stop stop-color="#E90205"/>
<stop offset="1" stop-color="#EF268F"/>
</linearGradient>
<linearGradient id="paint1_linear_35_3" x1="35.7337" y1="14.2109" x2="35.7337" y2="47.3689" gradientUnits="userSpaceOnUse">
<stop stop-color="#E90205"/>
<stop offset="1" stop-color="#EF268F"/>
</linearGradient>
<linearGradient id="paint2_linear_35_3" x1="35.7615" y1="51.7119" x2="35.7615" y2="90.0001" gradientUnits="userSpaceOnUse">
<stop stop-color="#E90205"/>
<stop offset="1" stop-color="#EF268F"/>
</linearGradient>
</defs>
</svg>
