<svg width="488" height="475" viewBox="0 0 488 475" fill="none" xmlns="http://www.w3.org/2000/svg">
<g filter="url(#filter0_d_74_19)">
<circle cx="257" cy="244" r="221" fill="white"/>
</g>
<path d="M47.4367 175.892C2.46028 149.924 -12.9498 92.4132 13.0174 47.4367C38.9846 2.46028 96.4957 -12.9498 141.472 13.0174C186.449 38.9846 201.859 96.4957 175.892 141.472C149.924 186.449 92.4132 201.859 47.4367 175.892Z" fill="url(#paint0_linear_74_19)"/>
<path d="M257.5 153C207.521 153 167 193.521 167 243.5C167 293.479 207.521 334 257.5 334C307.479 334 348 293.479 348 243.5C348 193.521 307.479 153 257.5 153ZM288.168 274.168C283.739 278.597 276.381 278.376 271.952 273.948L249.513 251.509C248.464 250.471 247.635 249.213 247.061 247.818C246.484 246.438 246.188 244.979 246.188 243.5V198.25C246.188 191.997 251.247 186.937 257.5 186.937C263.753 186.937 268.812 191.997 268.812 198.25V238.817L288.211 258.215C292.642 262.646 292.586 269.748 288.168 274.168Z" fill="url(#paint1_linear_74_19)"/>
<path d="M117.599 64.6599C115.335 60.3567 111.791 56.7712 107.4 54.1704C103.011 51.5811 97.7129 50.0001 91.9629 50.0001C84.8751 49.9825 78.9864 51.8291 74.5419 54.3865C70.0797 56.9347 68.1557 59.9016 68.1557 59.9016C67.4058 60.5523 66.9828 61.499 67.0005 62.4893C67.0208 63.481 67.4775 64.4119 68.2506 65.0303L74.4265 69.9768C75.6853 70.9847 77.4869 70.9469 78.7019 69.8878C78.7019 69.8878 79.4606 68.5166 81.8381 67.1584C84.2289 65.8092 87.3286 64.7225 91.9629 64.7079C96.0048 64.6991 99.5291 66.2075 101.934 68.2686C103.129 69.2897 104.022 70.4332 104.569 71.4792C105.12 72.5338 105.321 73.4557 105.319 74.156C105.307 76.522 104.847 78.0695 104.184 79.3882C103.678 80.3728 103.017 81.2466 102.166 82.0942C100.897 83.3633 99.1761 84.536 97.2449 85.614C95.3122 86.705 93.2291 87.6648 91.1241 88.8246C88.7217 90.1549 86.1793 92.0658 84.3005 94.9337C83.364 96.3515 82.6316 97.9734 82.1665 99.6845C81.6953 101.397 81.4825 103.193 81.4825 105.025C81.4825 106.979 81.4825 108.584 81.4825 108.584C81.4825 110.426 82.9761 111.92 84.8186 111.92H92.8558C94.6981 111.92 96.1918 110.426 96.1918 108.584C96.1918 108.584 96.1918 106.979 96.1918 105.025C96.1918 104.319 96.2721 103.864 96.3494 103.575C96.4823 103.143 96.5567 103.035 96.774 102.773C96.9957 102.523 97.4434 102.141 98.2689 101.684C99.4753 101.006 101.414 100.09 103.609 98.9041C106.895 97.107 110.891 94.6681 114.26 90.6435C115.937 88.635 117.418 86.2164 118.441 83.4303C119.472 80.6442 120.029 77.5125 120.027 74.156C120.024 70.7556 119.102 67.5261 117.599 64.6599Z" fill="white"/>
<path d="M88.8395 119.857C83.829 119.857 79.7666 123.921 79.7666 128.93C79.7666 133.937 83.8292 138 88.8395 138C93.8472 138 97.9081 133.937 97.9081 128.93C97.9081 123.921 93.8472 119.857 88.8395 119.857Z" fill="white"/>
<defs>
<filter id="filter0_d_74_19" x="26" y="12.9999" width="462" height="462" filterUnits="userSpaceOnUse" color-interpolation-filters="sRGB">
<feFlood flood-opacity="0" result="BackgroundImageFix"/>
<feColorMatrix in="SourceAlpha" type="matrix" values="0 0 0 0 0 0 0 0 0 0 0 0 0 0 0 0 0 0 127 0" result="hardAlpha"/>
<feOffset/>
<feGaussianBlur stdDeviation="5"/>
<feComposite in2="hardAlpha" operator="out"/>
<feColorMatrix type="matrix" values="0 0 0 0 0 0 0 0 0 0 0 0 0 0 0 0 0 0 0.04 0"/>
<feBlend mode="normal" in2="BackgroundImageFix" result="effect1_dropShadow_74_19"/>
<feBlend mode="normal" in="SourceGraphic" in2="effect1_dropShadow_74_19" result="shape"/>
</filter>
<linearGradient id="paint0_linear_74_19" x1="94.4545" y1="0.40332" x2="94.4545" y2="188.506" gradientUnits="userSpaceOnUse">
<stop stop-color="#E90205"/>
<stop offset="1" stop-color="#EF268F"/>
</linearGradient>
<linearGradient id="paint1_linear_74_19" x1="257.5" y1="153" x2="257.5" y2="334" gradientUnits="userSpaceOnUse">
<stop stop-color="#E90205"/>
<stop offset="1" stop-color="#EF268F"/>
</linearGradient>
</defs>
</svg>
