<svg width="488" height="475" viewBox="0 0 488 475" fill="none" xmlns="http://www.w3.org/2000/svg">
<g filter="url(#filter0_d_74_5)">
<circle cx="257" cy="244" r="221" fill="white"/>
</g>
<path d="M47.4367 175.892C2.46028 149.925 -12.9498 92.4134 13.0174 47.437C38.9846 2.46053 96.4957 -12.9495 141.472 13.0176C186.449 38.9848 201.859 96.496 175.892 141.472C149.924 186.449 92.4132 201.859 47.4367 175.892Z" fill="url(#paint0_linear_74_5)"/>
<path d="M89.6958 52.7082C90.8932 49.023 96.1068 49.023 97.3042 52.7082L104.389 74.5127C104.924 76.1608 106.46 77.2766 108.193 77.2766H131.12C134.995 77.2766 136.606 82.2351 133.471 84.5127L114.923 97.9886C113.521 99.0072 112.934 100.813 113.47 102.461L120.554 124.265C121.752 127.95 117.534 131.015 114.399 128.737L95.8511 115.261C94.4492 114.243 92.5508 114.243 91.1489 115.261L72.6009 128.737C69.466 131.015 65.2481 127.95 66.4455 124.265L73.5302 102.461C74.0657 100.813 73.4791 99.0072 72.0771 97.9886L53.5291 84.5127C50.3943 82.2351 52.0054 77.2766 55.8803 77.2766H78.8068C80.5397 77.2766 82.0756 76.1608 82.6111 74.5127L89.6958 52.7082Z" fill="white"/>
<path d="M272.404 155.164C261.252 153.865 250.67 160.393 246.846 170.931C245.985 173.305 245.682 175.873 245.54 178.564C245.434 180.594 245.407 183.014 245.402 185.865L245.4 189.861C245.4 189.904 245.4 189.946 245.4 189.988V260.846C237.922 253.84 227.863 249.55 216.8 249.55C193.714 249.55 175 268.231 175 291.275C175 314.32 193.714 333 216.8 333C239.886 333 258.599 314.32 258.599 291.275V214.067C259.522 214.558 260.521 215.056 261.615 215.602L285.441 227.493C289.122 229.33 292.118 230.825 294.572 231.893C297.046 232.97 299.482 233.848 301.996 234.141C313.147 235.439 323.729 228.911 327.552 218.374C328.415 215.999 328.717 213.432 328.859 210.741C328.999 208.072 328.999 204.729 328.999 200.621L329 199.894C329.001 196.839 329.002 194.449 328.568 192.185C327.45 186.355 324.222 181.141 319.499 177.536C317.663 176.136 315.522 175.068 312.784 173.703L288.958 161.812C285.277 159.975 282.282 158.479 279.828 157.412C277.353 156.335 274.917 155.456 272.404 155.164Z" fill="url(#paint1_linear_74_5)"/>
<defs>
<filter id="filter0_d_74_5" x="26" y="13" width="462" height="462" filterUnits="userSpaceOnUse" color-interpolation-filters="sRGB">
<feFlood flood-opacity="0" result="BackgroundImageFix"/>
<feColorMatrix in="SourceAlpha" type="matrix" values="0 0 0 0 0 0 0 0 0 0 0 0 0 0 0 0 0 0 127 0" result="hardAlpha"/>
<feOffset/>
<feGaussianBlur stdDeviation="5"/>
<feComposite in2="hardAlpha" operator="out"/>
<feColorMatrix type="matrix" values="0 0 0 0 0 0 0 0 0 0 0 0 0 0 0 0 0 0 0.04 0"/>
<feBlend mode="normal" in2="BackgroundImageFix" result="effect1_dropShadow_74_5"/>
<feBlend mode="normal" in="SourceGraphic" in2="effect1_dropShadow_74_5" result="shape"/>
</filter>
<linearGradient id="paint0_linear_74_5" x1="94.4545" y1="0.403564" x2="94.4545" y2="188.506" gradientUnits="userSpaceOnUse">
<stop stop-color="#E90205"/>
<stop offset="1" stop-color="#EF268F"/>
</linearGradient>
<linearGradient id="paint1_linear_74_5" x1="252" y1="155" x2="252" y2="333" gradientUnits="userSpaceOnUse">
<stop stop-color="#E90205"/>
<stop offset="1" stop-color="#EF268F"/>
</linearGradient>
</defs>
</svg>
