<svg width="488" height="475" viewBox="0 0 488 475" fill="none" xmlns="http://www.w3.org/2000/svg">
<g filter="url(#filter0_d_74_6)">
<circle cx="257" cy="244" r="221" fill="white"/>
</g>
<path d="M47.4367 175.892C2.46028 149.925 -12.9498 92.4134 13.0174 47.437C38.9846 2.46053 96.4957 -12.9495 141.472 13.0176C186.449 38.9848 201.859 96.496 175.892 141.472C149.924 186.449 92.4132 201.859 47.4367 175.892Z" fill="url(#paint0_linear_74_6)"/>
<rect x="51" y="94" width="26" height="33" rx="4" fill="white"/>
<rect x="81" y="75" width="26" height="52" rx="4" fill="white"/>
<rect x="111" y="53" width="26" height="74" rx="4" fill="white"/>
<path d="M54 135L134 135" stroke="white" stroke-width="5" stroke-linecap="round"/>
<path d="M258.5 150C310.112 150 352 191.888 352 243.5C352 295.112 310.112 337 258.5 337C206.888 337 165 295.112 165 243.5C165 191.888 206.888 150 258.5 150ZM202.615 275.44C216.341 295.916 236.948 308.95 259.996 308.95C283.034 308.95 303.651 295.925 317.368 275.44C301.807 260.897 281.295 252.82 259.996 252.85C238.694 252.818 218.178 260.894 202.615 275.44ZM258.5 234.15C265.939 234.15 273.074 231.195 278.334 225.934C283.595 220.674 286.55 213.539 286.55 206.1C286.55 198.661 283.595 191.526 278.334 186.266C273.074 181.005 265.939 178.05 258.5 178.05C251.061 178.05 243.926 181.005 238.666 186.266C233.405 191.526 230.45 198.661 230.45 206.1C230.45 213.539 233.405 220.674 238.666 225.934C243.926 231.195 251.061 234.15 258.5 234.15Z" fill="url(#paint1_linear_74_6)"/>
<defs>
<filter id="filter0_d_74_6" x="26" y="13" width="462" height="462" filterUnits="userSpaceOnUse" color-interpolation-filters="sRGB">
<feFlood flood-opacity="0" result="BackgroundImageFix"/>
<feColorMatrix in="SourceAlpha" type="matrix" values="0 0 0 0 0 0 0 0 0 0 0 0 0 0 0 0 0 0 127 0" result="hardAlpha"/>
<feOffset/>
<feGaussianBlur stdDeviation="5"/>
<feComposite in2="hardAlpha" operator="out"/>
<feColorMatrix type="matrix" values="0 0 0 0 0 0 0 0 0 0 0 0 0 0 0 0 0 0 0.04 0"/>
<feBlend mode="normal" in2="BackgroundImageFix" result="effect1_dropShadow_74_6"/>
<feBlend mode="normal" in="SourceGraphic" in2="effect1_dropShadow_74_6" result="shape"/>
</filter>
<linearGradient id="paint0_linear_74_6" x1="94.4545" y1="0.403564" x2="94.4545" y2="188.506" gradientUnits="userSpaceOnUse">
<stop stop-color="#E90205"/>
<stop offset="1" stop-color="#EF268F"/>
</linearGradient>
<linearGradient id="paint1_linear_74_6" x1="258.5" y1="150" x2="258.5" y2="337" gradientUnits="userSpaceOnUse">
<stop stop-color="#E90205"/>
<stop offset="1" stop-color="#EF268F"/>
</linearGradient>
</defs>
</svg>
