<svg fill="#ff911a" xmlns="http://www.w3.org/2000/svg" width="94" height="94" viewBox="0 0 94.1 94.1"><path d="M91.5 5.5c-0.7-0.3-1.6-0.1-2.2 0.4l-8.3 8.3C72 5.1 60.1 0 47.4 0c-2.7 0-5.4 0.2-8.1 0.7C21.2 3.8 6.5 17.4 1.9 35.2c-0.2 0.6 0 1.2 0.4 1.7 0.4 0.5 1 0.8 1.6 0.8h12.7c0.8 0 1.6-0.5 1.9-1.3 3.7-10.2 13-18 23.6-19.8 1.7-0.3 3.5-0.5 5.3-0.5 8.4 0 16.3 3.4 22.2 9.5l-8.4 8.4c-0.6 0.6-0.7 1.4-0.4 2.2 0.3 0.7 1 1.2 1.8 1.2h28.2c1.1 0 2-0.9 2-2V7.3C92.7 6.5 92.2 5.8 91.5 5.5z"/><path d="M90.2 56.3H77.5c-0.8 0-1.6 0.5-1.9 1.3 -3.7 10.2-13 18-23.6 19.8 -1.7 0.3-3.5 0.5-5.3 0.5 -8.4 0-16.3-3.4-22.2-9.5l8.4-8.4c0.6-0.6 0.7-1.4 0.4-2.2 -0.3-0.7-1-1.2-1.8-1.2H3.4c-1.1 0-2 0.9-2 2v28.2c0 0.8 0.5 1.5 1.2 1.8 0.7 0.3 1.6 0.1 2.2-0.4l8.3-8.3c8.9 9.2 20.8 14.2 33.6 14.2 2.7 0 5.4-0.2 8.1-0.7 18.1-3.1 32.8-16.7 37.4-34.5 0.2-0.6 0-1.2-0.4-1.7C91.4 56.6 90.8 56.3 90.2 56.3z"/></svg>