<svg width="85" height="85" viewBox="0 0 85 85" fill="none" xmlns="http://www.w3.org/2000/svg">
<path d="M84.5528 1.15338C84.5182 0.985426 84.4364 0.830833 84.3171 0.707729C84.1978 0.584624 84.046 0.498109 83.8793 0.458325C72.7665 -2.26114 47.0897 7.42981 33.1783 21.3481C30.6971 23.8115 28.4351 26.4866 26.4181 29.3431C22.1281 28.9633 17.8382 29.2805 14.182 30.8757C3.86615 35.4202 0.862645 47.2779 0.0259142 52.3788C-0.0215467 52.658 -0.00364442 52.9444 0.0782125 53.2155C0.160069 53.4866 0.303649 53.735 0.497658 53.9412C0.691668 54.1473 0.930817 54.3056 1.19629 54.4036C1.46177 54.5016 1.74634 54.5365 2.02762 54.5058L18.5934 52.677C18.6052 53.9271 18.6806 55.1757 18.8192 56.4182C18.9025 57.2809 19.2852 58.0872 19.9007 58.697L26.3156 65.1026C26.9254 65.7178 27.7307 66.1007 28.5924 66.1851C29.8268 66.3233 31.0673 66.3987 32.3093 66.4111L30.4917 82.9709C30.4613 83.2524 30.4966 83.537 30.5946 83.8026C30.6926 84.0681 30.8508 84.3073 31.0566 84.5014C31.2625 84.6955 31.5105 84.8392 31.7812 84.9213C32.0518 85.0033 32.3378 85.0216 32.6167 84.9744C37.7035 84.1579 49.5714 81.1516 54.0852 70.8264C55.679 67.1669 56.0053 62.894 55.6372 58.6211C58.4981 56.6021 61.1778 54.3374 63.646 51.8528C77.601 37.9554 87.2281 12.8289 84.5528 1.15338ZM49.7232 35.2739C48.4489 33.9993 47.581 32.3751 47.2291 30.6067C46.8772 28.8383 47.0572 27.0052 47.7463 25.3392C48.4354 23.6732 49.6027 22.2492 51.1005 21.2473C52.5984 20.2454 54.3594 19.7107 56.1609 19.7107C57.9624 19.7107 59.7234 20.2454 61.2213 21.2473C62.7191 22.2492 63.8864 23.6732 64.5755 25.3392C65.2646 27.0052 65.4446 28.8383 65.0928 30.6067C64.7409 32.3751 63.8729 33.9993 62.5986 35.2739C61.7536 36.1209 60.7501 36.7928 59.6455 37.2512C58.5408 37.7097 57.3567 37.9456 56.1609 37.9456C54.9651 37.9456 53.781 37.7097 52.6763 37.2512C51.5717 36.7928 50.5682 36.1209 49.7232 35.2739Z" fill="url(#paint0_linear_35_2)"/>
<path d="M23.6311 69.3976C22.6466 70.3841 21.0674 70.7686 19.1666 71.0974C14.896 71.8252 11.125 68.1344 11.8921 63.8165C12.185 62.1795 13.0509 59.8849 13.5899 59.3459C13.7077 59.2303 13.7861 59.0806 13.814 58.9179C13.8419 58.7553 13.8178 58.588 13.7452 58.4398C13.6726 58.2916 13.5552 58.17 13.4096 58.0924C13.264 58.0147 13.0976 57.9849 12.9341 58.0072C10.546 58.2994 8.3243 59.3823 6.62267 61.0834C2.39885 65.3115 2 81 2 81C2 81 17.6952 80.6011 21.919 76.373C23.6251 74.6726 24.7092 72.4471 24.9966 70.0552C25.063 69.3041 24.1486 68.8567 23.6311 69.3976Z" fill="url(#paint1_linear_35_2)"/>
<defs>
<linearGradient id="paint0_linear_35_2" x1="42.5" y1="0" x2="42.5" y2="85" gradientUnits="userSpaceOnUse">
<stop stop-color="#E90205"/>
<stop offset="1" stop-color="#EF268F"/>
</linearGradient>
<linearGradient id="paint1_linear_35_2" x1="13.5" y1="58" x2="13.5" y2="81" gradientUnits="userSpaceOnUse">
<stop stop-color="#E90205"/>
<stop offset="1" stop-color="#EF268F"/>
</linearGradient>
</defs>
</svg>
