<svg width="488" height="475" viewBox="0 0 488 475" fill="none" xmlns="http://www.w3.org/2000/svg">
<g filter="url(#filter0_d_74_3)">
<circle cx="257" cy="244" r="221" fill="white"/>
</g>
<path d="M47.4367 175.892C2.46028 149.925 -12.9498 92.4134 13.0174 47.437C38.9846 2.46053 96.4957 -12.9495 141.472 13.0176C186.449 38.9848 201.859 96.496 175.892 141.472C149.924 186.449 92.4132 201.859 47.4367 175.892Z" fill="url(#paint0_linear_74_3)"/>
<path fill-rule="evenodd" clip-rule="evenodd" d="M73 72C73 60.402 82.402 51 94 51C105.598 51 115 60.402 115 72C115 83.598 105.598 93 94 93C82.402 93 73 83.598 73 72Z" fill="white"/>
<path fill-rule="evenodd" clip-rule="evenodd" d="M63 120.286C63 108.53 72.53 99 84.2857 99H103.714C115.47 99 125 108.53 125 120.286C125 129.517 117.517 137 108.286 137H79.7143C70.4832 137 63 129.517 63 120.286Z" fill="white"/>
<path d="M235.59 358.543C235.682 358.451 235.747 358.342 235.831 358.246L235.836 358.251L348.137 245.949L348.104 245.915C348.977 244.978 349.494 243.838 349.678 242.655L349.77 242.746L359.483 206.5L359.357 206.534C359.832 204.714 359.462 202.741 358.252 201.189L358.303 201.139L357.806 200.643C357.795 200.633 357.791 200.619 357.779 200.61C357.77 200.6 357.757 200.595 357.747 200.582L306.697 149.532C305.118 147.95 302.901 147.429 300.876 147.923L300.882 147.9L264.634 157.612L264.684 157.663C263.431 157.855 262.221 158.415 261.254 159.38C261.196 159.438 261.159 159.503 261.105 159.563L149.172 271.498C149.035 271.614 148.886 271.709 148.756 271.838C146.417 274.182 146.368 277.933 148.59 280.353L148.571 280.373L226.808 358.613L226.869 358.554C229.278 360.952 233.183 360.951 235.59 358.543ZM305.958 201.879C301.501 197.423 301.499 190.197 305.955 185.742C310.411 181.285 317.635 181.286 322.092 185.742C326.55 190.198 326.548 197.422 322.089 201.88C317.64 206.336 310.413 206.335 305.958 201.879Z" fill="url(#paint1_linear_74_3)"/>
<defs>
<filter id="filter0_d_74_3" x="26" y="13" width="462" height="462" filterUnits="userSpaceOnUse" color-interpolation-filters="sRGB">
<feFlood flood-opacity="0" result="BackgroundImageFix"/>
<feColorMatrix in="SourceAlpha" type="matrix" values="0 0 0 0 0 0 0 0 0 0 0 0 0 0 0 0 0 0 127 0" result="hardAlpha"/>
<feOffset/>
<feGaussianBlur stdDeviation="5"/>
<feComposite in2="hardAlpha" operator="out"/>
<feColorMatrix type="matrix" values="0 0 0 0 0 0 0 0 0 0 0 0 0 0 0 0 0 0 0.04 0"/>
<feBlend mode="normal" in2="BackgroundImageFix" result="effect1_dropShadow_74_3"/>
<feBlend mode="normal" in="SourceGraphic" in2="effect1_dropShadow_74_3" result="shape"/>
</filter>
<linearGradient id="paint0_linear_74_3" x1="94.4545" y1="0.403564" x2="94.4545" y2="188.506" gradientUnits="userSpaceOnUse">
<stop stop-color="#E90205"/>
<stop offset="1" stop-color="#EF268F"/>
</linearGradient>
<linearGradient id="paint1_linear_74_3" x1="365.811" y1="227.505" x2="149.25" y2="285.532" gradientUnits="userSpaceOnUse">
<stop stop-color="#E90205"/>
<stop offset="1" stop-color="#EF268F"/>
</linearGradient>
</defs>
</svg>
