<svg width="488" height="475" viewBox="0 0 488 475" fill="none" xmlns="http://www.w3.org/2000/svg">
<g filter="url(#filter0_d_74_8)">
<circle cx="257" cy="244" r="221" fill="white"/>
</g>
<path d="M47.4367 175.892C2.46028 149.924 -12.9498 92.4132 13.0174 47.4367C38.9846 2.46028 96.4957 -12.9498 141.472 13.0174C186.449 38.9846 201.859 96.4957 175.892 141.472C149.924 186.449 92.4132 201.859 47.4367 175.892Z" fill="url(#paint0_linear_74_8)"/>
<path d="M137.753 80.3259L137.781 80.3092L124.608 57.3484L124.892 57.2875C126.083 57.0304 126.932 55.977 126.932 54.7594V53.5859C126.932 51.9393 125.412 50.7115 123.801 51.0591L63.0552 64.161C61.8648 64.4182 61.0158 65.4716 61.0158 66.6892V67.8627C61.0158 69.4615 62.4491 70.6518 64.0054 70.4037L50.1666 94.5265L50.1949 94.5434H47C47 102.747 55.6389 109.397 66.2954 109.397C76.9518 109.397 85.5909 102.747 85.5909 94.5434H82.8509L82.8792 94.5265L68.4939 69.4513L90.7426 64.6522V131.345C79.9388 132.18 77.3229 137 77.3229 137H110.692C110.692 137 108.066 132.16 97.2051 131.339V63.2588L117.343 58.9149L105.071 80.3092L105.1 80.3259H102.358C102.358 88.5294 110.997 95.1792 121.654 95.1792C132.31 95.1792 140.949 88.5294 140.949 80.3259H137.753ZM54.6269 94.5432L66.5215 73.8081L78.4163 94.5432H54.6269ZM109.53 80.3259L121.425 59.5895L133.321 80.3259H109.53Z" fill="white"/>
<path d="M297.479 281.138C289.999 278.341 279.091 270.174 279.091 265.089C279.091 261.721 279.091 257.512 279.091 251.744C283.414 246.934 286.701 237.17 288.655 226.102C293.212 224.475 295.816 221.871 299.069 210.48C302.527 198.346 293.861 198.758 293.861 198.758C300.87 175.556 291.644 153.75 276.19 155.351C265.53 136.702 229.826 159.611 218.639 158.014C218.639 164.41 221.302 169.205 221.302 169.205C217.414 176.589 218.914 191.312 220.006 198.758C219.374 198.747 211.538 198.829 214.862 210.48C218.115 221.871 220.719 224.475 225.276 226.102C227.226 237.17 230.513 246.934 234.84 251.744C234.84 257.512 234.84 261.721 234.84 265.089C234.84 270.174 223.252 278.739 216.452 281.138C202.401 286.086 167.874 300.314 170.103 326.967C170.637 333.363 205.807 340 256.965 340C308.12 340 343.294 333.363 343.828 326.967C346.057 300.288 311.441 286.36 297.479 281.138Z" fill="url(#paint1_linear_74_8)"/>
<defs>
<filter id="filter0_d_74_8" x="26" y="12.9999" width="462" height="462" filterUnits="userSpaceOnUse" color-interpolation-filters="sRGB">
<feFlood flood-opacity="0" result="BackgroundImageFix"/>
<feColorMatrix in="SourceAlpha" type="matrix" values="0 0 0 0 0 0 0 0 0 0 0 0 0 0 0 0 0 0 127 0" result="hardAlpha"/>
<feOffset/>
<feGaussianBlur stdDeviation="5"/>
<feComposite in2="hardAlpha" operator="out"/>
<feColorMatrix type="matrix" values="0 0 0 0 0 0 0 0 0 0 0 0 0 0 0 0 0 0 0.04 0"/>
<feBlend mode="normal" in2="BackgroundImageFix" result="effect1_dropShadow_74_8"/>
<feBlend mode="normal" in="SourceGraphic" in2="effect1_dropShadow_74_8" result="shape"/>
</filter>
<linearGradient id="paint0_linear_74_8" x1="94.4545" y1="0.40332" x2="94.4545" y2="188.506" gradientUnits="userSpaceOnUse">
<stop stop-color="#E90205"/>
<stop offset="1" stop-color="#EF268F"/>
</linearGradient>
<linearGradient id="paint1_linear_74_8" x1="256.965" y1="148" x2="256.965" y2="340" gradientUnits="userSpaceOnUse">
<stop stop-color="#E90205"/>
<stop offset="1" stop-color="#EF268F"/>
</linearGradient>
</defs>
</svg>
