<svg width="15" height="13" viewBox="0 0 15 13" fill="none" xmlns="http://www.w3.org/2000/svg">
<path d="M7.51893 13L1.26895 7.04132C0.879277 6.67068 0.566741 6.22726 0.3492 5.73637C0.131659 5.24549 0.0133537 4.71675 0.00106672 4.18035C-0.0112203 3.64395 0.0827427 3.11041 0.27758 2.61016C0.472418 2.10991 0.764307 1.65276 1.13661 1.26482C1.50891 0.876879 1.95433 0.565754 2.44742 0.349183C2.9405 0.132611 3.47161 0.0148501 4.01041 0.0026179C4.54921 -0.00961434 5.08514 0.0839127 5.58763 0.277882C6.09012 0.471851 6.54932 0.762457 6.93899 1.1331L7.50205 1.69365L8.06512 1.1331C8.85061 0.384555 9.90261 -0.0226772 10.9897 0.000975657C12.0768 0.0246285 13.1099 0.477233 13.8618 1.25922C14.6137 2.04122 15.0228 3.08853 14.999 4.17079C14.9753 5.25304 14.5206 6.28156 13.7351 7.0301L7.51893 13Z" fill="#FF1515"/>
</svg>
