<svg width="488" height="475" viewBox="0 0 488 475" fill="none" xmlns="http://www.w3.org/2000/svg">
<g filter="url(#filter0_d_74_18)">
<circle cx="257" cy="244" r="221" fill="white"/>
</g>
<path d="M47.4367 175.892C2.46028 149.925 -12.9498 92.4134 13.0174 47.437C38.9846 2.46053 96.4957 -12.9495 141.472 13.0176C186.449 38.9848 201.859 96.496 175.892 141.472C149.924 186.449 92.4132 201.859 47.4367 175.892Z" fill="url(#paint0_linear_74_18)"/>
<path d="M129.801 63.1683C127.513 60.8901 124.788 59.0832 121.784 57.8525C118.78 56.6218 115.558 55.9921 112.305 56.0001C109.051 55.9921 105.829 56.6218 102.825 57.8525C99.8217 59.0832 97.0966 60.8901 94.8087 63.1683L93.4129 64.5921L92.0172 63.2174C87.39 58.6602 81.1144 56.1 74.5709 56.1C68.0273 56.1 61.7518 58.6602 57.1245 63.2174C52.5579 67.8063 50 73.9758 50 80.4015C50 86.8273 52.5579 92.9969 57.1245 97.5856L90.8708 130.923C91.5716 131.613 92.5217 132 93.5126 132C94.5031 132 95.4537 131.613 96.1545 130.923L129.901 97.5856C134.469 92.9817 137.018 86.7944 137 80.3569C136.981 73.9192 134.396 67.7465 129.801 63.1683Z" fill="white"/>
<path fill-rule="evenodd" clip-rule="evenodd" d="M166 228.484C166 197.147 166 181.479 169.805 176.208C173.611 170.937 188.764 165.894 219.069 155.808L219.07 155.808L224.844 153.886L224.847 153.885C240.643 148.628 248.541 146 256.72 146C264.898 146 272.797 148.628 288.593 153.885L288.596 153.886L294.37 155.808L294.371 155.808C324.677 165.894 339.83 170.937 343.635 176.208C347.44 181.479 347.44 197.147 347.44 228.484V243.916C347.44 299.168 304.711 325.982 277.902 337.368L277.9 337.369C270.63 340.456 266.993 342 256.72 342C246.447 342 242.811 340.456 235.54 337.369L235.537 337.368C208.729 325.982 166 299.168 166 243.916V228.484ZM280.715 214.5C278.439 210.173 274.875 206.568 270.46 203.953C266.047 201.35 260.72 199.76 254.939 199.76C247.813 199.742 241.892 201.599 237.423 204.17C232.936 206.733 231.002 209.716 231.002 209.716C230.248 210.37 229.823 211.322 229.841 212.318C229.861 213.315 230.32 214.251 231.097 214.872L237.307 219.846C238.573 220.859 240.384 220.821 241.606 219.756C241.606 219.756 242.369 218.378 244.759 217.012C247.163 215.656 250.28 214.563 254.939 214.548C259.003 214.539 262.547 216.056 264.965 218.128C266.166 219.155 267.064 220.305 267.614 221.356C268.168 222.417 268.371 223.344 268.368 224.048C268.356 226.427 267.894 227.983 267.227 229.309C266.718 230.299 266.053 231.177 265.198 232.029C263.922 233.305 262.192 234.484 260.25 235.568C259.232 236.143 258.173 236.681 257.091 237.231C256.107 237.731 255.104 238.241 254.096 238.796C251.68 240.134 249.124 242.055 247.235 244.939C246.293 246.364 245.557 247.995 245.089 249.716C244.615 251.437 244.402 253.243 244.402 255.085V258.664C244.402 260.516 245.903 262.018 247.756 262.018H255.837C257.689 262.018 259.191 260.516 259.191 258.664V255.085C259.191 254.375 259.272 253.918 259.35 253.627C259.483 253.193 259.558 253.085 259.776 252.82C259.999 252.57 260.45 252.186 261.28 251.726C261.874 251.392 262.644 251.001 263.535 250.549L263.535 250.549L263.536 250.548C264.464 250.077 265.523 249.539 266.649 248.931C269.953 247.124 273.97 244.672 277.358 240.625C279.044 238.606 280.534 236.174 281.562 233.373C282.599 230.571 283.159 227.423 283.156 224.048C283.153 220.629 282.226 217.382 280.715 214.5ZM242.676 279.121C242.676 274.084 246.761 269.998 251.799 269.998C256.834 269.998 260.917 274.084 260.917 279.121C260.917 284.156 256.834 288.24 251.799 288.24C246.761 288.24 242.676 284.156 242.676 279.121Z" fill="url(#paint1_linear_74_18)"/>
<defs>
<filter id="filter0_d_74_18" x="26" y="13" width="462" height="462" filterUnits="userSpaceOnUse" color-interpolation-filters="sRGB">
<feFlood flood-opacity="0" result="BackgroundImageFix"/>
<feColorMatrix in="SourceAlpha" type="matrix" values="0 0 0 0 0 0 0 0 0 0 0 0 0 0 0 0 0 0 127 0" result="hardAlpha"/>
<feOffset/>
<feGaussianBlur stdDeviation="5"/>
<feComposite in2="hardAlpha" operator="out"/>
<feColorMatrix type="matrix" values="0 0 0 0 0 0 0 0 0 0 0 0 0 0 0 0 0 0 0.04 0"/>
<feBlend mode="normal" in2="BackgroundImageFix" result="effect1_dropShadow_74_18"/>
<feBlend mode="normal" in="SourceGraphic" in2="effect1_dropShadow_74_18" result="shape"/>
</filter>
<linearGradient id="paint0_linear_74_18" x1="94.4545" y1="0.403564" x2="94.4545" y2="188.506" gradientUnits="userSpaceOnUse">
<stop stop-color="#E90205"/>
<stop offset="1" stop-color="#EF268F"/>
</linearGradient>
<linearGradient id="paint1_linear_74_18" x1="256.72" y1="146" x2="256.72" y2="342" gradientUnits="userSpaceOnUse">
<stop stop-color="#E90205"/>
<stop offset="1" stop-color="#EF268F"/>
</linearGradient>
</defs>
</svg>
