<svg width="488" height="475" viewBox="0 0 488 475" fill="none" xmlns="http://www.w3.org/2000/svg">
<g filter="url(#filter0_d_74_10)">
<circle cx="257" cy="244" r="221" fill="white"/>
</g>
<path d="M47.4367 175.892C2.46028 149.924 -12.9498 92.4132 13.0174 47.4367C38.9846 2.46028 96.4957 -12.9498 141.472 13.0174C186.449 38.9846 201.859 96.4957 175.892 141.472C149.924 186.449 92.4132 201.859 47.4367 175.892Z" fill="url(#paint0_linear_74_10)"/>
<path fill-rule="evenodd" clip-rule="evenodd" d="M89.4545 48.5455C89.4545 47.3399 89.9334 46.1838 90.7859 45.3313C91.6383 44.4789 92.7945 44 94 44C95.2055 44 96.3617 44.4789 97.2141 45.3313C98.0666 46.1838 98.5455 47.3399 98.5455 48.5455V57.9182C106.556 58.9299 114.003 62.5779 119.713 68.2874C125.422 73.997 129.07 81.4437 130.082 89.4545H139.455C140.66 89.4545 141.816 89.9334 142.669 90.7859C143.521 91.6383 144 92.7945 144 94C144 95.2055 143.521 96.3617 142.669 97.2141C141.816 98.0666 140.66 98.5455 139.455 98.5455H130.082C129.07 106.556 125.422 114.003 119.713 119.713C114.003 125.422 106.556 129.07 98.5455 130.082V139.455C98.5455 140.66 98.0666 141.816 97.2141 142.669C96.3617 143.521 95.2055 144 94 144C92.7945 144 91.6383 143.521 90.7859 142.669C89.9334 141.816 89.4545 140.66 89.4545 139.455V130.082C81.4437 129.07 73.997 125.422 68.2874 119.713C62.5779 114.003 58.9299 106.556 57.9182 98.5455H48.5455C47.3399 98.5455 46.1838 98.0666 45.3313 97.2141C44.4789 96.3617 44 95.2055 44 94C44 92.7945 44.4789 91.6383 45.3313 90.7859C46.1838 89.9334 47.3399 89.4545 48.5455 89.4545H57.9182C58.9299 81.4437 62.5779 73.997 68.2874 68.2874C73.997 62.5779 81.4437 58.9299 89.4545 57.9182V48.5455ZM121.273 94C121.273 86.7668 118.399 79.8299 113.285 74.7153C108.17 69.6006 101.233 66.7273 94 66.7273C86.7668 66.7273 79.8299 69.6006 74.7153 74.7153C69.6006 79.8299 66.7273 86.7668 66.7273 94C66.7273 101.233 69.6006 108.17 74.7153 113.285C79.8299 118.399 86.7668 121.273 94 121.273C101.233 121.273 108.17 118.399 113.285 113.285C118.399 108.17 121.273 101.233 121.273 94ZM107.636 94C107.636 97.6166 106.2 101.085 103.642 103.642C101.085 106.2 97.6166 107.636 94 107.636C90.3834 107.636 86.9149 106.2 84.3576 103.642C81.8003 101.085 80.3636 97.6166 80.3636 94C80.3636 90.3834 81.8003 86.9149 84.3576 84.3576C86.9149 81.8003 90.3834 80.3636 94 80.3636C97.6166 80.3636 101.085 81.8003 103.642 84.3576C106.2 86.9149 107.636 90.3834 107.636 94Z" fill="white"/>
<rect x="181" y="303" width="153" height="32" fill="url(#paint1_linear_74_10)"/>
<path fill-rule="evenodd" clip-rule="evenodd" d="M190.78 296.177L190.78 239.112C190.78 202.099 220.785 172.094 257.799 172.094C294.812 172.094 324.817 202.099 324.817 239.112V296.177L190.78 296.177ZM255.173 201.29C251.859 201.29 249.173 203.976 249.173 207.29V212.6L251.378 240.084C251.621 243.121 254.157 245.461 257.203 245.461C260.244 245.461 262.777 243.128 263.027 240.098L265.297 212.6V207.29C265.297 203.976 262.611 201.29 259.297 201.29H255.173ZM265.258 259.637C265.258 264.069 261.666 267.661 257.234 267.661C252.803 267.661 249.21 264.069 249.21 259.637C249.21 255.206 252.803 251.613 257.234 251.613C261.666 251.613 265.258 255.206 265.258 259.637Z" fill="url(#paint2_linear_74_10)"/>
<path d="M188.397 190.077L172.515 180.458C169.907 178.883 166.608 179.947 165.188 182.841C163.769 185.736 164.728 189.396 167.375 190.971L183.218 200.59C185.827 202.165 189.126 201.101 190.545 198.206C191.965 195.312 191.006 191.652 188.397 190.077Z" fill="url(#paint3_linear_74_10)"/>
<path d="M221.81 162.284L212.91 146.026C211.376 143.174 208.038 142.28 205.468 144.025C202.898 145.728 202.092 149.431 203.665 152.282L212.565 168.541C214.1 171.393 217.437 172.286 220.007 170.541C222.578 168.796 223.383 165.136 221.81 162.284Z" fill="url(#paint4_linear_74_10)"/>
<path d="M257.257 131C254.264 131 251.848 133.681 251.848 137.001V155.473C251.848 158.793 254.264 161.475 257.257 161.475C260.249 161.475 262.666 158.793 262.666 155.473V137.001C262.666 133.681 260.249 131 257.257 131Z" fill="url(#paint5_linear_74_10)"/>
<path d="M309.046 144.025C306.476 142.322 303.176 143.216 301.604 146.025L292.704 162.284C291.169 165.135 291.975 168.838 294.507 170.541C297.077 172.286 300.376 171.35 301.949 168.54L310.849 152.282C312.383 149.43 311.578 145.77 309.046 144.025Z" fill="url(#paint6_linear_74_10)"/>
<path d="M349.287 182.841C347.867 179.947 344.568 178.84 341.96 180.457L326.078 190.076C323.469 191.651 322.51 195.269 323.93 198.206C325.349 201.1 328.648 202.207 331.257 200.589L347.139 190.97C349.747 189.395 350.745 185.735 349.287 182.841Z" fill="url(#paint7_linear_74_10)"/>
<defs>
<filter id="filter0_d_74_10" x="26" y="13" width="462" height="462" filterUnits="userSpaceOnUse" color-interpolation-filters="sRGB">
<feFlood flood-opacity="0" result="BackgroundImageFix"/>
<feColorMatrix in="SourceAlpha" type="matrix" values="0 0 0 0 0 0 0 0 0 0 0 0 0 0 0 0 0 0 127 0" result="hardAlpha"/>
<feOffset/>
<feGaussianBlur stdDeviation="5"/>
<feComposite in2="hardAlpha" operator="out"/>
<feColorMatrix type="matrix" values="0 0 0 0 0 0 0 0 0 0 0 0 0 0 0 0 0 0 0.04 0"/>
<feBlend mode="normal" in2="BackgroundImageFix" result="effect1_dropShadow_74_10"/>
<feBlend mode="normal" in="SourceGraphic" in2="effect1_dropShadow_74_10" result="shape"/>
</filter>
<linearGradient id="paint0_linear_74_10" x1="94.4545" y1="0.40332" x2="94.4545" y2="188.506" gradientUnits="userSpaceOnUse">
<stop stop-color="#E90205"/>
<stop offset="1" stop-color="#EF268F"/>
</linearGradient>
<linearGradient id="paint1_linear_74_10" x1="257.5" y1="303" x2="257.5" y2="335" gradientUnits="userSpaceOnUse">
<stop stop-color="#E90205"/>
<stop offset="1" stop-color="#EF268F"/>
</linearGradient>
<linearGradient id="paint2_linear_74_10" x1="257.799" y1="172.094" x2="257.799" y2="296.177" gradientUnits="userSpaceOnUse">
<stop stop-color="#E90205"/>
<stop offset="1" stop-color="#EF268F"/>
</linearGradient>
<linearGradient id="paint3_linear_74_10" x1="177.867" y1="179.73" x2="177.867" y2="201.318" gradientUnits="userSpaceOnUse">
<stop stop-color="#E90205"/>
<stop offset="1" stop-color="#EF268F"/>
</linearGradient>
<linearGradient id="paint4_linear_74_10" x1="212.738" y1="143.133" x2="212.738" y2="171.433" gradientUnits="userSpaceOnUse">
<stop stop-color="#E90205"/>
<stop offset="1" stop-color="#EF268F"/>
</linearGradient>
<linearGradient id="paint5_linear_74_10" x1="257.257" y1="131" x2="257.257" y2="161.475" gradientUnits="userSpaceOnUse">
<stop stop-color="#E90205"/>
<stop offset="1" stop-color="#EF268F"/>
</linearGradient>
<linearGradient id="paint6_linear_74_10" x1="301.776" y1="143.162" x2="301.776" y2="171.423" gradientUnits="userSpaceOnUse">
<stop stop-color="#E90205"/>
<stop offset="1" stop-color="#EF268F"/>
</linearGradient>
<linearGradient id="paint7_linear_74_10" x1="336.617" y1="179.71" x2="336.617" y2="201.336" gradientUnits="userSpaceOnUse">
<stop stop-color="#E90205"/>
<stop offset="1" stop-color="#EF268F"/>
</linearGradient>
</defs>
</svg>
