<svg width="488" height="475" viewBox="0 0 488 475" fill="none" xmlns="http://www.w3.org/2000/svg">
<g filter="url(#filter0_d_74_2)">
<circle cx="257" cy="244" r="221" fill="white"/>
</g>
<path d="M47.4367 175.893C2.46028 149.925 -12.9498 92.4142 13.0174 47.4377C38.9846 2.46126 96.4957 -12.9488 141.472 13.0184C186.449 38.9855 201.859 96.4967 175.892 141.473C149.924 186.45 92.4132 201.86 47.4367 175.893Z" fill="url(#paint0_linear_74_2)"/>
<path d="M367.31 173H304.552C300.391 173 296.401 174.646 293.458 177.577C290.516 180.507 288.863 184.481 288.863 188.625C288.863 192.769 290.516 196.744 293.458 199.674C296.401 202.604 300.391 204.25 304.552 204.25H329.435L273.173 260.28L221.508 208.828C220.052 207.377 218.322 206.225 216.419 205.44C214.516 204.655 212.476 204.25 210.415 204.25C208.355 204.25 206.315 204.655 204.411 205.44C202.508 206.225 200.779 207.377 199.322 208.828L136.564 271.328C133.636 274.261 131.994 278.23 132 282.366C132.006 286.502 133.658 290.467 136.595 293.392C139.532 296.317 143.513 297.962 147.666 297.968C151.819 297.974 155.805 296.339 158.75 293.423L210.415 241.97L262.08 293.423C263.537 294.874 265.266 296.025 267.17 296.811C269.073 297.596 271.113 298 273.173 298C275.234 298 277.274 297.596 279.177 296.811C281.08 296.025 282.81 294.874 284.266 293.423L351.621 226.345V251.125C351.621 255.269 353.274 259.244 356.216 262.174C359.159 265.104 363.149 266.75 367.31 266.75C371.472 266.75 375.462 265.104 378.405 262.174C381.347 259.244 383 255.269 383 251.125V188.625C383.001 186.573 382.596 184.541 381.808 182.644C381.02 180.748 379.864 179.025 378.407 177.574C376.95 176.123 375.22 174.972 373.316 174.187C371.412 173.402 369.371 172.999 367.31 173Z" fill="url(#paint1_linear_74_2)"/>
<path d="M104.334 48.0837C98.686 47.4199 93.3263 50.7573 91.3897 56.1443C90.9533 57.3584 90.8 58.6709 90.7282 60.0468C90.6743 61.0847 90.6609 62.322 90.6583 63.7792L90.6569 65.8224C90.6569 65.844 90.6569 65.8656 90.6569 65.8871V102.112C86.8697 98.5307 81.7748 96.3374 76.1713 96.3374C64.4787 96.3374 55 105.888 55 117.669C55 129.45 64.4787 139 76.1713 139C87.8641 139 97.3426 129.45 97.3426 117.669V78.1973C97.8097 78.4482 98.3156 78.7028 98.87 78.9817L110.938 85.0611C112.802 86.0001 114.319 86.7644 115.562 87.3105C116.816 87.8611 118.049 88.3101 119.322 88.4597C124.97 89.1234 130.33 85.7859 132.267 80.3991C132.704 79.1851 132.856 77.8725 132.929 76.4966C133 75.1322 133 73.4232 133 71.3232L133 70.9512C133 69.3895 133.001 68.1678 132.781 67.0101C132.215 64.03 130.58 61.3642 128.188 59.5212C127.258 58.8053 126.173 58.2594 124.787 57.5617L112.719 51.4824C110.855 50.5432 109.338 49.7788 108.094 49.2329C106.841 48.6823 105.607 48.2333 104.334 48.0837Z" fill="white"/>
<defs>
<filter id="filter0_d_74_2" x="26" y="13" width="462" height="462" filterUnits="userSpaceOnUse" color-interpolation-filters="sRGB">
<feFlood flood-opacity="0" result="BackgroundImageFix"/>
<feColorMatrix in="SourceAlpha" type="matrix" values="0 0 0 0 0 0 0 0 0 0 0 0 0 0 0 0 0 0 127 0" result="hardAlpha"/>
<feOffset/>
<feGaussianBlur stdDeviation="5"/>
<feComposite in2="hardAlpha" operator="out"/>
<feColorMatrix type="matrix" values="0 0 0 0 0 0 0 0 0 0 0 0 0 0 0 0 0 0 0.04 0"/>
<feBlend mode="normal" in2="BackgroundImageFix" result="effect1_dropShadow_74_2"/>
<feBlend mode="normal" in="SourceGraphic" in2="effect1_dropShadow_74_2" result="shape"/>
</filter>
<linearGradient id="paint0_linear_74_2" x1="94.4545" y1="0.404297" x2="94.4545" y2="188.507" gradientUnits="userSpaceOnUse">
<stop stop-color="#E90205"/>
<stop offset="1" stop-color="#EF268F"/>
</linearGradient>
<linearGradient id="paint1_linear_74_2" x1="257.5" y1="173" x2="257.5" y2="298" gradientUnits="userSpaceOnUse">
<stop stop-color="#E90205"/>
<stop offset="1" stop-color="#EF268F"/>
</linearGradient>
</defs>
</svg>
