<svg width="488" height="475" viewBox="0 0 488 475" fill="none" xmlns="http://www.w3.org/2000/svg">
<g filter="url(#filter0_d_74_11)">
<circle cx="257" cy="244" r="221" fill="white"/>
</g>
<path d="M47.4367 175.892C2.46028 149.924 -12.9498 92.4132 13.0174 47.4367C38.9846 2.46028 96.4957 -12.9498 141.472 13.0174C186.449 38.9846 201.859 96.4957 175.892 141.472C149.924 186.449 92.4132 201.859 47.4367 175.892Z" fill="url(#paint0_linear_74_11)"/>
<path d="M279 155.041V222.549H250.889C246.816 222.549 242.909 224.242 240.029 227.256C237.148 230.27 235.53 234.358 235.53 238.62V266H213.677C209.726 265.993 205.852 264.859 202.471 262.719C199.091 260.579 196.333 257.514 194.495 253.855C192.656 250.196 191.806 246.082 192.037 241.955C192.268 237.828 193.571 233.845 195.805 230.436L250.889 146.113C252.723 143.255 255.385 141.089 258.484 139.933C261.583 138.777 264.954 138.693 268.102 139.693C271.25 140.693 274.008 142.724 275.97 145.487C277.932 148.25 278.994 151.599 279 155.041Z" fill="url(#paint1_linear_74_11)"/>
<path d="M279 222V249.726C278.987 254.038 277.345 258.17 274.433 261.219C271.52 264.268 267.573 265.987 263.454 266H235V238.274C235 233.958 236.638 229.818 239.553 226.767C242.469 223.715 246.423 222 250.546 222H279Z" fill="#E60157"/>
<path opacity="0.8" d="M318.325 257.488L263.155 341.984C261.291 344.829 258.606 346.974 255.494 348.106C252.381 349.237 249.005 349.297 245.858 348.274C242.711 347.252 239.959 345.202 238.005 342.425C236.052 339.647 234.998 336.288 235 332.839V265.54H263.155C267.231 265.527 271.136 263.826 274.019 260.809C276.901 257.792 278.526 253.703 278.538 249.436V222H300.568C304.484 222.068 308.31 223.239 311.643 225.39C314.977 227.542 317.695 230.593 319.512 234.225C321.329 237.856 322.178 241.933 321.969 246.027C321.76 250.121 320.502 254.08 318.325 257.488Z" fill="url(#paint2_linear_74_11)"/>
<path d="M89.6958 52.7082C90.8932 49.023 96.1068 49.023 97.3042 52.7082L104.389 74.5127C104.924 76.1608 106.46 77.2766 108.193 77.2766H131.12C134.995 77.2766 136.606 82.2351 133.471 84.5127L114.923 97.9886C113.521 99.0072 112.934 100.813 113.47 102.461L120.554 124.265C121.752 127.95 117.534 131.015 114.399 128.737L95.8511 115.261C94.4492 114.243 92.5508 114.243 91.1489 115.261L72.6009 128.737C69.466 131.015 65.2481 127.95 66.4455 124.265L73.5302 102.461C74.0657 100.813 73.4791 99.0072 72.0771 97.9886L53.5291 84.5127C50.3943 82.2351 52.0054 77.2766 55.8803 77.2766H78.8068C80.5397 77.2766 82.0756 76.1608 82.6111 74.5127L89.6958 52.7082Z" fill="white"/>
<defs>
<filter id="filter0_d_74_11" x="26" y="13" width="462" height="462" filterUnits="userSpaceOnUse" color-interpolation-filters="sRGB">
<feFlood flood-opacity="0" result="BackgroundImageFix"/>
<feColorMatrix in="SourceAlpha" type="matrix" values="0 0 0 0 0 0 0 0 0 0 0 0 0 0 0 0 0 0 127 0" result="hardAlpha"/>
<feOffset/>
<feGaussianBlur stdDeviation="5"/>
<feComposite in2="hardAlpha" operator="out"/>
<feColorMatrix type="matrix" values="0 0 0 0 0 0 0 0 0 0 0 0 0 0 0 0 0 0 0.04 0"/>
<feBlend mode="normal" in2="BackgroundImageFix" result="effect1_dropShadow_74_11"/>
<feBlend mode="normal" in="SourceGraphic" in2="effect1_dropShadow_74_11" result="shape"/>
</filter>
<linearGradient id="paint0_linear_74_11" x1="94.4545" y1="0.40332" x2="94.4545" y2="188.506" gradientUnits="userSpaceOnUse">
<stop stop-color="#E90205"/>
<stop offset="1" stop-color="#EF268F"/>
</linearGradient>
<linearGradient id="paint1_linear_74_11" x1="234.724" y1="261.635" x2="238.305" y2="136.797" gradientUnits="userSpaceOnUse">
<stop stop-color="#ED28B0"/>
<stop offset="1" stop-color="#F51434"/>
</linearGradient>
<linearGradient id="paint2_linear_74_11" x1="235" y1="285.67" x2="322.124" y2="285.67" gradientUnits="userSpaceOnUse">
<stop stop-color="#ED28B0"/>
<stop offset="1" stop-color="#F51434"/>
</linearGradient>
</defs>
</svg>
