<svg width="488" height="475" viewBox="0 0 488 475" fill="none" xmlns="http://www.w3.org/2000/svg">
<g filter="url(#filter0_d_89_38)">
<circle cx="257" cy="244" r="221" fill="white"/>
</g>
<path d="M47.4367 175.892C2.46028 149.925 -12.9498 92.4134 13.0174 47.437C38.9846 2.46053 96.4957 -12.9495 141.472 13.0176C186.449 38.9848 201.859 96.496 175.892 141.472C149.924 186.449 92.4132 201.859 47.4367 175.892Z" fill="url(#paint0_linear_89_38)"/>
<path d="M120.049 62.6595C117.631 58.0629 113.845 54.233 109.154 51.4548C104.466 48.689 98.807 47.0001 92.6649 47.0001C85.0939 46.9814 78.8036 48.9539 74.0561 51.6856C69.2896 54.4076 67.2345 57.5767 67.2345 57.5767C66.4335 58.2718 65.9817 59.2831 66.0006 60.3409C66.0222 61.4003 66.51 62.3946 67.3358 63.0552L73.9329 68.339C75.2775 69.4156 77.202 69.3752 78.4998 68.2439C78.4998 68.2439 79.3102 66.7792 81.8498 65.3284C84.4036 63.8872 87.7147 62.7263 92.6649 62.7107C96.9825 62.7014 100.747 64.3126 103.316 66.5142C104.593 67.605 105.546 68.8264 106.13 69.9438C106.719 71.0703 106.934 72.0551 106.931 72.803C106.919 75.3304 106.428 76.9835 105.719 78.392C105.178 79.4438 104.473 80.3772 103.564 81.2825C102.208 82.6381 100.37 83.8908 98.3071 85.0423C96.2426 86.2077 94.0174 87.2329 91.769 88.4718C89.2027 89.8928 86.487 91.934 84.4801 94.9974C83.4797 96.5119 82.6974 98.2445 82.2006 100.072C81.6972 101.901 81.4699 103.82 81.4699 105.777C81.4699 107.864 81.4699 109.578 81.4699 109.578C81.4699 111.546 83.0654 113.142 85.0335 113.142H93.6187C95.5866 113.142 97.1822 111.546 97.1822 109.578C97.1822 109.578 97.1822 107.864 97.1822 105.777C97.1822 105.023 97.2679 104.536 97.3506 104.228C97.4925 103.767 97.572 103.651 97.804 103.371C98.0409 103.104 98.5191 102.696 99.4009 102.208C100.69 101.484 102.76 100.505 105.105 99.2386C108.616 97.319 112.883 94.7138 116.483 90.4148C118.273 88.2693 119.856 85.6858 120.948 82.7097C122.05 79.7337 122.645 76.3884 122.642 72.803C122.639 69.1708 121.654 65.7211 120.049 62.6595Z" fill="white"/>
<path d="M89.3282 121.62C83.9761 121.62 79.6367 125.961 79.6367 131.311C79.6367 136.661 83.9763 141 89.3282 141C94.6774 141 99.0152 136.661 99.0152 131.311C99.0152 125.961 94.6774 121.62 89.3282 121.62Z" fill="white"/>
<path fill-rule="evenodd" clip-rule="evenodd" d="M207.488 192.326C207.488 165.084 229.572 143 256.814 143C284.056 143 306.139 165.084 306.139 192.326C306.139 219.567 284.056 241.651 256.814 241.651C229.572 241.651 207.488 219.567 207.488 192.326Z" fill="url(#paint1_linear_89_38)"/>
<path fill-rule="evenodd" clip-rule="evenodd" d="M184 305.741C184 278.129 206.384 255.744 233.997 255.744H279.632C307.243 255.744 329.628 278.129 329.628 305.741C329.628 327.423 312.051 345 290.369 345H223.259C201.577 345 184 327.423 184 305.741Z" fill="url(#paint2_linear_89_38)"/>
<defs>
<filter id="filter0_d_89_38" x="26" y="13" width="462" height="462" filterUnits="userSpaceOnUse" color-interpolation-filters="sRGB">
<feFlood flood-opacity="0" result="BackgroundImageFix"/>
<feColorMatrix in="SourceAlpha" type="matrix" values="0 0 0 0 0 0 0 0 0 0 0 0 0 0 0 0 0 0 127 0" result="hardAlpha"/>
<feOffset/>
<feGaussianBlur stdDeviation="5"/>
<feComposite in2="hardAlpha" operator="out"/>
<feColorMatrix type="matrix" values="0 0 0 0 0 0 0 0 0 0 0 0 0 0 0 0 0 0 0.04 0"/>
<feBlend mode="normal" in2="BackgroundImageFix" result="effect1_dropShadow_89_38"/>
<feBlend mode="normal" in="SourceGraphic" in2="effect1_dropShadow_89_38" result="shape"/>
</filter>
<linearGradient id="paint0_linear_89_38" x1="94.4545" y1="0.403564" x2="94.4545" y2="188.506" gradientUnits="userSpaceOnUse">
<stop stop-color="#E90205"/>
<stop offset="1" stop-color="#EF268F"/>
</linearGradient>
<linearGradient id="paint1_linear_89_38" x1="256.814" y1="143" x2="256.814" y2="241.651" gradientUnits="userSpaceOnUse">
<stop stop-color="#E90205"/>
<stop offset="1" stop-color="#EF268F"/>
</linearGradient>
<linearGradient id="paint2_linear_89_38" x1="256.814" y1="255.744" x2="256.814" y2="345" gradientUnits="userSpaceOnUse">
<stop stop-color="#E90205"/>
<stop offset="1" stop-color="#EF268F"/>
</linearGradient>
</defs>
</svg>
