<svg width="488" height="475" viewBox="0 0 488 475" fill="none" xmlns="http://www.w3.org/2000/svg">
<g filter="url(#filter0_d_74_27)">
<circle cx="257" cy="244" r="221" fill="white"/>
</g>
<path d="M47.4372 175.893C2.46077 149.925 -12.9493 92.4142 13.0179 47.4377C38.985 2.46126 96.4962 -12.9488 141.473 13.0184C186.449 38.9855 201.859 96.4967 175.892 141.473C149.925 186.45 92.4137 201.86 47.4372 175.893Z" fill="url(#paint0_linear_74_27)"/>
<path d="M117.599 64.66C115.335 60.3568 111.791 56.7713 107.4 54.1705C103.011 51.5812 97.7129 50.0001 91.9629 50.0001C84.8751 49.9826 78.9864 51.8292 74.5419 54.3865C70.0797 56.9347 68.1557 59.9016 68.1557 59.9016C67.4058 60.5523 66.9828 61.499 67.0005 62.4894C67.0208 63.4811 67.4775 64.412 68.2506 65.0304L74.4265 69.9769C75.6853 70.9848 77.4869 70.947 78.7019 69.8879C78.7019 69.8879 79.4606 68.5167 81.8381 67.1585C84.2289 65.8093 87.3286 64.7225 91.9629 64.7079C96.0048 64.6992 99.5291 66.2075 101.934 68.2686C103.129 69.2897 104.022 70.4332 104.569 71.4793C105.12 72.5339 105.321 73.4558 105.319 74.156C105.307 76.522 104.847 78.0696 104.184 79.3882C103.678 80.3729 103.017 81.2467 102.166 82.0942C100.897 83.3633 99.1761 84.536 97.2449 85.614C95.3122 86.7051 93.2291 87.6648 91.1241 88.8246C88.7217 90.1549 86.1793 92.0658 84.3005 94.9337C83.364 96.3515 82.6316 97.9735 82.1665 99.6845C81.6953 101.397 81.4825 103.193 81.4825 105.025C81.4825 106.979 81.4825 108.584 81.4825 108.584C81.4825 110.426 82.9761 111.92 84.8186 111.92H92.8558C94.6981 111.92 96.1918 110.426 96.1918 108.584C96.1918 108.584 96.1918 106.979 96.1918 105.025C96.1918 104.319 96.2721 103.864 96.3494 103.575C96.4823 103.143 96.5567 103.035 96.774 102.773C96.9957 102.523 97.4434 102.141 98.2689 101.684C99.4753 101.006 101.414 100.09 103.609 98.9042C106.895 97.1071 110.891 94.6682 114.26 90.6436C115.937 88.6351 117.418 86.2164 118.441 83.4304C119.472 80.6443 120.029 77.5126 120.027 74.156C120.024 70.7557 119.102 67.5261 117.599 64.66Z" fill="white"/>
<path d="M88.8395 119.857C83.829 119.857 79.7666 123.921 79.7666 128.93C79.7666 133.938 83.8292 138 88.8395 138C93.8472 138 97.9081 133.938 97.9081 128.93C97.9081 123.921 93.8472 119.857 88.8395 119.857Z" fill="white"/>
<path d="M334.017 222.291C351.328 231.754 351.328 256.247 334.017 265.709L229.499 322.839C212.675 332.035 192 320.066 192 301.13V186.87C192 167.934 212.675 155.965 229.499 165.161L334.017 222.291Z" fill="url(#paint1_linear_74_27)"/>
<defs>
<filter id="filter0_d_74_27" x="26" y="13" width="462" height="462" filterUnits="userSpaceOnUse" color-interpolation-filters="sRGB">
<feFlood flood-opacity="0" result="BackgroundImageFix"/>
<feColorMatrix in="SourceAlpha" type="matrix" values="0 0 0 0 0 0 0 0 0 0 0 0 0 0 0 0 0 0 127 0" result="hardAlpha"/>
<feOffset/>
<feGaussianBlur stdDeviation="5"/>
<feComposite in2="hardAlpha" operator="out"/>
<feColorMatrix type="matrix" values="0 0 0 0 0 0 0 0 0 0 0 0 0 0 0 0 0 0 0.04 0"/>
<feBlend mode="normal" in2="BackgroundImageFix" result="effect1_dropShadow_74_27"/>
<feBlend mode="normal" in="SourceGraphic" in2="effect1_dropShadow_74_27" result="shape"/>
</filter>
<linearGradient id="paint0_linear_74_27" x1="94.4549" y1="0.404297" x2="94.4549" y2="188.507" gradientUnits="userSpaceOnUse">
<stop stop-color="#E90205"/>
<stop offset="1" stop-color="#EF268F"/>
</linearGradient>
<linearGradient id="paint1_linear_74_27" x1="269.5" y1="162" x2="269.5" y2="326" gradientUnits="userSpaceOnUse">
<stop stop-color="#E90205"/>
<stop offset="1" stop-color="#EF268F"/>
</linearGradient>
</defs>
</svg>
