<svg width="488" height="475" viewBox="0 0 488 475" fill="none" xmlns="http://www.w3.org/2000/svg">
<g filter="url(#filter0_d_74_15)">
<circle cx="257" cy="244" r="221" fill="white"/>
</g>
<path d="M235.59 358.543C235.682 358.451 235.747 358.342 235.831 358.246L235.836 358.251L348.137 245.949L348.104 245.915C348.977 244.978 349.494 243.838 349.678 242.655L349.77 242.746L359.483 206.5L359.357 206.534C359.832 204.714 359.462 202.741 358.252 201.189L358.303 201.139L357.806 200.643C357.795 200.633 357.791 200.619 357.779 200.61C357.77 200.6 357.757 200.595 357.747 200.582L306.697 149.532C305.118 147.95 302.901 147.429 300.876 147.923L300.882 147.9L264.634 157.612L264.684 157.663C263.431 157.855 262.221 158.415 261.254 159.38C261.196 159.438 261.159 159.503 261.105 159.563L149.172 271.498C149.035 271.614 148.886 271.709 148.756 271.838C146.417 274.182 146.368 277.933 148.59 280.353L148.571 280.373L226.808 358.613L226.869 358.554C229.278 360.952 233.183 360.951 235.59 358.543ZM305.958 201.879C301.501 197.423 301.499 190.197 305.955 185.742C310.411 181.285 317.635 181.286 322.092 185.742C326.55 190.198 326.548 197.422 322.089 201.88C317.64 206.336 310.413 206.335 305.958 201.879Z" fill="url(#paint0_linear_74_15)"/>
<path d="M47.4367 175.892C2.46028 149.925 -12.9498 92.4134 13.0174 47.437C38.9846 2.46053 96.4957 -12.9495 141.472 13.0176C186.449 38.9848 201.859 96.496 175.892 141.472C149.924 186.449 92.4132 201.859 47.4367 175.892Z" fill="url(#paint1_linear_74_15)"/>
<path d="M129.801 63.1683C127.513 60.8901 124.788 59.0832 121.784 57.8525C118.78 56.6218 115.558 55.9921 112.305 56.0001C109.051 55.9921 105.829 56.6218 102.825 57.8525C99.8217 59.0832 97.0966 60.8901 94.8087 63.1683L93.4129 64.5921L92.0172 63.2174C87.39 58.6602 81.1144 56.1 74.5709 56.1C68.0273 56.1 61.7518 58.6602 57.1245 63.2174C52.5579 67.8063 50 73.9758 50 80.4015C50 86.8273 52.5579 92.9969 57.1245 97.5856L90.8708 130.923C91.5716 131.613 92.5217 132 93.5126 132C94.5031 132 95.4537 131.613 96.1545 130.923L129.901 97.5856C134.469 92.9817 137.018 86.7944 137 80.3569C136.981 73.9192 134.396 67.7465 129.801 63.1683Z" fill="white"/>
<defs>
<filter id="filter0_d_74_15" x="26" y="13" width="462" height="462" filterUnits="userSpaceOnUse" color-interpolation-filters="sRGB">
<feFlood flood-opacity="0" result="BackgroundImageFix"/>
<feColorMatrix in="SourceAlpha" type="matrix" values="0 0 0 0 0 0 0 0 0 0 0 0 0 0 0 0 0 0 127 0" result="hardAlpha"/>
<feOffset/>
<feGaussianBlur stdDeviation="5"/>
<feComposite in2="hardAlpha" operator="out"/>
<feColorMatrix type="matrix" values="0 0 0 0 0 0 0 0 0 0 0 0 0 0 0 0 0 0 0.04 0"/>
<feBlend mode="normal" in2="BackgroundImageFix" result="effect1_dropShadow_74_15"/>
<feBlend mode="normal" in="SourceGraphic" in2="effect1_dropShadow_74_15" result="shape"/>
</filter>
<linearGradient id="paint0_linear_74_15" x1="365.811" y1="227.505" x2="149.25" y2="285.532" gradientUnits="userSpaceOnUse">
<stop stop-color="#E90205"/>
<stop offset="1" stop-color="#EF268F"/>
</linearGradient>
<linearGradient id="paint1_linear_74_15" x1="94.4545" y1="0.403564" x2="94.4545" y2="188.506" gradientUnits="userSpaceOnUse">
<stop stop-color="#E90205"/>
<stop offset="1" stop-color="#EF268F"/>
</linearGradient>
</defs>
</svg>
