<svg width="488" height="475" viewBox="0 0 488 475" fill="none" xmlns="http://www.w3.org/2000/svg">
<g filter="url(#filter0_d_74_16)">
<circle cx="257" cy="244" r="221" fill="white"/>
</g>
<path d="M47.4367 175.892C2.46028 149.925 -12.9498 92.4137 13.0174 47.4372C38.9846 2.46077 96.4957 -12.9493 141.472 13.0179C186.449 38.985 201.859 96.4962 175.892 141.473C149.924 186.449 92.4132 201.859 47.4367 175.892Z" fill="url(#paint0_linear_74_16)"/>
<path d="M279 153.042V220.549H250.889C246.816 220.549 242.909 222.242 240.029 225.256C237.148 228.27 235.53 232.358 235.53 236.62V264H213.677C209.726 263.994 205.852 262.859 202.471 260.719C199.091 258.579 196.333 255.514 194.495 251.855C192.656 248.196 191.806 244.082 192.037 239.955C192.268 235.828 193.571 231.845 195.805 228.436L250.889 144.113C252.723 141.255 255.385 139.089 258.484 137.933C261.583 136.777 264.954 136.693 268.102 137.693C271.25 138.693 274.008 140.724 275.97 143.487C277.932 146.25 278.994 149.599 279 153.042Z" fill="url(#paint1_linear_74_16)"/>
<path d="M279 220V247.726C278.987 252.038 277.345 256.17 274.433 259.219C271.52 262.268 267.573 263.987 263.454 264H235V236.274C235 231.958 236.638 227.819 239.553 224.767C242.469 221.715 246.423 220 250.546 220H279Z" fill="#E60157"/>
<path opacity="0.8" d="M318.325 255.489L263.155 339.985C261.291 342.829 258.606 344.974 255.494 346.106C252.381 347.238 249.005 347.297 245.858 346.275C242.711 345.252 239.959 343.203 238.005 340.425C236.052 337.648 234.998 334.288 235 330.839V263.541H263.155C267.231 263.527 271.136 261.827 274.019 258.809C276.901 255.792 278.526 251.704 278.538 247.437V220H300.568C304.484 220.068 308.31 221.239 311.643 223.391C314.977 225.542 317.695 228.594 319.512 232.225C321.329 235.857 322.178 239.934 321.969 244.027C321.76 248.121 320.502 252.08 318.325 255.489Z" fill="url(#paint2_linear_74_16)"/>
<path d="M142 69.682V99.0425C142 99.0425 135.712 100.269 134.413 100.441C133.114 100.614 129.078 101.909 126.134 99.0943C121.595 94.6729 105.504 78.6974 105.504 78.6974C104.492 77.8774 103.245 77.4002 101.943 77.335C100.641 77.2697 99.3522 77.6199 98.2634 78.3347C94.1755 80.4763 88.0957 83.6369 85.5668 84.8631C84.714 85.3602 83.7487 85.6333 82.7612 85.657C81.7738 85.6807 80.7964 85.4542 79.9206 84.9986C79.0449 84.543 78.2994 83.8733 77.754 83.0522C77.2086 82.2311 76.8811 81.2853 76.8021 80.3036C76.8576 79.1861 77.2285 78.1069 77.872 77.1903C78.5155 76.2736 79.4055 75.5568 80.4396 75.1224C86.2077 71.6682 98.3846 64.7599 103.46 62.1347C106.543 60.4076 108.76 60.4076 113.004 63.8618C118.218 68.3349 122.946 72.2554 122.946 72.2554C123.506 72.6537 124.146 72.9263 124.822 73.0545C125.498 73.1827 126.193 73.1634 126.861 72.998C132.698 71.7891 142 69.682 142 69.682ZM77.9107 119.284C78.3029 118.387 78.4322 117.397 78.2836 116.43C78.1351 115.462 77.7148 114.557 77.0714 113.818C76.428 113.078 75.5878 112.536 74.6481 112.253C73.7084 111.971 72.7076 111.959 71.7616 112.22C72.0487 111.335 72.0974 110.391 71.9029 109.482C71.7083 108.572 71.2773 107.73 70.653 107.039C69.9735 106.393 69.1374 105.934 68.2265 105.707C67.3155 105.48 66.3611 105.492 65.4566 105.744C65.7415 104.857 65.7874 103.912 65.5897 103.003C65.3921 102.093 64.9579 101.251 64.3307 100.562C63.2081 99.5284 61.7246 98.9732 60.197 99.0151C58.6694 99.0571 57.2188 99.6929 56.155 100.787C53.7646 103.067 52.223 107.212 54.4229 109.664C56.6227 112.116 58.9957 110.614 60.8664 110.182C60.3468 112.03 58.7879 113.757 60.7105 116.175C62.6332 118.593 65.2834 117.125 67.1541 116.693C66.6345 118.541 65.1448 120.424 66.9809 122.669C68.817 124.914 71.9002 123.722 73.9095 123.101C73.13 125.087 71.4671 127.228 73.5977 129.646C75.7282 132.064 80.6648 130.942 83.0725 128.645C84.2148 127.641 84.911 126.226 85.0084 124.71C85.1058 123.195 84.5965 121.703 83.5921 120.562C82.8595 119.841 81.9389 119.339 80.9347 119.113C79.9305 118.887 78.8829 118.946 77.9107 119.284ZM121.821 104.051L103.235 85.6058C102.375 84.8041 101.302 84.2668 100.143 84.0585C98.9849 83.8502 97.7908 83.9796 96.7045 84.4313C94.1062 85.5712 90.7632 87.1256 88.2343 88.3C86.4934 89.3337 84.5498 89.9816 82.5355 90.1998C80.4225 90.2199 78.3608 89.5502 76.6651 88.2928C74.9695 87.0355 73.7329 85.2595 73.1441 83.236C72.5552 81.2124 72.6465 79.0524 73.4039 77.0854C74.1614 75.1184 75.5434 73.4524 77.3391 72.3418C81.375 69.5957 90.1916 64.8807 90.1916 64.8807C89.0822 63.7177 87.7341 62.8071 86.2394 62.2109C84.7448 61.6148 83.1387 61.3473 81.5309 61.4266C75.607 61.4266 63.2048 69.5439 63.2048 69.5439C61.8926 70.2274 60.4411 70.603 58.9612 70.6419C57.4812 70.6808 56.0119 70.3821 54.6654 69.7684L45 66.4179V99.9233C45 99.9233 47.7541 100.718 50.1964 101.65C50.7512 100.038 51.6766 98.5769 52.8986 97.3845C54.8698 95.4987 57.4904 94.4371 60.2222 94.4178C62.9539 94.3985 65.5894 95.423 67.5871 97.2808C68.6988 98.4252 69.4978 99.8344 69.9082 101.374C71.4107 101.84 72.7736 102.671 73.8748 103.792C74.9905 104.958 75.7842 106.392 76.1786 107.954C77.7624 108.444 79.1894 109.34 80.3171 110.553C81.4448 111.765 82.2337 113.251 82.6048 114.863C84.1783 115.309 85.606 116.161 86.7446 117.332C87.8073 118.44 88.5931 119.782 89.0385 121.25C89.4839 122.717 89.5763 124.268 89.3082 125.778C89.3082 125.778 90.6939 127.332 91.5427 128.178C92.342 128.975 93.4262 129.423 94.5566 129.423C95.687 129.423 96.7712 128.975 97.5705 128.178C98.3699 127.381 98.8189 126.3 98.8189 125.173C98.8189 124.046 98.3699 122.965 97.5705 122.168C97.5705 122.168 101.035 126.451 104.984 123.895C108.448 121.477 107.911 118.61 106.266 116.987C106.768 117.583 107.392 118.067 108.095 118.405C108.798 118.744 109.566 118.93 110.346 118.951C111.127 118.972 111.904 118.828 112.624 118.528C113.345 118.228 113.994 117.78 114.528 117.211C115.272 116.46 115.707 115.46 115.749 114.405C115.79 113.351 115.435 112.319 114.753 111.512C114.753 111.512 117.057 114.638 121.682 111.719C124.956 108.956 123.414 105.795 121.682 104.137L121.821 104.051Z" fill="white"/>
<defs>
<filter id="filter0_d_74_16" x="26" y="13.0002" width="462" height="462" filterUnits="userSpaceOnUse" color-interpolation-filters="sRGB">
<feFlood flood-opacity="0" result="BackgroundImageFix"/>
<feColorMatrix in="SourceAlpha" type="matrix" values="0 0 0 0 0 0 0 0 0 0 0 0 0 0 0 0 0 0 127 0" result="hardAlpha"/>
<feOffset/>
<feGaussianBlur stdDeviation="5"/>
<feComposite in2="hardAlpha" operator="out"/>
<feColorMatrix type="matrix" values="0 0 0 0 0 0 0 0 0 0 0 0 0 0 0 0 0 0 0.04 0"/>
<feBlend mode="normal" in2="BackgroundImageFix" result="effect1_dropShadow_74_16"/>
<feBlend mode="normal" in="SourceGraphic" in2="effect1_dropShadow_74_16" result="shape"/>
</filter>
<linearGradient id="paint0_linear_74_16" x1="94.4545" y1="0.403809" x2="94.4545" y2="188.506" gradientUnits="userSpaceOnUse">
<stop stop-color="#E90205"/>
<stop offset="1" stop-color="#EF268F"/>
</linearGradient>
<linearGradient id="paint1_linear_74_16" x1="234.724" y1="259.635" x2="238.305" y2="134.797" gradientUnits="userSpaceOnUse">
<stop stop-color="#ED28B0"/>
<stop offset="1" stop-color="#F51434"/>
</linearGradient>
<linearGradient id="paint2_linear_74_16" x1="235" y1="283.67" x2="322.124" y2="283.67" gradientUnits="userSpaceOnUse">
<stop stop-color="#ED28B0"/>
<stop offset="1" stop-color="#F51434"/>
</linearGradient>
</defs>
</svg>
