<svg width="488" height="475" viewBox="0 0 488 475" fill="none" xmlns="http://www.w3.org/2000/svg">
<g filter="url(#filter0_d_74_7)">
<circle cx="257" cy="244" r="221" fill="white"/>
</g>
<path d="M47.4367 175.892C2.46028 149.924 -12.9498 92.4132 13.0174 47.4367C38.9846 2.46028 96.4957 -12.9498 141.472 13.0174C186.449 38.9846 201.859 96.4957 175.892 141.472C149.924 186.449 92.4132 201.859 47.4367 175.892Z" fill="url(#paint0_linear_74_7)"/>
<path fill-rule="evenodd" clip-rule="evenodd" d="M210.209 194.639C210.209 168.881 231.09 148 256.849 148C282.607 148 303.488 168.881 303.488 194.639C303.488 220.398 282.607 241.279 256.849 241.279C231.09 241.279 210.209 220.398 210.209 194.639Z" fill="url(#paint1_linear_74_7)"/>
<path fill-rule="evenodd" clip-rule="evenodd" d="M188 301.878C188 275.77 209.165 254.605 235.274 254.605H278.424C304.532 254.605 325.698 275.77 325.698 301.878C325.698 322.38 309.078 339 288.576 339H225.121C204.62 339 188 322.38 188 301.878Z" fill="url(#paint2_linear_74_7)"/>
<path d="M117.599 65.6599C115.335 61.3567 111.791 57.7712 107.4 55.1704C103.011 52.5811 97.7129 51.0001 91.9629 51.0001C84.8751 50.9825 78.9864 52.8291 74.5419 55.3865C70.0797 57.9347 68.1557 60.9016 68.1557 60.9016C67.4058 61.5523 66.9828 62.499 67.0005 63.4893C67.0208 64.481 67.4775 65.4119 68.2506 66.0303L74.4265 70.9768C75.6853 71.9847 77.4869 71.9469 78.7019 70.8878C78.7019 70.8878 79.4606 69.5166 81.8381 68.1584C84.2289 66.8092 87.3286 65.7225 91.9629 65.7079C96.0048 65.6991 99.5291 67.2075 101.934 69.2686C103.129 70.2897 104.022 71.4332 104.569 72.4792C105.12 73.5338 105.321 74.4557 105.319 75.156C105.307 77.522 104.847 79.0695 104.184 80.3882C103.678 81.3728 103.017 82.2466 102.166 83.0942C100.897 84.3633 99.1761 85.536 97.2449 86.614C95.3122 87.705 93.2291 88.6648 91.1241 89.8246C88.7217 91.1549 86.1793 93.0658 84.3005 95.9337C83.364 97.3515 82.6316 98.9734 82.1665 100.684C81.6953 102.397 81.4825 104.193 81.4825 106.025C81.4825 107.979 81.4825 109.584 81.4825 109.584C81.4825 111.426 82.9761 112.92 84.8186 112.92H92.8558C94.6981 112.92 96.1918 111.426 96.1918 109.584C96.1918 109.584 96.1918 107.979 96.1918 106.025C96.1918 105.319 96.2721 104.864 96.3494 104.575C96.4823 104.143 96.5567 104.035 96.774 103.773C96.9957 103.523 97.4434 103.141 98.2689 102.684C99.4753 102.006 101.414 101.09 103.609 99.9041C106.895 98.107 110.891 95.6681 114.26 91.6435C115.937 89.635 117.418 87.2164 118.441 84.4303C119.472 81.6442 120.029 78.5125 120.027 75.156C120.024 71.7556 119.102 68.5261 117.599 65.6599Z" fill="white"/>
<path d="M88.8395 120.857C83.829 120.857 79.7666 124.921 79.7666 129.93C79.7666 134.937 83.8292 139 88.8395 139C93.8472 139 97.9081 134.937 97.9081 129.93C97.9081 124.921 93.8472 120.857 88.8395 120.857Z" fill="white"/>
<defs>
<filter id="filter0_d_74_7" x="26" y="12.9999" width="462" height="462" filterUnits="userSpaceOnUse" color-interpolation-filters="sRGB">
<feFlood flood-opacity="0" result="BackgroundImageFix"/>
<feColorMatrix in="SourceAlpha" type="matrix" values="0 0 0 0 0 0 0 0 0 0 0 0 0 0 0 0 0 0 127 0" result="hardAlpha"/>
<feOffset/>
<feGaussianBlur stdDeviation="5"/>
<feComposite in2="hardAlpha" operator="out"/>
<feColorMatrix type="matrix" values="0 0 0 0 0 0 0 0 0 0 0 0 0 0 0 0 0 0 0.04 0"/>
<feBlend mode="normal" in2="BackgroundImageFix" result="effect1_dropShadow_74_7"/>
<feBlend mode="normal" in="SourceGraphic" in2="effect1_dropShadow_74_7" result="shape"/>
</filter>
<linearGradient id="paint0_linear_74_7" x1="94.4545" y1="0.40332" x2="94.4545" y2="188.506" gradientUnits="userSpaceOnUse">
<stop stop-color="#E90205"/>
<stop offset="1" stop-color="#EF268F"/>
</linearGradient>
<linearGradient id="paint1_linear_74_7" x1="256.849" y1="148" x2="256.849" y2="241.279" gradientUnits="userSpaceOnUse">
<stop stop-color="#E90205"/>
<stop offset="1" stop-color="#EF268F"/>
</linearGradient>
<linearGradient id="paint2_linear_74_7" x1="256.849" y1="254.605" x2="256.849" y2="339" gradientUnits="userSpaceOnUse">
<stop stop-color="#E90205"/>
<stop offset="1" stop-color="#EF268F"/>
</linearGradient>
</defs>
</svg>
