<svg width="187" height="60" viewBox="0 0 187 60" fill="none" xmlns="http://www.w3.org/2000/svg">
<path d="M29.6877 34.4972C27.4813 33.5503 24.661 32.62 21.2243 31.7014C18.6463 30.9572 16.6986 30.3401 15.3814 29.8526C14.0617 29.365 12.9468 28.6914 12.0294 27.8317C11.112 26.972 10.6557 25.9098 10.6557 24.6474C10.6557 23.0411 11.3425 21.7528 12.7186 20.7753C14.0923 19.8002 16.0706 19.3127 18.6463 19.3127C21.222 19.3127 23.372 19.9439 24.9197 21.2063C26.4652 22.4688 27.3261 24.1622 27.4978 26.2819H37.2926C37.062 21.5785 35.3026 17.8642 32.0071 15.1391C28.7116 12.4164 24.374 11.0527 18.9897 11.0527C15.3814 11.0527 12.187 11.6557 9.409 12.8592C6.62864 14.0628 4.49515 15.7138 3.00617 17.8053C1.51485 19.8992 0.771538 22.2073 0.771538 24.7298C0.771538 27.827 1.58777 30.3212 3.22023 32.2149C4.85269 34.1085 6.78624 35.5146 9.02088 36.4308C11.2555 37.3494 14.1464 38.2962 17.7007 39.2689C21.3655 40.3006 24.0447 41.2474 25.7336 42.1071C27.4225 42.9667 28.2693 44.2881 28.2693 46.0639C28.2693 47.7291 27.5096 49.0905 25.9924 50.1503C24.4728 51.2126 22.3417 51.7425 19.5919 51.7425C16.8421 51.7425 14.7651 51.0689 13.0197 49.7193C11.272 48.3721 10.3123 46.6951 10.1405 44.6861H0C0.112908 47.5548 1.03029 50.1503 2.74978 52.4726C4.46927 54.7949 6.80035 56.6321 9.75243 57.9793C12.7021 59.3265 16.0376 60.0001 19.7636 60.0001C23.4896 60.0001 26.6228 59.3972 29.3443 58.1936C32.0635 56.9901 34.1688 55.3272 35.6601 53.2028C37.1491 51.0807 37.8947 48.6712 37.8947 45.9768C37.8359 42.9361 37.0056 40.5008 35.4037 38.6636C33.7995 36.8289 31.8941 35.4369 29.6901 34.4901L29.6877 34.4972Z" fill="black"/>
<path d="M53.6906 0H44.2105V46.6568C44.2105 51.3672 45.3366 54.7668 47.591 56.8606C49.8431 58.9543 53.0859 60 57.317 60H64.7368V51.7157H58.9666C57.0417 51.7157 55.6832 51.3242 54.8866 50.5388C54.0901 49.7533 53.6906 48.4617 53.6906 46.6568V20.0589H64.7368V11.9489H53.6906V0Z" fill="black"/>
<path d="M115.261 34.3643C115.261 29.7745 114.275 25.7169 112.295 22.1963C110.322 18.6686 107.552 15.9298 104.013 13.9776C100.465 12.0324 96.4218 11.0527 91.887 11.0527C87.3522 11.0527 83.0013 12.063 79.3643 14.0647C75.7346 16.0688 72.9143 18.9229 70.906 22.6249C68.9025 26.3198 67.8947 30.6105 67.8947 35.4828C67.8947 40.3552 68.9335 44.6459 70.9944 48.3408C73.0552 52.0428 75.9041 54.9111 79.541 56.9434C83.178 58.9828 87.2925 60.0001 91.887 60.0001C97.5275 60.0001 102.253 58.606 106.06 55.8248C109.616 53.2249 112.149 49.9445 113.651 45.9647H102.762C100.51 49.8126 96.8803 51.7366 91.887 51.7366C88.1617 51.7366 85.0263 50.5968 82.464 48.3031C79.9016 46.0094 78.4808 42.9668 78.1942 39.1848H114.917C115.146 37.7483 115.263 36.1422 115.263 34.3643H115.261ZM78.273 31.2722C78.7434 27.5985 80.1954 24.6878 82.6383 22.5378C85.0836 20.3877 88.0137 19.3139 91.4428 19.3139C95.2278 19.3139 98.3919 20.4018 100.954 22.5802C103.509 24.7585 104.82 27.655 104.878 31.2699H78.2706L78.273 31.2722Z" fill="black"/>
<path d="M123.158 11.0527V21.0218V47.5077H133.042V21.0218H149.795V53.7635H159.679V21.0218H176.429V60.0001H186.316V21.0218V11.0527H123.158Z" fill="black"/>
</svg>
