<svg width="113" height="113" viewBox="0 0 113 113" fill="none" xmlns="http://www.w3.org/2000/svg">
<rect x="0.5" y="0.5" width="112" height="112" rx="26.5" fill="#FFF8FE" stroke="url(#paint0_linear_113_99)"/>
<path fill-rule="evenodd" clip-rule="evenodd" d="M56 50C51.0295 50 47 54.2533 47 59.5C47 64.7466 51.0295 69 56 69C60.9707 69 65 64.7466 65 59.5C65 54.2533 60.9707 50 56 50ZM51.4999 59.5C51.4999 56.8766 53.5148 54.75 56 54.75C58.4853 54.75 60.5 56.8766 60.5 59.5C60.5 62.1234 58.4853 64.25 56 64.25C53.5148 64.25 51.4999 62.1234 51.4999 59.5Z" fill="url(#paint1_linear_113_99)"/>
<path d="M85.5 22.875C83.498 22.875 81.875 24.498 81.875 26.5C81.875 28.502 83.498 30.125 85.5 30.125C87.5021 30.125 89.125 28.502 89.125 26.5C89.125 24.498 87.5021 22.875 85.5 22.875ZM83.875 26.5C83.875 25.6025 84.6026 24.875 85.5 24.875C86.3975 24.875 87.125 25.6025 87.125 26.5C87.125 27.3975 86.3975 28.125 85.5 28.125C84.6026 28.125 83.875 27.3975 83.875 26.5Z" fill="url(#paint2_linear_113_99)" stroke="url(#paint3_linear_113_99)" stroke-width="0.25"/>
<path fill-rule="evenodd" clip-rule="evenodd" d="M54.3136 32C51.0025 32 48.0723 34.3135 47.4237 37.634L47.2368 38.591C46.7931 40.8631 44.328 42.3558 41.9246 41.5368L40.9866 41.2172C37.8529 40.1495 34.346 41.3971 32.6433 44.2897L30.9571 47.1545C29.2383 50.0746 29.8921 53.7725 32.4564 55.947L33.2077 56.584C35.033 58.1319 35.033 60.8681 33.2077 62.416L32.4564 63.053C29.8921 65.2274 29.2383 68.9253 30.9571 71.8453L32.6433 74.7101C34.346 77.6029 37.853 78.8504 40.9867 77.7827L41.9245 77.463C44.3279 76.644 46.7931 78.1366 47.2368 80.4088L47.4237 81.3658C48.0723 84.6864 51.0025 87 54.3136 87H57.6862C60.9976 87 63.9277 84.6864 64.5763 81.3656L64.763 80.4091C65.2067 78.1369 67.6719 76.644 70.0754 77.463L71.0133 77.7827C74.147 78.8504 77.6541 77.6029 79.3568 74.7101L81.043 71.8456C82.7618 68.9256 82.1078 65.2274 79.5435 63.053L78.7921 62.416C76.9667 60.8683 76.9667 58.1317 78.7921 56.584L79.5435 55.947C82.1078 53.7726 82.7618 50.0746 81.043 47.1545L79.3568 44.2897C77.6541 41.3971 74.1472 40.1494 71.0135 41.2171L70.0752 41.5369C67.6719 42.3558 65.2067 40.863 64.763 38.5908L64.5763 37.6343C63.9277 34.3136 60.9976 32 57.6862 32H54.3136ZM52.0613 38.5611C52.253 37.5797 53.1592 36.7826 54.3136 36.7826H57.6862C58.8408 36.7826 59.747 37.5798 59.9387 38.5612L60.1254 39.5178C61.15 44.765 66.6142 47.7627 71.5839 46.0693L72.5222 45.7496C73.6071 45.38 74.765 45.836 75.2952 46.7367L76.9814 49.6015C77.4955 50.4749 77.321 51.5913 76.507 52.2815L75.7559 52.9185C71.6761 56.3777 71.6761 62.6223 75.7559 66.0816L76.507 66.7184C77.321 67.4088 77.4955 68.525 76.9814 69.3986L75.2952 72.2631C74.765 73.1639 73.6071 73.6199 72.5222 73.2502L71.5841 72.9305C66.6142 71.237 61.15 74.2347 60.1254 79.4822L59.9387 80.4387C59.747 81.4201 58.8408 82.2174 57.6862 82.2174H54.3136C53.1592 82.2174 52.253 81.4204 52.0613 80.4387L51.8743 79.4817C50.8496 74.2345 45.3854 71.237 40.4155 72.9308L39.4778 73.2502C38.3929 73.6199 37.2351 73.1639 36.7048 72.2631L35.0186 69.3983C34.5045 68.525 34.6789 67.4088 35.4929 66.7184L36.2443 66.0813C40.3237 62.6221 40.3237 56.3779 36.2443 52.9186L35.4929 52.2815C34.6789 51.5913 34.5045 50.475 35.0186 49.6016L36.7049 46.7368C37.2351 45.836 38.393 45.38 39.4778 45.7497L40.4158 46.0693C45.3855 47.7627 50.8495 44.7652 51.8743 39.5181L52.0613 38.5611Z" fill="url(#paint4_linear_113_99)"/>
<path d="M81.5838 16.5376L81.7066 16.5609L81.5838 16.5376L81.5012 16.9726C81.3188 17.9321 80.3048 18.5633 79.3156 18.2169L78.9008 18.0717C77.4575 17.5663 75.8436 18.1573 75.0607 19.5241L75.1692 19.5862L75.0607 19.5241L74.3148 20.8263C73.5251 22.2052 73.8251 23.9516 75.0044 24.9792L75.0865 24.885L75.0044 24.9792L75.3367 25.2688C75.3367 25.2688 75.3367 25.2688 75.3367 25.2688C76.0868 25.9226 76.0868 27.0774 75.3367 27.7312C75.3367 27.7312 75.3367 27.7312 75.3367 27.7312L75.0044 28.0208L75.0865 28.115L75.0044 28.0208C73.8251 29.0484 73.5251 30.7948 74.3148 32.1736L75.0607 33.4758C75.8436 34.8427 77.4576 35.4336 78.9008 34.9283L78.9008 34.9283L79.3156 34.783C79.3156 34.783 79.3156 34.783 79.3156 34.783C80.3048 34.4366 81.3188 35.0678 81.5012 36.0274L81.5839 36.4624C81.8818 38.0302 83.229 39.125 84.7541 39.125H86.2458C87.771 39.125 89.1182 38.0302 89.4162 36.4623L89.2934 36.4389L89.4162 36.4622L89.4988 36.0275C89.6811 35.0679 90.6952 34.4366 91.6844 34.783L92.0992 34.9283L92.0992 34.9283C93.5424 35.4336 95.1564 34.8427 95.9394 33.4758L96.6852 32.1738C97.475 30.7949 97.1749 29.0484 95.9956 28.0208L95.9135 28.115L95.9956 28.0208L95.6632 27.7312C94.913 27.0775 94.913 25.9225 95.6632 25.2688L95.9956 24.9792L95.9135 24.885L95.9956 24.9792C97.1749 23.9516 97.475 22.2052 96.6852 20.8263L95.9394 19.5241C95.1564 18.1573 93.5425 17.5663 92.0993 18.0716L91.6843 18.217C90.6952 18.5633 89.6811 17.9321 89.4988 16.9725L89.4162 16.5377L89.4162 16.5377C89.1182 14.9698 87.771 13.875 86.2458 13.875H84.7541C83.229 13.875 81.8818 14.9697 81.5838 16.5376ZM87.2019 17.4405L87.2019 17.4405C87.6692 19.9001 90.1633 21.3083 92.4342 20.5131L92.8492 20.3678C93.2714 20.22 93.721 20.4028 93.9259 20.7606L94.6718 22.0628L94.7802 22.0007L94.6718 22.0628C94.8697 22.4085 94.803 22.8503 94.4883 23.1246L94.5704 23.2189L94.4883 23.1246L94.156 23.4142C92.2943 25.0363 92.2943 27.9637 94.156 29.5859L94.2382 29.4916L94.1561 29.5859L94.4883 29.8753C94.4883 29.8753 94.4883 29.8753 94.4883 29.8753C94.803 30.1497 94.8697 30.5915 94.6718 30.9372L93.9259 32.2393L94.0344 32.3014L93.9259 32.2393C93.721 32.5972 93.2714 32.78 92.8492 32.6321L92.4343 32.4868C90.1633 31.6916 87.6692 33.0998 87.2019 35.5595L87.1193 35.9943C87.0455 36.3827 86.6952 36.7011 86.2458 36.7011H84.7541C84.3048 36.7011 83.9545 36.3828 83.8807 35.9943L83.7579 36.0176L83.8807 35.9943L83.798 35.5593C83.3306 33.0997 80.8365 31.6916 78.5656 32.4869C78.5656 32.4869 78.5656 32.4869 78.5655 32.4869L78.1508 32.6321L78.1921 32.7501L78.1508 32.6321C77.7286 32.78 77.2791 32.5972 77.0741 32.2393L76.3282 30.9371L76.2198 30.9992L76.3282 30.9371C76.1303 30.5915 76.1969 30.1497 76.5117 29.8753C76.5117 29.8753 76.5117 29.8753 76.5117 29.8753L76.844 29.5858L76.7619 29.4915L76.844 29.5858C78.7056 27.9635 78.7056 25.0365 76.844 23.4142L76.5117 23.1246C76.197 22.8504 76.1303 22.4085 76.3282 22.0629L77.0741 20.7607L76.9656 20.6985L77.0741 20.7607C77.2791 20.4028 77.7286 20.22 78.1508 20.3678L78.5657 20.5131C80.8365 21.3083 83.3306 19.9002 83.798 17.4406L83.8807 17.0057C83.9545 16.6173 84.3048 16.2989 84.7541 16.2989H86.2458C86.6952 16.2989 87.0455 16.6173 87.1193 17.0057C87.1193 17.0057 87.1193 17.0057 87.1193 17.0057L87.2019 17.4405Z" fill="url(#paint5_linear_113_99)" stroke="url(#paint6_linear_113_99)" stroke-width="0.25"/>
<defs>
<linearGradient id="paint0_linear_113_99" x1="-18.2058" y1="-14.8693" x2="124.157" y2="22.2214" gradientUnits="userSpaceOnUse">
<stop stop-color="#C43B56"/>
<stop offset="0.3395" stop-color="#982684"/>
<stop offset="0.726" stop-color="#6A10B3"/>
<stop offset="0.9195" stop-color="#5908C5"/>
</linearGradient>
<linearGradient id="paint1_linear_113_99" x1="44.1" y1="47.4999" x2="66.926" y2="53.1338" gradientUnits="userSpaceOnUse">
<stop stop-color="#C43B56"/>
<stop offset="0.3395" stop-color="#982684"/>
<stop offset="0.726" stop-color="#6A10B3"/>
<stop offset="0.9195" stop-color="#5908C5"/>
</linearGradient>
<linearGradient id="paint2_linear_113_99" x1="80.8722" y1="22.0789" x2="89.6912" y2="24.3765" gradientUnits="userSpaceOnUse">
<stop stop-color="#C43B56"/>
<stop offset="0.3395" stop-color="#982684"/>
<stop offset="0.726" stop-color="#6A10B3"/>
<stop offset="0.9195" stop-color="#5908C5"/>
</linearGradient>
<linearGradient id="paint3_linear_113_99" x1="80.8722" y1="22.0789" x2="89.6912" y2="24.3765" gradientUnits="userSpaceOnUse">
<stop stop-color="#C43B56"/>
<stop offset="0.3395" stop-color="#982684"/>
<stop offset="0.726" stop-color="#6A10B3"/>
<stop offset="0.9195" stop-color="#5908C5"/>
</linearGradient>
<linearGradient id="paint4_linear_113_99" x1="21.6221" y1="24.7627" x2="87.5792" y2="41.0096" gradientUnits="userSpaceOnUse">
<stop stop-color="#C43B56"/>
<stop offset="0.3395" stop-color="#982684"/>
<stop offset="0.726" stop-color="#6A10B3"/>
<stop offset="0.9195" stop-color="#5908C5"/>
</linearGradient>
<linearGradient id="paint5_linear_113_99" x1="70.2944" y1="10.7103" x2="99.5566" y2="17.7243" gradientUnits="userSpaceOnUse">
<stop stop-color="#C43B56"/>
<stop offset="0.3395" stop-color="#982684"/>
<stop offset="0.726" stop-color="#6A10B3"/>
<stop offset="0.9195" stop-color="#5908C5"/>
</linearGradient>
<linearGradient id="paint6_linear_113_99" x1="70.2944" y1="10.7103" x2="99.5566" y2="17.7243" gradientUnits="userSpaceOnUse">
<stop stop-color="#C43B56"/>
<stop offset="0.3395" stop-color="#982684"/>
<stop offset="0.726" stop-color="#6A10B3"/>
<stop offset="0.9195" stop-color="#5908C5"/>
</linearGradient>
</defs>
</svg>
