<svg width="181" height="57" viewBox="0 0 181 57" fill="none" xmlns="http://www.w3.org/2000/svg">
<rect x="0.5" y="0.5" width="153" height="56" rx="11.5" fill="#FFF8FE" stroke="url(#paint0_linear_112_315)"/>
<path fill-rule="evenodd" clip-rule="evenodd" d="M31.5239 28.5211C33.4402 27.1896 34.6947 24.9724 34.6947 22.4622C34.6947 18.3903 31.3938 15.0894 27.3219 15.0894C23.25 15.0894 19.9491 18.3903 19.9491 22.4622C19.9491 24.9724 21.2036 27.1896 23.1199 28.5211C19.5136 30.1435 17 33.7902 17 38.0288C18.3233 39.2295 22.558 41.9996 27.3219 41.9996C32.0859 41.9996 36.0558 39.7632 37.6438 38.8293V38.0288C37.6438 33.7902 35.1303 30.1435 31.5239 28.5211Z" fill="url(#paint1_linear_112_315)"/>
<path d="M133.378 26.5776C133.378 27.5706 133.303 28.5557 133.153 29.533C133.011 30.5102 132.759 31.4323 132.397 32.2992C132.034 33.1583 131.526 33.9227 130.872 34.5926C130.218 35.2546 129.386 35.7748 128.377 36.1531C127.369 36.5314 126.147 36.7205 124.713 36.7205C124.374 36.7205 123.976 36.7047 123.519 36.6732C123.062 36.6496 122.683 36.6102 122.384 36.555V33.6233C122.699 33.7021 123.034 33.7651 123.389 33.8124C123.743 33.8518 124.102 33.8715 124.464 33.8715C125.907 33.8715 127.018 33.643 127.798 33.1859C128.586 32.7288 129.138 32.0943 129.453 31.2826C129.776 30.4708 129.961 29.533 130.009 28.4691H129.867C129.638 28.8473 129.366 29.1902 129.051 29.4975C128.744 29.797 128.35 30.0374 127.869 30.2186C127.388 30.392 126.778 30.4787 126.037 30.4787C125.052 30.4787 124.193 30.2659 123.46 29.8404C122.735 29.4069 122.171 28.7843 121.769 27.9726C121.375 27.1529 121.178 26.1639 121.178 25.0053C121.178 23.7523 121.414 22.6804 121.887 21.7899C122.368 20.8914 123.05 20.2019 123.932 19.7211C124.815 19.2404 125.855 19 127.053 19C127.936 19 128.76 19.1537 129.524 19.461C130.289 19.7605 130.958 20.2216 131.534 20.8442C132.117 21.4668 132.57 22.2549 132.893 23.2085C133.216 24.1621 133.378 25.2851 133.378 26.5776ZM127.124 21.9317C126.415 21.9317 125.836 22.1761 125.387 22.6647C124.937 23.1533 124.713 23.9178 124.713 24.9581C124.713 25.7934 124.906 26.4555 125.292 26.9441C125.678 27.4327 126.265 27.677 127.053 27.677C127.597 27.677 128.07 27.5588 128.472 27.3224C128.874 27.0781 129.185 26.7746 129.406 26.4121C129.634 26.0417 129.749 25.6634 129.749 25.2772C129.749 24.8753 129.694 24.4773 129.583 24.0833C129.473 23.6892 129.307 23.3306 129.087 23.0075C128.866 22.6844 128.59 22.4243 128.259 22.2273C127.936 22.0303 127.558 21.9317 127.124 21.9317Z" fill="#6A10B3"/>
<path d="M119.523 26.5776C119.523 27.5706 119.448 28.5557 119.298 29.533C119.157 30.5102 118.904 31.4323 118.542 32.2992C118.179 33.1583 117.671 33.9227 117.017 34.5926C116.363 35.2546 115.531 35.7748 114.523 36.1531C113.514 36.5314 112.292 36.7205 110.858 36.7205C110.519 36.7205 110.121 36.7047 109.664 36.6732C109.207 36.6496 108.828 36.6102 108.529 36.555V33.6233C108.844 33.7021 109.179 33.7651 109.534 33.8124C109.888 33.8518 110.247 33.8715 110.61 33.8715C112.052 33.8715 113.163 33.643 113.943 33.1859C114.731 32.7288 115.283 32.0943 115.598 31.2826C115.921 30.4708 116.107 29.533 116.154 28.4691H116.012C115.783 28.8473 115.512 29.1902 115.196 29.4975C114.889 29.797 114.495 30.0374 114.014 30.2186C113.533 30.392 112.923 30.4787 112.182 30.4787C111.197 30.4787 110.338 30.2659 109.605 29.8404C108.88 29.4069 108.316 28.7843 107.914 27.9726C107.52 27.1529 107.323 26.1639 107.323 25.0053C107.323 23.7523 107.56 22.6804 108.033 21.7899C108.513 20.8914 109.195 20.2019 110.078 19.7211C110.96 19.2404 112.001 19 113.199 19C114.081 19 114.905 19.1537 115.669 19.461C116.434 19.7605 117.104 20.2216 117.679 20.8442C118.262 21.4668 118.715 22.2549 119.038 23.2085C119.361 24.1621 119.523 25.2851 119.523 26.5776ZM113.269 21.9317C112.56 21.9317 111.981 22.1761 111.532 22.6647C111.082 23.1533 110.858 23.9178 110.858 24.9581C110.858 25.7934 111.051 26.4555 111.437 26.9441C111.823 27.4327 112.41 27.677 113.199 27.677C113.742 27.677 114.215 27.5588 114.617 27.3224C115.019 27.0781 115.33 26.7746 115.551 26.4121C115.78 26.0417 115.894 25.6634 115.894 25.2772C115.894 24.8753 115.839 24.4773 115.728 24.0833C115.618 23.6892 115.452 23.3306 115.232 23.0075C115.011 22.6844 114.735 22.4243 114.404 22.2273C114.081 22.0303 113.703 21.9317 113.269 21.9317Z" fill="#6A10B3"/>
<path d="M105.668 26.5776C105.668 27.5706 105.593 28.5557 105.444 29.533C105.302 30.5102 105.05 31.4323 104.687 32.2992C104.324 33.1583 103.816 33.9227 103.162 34.5926C102.508 35.2546 101.676 35.7748 100.668 36.1531C99.6589 36.5314 98.4373 36.7205 97.003 36.7205C96.6641 36.7205 96.2661 36.7047 95.809 36.6732C95.3519 36.6496 94.9736 36.6102 94.6741 36.555V33.6233C94.9894 33.7021 95.3243 33.7651 95.679 33.8124C96.0336 33.8518 96.3922 33.8715 96.7547 33.8715C98.1969 33.8715 99.3082 33.643 100.088 33.1859C100.876 32.7288 101.428 32.0943 101.743 31.2826C102.067 30.4708 102.252 29.533 102.299 28.4691H102.157C101.929 28.8473 101.657 29.1902 101.341 29.4975C101.034 29.797 100.64 30.0374 100.159 30.2186C99.6786 30.392 99.0678 30.4787 98.327 30.4787C97.3419 30.4787 96.4828 30.2659 95.7499 29.8404C95.0248 29.4069 94.4613 28.7843 94.0594 27.9726C93.6654 27.1529 93.4683 26.1639 93.4683 25.0053C93.4683 23.7523 93.7048 22.6804 94.1776 21.7899C94.6584 20.8914 95.3401 20.2019 96.2227 19.7211C97.1054 19.2404 98.1457 19 99.3436 19C100.226 19 101.05 19.1537 101.814 19.461C102.579 19.7605 103.249 20.2216 103.824 20.8442C104.407 21.4668 104.86 22.2549 105.183 23.2085C105.507 24.1621 105.668 25.2851 105.668 26.5776ZM99.4146 21.9317C98.7053 21.9317 98.126 22.1761 97.6768 22.6647C97.2276 23.1533 97.003 23.9178 97.003 24.9581C97.003 25.7934 97.1961 26.4555 97.5822 26.9441C97.9684 27.4327 98.5555 27.677 99.3436 27.677C99.8874 27.677 100.36 27.5588 100.762 27.3224C101.164 27.0781 101.475 26.7746 101.696 26.4121C101.925 26.0417 102.039 25.6634 102.039 25.2772C102.039 24.8753 101.984 24.4773 101.873 24.0833C101.763 23.6892 101.598 23.3306 101.377 23.0075C101.156 22.6844 100.88 22.4243 100.549 22.2273C100.226 22.0303 99.848 21.9317 99.4146 21.9317Z" fill="#6A10B3"/>
<path d="M91.0331 33.6709L91.2104 33.9428C91.0686 34.5102 90.8834 35.121 90.6548 35.7751C90.4342 36.4293 90.1898 37.0834 89.9219 37.7375C89.6618 38.3916 89.3978 39.0142 89.1298 39.6053H86.5291C86.6867 38.967 86.8404 38.2971 86.9902 37.5957C87.1399 36.8942 87.2778 36.2046 87.4039 35.5269C87.5379 34.8491 87.6443 34.2305 87.7231 33.6709H91.0331Z" fill="#6A10B3"/>
<path d="M84.9096 26.5776C84.9096 27.5706 84.8347 28.5557 84.685 29.533C84.5431 30.5102 84.2909 31.4323 83.9284 32.2992C83.5659 33.1583 83.0575 33.9227 82.4034 34.5926C81.7493 35.2546 80.9178 35.7748 79.9091 36.1531C78.9003 36.5314 77.6787 36.7205 76.2444 36.7205C75.9055 36.7205 75.5075 36.7047 75.0504 36.6732C74.5933 36.6496 74.215 36.6102 73.9155 36.555V33.6233C74.2308 33.7021 74.5657 33.7651 74.9204 33.8124C75.275 33.8518 75.6336 33.8715 75.9961 33.8715C77.4384 33.8715 78.5496 33.643 79.3298 33.1859C80.1179 32.7288 80.6696 32.0943 80.9848 31.2826C81.3079 30.4708 81.4931 29.533 81.5404 28.4691H81.3986C81.17 28.8473 80.8981 29.1902 80.5829 29.4975C80.2755 29.797 79.8815 30.0374 79.4007 30.2186C78.92 30.392 78.3092 30.4787 77.5684 30.4787C76.5833 30.4787 75.7242 30.2659 74.9913 29.8404C74.2662 29.4069 73.7027 28.7843 73.3008 27.9726C72.9068 27.1529 72.7097 26.1639 72.7097 25.0053C72.7097 23.7523 72.9462 22.6804 73.419 21.7899C73.8998 20.8914 74.5815 20.2019 75.4642 19.7211C76.3468 19.2404 77.3871 19 78.585 19C79.4677 19 80.2913 19.1537 81.0557 19.461C81.8202 19.7605 82.4901 20.2216 83.0654 20.8442C83.6486 21.4668 84.1018 22.2549 84.4249 23.2085C84.748 24.1621 84.9096 25.2851 84.9096 26.5776ZM78.656 21.9317C77.9467 21.9317 77.3674 22.1761 76.9182 22.6647C76.469 23.1533 76.2444 23.9178 76.2444 24.9581C76.2444 25.7934 76.4375 26.4555 76.8236 26.9441C77.2098 27.4327 77.7969 27.677 78.585 27.677C79.1288 27.677 79.6017 27.5588 80.0036 27.3224C80.4056 27.0781 80.7169 26.7746 80.9375 26.4121C81.1661 26.0417 81.2804 25.6634 81.2804 25.2772C81.2804 24.8753 81.2252 24.4773 81.1149 24.0833C81.0045 23.6892 80.839 23.3306 80.6184 23.0075C80.3977 22.6844 80.1218 22.4243 79.7908 22.2273C79.4677 22.0303 79.0894 21.9317 78.656 21.9317Z" fill="#6A10B3"/>
<path d="M71.0547 26.5776C71.0547 27.5706 70.9798 28.5557 70.8301 29.533C70.6882 30.5102 70.4361 31.4323 70.0735 32.2992C69.711 33.1583 69.2027 33.9227 68.5485 34.5926C67.8944 35.2546 67.063 35.7748 66.0542 36.1531C65.0454 36.5314 63.8239 36.7205 62.3895 36.7205C62.0506 36.7205 61.6526 36.7047 61.1955 36.6732C60.7384 36.6496 60.3602 36.6102 60.0607 36.555V33.6233C60.3759 33.7021 60.7109 33.7651 61.0655 33.8124C61.4202 33.8518 61.7787 33.8715 62.1413 33.8715C63.5835 33.8715 64.6947 33.643 65.4749 33.1859C66.2631 32.7288 66.8147 32.0943 67.13 31.2826C67.4531 30.4708 67.6383 29.533 67.6856 28.4691H67.5437C67.3152 28.8473 67.0433 29.1902 66.728 29.4975C66.4207 29.797 66.0266 30.0374 65.5459 30.2186C65.0651 30.392 64.4544 30.4787 63.7135 30.4787C62.7284 30.4787 61.8694 30.2659 61.1364 29.8404C60.4114 29.4069 59.8479 28.7843 59.446 27.9726C59.0519 27.1529 58.8549 26.1639 58.8549 25.0053C58.8549 23.7523 59.0913 22.6804 59.5642 21.7899C60.0449 20.8914 60.7266 20.2019 61.6093 19.7211C62.492 19.2404 63.5323 19 64.7302 19C65.6129 19 66.4364 19.1537 67.2009 19.461C67.9654 19.7605 68.6352 20.2216 69.2106 20.8442C69.7938 21.4668 70.2469 22.2549 70.57 23.2085C70.8932 24.1621 71.0547 25.2851 71.0547 26.5776ZM64.8011 21.9317C64.0918 21.9317 63.5126 22.1761 63.0634 22.6647C62.6141 23.1533 62.3895 23.9178 62.3895 24.9581C62.3895 25.7934 62.5826 26.4555 62.9688 26.9441C63.3549 27.4327 63.9421 27.677 64.7302 27.677C65.274 27.677 65.7468 27.5588 66.1488 27.3224C66.5507 27.0781 66.862 26.7746 67.0827 26.4121C67.3112 26.0417 67.4255 25.6634 67.4255 25.2772C67.4255 24.8753 67.3703 24.4773 67.26 24.0833C67.1497 23.6892 66.9842 23.3306 66.7635 23.0075C66.5428 22.6844 66.267 22.4243 65.936 22.2273C65.6129 22.0303 65.2346 21.9317 64.8011 21.9317Z" fill="#6A10B3"/>
<path d="M57.1998 26.5776C57.1998 27.5706 57.125 28.5557 56.9752 29.533C56.8334 30.5102 56.5812 31.4323 56.2186 32.2992C55.8561 33.1583 55.3478 33.9227 54.6937 34.5926C54.0395 35.2546 53.2081 35.7748 52.1993 36.1531C51.1905 36.5314 49.969 36.7205 48.5346 36.7205C48.1958 36.7205 47.7978 36.7047 47.3407 36.6732C46.8836 36.6496 46.5053 36.6102 46.2058 36.555V33.6233C46.521 33.7021 46.856 33.7651 47.2106 33.8124C47.5653 33.8518 47.9239 33.8715 48.2864 33.8715C49.7286 33.8715 50.8398 33.643 51.6201 33.1859C52.4082 32.7288 52.9598 32.0943 53.2751 31.2826C53.5982 30.4708 53.7834 29.533 53.8307 28.4691H53.6888C53.4603 28.8473 53.1884 29.1902 52.8731 29.4975C52.5658 29.797 52.1717 30.0374 51.691 30.2186C51.2103 30.392 50.5995 30.4787 49.8587 30.4787C48.8735 30.4787 48.0145 30.2659 47.2816 29.8404C46.5565 29.4069 45.993 28.7843 45.5911 27.9726C45.197 27.1529 45 26.1639 45 25.0053C45 23.7523 45.2364 22.6804 45.7093 21.7899C46.19 20.8914 46.8717 20.2019 47.7544 19.7211C48.6371 19.2404 49.6774 19 50.8753 19C51.758 19 52.5816 19.1537 53.346 19.461C54.1105 19.7605 54.7804 20.2216 55.3557 20.8442C55.9389 21.4668 56.392 22.2549 56.7152 23.2085C57.0383 24.1621 57.1998 25.2851 57.1998 26.5776ZM50.9462 21.9317C50.2369 21.9317 49.6577 22.1761 49.2085 22.6647C48.7593 23.1533 48.5346 23.9178 48.5346 24.9581C48.5346 25.7934 48.7277 26.4555 49.1139 26.9441C49.5001 27.4327 50.0872 27.677 50.8753 27.677C51.4191 27.677 51.892 27.5588 52.2939 27.3224C52.6958 27.0781 53.0071 26.7746 53.2278 26.4121C53.4563 26.0417 53.5706 25.6634 53.5706 25.2772C53.5706 24.8753 53.5155 24.4773 53.4051 24.0833C53.2948 23.6892 53.1293 23.3306 52.9086 23.0075C52.6879 22.6844 52.4121 22.4243 52.0811 22.2273C51.758 22.0303 51.3797 21.9317 50.9462 21.9317Z" fill="#6A10B3"/>
<circle cx="154.5" cy="28.5" r="26" fill="white" stroke="url(#paint2_linear_112_315)"/>
<path fill-rule="evenodd" clip-rule="evenodd" d="M161 15C159.895 15 159 15.8954 159 17V33.6957C159 34.8002 159.895 35.6957 161 35.6957H165.522C166.626 35.6957 167.522 34.8002 167.522 33.6957V17C167.522 15.8954 166.626 15 165.522 15H161ZM150 23C150 21.8954 150.895 21 152 21H156C157.105 21 158 21.8954 158 23V34C158 35.1046 157.105 36 156 36H152C150.895 36 150 35.1046 150 34V23ZM142 27C140.895 27 140 27.8954 140 29V34C140 35.1046 140.895 36 142 36H147C148.105 36 149 35.1046 149 34V29C149 27.8954 148.105 27 147 27H142ZM141.217 36.913C140.545 36.913 140 37.4581 140 38.1304C140 38.8028 140.545 39.3478 141.217 39.3478H166.783C167.455 39.3478 168 38.8028 168 38.1304C168 37.4581 167.455 36.913 166.783 36.913H141.217Z" fill="url(#paint3_linear_112_315)"/>
<defs>
<linearGradient id="paint0_linear_112_315" x1="-24.8115" y1="-7.50044" x2="113.73" y2="90.0196" gradientUnits="userSpaceOnUse">
<stop stop-color="#C43B56"/>
<stop offset="0.3395" stop-color="#982684"/>
<stop offset="0.726" stop-color="#6A10B3"/>
<stop offset="0.9195" stop-color="#5908C5"/>
</linearGradient>
<linearGradient id="paint1_linear_112_315" x1="13.674" y1="11.5483" x2="40.3807" y2="16.8861" gradientUnits="userSpaceOnUse">
<stop stop-color="#C43B56"/>
<stop offset="0.3395" stop-color="#982684"/>
<stop offset="0.726" stop-color="#6A10B3"/>
<stop offset="0.9195" stop-color="#5908C5"/>
</linearGradient>
<linearGradient id="paint2_linear_112_315" x1="119.461" y1="-4.97409" x2="186.233" y2="12.4224" gradientUnits="userSpaceOnUse">
<stop stop-color="#C43B56"/>
<stop offset="0.3395" stop-color="#982684"/>
<stop offset="0.726" stop-color="#6A10B3"/>
<stop offset="0.9195" stop-color="#5908C5"/>
</linearGradient>
<linearGradient id="paint3_linear_112_315" x1="135.489" y1="11.7962" x2="170.056" y2="22.153" gradientUnits="userSpaceOnUse">
<stop stop-color="#C43B56"/>
<stop offset="0.3395" stop-color="#982684"/>
<stop offset="0.726" stop-color="#6A10B3"/>
<stop offset="0.9195" stop-color="#5908C5"/>
</linearGradient>
</defs>
</svg>
