<svg version="1.1" id="Layer_1" xmlns="http://www.w3.org/2000/svg" xmlns:xlink="http://www.w3.org/1999/xlink" x="0" y="0" viewBox="0 0 428.5 260.8" xml:space="preserve"><defs><path id="SVGID_1_" d="M0 0h428.5v260.8H0z"/></defs><clipPath id="SVGID_2_"><use xlink:href="#SVGID_1_" overflow="visible"/></clipPath><path clip-path="url(#SVGID_2_)" fill="#fff" d="M4.7 4.7h419.2v251.5H4.7z"/><path d="M428.5 0H0v260.8h428.5V0zm-9.3 9.3v242.2H9.3V9.3h409.9" clip-path="url(#SVGID_2_)" fill="#f2f2f2"/><path d="M274.8 103.4l3.7-22.4c-7.5-2.8-15.8-4.7-24.2-4.7-13 0-44.7 5.6-44.7 33.5 0 26.1 37.3 27 37.3 41s-33.5 11.2-44.7 2.8l-3.7 23.3c9.3 3.7 19.6 5.6 30.7 5.6 18.6 0 45.6-9.3 45.6-35.4 0-27-37.3-28.9-37.3-41 0-10.2 26.1-9.2 37.3-2.7zm39.1 41.9l14-38.2 8.4 38.2h-22.4zm29.8 36.4h25.2L347.5 79.2H326c-5.6 0-10.2 2.8-12.1 7.5l-40.1 95h27.9l5.6-14.9h34.5l1.9 14.9zM132.3 79.2L106.2 149l-2.8-14.9-9.3-45.6c-.9-5.6-6.5-10.2-13-9.3h-42v.9c10.2 2.8 19.6 6.5 27.9 12.1l23.3 89.4h27.9L161 79.1h-28.7zm49.4 102.5h-27l16.8-102.5h27l-16.8 102.5z" clip-path="url(#SVGID_2_)" fill="#0066b2"/><path d="M103.4 134.1l-9.3-45.6c-.9-5.6-6.5-10.2-13-9.3h-42v.9c14.9 3.7 28 10.3 40.1 19.6 10.2 9.3 19.5 21.4 24.2 34.4z" clip-path="url(#SVGID_2_)" fill="#f9a533"/></svg>