<svg version="1.1" id="Layer_1" xmlns="http://www.w3.org/2000/svg" xmlns:xlink="http://www.w3.org/1999/xlink" x="0" y="0" viewBox="0 0 428.5 260.8" xml:space="preserve"><defs><path id="SVGID_1_" d="M0 0h428.5v260.8H0z"/></defs><clipPath id="SVGID_2_"><use xlink:href="#SVGID_1_" overflow="visible"/></clipPath><path clip-path="url(#SVGID_2_)" fill="#017cc2" d="M0 0h428.5v260.8H0z"/><path d="M233.8 164.9c0 14-10.2 16.8-21.4 16.8h-14.9v16.8h-23.3l-14.9-16.8-15.8 16.8H95.9v-50.3h48.4l14.9 16.8 14.9-16.8h38.2c10.3-.1 21.5 2.7 21.5 16.7zm-95.9 23.3h-29.8V178h26.1v-10.2h-26.1v-9.3h29.8l13 14.9-13 14.8zm47.5 5.6l-18.6-20.5 18.6-19.6v40.1zm27.9-22.4h-15.8v-13h15.8c3.7-.9 6.5 1.9 7.5 4.7v.9c0 3.7-2.8 6.5-6.5 6.5 0 .9-1 .9-1 .9zm81.1-23.3h40.1v10.2h-27.9v9.3h27.9v10.2h-27.9V188h27.9v10.2h-40.1v-50.1zm-14.9 27c1.9.9 4.7 1.9 5.6 3.7 1.9 2.8 2.8 5.6 1.9 9.3v10.2h-12.1v-6.5c.9-3.7 0-6.5-1.9-9.3-2.8-1.9-5.6-2.8-8.4-1.9h-13v18.6h-12.1V149h27.9c4.7 0 10.2 0 14.9 2.8 3.7 1.9 6.5 6.5 6.5 11.2-1 4.7-4.7 10.3-9.3 12.1zm-7.5-5.6c-1.9.9-3.7.9-5.6.9h-14.9v-11.2h14.9c1.9 0 3.7 0 5.6.9 1.9.9 2.8 2.8 2.8 4.7 0 1-.9 2.9-2.8 4.7zm108.1 2.8c2.8 2.8 3.7 6.5 3.7 10.2 0 11.2-6.5 15.8-18.6 15.8h-23.3v-10.2h23.3c1.9 0 3.7 0 4.7-.9.9-.9 1.9-1.9 1.9-2.8 0-.9-.9-2.8-1.9-3.7-.9-.9-2.8-.9-4.7-.9-11.2 0-25.2 0-25.2-15.8 0-8.4 6.5-14.9 14.9-14.9h27v10.2h-22.4c-1.9 0-3.7 0-4.7.9-1.9.9-2.8 3.7-.9 5.6l1.9 1.9c1.9 0 2.8.9 4.7.9h6.5c4.7-.9 9.3.9 13.1 3.7zm48.4 19.6c-3.7 4.7-10.2 7.5-16.8 6.5h-23.3v-10.2h23.3c1.9 0 3.7 0 4.7-.9.9-.9 1.9-1.9 1.9-2.8 0-.9-.9-2.8-1.9-3.7-.9-.9-2.8-.9-4.7-.9-11.2 0-25.2 0-25.2-15.8 0-8.4 6.5-14.9 14.9-14.9h27V139H406c-5.6 0-10.2.9-14.9 3.7V139h-32.6c-4.7 0-10.2.9-14 3.7V139H286v3.7c-4.7-2.8-10.2-4.7-15.8-3.7H231v3.7c-4.7-2.8-11.2-4.7-16.8-3.7h-43.8l-11.1 10-9.3-10.2H84.8v69.9H149l10.2-11.2 9.3 11.2h39.1v-16.8h3.7c5.6 0 11.2-.9 16.8-2.8v18.6h32.6V190h1.9c1.9 0 1.9 0 1.9 1.9v15.8h98.7c5.6 0 11.2-.9 16.8-4.7v4.7h31.7c5.6 0 12.1-.9 17.7-2.8l-.9-13zm0-32.6h-22.4c-1.9 0-3.7 0-4.7.9-.9.9-1.9 1.9-1.9 3.7 0 1.9.9 2.8 2.8 3.7 1.9 0 2.8.9 4.7.9h6.5c4.7-.9 10.2.9 14 3.7l.9.9M0 122h20.5l4.7-11.2h10.2l4.7 11.2h40.1v-8.4l3.7 8.4h21.4l3.7-8.4v8.4h100.6v-18.6h1.9c.9 0 1.9 0 1.9 2.8V122h52.2v-4.7c5.6 2.8 13 4.7 19.6 4.7h22.4l4.7-11.2h10.2L327 122h41.9v-10.2l6.5 10.2h33.5V53.1h-33.5v8.4l-4.7-8.4h-34.5v8.4l-4.7-8.4h-46.6c-6.5 0-14 .9-20.5 3.7v-3.7h-31.7v3.7c-3.7-2.8-8.4-4.7-14-3.7H102.5L95 70.8l-8.4-17.7H49.4v8.4l-3.7-8.4H14.9L0 85.7V122zm397.8-9.3H381l-23.3-37.3v37.3h-24.2l-4.7-11.2h-25.2l-4.7 11.2h-14c-6.5 0-12.1-1.9-17.7-5.6-4.7-5.6-7.5-12.1-6.5-18.6-.9-7.5 1.9-14 6.5-19.6 4.7-4.7 12.1-6.5 18.6-5.6h12.1v10.2h-11.2c-3.7 0-6.5.9-9.3 2.8-2.8 2.8-3.7 7.5-3.7 11.2 0 3.7.9 8.4 3.7 12.1 2.8 1.9 5.6 2.8 8.4 2.8h5.6l15.8-40.1H326l20.5 47.5V62.4h18.6l21.4 34.5V62.4h12.1l-.8 50.3zm-142.6 0h-12.1V62.4h12.1v50.3zm-19.5-36.3c0 5.6-2.8 11.2-8.4 13 1.9.9 4.7 1.9 5.6 4.7 1.9 2.8 2.8 5.6 1.9 9.3v10.2h-11.2v-6.5c.9-3.7 0-6.5-1.9-9.3-2.8-1.9-5.6-2.8-8.4-1.9h-13v17.7h-12.1V62.4h27.9c4.7-.9 10.2 0 14.9 2.8 2.8 1.9 5.6 6.5 4.7 11.2zm-56.8 36.3h-40.1V62.4h40.1v10.2H151V82h27.9v10.2H151v10.2h27.9v10.3zm-48.5 0h-12.1V73.6l-17.7 39.1H89.4L71.7 73.6v39.1H47.5l-4.7-11.2H17.7L13 112.7H0l21.4-50.3h17.7l20.5 47.5V62.4h19.6L95 95.9l14.9-33.5h20.5v50.3zm193.8-21.4l-7.5-20.5-8.4 19.6h15.8v.9zm-104.4-8.4c-1.9.9-3.7 1.9-5.6.9h-14.9V72.7h14.9c1.9 0 3.7 0 5.6.9 1.9.9 2.8 2.8 2.8 4.7 0 1.8-.9 3.7-2.8 4.6zM38.2 91.3l-7.5-20.5-8.4 20.5" clip-path="url(#SVGID_2_)" fill="#fff"/></svg>