<svg version="1.1" id="Layer_1" xmlns="http://www.w3.org/2000/svg" xmlns:xlink="http://www.w3.org/1999/xlink" x="0" y="0" viewBox="0 0 698.7 260.8" xml:space="preserve"><style>.st1{clip-path:url(#SVGID_2_)}</style><defs><path id="SVGID_1_" d="M0 0h698.7v260.8H0z"/></defs><clipPath id="SVGID_2_"><use xlink:href="#SVGID_1_" overflow="visible"/></clipPath><path d="M83.8 84.8c31.7 0 56.8 25.2 56.8 56.8 0 31.7-25.2 56.8-56.8 56.8-31.7 0-56.8-25.2-56.8-56.8 0-31.7 25.2-56.8 56.8-56.8zm0-27C38.2 57.8.9 95 .9 140.7c0 45.6 37.3 82.9 82.9 82.9 45.6 0 82.9-37.3 82.9-82.9 0-45.7-37.2-82.9-82.9-82.9zm75.5-3.8v5.6h5.6V54h-5.6zm17.7-6.5v5.6h5.6v-5.6H177zm0-11.2v5.6h5.6v-5.6H177z" clip-path="url(#SVGID_2_)" fill="#fdb511"/><path class="st1" d="M107.1 99.7c-14.9 18.6-18.6 27-25.2 42.8-6.5-14-14.9-23.3-28.9-29.8-2.8-.9-3.7-.9-5.6 1.9-1.9 2.8-.9 4.7 1.9 7.5 5.6 7.5 12.1 14 16.8 21.4 5.6 9.3 11.2 25.2 14 28.9 1.9 2.8 5.6 4.7 7.5 4.7 8.4-.9 8.4-5.6 10.2-13 2.8-12.1 6.5-25.2 22.4-40.1v-23.3h-13v-1zm570.1 85.7c-9.3 0-16.8-2.8-21.4-8.4-4.7-5.6-7.5-13-7.5-22.4s2.8-16.8 7.5-22.4c4.7-5.6 12.1-9.3 21.4-9.3 8.4 0 14.9 1.9 19.6 6.5l-7.5 12.1c-1.9-1.9-3.7-2.8-5.6-2.8-1.9-.9-3.7-.9-5.6-.9-7.5 0-11.2 5.6-11.2 16.8s3.7 16.8 11.2 16.8c3.7 0 7.5-1.9 12.1-4.7l8.4 11.2c-6.5 4.7-13 7.5-21.4 7.5M603.6 149h18.6c0-9.3-2.8-14-8.4-14-2.8 0-4.7.9-6.5 2.8-2.7 2.9-3.7 6.6-3.7 11.2m0 10.3c0 3.7 1.9 7.5 3.7 9.3 1.9 1.9 4.7 2.8 8.4 2.8 1.9 0 3.7 0 6.5-.9 1.9-.9 3.7-.9 4.7-1.9.9-.9 2.8-.9 4.7-2.8l6.5 11.2c-2.8 1.9-4.7 2.8-6.5 3.7-1.9.9-3.7 1.9-7.5 2.8-2.8.9-6.5.9-10.2.9-8.4 0-15.8-2.8-21.4-8.4-5.6-5.6-7.5-13-7.5-22.4s2.8-16.8 7.5-23.3c4.7-5.6 12.1-9.3 20.5-9.3 9.3 0 15.8 2.8 19.6 9.3 4.7 5.6 6.5 14 6.5 23.3v4.7l-35.5 1M545.9 136h-8.4v-12.1h9.3l2.8-16.8h14v16.8h13V136h-13v28.9c0 2.8 0 4.7.9 5.6.9.9 2.8 1.9 5.6 1.9 1.9 0 3.7 0 6.5-.9l1.9 12.1c-4.7 1.9-9.3 1.9-13 1.9-13 0-18.6-6.5-18.6-19.6V136M476 184.4v-59.6h11.2l3.7 9.3c6.5-7.5 13-10.2 20.5-10.2 11.2 0 16.8 7.5 16.8 22.4v39.1h-17.7v-40.1c0-4.7-1.9-7.5-5.6-7.5-3.7 0-7.5 1.9-10.2 4.7v41.9H476m-31.7-14.9v-13c-7.5 1.9-12.1 2.8-14 4.7-.9.9-1.9 2.8-1.9 4.7 0 4.7 1.9 6.5 6.5 6.5 3.9.9 6.7-1 9.4-2.9m0-23.2v-1.9c0-2.8-.9-4.7-1.9-5.6-.9-.9-2.8-1.9-6.5-1.9-4.7 0-10.2 1.9-16.8 4.7l-5.6-11.2c7.5-4.7 15.8-6.5 24.2-6.5 8.4 0 14 1.9 17.7 5.6 3.7 3.7 6.5 9.3 6.5 16.8v39.1h-11.2c-1.9-4.7-2.8-6.5-2.8-6.5-5.6 4.7-11.2 7.5-17.7 7.5-5.6 0-10.2-1.9-13-4.7-3.7-2.8-5.6-7.5-5.6-13 0-6.5 1.9-11.2 6.5-14 4.8-4.7 13.2-6.6 26.2-8.4m-79.1-14c5.6-6.5 12.1-9.3 18.6-9.3 6.5 0 10.2 1.9 13 6.5 2.8 3.7 3.7 9.3 3.7 15.8v39.1h-17.7v-40.1c0-4.7-1.9-7.5-5.6-7.5-2.8 0-6.5 1.9-10.2 4.7v41.9h-17.7v-40.1c0-4.7-1.9-7.5-5.6-7.5-3.7 0-6.5 1.9-10.2 4.7v41.9h-16.8V123h11.2l3.7 9.3c6.5-7.5 13-10.2 19.6-10.2 6.5.9 11.2 3.7 14 10.2m-91.3 54.9l-22.4-63.3h18.6l11.2 43.8 9.3-43.8h16.8l-17.7 60.6c-3.7 14-13 21.4-26.1 21.4-2.8 0-6.5 0-10.2-.9l1.9-12.1h5.6c2.8 0 5.6-.9 7.5-1.9 2.7 0 3.6-1.9 5.5-3.8m-58.7-1.8c-12.1 0-22.4-2.8-29.8-9.3l7.5-13c6.5 4.7 14 6.5 22.4 6.5 3.7 0 7.5-.9 9.3-1.9 1.9-1.9 3.7-3.7 3.7-6.5v-1.9l-.9-1.9-.9-1.9s-.9-.9-1.9-.9-1.9-.9-1.9-.9c-.9 0-1.9-.9-2.8-.9s-1.9-.9-2.8-.9c-.9 0-1.9-.9-3.7-.9-1.9-.9-2.8-.9-3.7-.9-2.8-.9-5.6-1.9-7.5-2.8-1.9-.9-3.7-2.8-6.5-4.7-1.9-1.9-3.7-3.7-4.7-6.5-.9-2.8-1.9-6.5-1.9-9.3 0-7.5 2.8-13 7.5-16.8 4.7-3.7 12.1-6.5 20.5-6.5 10.2 0 18.6 1.9 24.2 5.6l-5.6 13c-5.6-2.8-12.1-3.7-17.7-3.7-8.4 0-12.1 2.8-12.1 7.5 0 .9 0 1.9.9 2.8 0 .9.9 1.9 1.9 1.9.9.9 1.9.9 2.8 1.9 1.9.9 2.8.9 3.7.9s2.8.9 4.7 1.9c.9 0 1.9.9 1.9.9 2.8.9 4.7 1.9 6.5 2.8 1.9.9 3.7 1.9 6.5 3.7 1.9.9 4.7 2.8 5.6 4.7 1.9 1.9 2.8 3.7 3.7 6.5.9 2.8 1.9 5.6 1.9 9.3 0 7.5-2.8 13-7.5 17.7-6.5 2.6-14 4.5-23.3 4.5"/><path class="st1" d="M148.1 65.2v-5.6h-5.6v5.6h5.6zm0 5.6h5.6v-5.6h-5.6v5.6zm11.2 0h-5.6v5.6h-5.6v-5.6h-11.2v5.6h-6.5V82h5.6v5.6h-5.6v-4.7h-5.6v5.6h-5.6v5.6h-5.6v23.3h11.2v-5.6h5.6v-5.6h5.6v-5.6h-5.6V95h5.6v5.6h5.6V95h5.6v-6.5h5.6v-5.6h5.6V70.8h.9zm6.5-5.6h5.6v-5.6h-5.6v5.6zm-6.5 0v5.6h5.6v-5.6h-5.6zm0-11.2h-5.6v11.2h5.6V54zm12.1-6.5h-11.2v5.6h11.2v-5.6zm0-5.6v5.6h5.6v-5.6h-5.6z"/></svg>