<svg version="1.1" id="Layer_1" xmlns="http://www.w3.org/2000/svg" x="0" y="0" viewBox="0 0 167.1 117.6" xml:space="preserve"><style>.st1{fill:#f2d1c8}.st2{fill:#fb907f}.st4{fill:#f9eae5}</style><linearGradient id="SVGID_1_" gradientUnits="userSpaceOnUse" x1="28.057" y1="68.225" x2="38.943" y2="68.225"><stop offset="0" stop-color="#ff6542"/><stop offset="1" stop-color="#ffb4a3"/></linearGradient><path d="M36.5 72.7c2.5-1.7 3.1-5.1 1.7-7.6-1.7-2.2-5.1-3.1-7.6-1.4-2.5 1.7-3.4 5.1-1.7 7.6s5.1 3.1 7.6 1.4z" fill="url(#SVGID_1_)"/><path class="st1" d="M64.3 64.8c-2.8 1.7-3.7 5.3-1.7 8.1 1.7 2.8 5.3 3.7 8.1 1.7 2.8-1.7 3.7-5.3 1.7-8.1-1.6-2.8-5.3-3.6-8.1-1.7z"/><path class="st2" d="M26.4 84.2c-.6-1.1-2.2-1.4-3.4-.6L1.1 98c-1.1.8-1.4 2.2-.8 3.4.8 1.1 2.2 1.4 3.4.6l22.2-14.3c1.1-1 1.3-2.4.5-3.5z"/><path d="M102.8 54.1c12.9-8.4 21.6-18 19.7-21.3-2.2-3.1-14.3 1.1-27.2 9.6-13.2 8.4-21.9 18-19.7 21.3 1.9 3.1 14.3-1.1 27.2-9.6z" fill="#f7e5df"/><path class="st4" d="M84.5 33.6c5.9-7 13.2-13.5 20.8-18.8-20.5-4.5-57 7-52 15.2 2.9 4.2 20.6-5.6 31.2 3.6z"/><path class="st1" d="M23.3 105.5l35.4-23c2.8-1.7 3.4-5.3 1.7-8.1s-5.3-3.4-8.1-1.7l-35.4 23c-2.8 2-3.4 5.6-1.7 8.1 1.7 2.9 5.3 3.7 8.1 1.7z"/><path class="st2" d="M73.9 53.3c-.8-1.1-2.2-1.4-3.4-.8l-41.3 27c-1.1.8-1.4 2.2-.6 3.4.6 1.1 2 1.4 3.1.8l41.3-27c1.1-.9 1.4-2.3.9-3.4z"/><linearGradient id="SVGID_2_" gradientUnits="userSpaceOnUse" x1="83.967" y1="32.129" x2="167.11" y2="32.129"><stop offset="0" stop-color="#ff6542"/><stop offset="1" stop-color="#ffb4a3"/></linearGradient><path d="M165.7 4.4c-5.9-9-29.8-3.9-53.4 11.5-12.6 8.1-22.7 18-28.4 26.4L85 44c2.2-2 4.8-3.9 7.3-5.6 15.2-9.8 30.3-13.5 34-8.1 3.6 5.3-5.9 18-21.1 27.8-2.5 1.7-5.3 3.4-7.9 4.8l.8 1.4c10.1-1.7 23-7 35.7-15.2 3.1-2.2 6.2-4.2 9-6.5 18.1-14.3 28.2-30.3 22.9-38.2zm-13.2 18.9c-3.9 2.5-9 1.4-11.5-2.5s-1.4-9 2.2-11.5c3.9-2.5 9.3-1.4 11.8 2.5 2.5 3.6 1.4 8.9-2.5 11.5z" fill="url(#SVGID_2_)"/><path class="st4" d="M106.7 67.3c3.9 13.5-12.1 25.6-9.3 29.8 5.3 8.1 30.6-20.8 34.5-41.3-7.8 4.8-16.5 9-25.2 11.5z"/><linearGradient id="SVGID_3_" gradientUnits="userSpaceOnUse" x1="69.379" y1="92.553" x2="88.588" y2="92.553"><stop offset="0" stop-color="#ff6542"/><stop offset="1" stop-color="#ffb4a3"/></linearGradient><path d="M73.6 84.5c-4.2 3.1-5.6 9-2.5 13.5 2.8 4.2 8.7 5.6 13.2 2.5 4.5-2.8 5.6-8.7 2.8-13.2-3.1-4.5-9-5.6-13.5-2.8z" fill="url(#SVGID_3_)"/><path class="st2" d="M48.6 91.5c-1.1.8-1.4 2.2-.6 3.4.6.8 2 1.4 3.1.6s1.4-2.2.8-3.1c-.8-1.2-2.2-1.5-3.3-.9zm-5.1 3.4l-28.1 18.5c-1.1.6-1.4 2-.8 3.1.8 1.1 2.2 1.4 3.4.8l28.1-18.5c1.1-.6 1.4-2.2.8-3.4-.8-.8-2.3-1.4-3.4-.5zm41.6-24.5c-.8-1.1-2.2-1.4-3.4-.6L53.6 88.1c-1.1.8-1.4 2.2-.6 3.4.6 1.1 2 1.4 3.1.8l28.1-18.5c1.2-.6 1.4-2.2.9-3.4z"/></svg>