<svg width="242" height="72" viewBox="0 0 242 72" fill="none" xmlns="http://www.w3.org/2000/svg">
<path d="M237.197 48.5734L240.945 53.0812C239.496 54.6381 237.776 55.8149 235.785 56.6115C233.83 57.408 231.712 57.8063 229.43 57.8063C226.425 57.8063 223.8 57.1908 221.555 55.9597C219.31 54.7287 217.554 53.0269 216.287 50.8545C215.056 48.6458 214.441 46.1294 214.441 43.3052C214.441 40.5172 215.038 38.0189 216.233 35.8102C217.428 33.6016 219.075 31.8636 221.175 30.5963C223.275 29.3291 225.647 28.6954 228.29 28.6954C230.752 28.6954 232.943 29.311 234.862 30.542C236.781 31.7731 238.283 33.4748 239.369 35.6473C240.492 37.7835 241.053 40.2275 241.053 42.9793V43.3052H234.047V42.5991C234.047 39.956 233.54 37.9284 232.526 36.5163C231.512 35.1042 230.046 34.3981 228.127 34.3981C226.824 34.3981 225.683 34.7421 224.705 35.43C223.764 36.118 223.022 37.1318 222.479 38.4715C221.972 39.7749 221.718 41.3319 221.718 43.1422C221.718 44.9888 222.026 46.582 222.642 47.9216C223.257 49.2613 224.144 50.2932 225.303 51.0174C226.498 51.7415 227.964 52.1036 229.702 52.1036C231.295 52.1036 232.707 51.7958 233.938 51.1803C235.206 50.5648 236.292 49.6958 237.197 48.5734ZM241.053 45.4233H219.057V40.8069H240.184L241.053 42.9793V45.4233Z" fill="black"/>
<path d="M210.29 56.9373H203.121V29.5644H210.29V56.9373ZM211.051 20.7116C211.051 21.9065 210.634 22.9203 209.802 23.7531C208.969 24.5859 207.919 25.0022 206.652 25.0022C205.421 25.0022 204.389 24.5859 203.556 23.7531C202.723 22.9203 202.307 21.9065 202.307 20.7116C202.307 19.5168 202.723 18.503 203.556 17.6702C204.389 16.8374 205.421 16.4211 206.652 16.4211C207.919 16.4211 208.969 16.8374 209.802 17.6702C210.634 18.503 211.051 19.5168 211.051 20.7116Z" fill="black"/>
<path d="M190.486 56.9373V50.5286L190.432 50.1484V43.4138C190.432 41.6758 190.142 40.1551 189.563 38.8516C188.983 37.5482 188.169 36.5525 187.119 35.8645C186.105 35.1404 184.928 34.7783 183.588 34.7783C182.176 34.7783 180.945 35.1404 179.895 35.8645C178.845 36.5887 178.031 37.6025 177.451 38.9059C176.872 40.1732 176.582 41.6215 176.582 43.2509C176.582 44.9164 176.872 46.3828 177.451 47.6501C178.067 48.9173 178.918 49.9311 180.004 50.6915C181.09 51.4157 182.357 51.7777 183.806 51.7777C185.001 51.7777 186.087 51.5243 187.064 51.0174C188.078 50.4743 188.911 49.732 189.563 48.7906C190.214 47.8492 190.613 46.763 190.757 45.5319L192.333 46.5095C192.441 48.5734 192.079 50.4743 191.246 52.2122C190.414 53.914 189.201 55.2718 187.607 56.2856C186.051 57.2994 184.168 57.8063 181.959 57.8063C179.606 57.8063 177.451 57.1908 175.496 55.9597C173.577 54.7286 172.038 53.0269 170.88 50.8544C169.721 48.6458 169.142 46.1112 169.142 43.2509C169.142 40.3905 169.721 37.874 170.88 35.7016C172.074 33.4929 173.649 31.7731 175.605 30.542C177.56 29.311 179.714 28.6954 182.068 28.6954C183.987 28.6954 185.652 29.1118 187.064 29.9446C188.513 30.7411 189.671 31.8455 190.54 33.2576C191.445 34.6697 191.989 36.2809 192.17 38.0913H190.432V17.8332H197.601V56.9373H190.486Z" fill="black"/>
<path d="M152.025 57.8063C149.237 57.8063 146.756 57.1908 144.584 55.9597C142.448 54.6925 140.764 52.9726 139.533 50.8001C138.338 48.5915 137.741 46.0751 137.741 43.2509C137.741 40.4267 138.338 37.9284 139.533 35.7559C140.764 33.5472 142.448 31.8274 144.584 30.5963C146.756 29.3291 149.237 28.6954 152.025 28.6954C154.885 28.6954 157.383 29.3291 159.52 30.5963C161.692 31.8274 163.376 33.5472 164.571 35.7559C165.802 37.9284 166.417 40.4267 166.417 43.2509C166.417 46.0751 165.802 48.5915 164.571 50.8001C163.376 52.9726 161.692 54.6925 159.52 55.9597C157.383 57.1908 154.885 57.8063 152.025 57.8063ZM152.025 51.7777C153.437 51.7777 154.65 51.4157 155.663 50.6915C156.714 49.9674 157.528 48.9717 158.107 47.7044C158.687 46.4009 158.976 44.9164 158.976 43.2509C158.976 41.5853 158.687 40.1189 158.107 38.8517C157.528 37.5844 156.714 36.5887 155.663 35.8645C154.65 35.1404 153.437 34.7783 152.025 34.7783C150.685 34.7783 149.49 35.1404 148.44 35.8645C147.426 36.5887 146.63 37.5844 146.05 38.8517C145.471 40.1189 145.181 41.5853 145.181 43.2509C145.181 44.9164 145.471 46.4009 146.05 47.7044C146.63 48.9717 147.426 49.9674 148.44 50.6915C149.49 51.4157 150.685 51.7777 152.025 51.7777Z" fill="black"/>
<path d="M120.624 57.8063C117.836 57.8063 115.356 57.1908 113.183 55.9597C111.047 54.6925 109.363 52.9726 108.132 50.8001C106.937 48.5915 106.34 46.0751 106.34 43.2509C106.34 40.4267 106.937 37.9284 108.132 35.7559C109.363 33.5472 111.047 31.8274 113.183 30.5963C115.356 29.3291 117.836 28.6954 120.624 28.6954C123.484 28.6954 125.982 29.3291 128.119 30.5963C130.291 31.8274 131.975 33.5472 133.17 35.7559C134.401 37.9284 135.016 40.4267 135.016 43.2509C135.016 46.0751 134.401 48.5915 133.17 50.8001C131.975 52.9726 130.291 54.6925 128.119 55.9597C125.982 57.1908 123.484 57.8063 120.624 57.8063ZM120.624 51.7777C122.036 51.7777 123.249 51.4157 124.263 50.6915C125.313 49.9674 126.127 48.9717 126.707 47.7044C127.286 46.4009 127.576 44.9164 127.576 43.2509C127.576 41.5853 127.286 40.1189 126.707 38.8517C126.127 37.5844 125.313 36.5887 124.263 35.8645C123.249 35.1404 122.036 34.7783 120.624 34.7783C119.284 34.7783 118.089 35.1404 117.039 35.8645C116.025 36.5887 115.229 37.5844 114.65 38.8517C114.07 40.1189 113.781 41.5853 113.781 43.2509C113.781 44.9164 114.07 46.4009 114.65 47.7044C115.229 48.9717 116.025 49.9674 117.039 50.6915C118.089 51.4157 119.284 51.7777 120.624 51.7777Z" fill="black"/>
<path d="M99.1695 56.9373H92.0004V25.5454C92.0004 20.4039 94.4444 17.8332 99.3324 17.8332H105.524V23.4815H101.831C100.889 23.4815 100.201 23.7169 99.7669 24.1876C99.3686 24.6221 99.1695 25.4005 99.1695 26.523V56.9373ZM105.524 35.43H87.6012V29.5644H105.524V35.43Z" fill="black"/>
<path d="M55.6451 0H15.0917C6.7568 0 0 6.74545 0 15.0664V56.9336C0 65.2545 6.7568 72 15.0917 72H55.6451C63.98 72 70.7368 65.2545 70.7368 56.9336V15.0664C70.7368 6.74545 63.98 0 55.6451 0Z" fill="black"/>
<path d="M28.7739 59.365L27.1765 50.5691L12.6316 57.7243L17.2795 31.3502C18.3857 20.8318 27.3586 12.6316 38.2656 12.6316C49.918 12.6316 59.3684 21.9926 59.3684 33.5423C59.3684 42.0319 54.2636 49.3403 46.9259 52.6149L28.7705 59.3684L28.7739 59.365Z" fill="white"/>
<path d="M48 36.6316C48 42.2123 43.4754 46.7369 37.8947 46.7369C32.3141 46.7369 27.7895 42.2123 27.7895 36.6316" fill="black"/>
</svg>
