<svg width="110" height="170" viewBox="0 0 110 170" fill="none" xmlns="http://www.w3.org/2000/svg">
<rect x="0.5" y="0.5" width="85" height="169" rx="12.5" fill="#FFF8FE" stroke="url(#paint0_linear_113_106)"/>
<path d="M53.6245 66.4943L53.6245 66.4943L53.8412 66.6912C54.3132 67.1201 54.3132 67.8799 53.8412 68.3088L53.6245 68.5057L53.7086 68.5982L53.6245 68.5057C52.8411 69.2175 52.6435 70.4239 53.1665 71.376L53.6529 72.2615L53.7625 72.2013L53.6529 72.2615C54.1724 73.2072 55.2475 73.6206 56.2121 73.2684L56.2121 73.2684L56.4826 73.1696C56.4826 73.1696 56.4826 73.1696 56.4826 73.1696C57.0963 72.9456 57.7337 73.3517 57.8492 73.9851L57.9031 74.2809C58.1003 75.3626 58.9939 76.125 60.0135 76.125H60.9864C62.0061 76.125 62.8997 75.3626 63.0969 74.2809L63.0969 74.2809L63.1508 73.9852C63.2662 73.3517 63.9037 72.9455 64.5173 73.1696L64.7879 73.2684L64.7879 73.2684C65.7525 73.6206 66.8276 73.2072 67.3471 72.2615L67.8335 71.3761C68.3565 70.424 68.1589 69.2175 67.3755 68.5057L67.3755 68.5057L67.1587 68.3088C66.6867 67.88 66.6867 67.12 67.1587 66.6912L67.3755 66.4943L67.3755 66.4943C68.1589 65.7825 68.3565 64.5761 67.8335 63.6239L67.3471 62.7384L67.2375 62.7986L67.3471 62.7384C66.8276 61.7928 65.7526 61.3793 64.788 61.7315L64.5173 61.8303L64.5602 61.9478L64.5173 61.8303C63.9037 62.0544 63.2662 61.6482 63.1508 61.0148L63.0969 60.7191L63.0969 60.7191C62.8997 59.6374 62.0061 58.875 60.9864 58.875H60.0135C58.9939 58.875 58.1003 59.6374 57.9031 60.719L57.8492 61.0148C57.7337 61.6482 57.0963 62.0544 56.4827 61.8303L56.2121 61.7315C55.2475 61.3794 54.1724 61.7928 53.6529 62.7385L53.1665 63.6239C52.6435 64.5761 52.8411 65.7825 53.6245 66.4943ZM59.4868 61.0504L59.4868 61.0504C59.5322 60.8015 59.7458 60.6033 60.0135 60.6033H60.9864C61.2542 60.6033 61.4678 60.8015 61.5132 61.0504C61.5132 61.0504 61.5132 61.0504 61.5132 61.0504L61.567 61.3461L61.69 61.3237L61.567 61.3461C61.8754 63.0381 63.5262 64.0182 65.0382 63.4661L65.3089 63.3673C65.5607 63.2754 65.8315 63.3878 65.9564 63.6152L66.0659 63.555L65.9564 63.6152L66.4428 64.5007C66.564 64.7213 66.5223 65.0029 66.3314 65.1763L66.3314 65.1763L66.1147 65.3732C66.1147 65.3732 66.1147 65.3732 66.1147 65.3732C64.8833 66.492 64.8833 68.508 66.1147 69.6268L66.1148 69.6268L66.3314 69.8236C66.5223 69.9971 66.564 70.2787 66.4428 70.4994C66.4428 70.4994 66.4428 70.4994 66.4428 70.4994L65.9564 71.3848L65.9564 71.3848C65.8315 71.6121 65.5607 71.7246 65.3089 71.6327L65.0383 71.5338L64.9954 71.6513L65.0383 71.5338C63.5262 70.9817 61.8754 71.9618 61.567 73.6539L61.5132 73.9496C61.5132 73.9496 61.5132 73.9496 61.5132 73.9496C61.4678 74.1985 61.2542 74.3967 60.9864 74.3967H60.0135C59.7458 74.3967 59.5322 74.1985 59.4868 73.9496L59.4868 73.9496L59.4329 73.6538C59.1245 71.9617 57.4737 70.9817 55.9616 71.5339C55.9616 71.5339 55.9616 71.5339 55.9616 71.5339L55.6911 71.6327L55.6911 71.6327C55.4393 71.7246 55.1685 71.6121 55.0436 71.3848L54.5572 70.4993L54.4477 70.5595L54.5572 70.4993C54.436 70.2787 54.4777 69.9971 54.6686 69.8236L54.8853 69.6268L54.8012 69.5342L54.8853 69.6267C56.1167 68.5079 56.1166 66.4921 54.8853 65.3732L54.6686 65.1763L54.5845 65.2688L54.6686 65.1763C54.4777 65.0029 54.436 64.7213 54.5572 64.5007L55.0437 63.6152L54.9351 63.5555L55.0437 63.6152C55.1686 63.3878 55.4393 63.2754 55.6911 63.3673L55.9617 63.4661L56.0046 63.3487L55.9617 63.4661C57.4737 64.0182 59.1245 63.0382 59.4329 61.3462C59.4329 61.3462 59.4329 61.3462 59.4329 61.3462L59.4868 61.0504Z" fill="url(#paint1_linear_113_106)" stroke="url(#paint2_linear_113_106)" stroke-width="0.25"/>
<path fill-rule="evenodd" clip-rule="evenodd" d="M41.4946 71C39.5207 71 37.7739 72.3881 37.3872 74.3804L37.2758 74.9546C37.0113 76.3178 35.5417 77.2135 34.1089 76.7221L33.5497 76.5303C31.6816 75.8897 29.5909 76.6382 28.5758 78.3738L27.5706 80.0927C26.5459 81.8447 26.9357 84.0635 28.4644 85.3682L28.9123 85.7504C30.0004 86.6792 30.0004 88.3208 28.9123 89.2496L28.4644 89.6318C26.9357 90.9364 26.5459 93.1552 27.5706 94.9072L28.5758 96.6261C29.5909 98.3617 31.6816 99.1103 33.5498 98.4696L34.1088 98.2778C35.5416 97.7864 37.0113 98.682 37.2758 100.045L37.3872 100.62C37.7739 102.612 39.5207 104 41.4946 104H43.5052C45.4793 104 47.2261 102.612 47.6128 100.619L47.7241 100.045C47.9886 98.6821 49.4582 97.7864 50.8911 98.2778L51.4502 98.4696C53.3184 99.1103 55.4091 98.3617 56.4242 96.6261L57.4295 94.9074C58.4541 93.1553 58.0642 90.9364 56.5356 89.6318L56.0876 89.2496C54.9994 88.321 54.9994 86.679 56.0876 85.7504L56.5356 85.3682C58.0642 84.0635 58.4541 81.8447 57.4295 80.0927L56.4242 78.3738C55.4091 76.6382 53.3185 75.8897 51.4504 76.5303L50.891 76.7221C49.4582 77.2135 47.9886 76.3178 47.7241 74.9545L47.6128 74.3806C47.2261 72.3882 45.4793 71 43.5052 71H41.4946ZM40.1519 74.9367C40.2662 74.3478 40.8064 73.8696 41.4946 73.8696H43.5052C44.1936 73.8696 44.7338 74.3479 44.8481 74.9367L44.9594 75.5107C45.5702 78.659 48.8277 80.4576 51.7904 79.4416L52.3498 79.2498C52.9965 79.028 53.6868 79.3016 54.0029 79.842L55.0081 81.5609C55.3146 82.0849 55.2106 82.7548 54.7253 83.1689L54.2775 83.5511C51.8453 85.6266 51.8453 89.3734 54.2775 91.449L54.7253 91.831C55.2106 92.2453 55.3146 92.915 55.0081 93.4391L54.0029 95.1579C53.6868 95.6983 52.9965 95.972 52.3498 95.7501L51.7905 95.5583C48.8277 94.5422 45.5702 96.3408 44.9594 99.4893L44.8481 100.063C44.7338 100.652 44.1936 101.13 43.5052 101.13H41.4946C40.8064 101.13 40.2662 100.652 40.1519 100.063L40.0405 99.489C39.4295 96.3407 36.172 94.5422 33.2093 95.5585L32.6502 95.7501C32.0035 95.972 31.3132 95.6983 30.9971 95.1579L29.9919 93.439C29.6854 92.915 29.7894 92.2453 30.2746 91.831L30.7225 91.4488C33.1545 89.3733 33.1545 85.6267 30.7225 83.5512L30.2746 83.1689C29.7894 82.7548 29.6854 82.085 29.9919 81.561L30.9972 79.8421C31.3132 79.3016 32.0035 79.028 32.6502 79.2498L33.2094 79.4416C36.1721 80.4576 39.4295 78.6591 40.0405 75.5108L40.1519 74.9367Z" fill="url(#paint3_linear_113_106)"/>
<path d="M60.5 64.875C59.0503 64.875 57.875 66.0503 57.875 67.5C57.875 68.9497 59.0503 70.125 60.5 70.125C61.9498 70.125 63.125 68.9497 63.125 67.5C63.125 66.0503 61.9498 64.875 60.5 64.875ZM59.375 67.5C59.375 66.8787 59.8787 66.375 60.5 66.375C61.1213 66.375 61.625 66.8787 61.625 67.5C61.625 68.1213 61.1213 68.625 60.5 68.625C59.8787 68.625 59.375 68.1213 59.375 67.5Z" fill="url(#paint4_linear_113_106)" stroke="url(#paint5_linear_113_106)" stroke-width="0.25"/>
<path fill-rule="evenodd" clip-rule="evenodd" d="M42.5 82C39.4625 82 37 84.4624 37 87.5C37 90.5375 39.4625 93 42.5 93C45.5376 93 48 90.5375 48 87.5C48 84.4624 45.5376 82 42.5 82ZM39.75 87.5C39.75 85.9812 40.9813 84.75 42.5 84.75C44.0188 84.75 45.25 85.9812 45.25 87.5C45.25 89.0188 44.0188 90.25 42.5 90.25C40.9813 90.25 39.75 89.0188 39.75 87.5Z" fill="url(#paint6_linear_113_106)"/>
<circle cx="83.5" cy="45.5" r="26" fill="white" stroke="url(#paint7_linear_113_106)"/>
<path d="M68 46.3036L71.0915 43.2465L78.8218 50.8844L95.9056 34L99 37.0557L78.8218 57L68 46.3036Z" fill="url(#paint8_linear_113_106)"/>
<defs>
<linearGradient id="paint0_linear_113_106" x1="-13.8557" y1="-22.3697" x2="99.8702" y2="-7.38059" gradientUnits="userSpaceOnUse">
<stop stop-color="#C43B56"/>
<stop offset="0.3395" stop-color="#982684"/>
<stop offset="0.726" stop-color="#6A10B3"/>
<stop offset="0.9195" stop-color="#5908C5"/>
</linearGradient>
<linearGradient id="paint1_linear_113_106" x1="50.5833" y1="56.763" x2="69.7509" y2="61.1694" gradientUnits="userSpaceOnUse">
<stop stop-color="#C43B56"/>
<stop offset="0.3395" stop-color="#982684"/>
<stop offset="0.726" stop-color="#6A10B3"/>
<stop offset="0.9195" stop-color="#5908C5"/>
</linearGradient>
<linearGradient id="paint2_linear_113_106" x1="50.5833" y1="56.763" x2="69.7509" y2="61.1694" gradientUnits="userSpaceOnUse">
<stop stop-color="#C43B56"/>
<stop offset="0.3395" stop-color="#982684"/>
<stop offset="0.726" stop-color="#6A10B3"/>
<stop offset="0.9195" stop-color="#5908C5"/>
</linearGradient>
<linearGradient id="paint3_linear_113_106" x1="22.0055" y1="66.6576" x2="61.3548" y2="76.2882" gradientUnits="userSpaceOnUse">
<stop stop-color="#C43B56"/>
<stop offset="0.3395" stop-color="#982684"/>
<stop offset="0.726" stop-color="#6A10B3"/>
<stop offset="0.9195" stop-color="#5908C5"/>
</linearGradient>
<linearGradient id="paint4_linear_113_106" x1="57.1944" y1="64.3421" x2="63.4937" y2="65.9832" gradientUnits="userSpaceOnUse">
<stop stop-color="#C43B56"/>
<stop offset="0.3395" stop-color="#982684"/>
<stop offset="0.726" stop-color="#6A10B3"/>
<stop offset="0.9195" stop-color="#5908C5"/>
</linearGradient>
<linearGradient id="paint5_linear_113_106" x1="57.1944" y1="64.3421" x2="63.4937" y2="65.9832" gradientUnits="userSpaceOnUse">
<stop stop-color="#C43B56"/>
<stop offset="0.3395" stop-color="#982684"/>
<stop offset="0.726" stop-color="#6A10B3"/>
<stop offset="0.9195" stop-color="#5908C5"/>
</linearGradient>
<linearGradient id="paint6_linear_113_106" x1="35.2278" y1="80.5525" x2="49.0861" y2="84.1631" gradientUnits="userSpaceOnUse">
<stop stop-color="#C43B56"/>
<stop offset="0.3395" stop-color="#982684"/>
<stop offset="0.726" stop-color="#6A10B3"/>
<stop offset="0.9195" stop-color="#5908C5"/>
</linearGradient>
<linearGradient id="paint7_linear_113_106" x1="48.461" y1="12.0259" x2="115.233" y2="29.4224" gradientUnits="userSpaceOnUse">
<stop stop-color="#C43B56"/>
<stop offset="0.3395" stop-color="#982684"/>
<stop offset="0.726" stop-color="#6A10B3"/>
<stop offset="0.9195" stop-color="#5908C5"/>
</linearGradient>
<linearGradient id="paint8_linear_113_106" x1="63.0055" y1="30.9735" x2="100.134" y2="44.0113" gradientUnits="userSpaceOnUse">
<stop stop-color="#C43B56"/>
<stop offset="0.3395" stop-color="#982684"/>
<stop offset="0.726" stop-color="#6A10B3"/>
<stop offset="0.9195" stop-color="#5908C5"/>
</linearGradient>
</defs>
</svg>
