<svg width="166" height="150" viewBox="0 0 166 150" fill="none" xmlns="http://www.w3.org/2000/svg">
<g filter="url(#filter0_d_56_3)">
<path d="M95.4246 146.58C132.745 146.58 163 115.972 163 78.2159C163 40.4596 132.745 9.85205 95.4246 9.85205C58.1038 9.85205 27.8493 40.4596 27.8493 78.2159C27.8493 115.972 58.1038 146.58 95.4246 146.58Z" fill="white"/>
</g>
<path d="M31.4386 63.6001C48.8017 63.6001 62.8772 49.5277 62.8772 32.1685C62.8772 14.8092 48.8017 0.736816 31.4386 0.736816C14.0755 0.736816 0 14.8092 0 32.1685C0 49.5277 14.0755 63.6001 31.4386 63.6001Z" fill="#2C2C2C"/>
<path d="M109.76 56.2148C113.644 52.4863 118.501 51.2456 120.926 51.0343C121.5 50.9843 121.991 51.4058 121.998 51.9818C122.034 55.2601 119.567 59.3006 117.51 61.9716C116.865 62.8094 115.589 62.4055 115.231 61.4105C114.461 59.2697 113.054 58.4416 110.641 58.2256C109.59 58.1314 108.998 56.9457 109.76 56.2148Z" fill="#6F17E1"/>
<path d="M82.1146 84.1832L82.1146 89.9236C82.1146 89.9788 82.1593 90.0236 82.2146 90.0236L88.2451 90.0236" stroke="#6F17E1" stroke-width="3.5" stroke-linecap="round"/>
<line x1="91.7764" y1="96.4006" x2="79.4006" y2="112.804" stroke="#6F17E1" stroke-width="2" stroke-linecap="round"/>
<line x1="126.2" y1="85.4" x2="118.4" y2="95.8" stroke="#6F17E1" stroke-width="2" stroke-linecap="round"/>
<line x1="102.426" y1="104.521" x2="100.202" y2="107.64" stroke="#6F17E1" stroke-width="2" stroke-linecap="round"/>
<line x1="67.6185" y1="71.3947" x2="65.3948" y2="74.5143" stroke="#6F17E1" stroke-width="2" stroke-linecap="round"/>
<line x1="75.8543" y1="53.1237" x2="70.7363" y2="59.8372" stroke="#6F17E1" stroke-width="2" stroke-linecap="round"/>
<line x1="74.7609" y1="99.4027" x2="64.4027" y2="112.82" stroke="#6F17E1" stroke-width="2" stroke-linecap="round"/>
<line x1="74.765" y1="82.4021" x2="61.4021" y2="99.8155" stroke="#6F17E1" stroke-width="2" stroke-linecap="round"/>
<path d="M130.307 43.3418C130.258 42.6293 129.683 42.0668 128.97 42.0349H128.966C117.452 41.5305 107.239 46.488 98.1094 57.033H80.1544C79.4981 57.033 78.9487 57.4812 78.7931 58.0887L78.7912 58.098L75.0412 73.098C75.015 73.1993 75 73.3174 75 73.4374C75 74.2137 75.6281 74.8437 76.4062 74.8455H86.3475C85.7325 76.023 85.1194 77.2062 84.5156 78.4493C84.4275 78.6293 84.375 78.8412 84.375 79.0643C84.375 79.4524 84.5325 79.8049 84.7875 80.0618L92.2875 87.5618C92.5425 87.8149 92.8931 87.9724 93.2812 87.9724C93.5138 87.9724 93.7312 87.9162 93.9244 87.8187L93.9169 87.8224C95.1194 87.2137 96.3137 86.5955 97.5 85.968V96.2355V96.2393C97.5 97.0137 98.1281 97.6418 98.9025 97.6418H98.9062C99.0281 97.6418 99.1444 97.6268 99.2569 97.5987L99.2456 97.6005L114.246 93.8505C114.862 93.6912 115.311 93.1399 115.311 92.4855V74.5137C124.879 66.6162 131.239 56.7968 130.307 43.3455V43.3418ZM78.2062 72.033L81.2531 59.8455H95.8013C93.0581 63.3874 90.4313 67.3718 88.1119 71.5493L87.8663 72.033H78.2062ZM112.498 91.383L100.311 94.4299V84.4343C105.017 81.8599 108.999 79.3024 112.794 76.5012L112.498 76.7093V91.383ZM93.5531 84.8468L87.4856 78.7793C98.7712 55.9418 111.836 44.8118 127.374 44.8118L127.569 44.8137C128.184 64.1805 111.743 75.5374 93.5531 84.8468Z" fill="#6F17E1" stroke="#6F17E1"/>
<rect x="14" y="31.5" width="9.0625" height="9.0625" rx="2" fill="white"/>
<rect x="25.7812" y="25.1562" width="9.0625" height="15.4062" rx="2" fill="white"/>
<rect x="14" y="43.2812" width="32.625" height="2.71875" rx="1.35938" fill="white"/>
<rect x="37.5625" y="17" width="9.0625" height="23.5625" rx="2" fill="white"/>
<defs>
<filter id="filter0_d_56_3" x="24.8493" y="6.85205" width="141.151" height="142.728" filterUnits="userSpaceOnUse" color-interpolation-filters="sRGB">
<feFlood flood-opacity="0" result="BackgroundImageFix"/>
<feColorMatrix in="SourceAlpha" type="matrix" values="0 0 0 0 0 0 0 0 0 0 0 0 0 0 0 0 0 0 127 0" result="hardAlpha"/>
<feOffset/>
<feGaussianBlur stdDeviation="1.5"/>
<feComposite in2="hardAlpha" operator="out"/>
<feColorMatrix type="matrix" values="0 0 0 0 0 0 0 0 0 0 0 0 0 0 0 0 0 0 0.44 0"/>
<feBlend mode="normal" in2="BackgroundImageFix" result="effect1_dropShadow_56_3"/>
<feBlend mode="normal" in="SourceGraphic" in2="effect1_dropShadow_56_3" result="shape"/>
</filter>
</defs>
</svg>
