<svg width="73" height="71" viewBox="0 0 73 71" fill="none" xmlns="http://www.w3.org/2000/svg">
<circle cx="17.75" cy="17.75" r="17.75" fill="#4D05BB"/>
<rect x="11.0172" y="9.79309" width="61.2069" height="61.2069" rx="15" fill="#4D05BB"/>
<path d="M16.7604 8V26M20.4174 11.6344C18.8111 9.2691 12.7301 9.02196 12.7301 13.1674C12.7301 17.3129 21.4844 15.33 20.9789 20.2118C20.5575 24.2823 13.9702 24.3384 12 21.0891" stroke="white" stroke-width="1.5" stroke-linecap="round" stroke-linejoin="round"/>
<path d="M24.9573 50C23.3266 50 22 48.6625 22 47.0219C22 45.3814 23.3266 44.046 24.9573 44.046C25.5094 44.046 26.0537 44.2086 26.5332 44.5137L26.5969 44.5538L34.0158 38.699L34.008 38.6367C33.9767 38.4372 33.9588 38.3169 33.9588 38.1965C33.9588 36.5539 35.2844 35.2195 36.915 35.2195C38.5445 35.2195 39.8723 36.555 39.8723 38.1965C39.8723 38.6505 39.7605 39.1033 39.5415 39.5372L39.5102 39.6016L42.4954 43.3883L42.5658 43.364C42.8609 43.2722 43.1582 43.2247 43.4544 43.2247C44.0366 43.2247 44.6022 43.3968 45.0895 43.7261L45.1599 43.7705L54.3425 35.172L54.3145 35.1023C54.1659 34.7381 54.091 34.3602 54.091 33.9749C54.091 32.3344 55.4176 31 57.0483 31C58.6789 31 60 32.3333 60 33.9728C60 35.6143 58.6734 36.9498 57.0427 36.9498C56.5878 36.9498 56.1363 36.8358 55.7038 36.6098L55.6378 36.5771L46.2708 45.3508L46.2887 45.4142C46.3692 45.7087 46.4072 45.9578 46.4072 46.1996C46.4072 47.839 45.0805 49.1776 43.4499 49.1776C41.8192 49.1776 40.4926 47.838 40.4926 46.1996C40.4926 45.657 40.6468 45.1323 40.9519 44.6393L40.9911 44.5749L38.1109 40.9212L38.0371 40.9487C37.6817 41.0975 37.3039 41.1714 36.915 41.1714C36.2411 41.1714 35.5839 40.9381 35.0608 40.5137L34.9949 40.4588L34.8775 40.4609L27.7492 46.0845L27.7704 46.1563C27.8676 46.4751 27.9135 46.7506 27.9135 47.0198C27.9135 48.6625 26.5868 50 24.9573 50ZM24.9573 45.9684C24.3795 45.9684 23.9089 46.4413 23.9089 47.0219C23.9089 47.6057 24.3795 48.0776 24.9573 48.0776C25.5351 48.0776 26.0056 47.6057 26.0056 47.0219C26.0045 46.4413 25.5351 45.9684 24.9573 45.9684ZM43.451 45.145C43.2141 45.145 42.995 45.2189 42.8139 45.3614C42.5524 45.562 42.4026 45.867 42.4026 46.1985C42.4026 46.7802 42.8732 47.2531 43.451 47.2531C44.0288 47.2531 44.4994 46.7802 44.4994 46.1985C44.4994 45.6168 44.0288 45.145 43.451 45.145ZM36.9139 37.1419C36.3361 37.1419 35.8655 37.6148 35.8655 38.1965C35.8655 38.5153 36.0086 38.8151 36.2578 39.0178C36.4076 39.1382 36.6714 39.2163 36.9318 39.2163C37.1374 39.2163 37.4291 39.1688 37.6538 38.9418C37.8516 38.7434 37.9611 38.4784 37.9611 38.1965C37.9611 37.6159 37.4906 37.1419 36.9139 37.1419ZM57.0427 32.9203C56.4649 32.9203 55.9944 33.39 55.9944 33.9728C55.9944 34.5545 56.4649 35.0274 57.0427 35.0274C57.6205 35.0274 58.0911 34.5545 58.0911 33.9728C58.0922 33.3911 57.6205 32.9203 57.0427 32.9203Z" fill="white"/>
</svg>
