<svg width="104" height="93" viewBox="0 0 104 93" fill="none" xmlns="http://www.w3.org/2000/svg">
<g filter="url(#filter0_d_2_196)">
<path d="M58.6323 89.3165C81.4903 89.3165 100.02 70.5702 100.02 47.4454C100.02 24.3207 81.4903 5.57436 58.6323 5.57436C35.7743 5.57436 17.2442 24.3207 17.2442 47.4454C17.2442 70.5702 35.7743 89.3165 58.6323 89.3165Z" fill="white"/>
</g>
<path d="M19.4426 38.4937C30.077 38.4937 38.6979 29.8747 38.6979 19.2426C38.6979 8.61055 30.077 -0.00843811 19.4426 -0.00843811C8.80813 -0.00843811 0.187233 8.61055 0.187233 19.2426C0.187233 29.8747 8.80813 38.4937 19.4426 38.4937Z" fill="#6F17E1"/>
<path d="M17.2636 9.09175C18.1546 7.2254 20.7305 7.2254 21.6215 9.09175L22.5131 10.9592C22.9478 11.8696 23.8703 12.4199 24.8508 12.3536L26.8619 12.2176C28.8719 12.0816 30.1598 14.3864 29.0409 16.1168L27.9214 17.8482C27.3756 18.6923 27.3756 19.7929 27.9214 20.637L29.0409 22.3684C30.1598 24.0989 28.8719 26.4036 26.8619 26.2677L24.8508 26.1317C23.8703 26.0654 22.9478 26.6157 22.5131 27.5261L21.6215 29.3935C20.7305 31.2598 18.1546 31.2598 17.2636 29.3935L16.372 27.5261C15.9373 26.6157 15.0148 26.0654 14.0343 26.1317L12.0232 26.2677C10.0132 26.4036 8.72526 24.0989 9.84418 22.3684L10.9638 20.637C11.5096 19.7929 11.5096 18.6923 10.9638 17.8482L9.84418 16.1168C8.72526 14.3864 10.0132 12.0816 12.0232 12.2176L14.0343 12.3536C15.0148 12.4199 15.9373 11.8696 16.372 10.9592L17.2636 9.09175Z" fill="white"/>
<path d="M50.1976 53.6572L50.7198 54.1638L51.242 53.6572L76.907 28.7581L83.8336 35.4799L50.7199 67.6083L33.6132 51.0107L40.5403 44.289L50.1976 53.6572Z" fill="#6F17E1" stroke="white" stroke-width="1.5"/>
<defs>
<filter id="filter0_d_2_196" x="14.2442" y="2.57436" width="88.7763" height="89.7421" filterUnits="userSpaceOnUse" color-interpolation-filters="sRGB">
<feFlood flood-opacity="0" result="BackgroundImageFix"/>
<feColorMatrix in="SourceAlpha" type="matrix" values="0 0 0 0 0 0 0 0 0 0 0 0 0 0 0 0 0 0 127 0" result="hardAlpha"/>
<feOffset/>
<feGaussianBlur stdDeviation="1.5"/>
<feComposite in2="hardAlpha" operator="out"/>
<feColorMatrix type="matrix" values="0 0 0 0 0 0 0 0 0 0 0 0 0 0 0 0 0 0 0.44 0"/>
<feBlend mode="normal" in2="BackgroundImageFix" result="effect1_dropShadow_2_196"/>
<feBlend mode="normal" in="SourceGraphic" in2="effect1_dropShadow_2_196" result="shape"/>
</filter>
</defs>
</svg>
