<svg width="104" height="93" viewBox="0 0 104 93" fill="none" xmlns="http://www.w3.org/2000/svg">
<g filter="url(#filter0_d_41_6)">
<path d="M58.6323 89.6582C81.4903 89.6582 100.02 70.9119 100.02 47.7872C100.02 24.6624 81.4903 5.91614 58.6323 5.91614C35.7743 5.91614 17.2442 24.6624 17.2442 47.7872C17.2442 70.9119 35.7743 89.6582 58.6323 89.6582Z" fill="white"/>
</g>
<path d="M19.4426 38.8355C30.077 38.8355 38.6979 30.2165 38.6979 19.5844C38.6979 8.95236 30.077 0.333374 19.4426 0.333374C8.80813 0.333374 0.187233 8.95236 0.187233 19.5844C0.187233 30.2165 8.80813 38.8355 19.4426 38.8355Z" fill="#2C2C2C"/>
<path d="M25.7398 11.8658C25.1479 10.741 24.2212 9.80377 23.0732 9.12394C21.9257 8.44713 20.5405 8.03385 19.0372 8.03385C17.1841 8.02926 15.6445 8.51195 14.4825 9.18042C13.3158 9.8465 12.8128 10.622 12.8128 10.622C12.6167 10.7921 12.5062 11.0396 12.5108 11.2984C12.5161 11.5577 12.6355 11.801 12.8376 11.9626L14.4523 13.2556C14.7814 13.5191 15.2524 13.5092 15.5701 13.2323C15.5701 13.2323 15.7685 12.8739 16.3901 12.5189C17.0151 12.1662 17.8256 11.8822 19.0372 11.8783C20.094 11.8761 21.0154 12.2703 21.6442 12.8091C21.9566 13.076 22.19 13.3749 22.333 13.6483C22.4772 13.924 22.5298 14.165 22.5291 14.348C22.526 14.9665 22.4059 15.371 22.2324 15.7157C22.1 15.973 21.9273 16.2015 21.7049 16.423C21.3731 16.7547 20.9231 17.0613 20.4182 17.343C19.9129 17.6282 19.3682 17.8791 18.8179 18.1823C18.1898 18.53 17.5251 19.0295 17.0339 19.7791C16.789 20.1497 16.5975 20.5737 16.4759 21.021C16.3527 21.4686 16.2971 21.938 16.2971 22.4169C16.2971 22.9278 16.2971 23.3472 16.2971 23.3472C16.2971 23.8288 16.6876 24.2192 17.1693 24.2192H19.2706C19.7523 24.2192 20.1428 23.8288 20.1428 23.3472C20.1428 23.3472 20.1428 22.9278 20.1428 22.4169C20.1428 22.2324 20.1638 22.1134 20.1841 22.0379C20.2188 21.925 20.2382 21.8968 20.295 21.8282C20.353 21.7629 20.4701 21.6631 20.6859 21.5437C21.0013 21.3664 21.5082 21.127 22.0821 20.817C22.9413 20.3472 23.9859 19.7097 24.8669 18.6577C25.3051 18.1327 25.6926 17.5005 25.9599 16.7722C26.2295 16.044 26.3752 15.2254 26.3745 14.348C26.3737 13.4592 26.1326 12.615 25.7398 11.8658Z" fill="white"/>
<path d="M18.2206 26.2938C16.9107 26.2938 15.8485 27.356 15.8485 28.6653C15.8485 29.9743 16.9107 31.0362 18.2206 31.0362C19.5299 31.0362 20.5916 29.9743 20.5916 28.6653C20.5916 27.356 19.5299 26.2938 18.2206 26.2938Z" fill="white"/>
<path fill-rule="evenodd" clip-rule="evenodd" d="M83 48C83 61.2547 72.2547 72 59 72C45.7452 72 35 61.2547 35 48C35 34.7452 45.7452 24 59 24C72.2547 24 83 34.7452 83 48ZM66.2 40.8C66.2 44.7766 62.9766 48 59 48C55.0234 48 51.8 44.7766 51.8 40.8C51.8 36.8236 55.0234 33.6 59 33.6C62.9766 33.6 66.2 36.8236 66.2 40.8ZM59 68.4C63.2816 68.4 67.2553 67.081 70.5366 64.8269C71.9859 63.8314 72.6051 61.9349 71.7627 60.3917C70.016 57.1927 66.4165 55.2 58.9998 55.2C51.5833 55.2 47.9839 57.1925 46.2371 60.3917C45.3945 61.9349 46.0138 63.8311 47.4631 64.8266C50.7444 67.0807 54.7182 68.4 59 68.4Z" fill="#6F17E1"/>
<defs>
<filter id="filter0_d_41_6" x="14.2442" y="2.91614" width="88.7763" height="89.7421" filterUnits="userSpaceOnUse" color-interpolation-filters="sRGB">
<feFlood flood-opacity="0" result="BackgroundImageFix"/>
<feColorMatrix in="SourceAlpha" type="matrix" values="0 0 0 0 0 0 0 0 0 0 0 0 0 0 0 0 0 0 127 0" result="hardAlpha"/>
<feOffset/>
<feGaussianBlur stdDeviation="1.5"/>
<feComposite in2="hardAlpha" operator="out"/>
<feColorMatrix type="matrix" values="0 0 0 0 0 0 0 0 0 0 0 0 0 0 0 0 0 0 0.44 0"/>
<feBlend mode="normal" in2="BackgroundImageFix" result="effect1_dropShadow_41_6"/>
<feBlend mode="normal" in="SourceGraphic" in2="effect1_dropShadow_41_6" result="shape"/>
</filter>
</defs>
</svg>
