<svg width="104" height="93" viewBox="0 0 104 93" fill="none" xmlns="http://www.w3.org/2000/svg">
<g filter="url(#filter0_d_36_3)">
<path d="M58.6323 89.7215C81.4903 89.7215 100.02 70.9752 100.02 47.8505C100.02 24.7257 81.4903 5.97943 58.6323 5.97943C35.7743 5.97943 17.2442 24.7257 17.2442 47.8505C17.2442 70.9752 35.7743 89.7215 58.6323 89.7215Z" fill="white"/>
</g>
<path d="M19.4426 38.8987C30.077 38.8987 38.6979 30.2797 38.6979 19.6477C38.6979 9.0156 30.077 0.396606 19.4426 0.396606C8.80813 0.396606 0.187233 9.0156 0.187233 19.6477C0.187233 30.2797 8.80813 38.8987 19.4426 38.8987Z" fill="#2C2C2C"/>
<path d="M25.7398 11.929C25.1479 10.8042 24.2212 9.86701 23.0732 9.18718C21.9257 8.51036 20.5405 8.09708 19.0372 8.09708C17.1841 8.0925 15.6445 8.57519 14.4825 9.24365C13.3158 9.90973 12.8128 10.6853 12.8128 10.6853C12.6167 10.8553 12.5062 11.1028 12.5108 11.3617C12.5161 11.6209 12.6355 11.8642 12.8376 12.0259L14.4523 13.3189C14.7814 13.5823 15.2524 13.5724 15.5701 13.2956C15.5701 13.2956 15.7685 12.9372 16.3901 12.5821C17.0151 12.2295 17.8256 11.9454 19.0372 11.9416C20.094 11.9393 21.0154 12.3336 21.6442 12.8723C21.9566 13.1392 22.19 13.4381 22.333 13.7116C22.4772 13.9872 22.5298 14.2282 22.5291 14.4112C22.526 15.0297 22.4059 15.4342 22.2324 15.7789C22.1 16.0363 21.9273 16.2647 21.7049 16.4862C21.3731 16.818 20.9231 17.1245 20.4182 17.4063C19.9129 17.6915 19.3682 17.9423 18.8179 18.2455C18.1898 18.5932 17.5251 19.0927 17.0339 19.8424C16.789 20.213 16.5975 20.6369 16.4759 21.0842C16.3527 21.5318 16.2971 22.0012 16.2971 22.4801C16.2971 22.991 16.2971 23.4104 16.2971 23.4104C16.2971 23.892 16.6876 24.2825 17.1693 24.2825H19.2706C19.7523 24.2825 20.1428 23.892 20.1428 23.4104C20.1428 23.4104 20.1428 22.991 20.1428 22.4801C20.1428 22.2956 20.1638 22.1766 20.1841 22.1011C20.2188 21.9882 20.2382 21.96 20.295 21.8914C20.353 21.8262 20.4701 21.7263 20.6859 21.607C21.0013 21.4297 21.5082 21.1902 22.0821 20.8802C22.9413 20.4105 23.9859 19.773 24.8669 18.721C25.3051 18.1959 25.6926 17.5637 25.9599 16.8355C26.2295 16.1072 26.3752 15.2886 26.3745 14.4112C26.3737 13.5224 26.1326 12.6782 25.7398 11.929Z" fill="white"/>
<path d="M18.2206 26.357C16.9107 26.357 15.8485 27.4192 15.8485 28.7286C15.8485 30.0376 16.9107 31.0994 18.2206 31.0994C19.5299 31.0994 20.5916 30.0376 20.5916 28.7286C20.5916 27.4192 19.5299 26.357 18.2206 26.357Z" fill="white"/>
<path d="M43.3192 66.6203H75.6681C76.8937 66.6203 78.0692 66.1497 78.9358 65.3121C79.8025 64.4746 80.2894 63.3386 80.2894 62.154V42.0559C80.2894 40.8714 79.8025 39.7354 78.9358 38.8978C78.0692 38.0602 76.8937 37.5897 75.6681 37.5897H71.0468V33.1234C71.0468 30.1621 69.8296 27.3221 67.663 25.2282C65.4963 23.1342 62.5577 21.9578 59.4936 21.9578C56.4295 21.9578 53.4909 23.1342 51.3243 25.2282C49.1576 27.3221 47.9404 30.1621 47.9404 33.1234V37.5897H43.3192C42.0935 37.5897 40.9181 38.0602 40.0514 38.8978C39.1848 39.7354 38.6979 40.8714 38.6979 42.0559V62.154C38.6979 63.3386 39.1848 64.4746 40.0514 65.3121C40.9181 66.1497 42.0935 66.6203 43.3192 66.6203ZM59.4936 56.5712C58.5796 56.5712 57.6861 56.3093 56.9262 55.8185C56.1662 55.3278 55.5739 54.6302 55.2241 53.8141C54.8743 52.998 54.7828 52.1 54.9611 51.2337C55.1395 50.3673 55.5796 49.5715 56.2259 48.9469C56.8722 48.3223 57.6956 47.8969 58.5921 47.7246C59.4885 47.5522 60.4177 47.6407 61.2621 47.9787C62.1065 48.3167 62.8283 48.8892 63.3361 49.6237C63.8439 50.3581 64.1149 51.2216 64.1149 52.105C64.1149 53.2895 63.628 54.4255 62.7614 55.2631C61.8947 56.1007 60.7193 56.5712 59.4936 56.5712ZM52.5617 37.5897V33.1234C52.5617 31.3467 53.292 29.6426 54.592 28.3863C55.892 27.1299 57.6552 26.4241 59.4936 26.4241C61.3321 26.4241 63.0952 27.1299 64.3952 28.3863C65.6952 29.6426 66.4255 31.3467 66.4255 33.1234V37.5897H52.5617Z" fill="#6F17E1"/>
<rect x="53" y="46" width="13" height="13" fill="#6F17E1"/>
<path d="M59 49L59 55" stroke="white" stroke-width="4" stroke-linecap="round"/>
<defs>
<filter id="filter0_d_36_3" x="14.2442" y="2.97943" width="88.7763" height="89.7421" filterUnits="userSpaceOnUse" color-interpolation-filters="sRGB">
<feFlood flood-opacity="0" result="BackgroundImageFix"/>
<feColorMatrix in="SourceAlpha" type="matrix" values="0 0 0 0 0 0 0 0 0 0 0 0 0 0 0 0 0 0 127 0" result="hardAlpha"/>
<feOffset/>
<feGaussianBlur stdDeviation="1.5"/>
<feComposite in2="hardAlpha" operator="out"/>
<feColorMatrix type="matrix" values="0 0 0 0 0 0 0 0 0 0 0 0 0 0 0 0 0 0 0.44 0"/>
<feBlend mode="normal" in2="BackgroundImageFix" result="effect1_dropShadow_36_3"/>
<feBlend mode="normal" in="SourceGraphic" in2="effect1_dropShadow_36_3" result="shape"/>
</filter>
</defs>
</svg>
