<svg width="104" height="94" viewBox="0 0 104 94" fill="none" xmlns="http://www.w3.org/2000/svg">
<g filter="url(#filter0_d_2_198)">
<path d="M58.6323 90.2532C81.4903 90.2532 100.02 71.5069 100.02 48.3822C100.02 25.2574 81.4903 6.51111 58.6323 6.51111C35.7743 6.51111 17.2442 25.2574 17.2442 48.3822C17.2442 71.5069 35.7743 90.2532 58.6323 90.2532Z" fill="white"/>
</g>
<path d="M19.4426 39.4304C30.077 39.4304 38.6979 30.8114 38.6979 20.1793C38.6979 9.54727 30.077 0.928284 19.4426 0.928284C8.80813 0.928284 0.187233 9.54727 0.187233 20.1793C0.187233 30.8114 8.80813 39.4304 19.4426 39.4304Z" fill="#2C2C2C"/>
<path d="M29.3173 30.1881L23.5587 29.1552C23.3662 29.1205 23.1679 29.1436 22.9881 29.2219C21.7765 29.7497 20.4721 30.0201 19.1546 30.0166C13.739 30.0112 9.3399 25.4418 9.43118 19.9221C9.52095 14.5226 13.8409 10.1726 19.1578 10.1688C24.5027 10.1652 28.884 14.6151 28.8991 20.0644C28.9077 22.0563 28.3256 24.0044 27.2291 25.6531C27.1159 25.8257 27.0568 26.0293 27.0596 26.237C27.0623 26.4446 27.1269 26.6465 27.2447 26.8159L29.4342 30.001C29.4475 30.0204 29.4548 30.0435 29.4553 30.0672C29.4558 30.0909 29.4494 30.1142 29.4369 30.1343C29.4244 30.1543 29.4063 30.17 29.385 30.1796C29.3638 30.1892 29.3402 30.1922 29.3173 30.1881Z" stroke="white" stroke-width="2" stroke-miterlimit="10"/>
<path d="M58.5459 28.3853C58.8515 27.4773 60.1357 27.4773 60.4414 28.3853L64.2792 39.7871C64.4161 40.194 64.7976 40.4681 65.2269 40.4681H77.5692C78.5464 40.4681 78.9434 41.7256 78.1434 42.2868L68.2197 49.2465C67.8568 49.5011 67.7048 49.9641 67.8462 50.3843L71.6509 61.6876C71.9589 62.6028 70.9195 63.3798 70.1289 62.8254L60.0678 55.7692C59.7232 55.5275 59.2641 55.5275 58.9194 55.7692L48.8583 62.8254C48.0678 63.3798 47.0283 62.6028 47.3364 61.6876L51.1411 50.3843C51.2825 49.9641 51.1304 49.5011 50.7675 49.2465L40.8439 42.2868C40.0438 41.7256 40.4408 40.4681 41.4181 40.4681H53.7603C54.1897 40.4681 54.5711 40.194 54.7081 39.7871L58.5459 28.3853Z" fill="#6F17E1"/>
<path d="M81.3509 47.1872C81.4934 46.712 82.1662 46.712 82.3087 47.1872L83.798 52.1515C83.8614 52.363 84.0561 52.5078 84.2769 52.5078H89.176C89.6507 52.5078 89.8583 53.1073 89.4853 53.4008L85.4549 56.5723C85.2935 56.6994 85.2261 56.9122 85.2852 57.1089L86.8082 62.1857C86.9485 62.6535 86.4038 63.0243 86.02 62.7223L82.139 59.6683C81.9576 59.5255 81.702 59.5255 81.5206 59.6683L77.6395 62.7223C77.2557 63.0243 76.7111 62.6535 76.8514 62.1857L78.3744 57.1089C78.4334 56.9122 78.3661 56.6994 78.2047 56.5723L74.1743 53.4008C73.8013 53.1073 74.0089 52.5078 74.4835 52.5078H79.3827C79.6035 52.5078 79.7982 52.363 79.8616 52.1515L81.3509 47.1872Z" fill="#6F17E1"/>
<path d="M36.6785 47.1872C36.8211 46.712 37.4938 46.712 37.6364 47.1872L39.1256 52.1515C39.1891 52.363 39.3837 52.5078 39.6045 52.5078H44.5037C44.9784 52.5078 45.1859 53.1073 44.8129 53.4008L40.7825 56.5723C40.6211 56.6994 40.5538 56.9122 40.6128 57.1089L42.1358 62.1857C42.2761 62.6535 41.7315 63.0243 41.3477 62.7223L37.4666 59.6683C37.2852 59.5255 37.0297 59.5255 36.8482 59.6683L32.9672 62.7223C32.5834 63.0243 32.0387 62.6535 32.1791 62.1857L33.7021 57.1089C33.7611 56.9122 33.6938 56.6994 33.5324 56.5723L29.502 53.4008C29.129 53.1073 29.3365 52.5078 29.8112 52.5078H34.7103C34.9312 52.5078 35.1258 52.363 35.1893 52.1515L36.6785 47.1872Z" fill="#6F17E1"/>
<defs>
<filter id="filter0_d_2_198" x="14.2442" y="3.51111" width="88.7763" height="89.7421" filterUnits="userSpaceOnUse" color-interpolation-filters="sRGB">
<feFlood flood-opacity="0" result="BackgroundImageFix"/>
<feColorMatrix in="SourceAlpha" type="matrix" values="0 0 0 0 0 0 0 0 0 0 0 0 0 0 0 0 0 0 127 0" result="hardAlpha"/>
<feOffset/>
<feGaussianBlur stdDeviation="1.5"/>
<feComposite in2="hardAlpha" operator="out"/>
<feColorMatrix type="matrix" values="0 0 0 0 0 0 0 0 0 0 0 0 0 0 0 0 0 0 0.44 0"/>
<feBlend mode="normal" in2="BackgroundImageFix" result="effect1_dropShadow_2_198"/>
<feBlend mode="normal" in="SourceGraphic" in2="effect1_dropShadow_2_198" result="shape"/>
</filter>
</defs>
</svg>
