<svg width="104" height="93" viewBox="0 0 104 93" fill="none" xmlns="http://www.w3.org/2000/svg">
<g filter="url(#filter0_d_2_195)">
<path d="M58.6323 89.8481C81.4903 89.8481 100.02 71.1018 100.02 47.9771C100.02 24.8523 81.4903 6.10601 58.6323 6.10601C35.7743 6.10601 17.2442 24.8523 17.2442 47.9771C17.2442 71.1018 35.7743 89.8481 58.6323 89.8481Z" fill="white"/>
</g>
<path d="M19.4426 40.5654C30.077 40.5654 38.6979 31.6017 38.6979 20.5443C38.6979 9.48696 30.077 0.523209 19.4426 0.523209C8.80813 0.523209 0.187233 9.48696 0.187233 20.5443C0.187233 31.6017 8.80813 40.5654 19.4426 40.5654Z" fill="#2C2C2C"/>
<path d="M29.3173 29.7831L23.5587 28.7502C23.3662 28.7154 23.1679 28.7385 22.9881 28.8168C21.7765 29.3446 20.4721 29.615 19.1546 29.6115C13.739 29.6062 9.3399 25.0368 9.43118 19.517C9.52095 14.1175 13.8409 9.76757 19.1578 9.76372C24.5027 9.76013 28.884 14.2101 28.8991 19.6593C28.9077 21.6512 28.3256 23.5993 27.2291 25.248C27.1159 25.4206 27.0568 25.6243 27.0596 25.8319C27.0623 26.0395 27.1269 26.2414 27.2447 26.4109L29.4342 29.5959C29.4475 29.6154 29.4548 29.6384 29.4553 29.6621C29.4558 29.6858 29.4494 29.7092 29.4369 29.7292C29.4244 29.7492 29.4063 29.765 29.385 29.7746C29.3638 29.7841 29.3402 29.7871 29.3173 29.7831Z" stroke="white" stroke-width="2" stroke-miterlimit="10"/>
<path d="M57.9096 21.8883H57.9108C61.5005 21.8883 64.8055 22.8751 67.5413 24.4886C70.281 26.1112 72.4816 28.3412 73.8838 31.0059C74.8133 32.7789 75.3788 34.7673 75.3807 36.8529C75.3824 38.9463 75.0349 40.8918 74.3964 42.6161L74.3959 42.6174C73.7629 44.3419 72.8449 45.8407 71.8051 47.0864C69.7088 49.5897 67.2173 51.1149 65.1296 52.2563C64.4334 52.6323 63.7772 52.966 63.1947 53.2617L63.1517 53.2835C62.5913 53.5681 62.0929 53.8211 61.7054 54.0388C61.1453 54.3487 60.8084 54.6255 60.6177 54.8401L60.6119 54.8467L60.6062 54.8535C60.5362 54.9382 60.4619 55.0295 60.3969 55.148C60.3324 55.2656 60.2874 55.3903 60.2418 55.5387L60.239 55.5476L60.2367 55.5565C60.1747 55.7878 60.1187 56.123 60.1187 56.614V56.6214V56.6287V56.636V56.6433V56.6506V56.6579V56.6652V56.6725V56.6798V56.6871V56.6944V56.7016V56.7089V56.7162V56.7234V56.7307V56.7379V56.7452V56.7524V56.7596V56.7668V56.774V56.7812V56.7884V56.7956V56.8028V56.81V56.8172V56.8244V56.8315V56.8387V56.8458V56.853V56.8601V56.8673V56.8744V56.8815V56.8886V56.8957V56.9028V56.9099V56.917V56.9241V56.9312V56.9382V56.9453V56.9524V56.9594V56.9664V56.9735V56.9805V56.9875V56.9945V57.0015V57.0085V57.0155V57.0225V57.0295V57.0365V57.0434V57.0504V57.0573V57.0643V57.0712V57.0781V57.085V57.092V57.0989V57.1058V57.1126V57.1195V57.1264V57.1333V57.1401V57.147V57.1538V57.1607V57.1675V57.1743V57.1811V57.1879V57.1947V57.2015V57.2083V57.215V57.2218V57.2286V57.2353V57.242V57.2488V57.2555V57.2622V57.2689V57.2756V57.2823V57.289V57.2956V57.3023V57.3089V57.3156V57.3222V57.3289V57.3355V57.3421V57.3487V57.3553V57.3619V57.3684V57.375V57.3815V57.3881V57.3946V57.4012V57.4077V57.4142V57.4207V57.4272V57.4337V57.4401V57.4466V57.453V57.4595V57.4659V57.4723V57.4788V57.4852V57.4916V57.4979V57.5043V57.5107V57.517V57.5234V57.5297V57.5361V57.5424V57.5487V57.555V57.5613V57.5675V57.5738V57.5801V57.5863V57.5925V57.5988V57.605V57.6112V57.6174V57.6236V57.6297V57.6359V57.6421V57.6482V57.6543V57.6605V57.6666V57.6727V57.6788V57.6848V57.6909V57.697V57.703V57.709V57.7151V57.7211V57.7271V57.7331V57.7391V57.745V57.751V57.7569V57.7629V57.7688V57.7747V57.7806V57.7865V57.7924V57.7982V57.8041V57.8099V57.8158V57.8216V57.8274V57.8332V57.839V57.8448V57.8505V57.8563V57.862V57.8677V57.8735V57.8792V57.8849V57.8905V57.8962V57.9019V57.9075V57.9131V57.9188V57.9244V57.93V57.9355V57.9411V57.9467V57.9522V57.9577V57.9633V57.9688V57.9743V57.9797V57.9852V57.9907V57.9961V58.0015V58.007V58.0124V58.0178V58.0231V58.0285V58.0339V58.0392V58.0445V58.0498V58.0551V58.0604V58.0657V58.071V58.0762V58.0815V58.0867V58.0919V58.0971V58.1023V58.1074V58.1126V58.1177V58.1229V58.128V58.1331V58.1382V58.1432V58.1483V58.1534V58.1584V58.1634V58.1684V58.1734V58.1784V58.1833V58.1883V58.1932V58.1981V58.203V58.2079V58.2128V58.2177V58.2225V58.2274V58.2322V58.237V58.2418V58.2466V58.2513V58.2561V58.2608V58.2655V58.2702V58.2749V58.2796V58.2843V58.2889V58.2935V58.2982V58.3028V58.3073V58.3119V58.3165V58.321V58.3255V58.33V58.3345V58.339V58.3435V58.3479V58.3524V58.3568V58.3612V58.3656V58.37V58.3743V58.3787V58.383V58.3873V58.3916V58.3959V58.4001V58.4044V58.4086V58.4128V58.417V58.4212V58.4254V58.4296V58.4337V58.4378V58.4419V58.446V58.4501V58.4541V58.4582V58.4622V58.4662V58.4702V58.4742V58.4781V58.4821V58.486V58.4899V58.4938V58.4977V58.5015V58.5054V58.5092V58.513V58.5168V58.5206V58.5244V58.5281V58.5318V58.5355V58.5392V58.5429V58.5466V58.5502V58.5538V58.5574V58.561V58.5646V58.5682V58.5717V58.5752V58.5787V58.5822V58.5857V58.5891V58.5926V58.596V58.5994V58.6028V58.6061V58.6095V58.6128V58.6161V58.6194V58.6227V58.6259V58.6292V58.6324V58.6356V58.6388V58.642V58.6451V58.6483V58.6514V58.6545V58.6575V58.6606V58.6636V58.6667V58.6697V58.6727V58.6756V58.6786V58.6815V58.6844V58.6873V58.6902V58.693V58.6959V58.6987V58.7015V58.7043V58.707V58.7098V58.7125V58.7152V58.7179V58.7206V58.7232V58.7258V58.7285V58.731V58.7336V58.7362V58.7387V58.7412V58.7437V58.7462V58.7486V58.7511V58.7535V58.7559V58.7583V58.7606V58.763V58.7653V58.7676V58.7699V58.7721V58.7744V58.7766V58.7788V58.781V58.7831V58.7853V58.7874V58.7895V58.7916V58.7937V58.7957V58.7977V58.7997V58.8017V58.8037V58.8056V58.8075V58.8094V58.8113V58.8132V58.815V58.8168V58.8186V58.8204V58.8221V58.8239V58.8256V58.8273V58.829V58.8306V58.8322V58.8339V58.8354V58.837V58.8386V58.8401V58.8416V58.8431V58.8445V58.846V58.8474V58.8488V58.8502V58.8515V58.8529V58.8542V58.8555V58.8567V58.858V58.8592V58.8604V58.8616V58.8628V58.8639V58.865V58.8661V58.8672V58.8683V58.8693V58.8703V58.8713V58.8723V58.8732V58.8741V58.875V58.8759V58.8768V58.8776V58.8784V58.8792V58.88V58.8807V58.8814V58.8821V58.8828V58.8835V58.8841V58.8847V58.8853V58.8859V58.8864V58.8869V58.8874V58.8879V58.8884V58.8888V58.8892V58.8896V58.8899V58.8903V58.8906V58.8909V58.8911V58.8914V58.8916V58.8918V58.892V58.8921V58.8923V58.8924V58.8925V58.8925V58.8926C60.1187 59.7957 59.3862 60.5283 58.4826 60.5283H53.3362C52.4324 60.5283 51.7 59.7957 51.7 58.8926V58.8925V58.8925V58.8924V58.8923V58.8921V58.892V58.8918V58.8916V58.8914V58.8911V58.8909V58.8906V58.8903V58.8899V58.8896V58.8892V58.8888V58.8884V58.8879V58.8874V58.8869V58.8864V58.8859V58.8853V58.8847V58.8841V58.8835V58.8828V58.8821V58.8814V58.8807V58.88V58.8792V58.8784V58.8776V58.8768V58.8759V58.875V58.8741V58.8732V58.8723V58.8713V58.8703V58.8693V58.8683V58.8672V58.8661V58.865V58.8639V58.8628V58.8616V58.8604V58.8592V58.858V58.8567V58.8555V58.8542V58.8529V58.8515V58.8502V58.8488V58.8474V58.846V58.8445V58.8431V58.8416V58.8401V58.8386V58.837V58.8354V58.8339V58.8322V58.8306V58.829V58.8273V58.8256V58.8239V58.8221V58.8204V58.8186V58.8168V58.815V58.8132V58.8113V58.8094V58.8075V58.8056V58.8037V58.8017V58.7997V58.7977V58.7957V58.7937V58.7916V58.7895V58.7874V58.7853V58.7831V58.781V58.7788V58.7766V58.7744V58.7721V58.7699V58.7676V58.7653V58.763V58.7606V58.7583V58.7559V58.7535V58.7511V58.7486V58.7462V58.7437V58.7412V58.7387V58.7362V58.7336V58.731V58.7285V58.7258V58.7232V58.7206V58.7179V58.7152V58.7125V58.7098V58.707V58.7043V58.7015V58.6987V58.6959V58.693V58.6902V58.6873V58.6844V58.6815V58.6786V58.6756V58.6727V58.6697V58.6667V58.6636V58.6606V58.6575V58.6545V58.6514V58.6483V58.6451V58.642V58.6388V58.6356V58.6324V58.6292V58.6259V58.6227V58.6194V58.6161V58.6128V58.6095V58.6061V58.6028V58.5994V58.596V58.5926V58.5891V58.5857V58.5822V58.5787V58.5752V58.5717V58.5682V58.5646V58.561V58.5574V58.5538V58.5502V58.5466V58.5429V58.5392V58.5355V58.5318V58.5281V58.5244V58.5206V58.5168V58.513V58.5092V58.5054V58.5015V58.4977V58.4938V58.4899V58.486V58.4821V58.4781V58.4742V58.4702V58.4662V58.4622V58.4582V58.4541V58.4501V58.446V58.4419V58.4378V58.4337V58.4296V58.4254V58.4212V58.417V58.4128V58.4086V58.4044V58.4001V58.3959V58.3916V58.3873V58.383V58.3787V58.3743V58.37V58.3656V58.3612V58.3568V58.3524V58.3479V58.3435V58.339V58.3345V58.33V58.3255V58.321V58.3165V58.3119V58.3073V58.3028V58.2982V58.2935V58.2889V58.2843V58.2796V58.2749V58.2702V58.2655V58.2608V58.2561V58.2513V58.2466V58.2418V58.237V58.2322V58.2274V58.2225V58.2177V58.2128V58.2079V58.203V58.1981V58.1932V58.1883V58.1833V58.1784V58.1734V58.1684V58.1634V58.1584V58.1534V58.1483V58.1432V58.1382V58.1331V58.128V58.1229V58.1177V58.1126V58.1074V58.1023V58.0971V58.0919V58.0867V58.0815V58.0762V58.071V58.0657V58.0604V58.0551V58.0498V58.0445V58.0392V58.0339V58.0285V58.0231V58.0178V58.0124V58.007V58.0015V57.9961V57.9907V57.9852V57.9797V57.9743V57.9688V57.9633V57.9577V57.9522V57.9467V57.9411V57.9355V57.93V57.9244V57.9188V57.9131V57.9075V57.9019V57.8962V57.8905V57.8849V57.8792V57.8735V57.8677V57.862V57.8563V57.8505V57.8448V57.839V57.8332V57.8274V57.8216V57.8158V57.8099V57.8041V57.7982V57.7924V57.7865V57.7806V57.7747V57.7688V57.7629V57.7569V57.751V57.745V57.7391V57.7331V57.7271V57.7211V57.7151V57.709V57.703V57.697V57.6909V57.6848V57.6788V57.6727V57.6666V57.6605V57.6543V57.6482V57.6421V57.6359V57.6297V57.6236V57.6174V57.6112V57.605V57.5988V57.5925V57.5863V57.5801V57.5738V57.5675V57.5613V57.555V57.5487V57.5424V57.5361V57.5297V57.5234V57.517V57.5107V57.5043V57.4979V57.4916V57.4852V57.4788V57.4723V57.4659V57.4595V57.453V57.4466V57.4401V57.4337V57.4272V57.4207V57.4142V57.4077V57.4012V57.3946V57.3881V57.3815V57.375V57.3684V57.3619V57.3553V57.3487V57.3421V57.3355V57.3289V57.3222V57.3156V57.3089V57.3023V57.2956V57.289V57.2823V57.2756V57.2689V57.2622V57.2555V57.2488V57.242V57.2353V57.2286V57.2218V57.215V57.2083V57.2015V57.1947V57.1879V57.1811V57.1743V57.1675V57.1607V57.1538V57.147V57.1401V57.1333V57.1264V57.1195V57.1126V57.1058V57.0989V57.092V57.085V57.0781V57.0712V57.0643V57.0573V57.0504V57.0434V57.0365V57.0295V57.0225V57.0155V57.0085V57.0015V56.9945V56.9875V56.9805V56.9735V56.9664V56.9594V56.9524V56.9453V56.9382V56.9312V56.9241V56.917V56.9099V56.9028V56.8957V56.8886V56.8815V56.8744V56.8673V56.8601V56.853V56.8458V56.8387V56.8315V56.8244V56.8172V56.81V56.8028V56.7956V56.7884V56.7812V56.774V56.7668V56.7596V56.7524V56.7452V56.7379V56.7307V56.7234V56.7162V56.7089V56.7016V56.6944V56.6871V56.6798V56.6725V56.6652V56.6579V56.6506V56.6433V56.636V56.6287V56.6214V56.614C51.7 55.4796 51.8318 54.3753 52.1201 53.328L52.1205 53.3265C52.4047 52.2812 52.852 51.2918 53.4216 50.4296L53.4227 50.428C54.5673 48.6812 56.1226 47.5072 57.6159 46.6805C58.2501 46.3311 58.8819 46.0101 59.51 45.6909L59.6013 45.6446C60.2566 45.3115 60.9084 44.9788 61.5377 44.6237C62.7927 43.9232 63.9387 43.1467 64.7972 42.2886C65.3732 41.7147 65.8295 41.1139 66.1808 40.4306L66.1828 40.4268C66.6438 39.5109 66.955 38.4437 66.9628 36.8549L66.9629 36.8544C66.965 36.3119 66.8101 35.642 66.4258 34.9071L66.4257 34.9071C66.0434 34.1763 65.4302 33.3952 64.6211 32.7038C62.9934 31.3093 60.6219 30.2981 57.9097 30.304L57.9092 30.304C54.8543 30.3136 52.7856 31.0325 51.182 31.9373L51.1797 31.9386C50.3748 32.3983 49.8345 32.8658 49.4902 33.2281C49.3183 33.409 49.1958 33.5632 49.114 33.6763C49.0824 33.7201 49.0569 33.7577 49.0369 33.7883C48.4429 34.2629 47.5932 34.2661 46.9944 33.7867L43.0398 30.6201L43.0396 30.6199C42.6614 30.3174 42.4369 29.8614 42.4268 29.3741C42.4183 28.889 42.6256 28.4246 42.9942 28.1048L43.0476 28.0584L43.0855 28L43.0856 27.9999L43.0857 27.9996L43.0859 27.9994L43.086 27.9992L43.0868 27.9981L43.0947 27.9863C43.1024 27.975 43.1149 27.9568 43.1323 27.9324C43.1672 27.8834 43.2217 27.8092 43.2967 27.714C43.4466 27.5234 43.678 27.2488 43.9968 26.9234C44.6345 26.2727 45.6208 25.4201 47.0037 24.6306L47.0051 24.6298C49.7757 23.036 53.4601 21.8773 57.9096 21.8883Z" fill="#6F17E1" stroke="white"/>
<path d="M50.6014 71.9173C50.6014 68.9868 52.9788 66.609 55.911 66.609C58.8413 66.609 61.2178 68.9866 61.2178 71.9173C61.2178 74.847 58.8414 77.2238 55.911 77.2238C52.9787 77.2238 50.6014 74.8468 50.6014 71.9173Z" fill="#6F17E1" stroke="white"/>
<defs>
<filter id="filter0_d_2_195" x="14.2442" y="3.10601" width="88.7763" height="89.7421" filterUnits="userSpaceOnUse" color-interpolation-filters="sRGB">
<feFlood flood-opacity="0" result="BackgroundImageFix"/>
<feColorMatrix in="SourceAlpha" type="matrix" values="0 0 0 0 0 0 0 0 0 0 0 0 0 0 0 0 0 0 127 0" result="hardAlpha"/>
<feOffset/>
<feGaussianBlur stdDeviation="1.5"/>
<feComposite in2="hardAlpha" operator="out"/>
<feColorMatrix type="matrix" values="0 0 0 0 0 0 0 0 0 0 0 0 0 0 0 0 0 0 0.44 0"/>
<feBlend mode="normal" in2="BackgroundImageFix" result="effect1_dropShadow_2_195"/>
<feBlend mode="normal" in="SourceGraphic" in2="effect1_dropShadow_2_195" result="shape"/>
</filter>
</defs>
</svg>
