<svg width="104" height="93" viewBox="0 0 104 93" fill="none" xmlns="http://www.w3.org/2000/svg">
<g filter="url(#filter0_d_2_197)">
<path d="M58.6323 89.7848C81.4903 89.7848 100.02 71.0385 100.02 47.9138C100.02 24.789 81.4903 6.04271 58.6323 6.04271C35.7743 6.04271 17.2442 24.789 17.2442 47.9138C17.2442 71.0385 35.7743 89.7848 58.6323 89.7848Z" fill="white"/>
</g>
<path d="M19.4426 38.962C30.077 38.962 38.6979 30.343 38.6979 19.711C38.6979 9.07889 30.077 0.4599 19.4426 0.4599C8.80813 0.4599 0.187233 9.07889 0.187233 19.711C0.187233 30.343 8.80813 38.962 19.4426 38.962Z" fill="#2C2C2C"/>
<path d="M17.2636 9.56008C18.1546 7.69374 20.7305 7.69374 21.6215 9.56008L22.5131 11.4275C22.9478 12.3379 23.8703 12.8882 24.8508 12.8219L26.8619 12.6859C28.8719 12.55 30.1598 14.8547 29.0409 16.5851L27.9214 18.3166C27.3756 19.1606 27.3756 20.2613 27.9214 21.1054L29.0409 22.8368C30.1598 24.5672 28.8719 26.8719 26.8619 26.736L24.8508 26.6C23.8703 26.5337 22.9478 27.084 22.5131 27.9944L21.6215 29.8618C20.7305 31.7282 18.1546 31.7282 17.2636 29.8618L16.372 27.9944C15.9373 27.084 15.0148 26.5337 14.0343 26.6L12.0232 26.736C10.0132 26.8719 8.72526 24.5672 9.84418 22.8368L10.9638 21.1054C11.5096 20.2613 11.5096 19.1606 10.9638 18.3166L9.84418 16.5851C8.72526 14.8547 10.0132 12.55 12.0232 12.6859L14.0343 12.8219C15.0148 12.8882 15.9373 12.3379 16.372 11.4275L17.2636 9.56008Z" fill="white"/>
<path d="M76.943 66.6801L65.8689 64.6938C65.4987 64.6269 65.1174 64.6715 64.7716 64.822C62.4416 65.8369 59.9331 66.357 57.3994 66.3503C46.9849 66.3399 38.525 57.5526 38.7006 46.9378C38.8732 36.5541 47.1807 28.1888 57.4057 28.1814C67.6843 28.1745 76.1098 36.7321 76.1388 47.2114C76.1553 51.042 75.0359 54.7882 72.9273 57.9589C72.7096 58.2909 72.5959 58.6824 72.6013 59.0817C72.6066 59.4811 72.7308 59.8693 72.9573 60.1951L77.1679 66.3202C77.1934 66.3577 77.2076 66.402 77.2085 66.4476C77.2094 66.4932 77.197 66.538 77.173 66.5765C77.149 66.615 77.1143 66.6453 77.0734 66.6638C77.0325 66.6822 76.9871 66.6879 76.943 66.6801Z" stroke="#6F17E1" stroke-width="4" stroke-miterlimit="10"/>
<defs>
<filter id="filter0_d_2_197" x="14.2442" y="3.04271" width="88.7763" height="89.7421" filterUnits="userSpaceOnUse" color-interpolation-filters="sRGB">
<feFlood flood-opacity="0" result="BackgroundImageFix"/>
<feColorMatrix in="SourceAlpha" type="matrix" values="0 0 0 0 0 0 0 0 0 0 0 0 0 0 0 0 0 0 127 0" result="hardAlpha"/>
<feOffset/>
<feGaussianBlur stdDeviation="1.5"/>
<feComposite in2="hardAlpha" operator="out"/>
<feColorMatrix type="matrix" values="0 0 0 0 0 0 0 0 0 0 0 0 0 0 0 0 0 0 0.44 0"/>
<feBlend mode="normal" in2="BackgroundImageFix" result="effect1_dropShadow_2_197"/>
<feBlend mode="normal" in="SourceGraphic" in2="effect1_dropShadow_2_197" result="shape"/>
</filter>
</defs>
</svg>
