<svg width="104" height="94" viewBox="0 0 104 94" fill="none" xmlns="http://www.w3.org/2000/svg">
<g filter="url(#filter0_d_2_199)">
<path d="M58.6323 90.1898C81.4903 90.1898 100.02 71.4435 100.02 48.3188C100.02 25.1941 81.4903 6.44775 58.6323 6.44775C35.7743 6.44775 17.2442 25.1941 17.2442 48.3188C17.2442 71.4435 35.7743 90.1898 58.6323 90.1898Z" fill="white"/>
</g>
<path d="M19.4426 39.3671C30.077 39.3671 38.6979 30.7481 38.6979 20.116C38.6979 9.48398 30.077 0.86499 19.4426 0.86499C8.80813 0.86499 0.187233 9.48398 0.187233 20.116C0.187233 30.7481 8.80813 39.3671 19.4426 39.3671Z" fill="#2C2C2C"/>
<path d="M19.5267 12.6372C19.5267 12.286 19.5267 12.1104 19.606 11.9662C19.6704 11.8488 19.7953 11.7369 19.9183 11.6861C20.0693 11.6239 20.2231 11.6426 20.5309 11.6802C21.6517 11.8168 22.7372 12.1814 23.7208 12.7558C24.996 13.5004 26.0548 14.5713 26.7912 15.861C27.5274 17.1507 27.9149 18.6137 27.9149 20.1028C27.9149 21.592 27.5274 23.055 26.7912 24.3447C26.0548 25.6343 24.996 26.7052 23.7208 27.45C22.4457 28.1945 20.9991 28.5865 19.5267 28.5865C18.0543 28.5865 16.6078 28.1945 15.3326 27.45C14.349 26.8755 13.4941 26.107 12.8167 25.1937C12.6307 24.9429 12.5377 24.8175 12.5155 24.6542C12.4974 24.521 12.5308 24.3557 12.5991 24.2405C12.683 24.0991 12.8333 24.0113 13.1341 23.8356L19.0234 20.3966C19.2067 20.2896 19.2984 20.2362 19.3651 20.1612C19.4241 20.0949 19.4687 20.0169 19.496 19.9322C19.5267 19.8363 19.5267 19.7291 19.5267 19.515V12.6372Z" fill="white"/>
<path d="M19.4426 31.6667C25.8232 31.6667 30.9957 26.4953 30.9957 20.1161C30.9957 13.7368 25.8232 8.56543 19.4426 8.56543C13.0619 8.56543 7.88936 13.7368 7.88936 20.1161C7.88936 26.4953 13.0619 31.6667 19.4426 31.6667Z" stroke="white" stroke-width="2"/>
<path d="M82.3544 36.3738L62.7487 27.2517C62.4592 27.117 62.1342 27.0464 61.8039 27.0464C61.4735 27.0464 61.1485 27.117 60.8591 27.2517L41.2533 36.3738C40.9459 36.517 40.6895 36.7273 40.511 36.9829C40.3325 37.2384 40.2383 37.5298 40.2383 37.8267C40.2383 38.1235 40.3325 38.415 40.511 38.6705C40.6895 38.9261 40.9459 39.1364 41.2533 39.2796L59.8433 47.9295V65.7049L53.8906 62.9362L52.001 65.8419L60.8591 69.9631C61.1484 70.098 61.4734 70.1688 61.8039 70.1688C62.1343 70.1688 62.4593 70.098 62.7487 69.9631L82.3544 60.841C82.662 60.6979 82.9185 60.4876 83.0972 60.232C83.2758 59.9764 83.3701 59.685 83.3702 59.3881V37.8267C83.3701 37.5298 83.2758 37.2383 83.0972 36.9828C82.9185 36.7272 82.662 36.5169 82.3544 36.3738ZM61.8039 30.598L77.341 37.8267L61.8039 45.0554L46.2667 37.8267L61.8039 30.598ZM79.4491 58.4074L63.7644 65.7051V47.9295L79.4491 40.6318V58.4074Z" fill="#6F17E1"/>
<path d="M30.9957 48.6076H44.8596V45.5274H30.9957V48.6076Z" fill="#6F17E1"/>
<path d="M34.0766 60.9283H46.4V57.8481H34.0766V60.9283Z" fill="#6F17E1"/>
<path d="M38.6979 54.7679H51.0213V51.6878H38.6979V54.7679Z" fill="#6F17E1"/>
<defs>
<filter id="filter0_d_2_199" x="14.2442" y="3.44775" width="88.7763" height="89.7421" filterUnits="userSpaceOnUse" color-interpolation-filters="sRGB">
<feFlood flood-opacity="0" result="BackgroundImageFix"/>
<feColorMatrix in="SourceAlpha" type="matrix" values="0 0 0 0 0 0 0 0 0 0 0 0 0 0 0 0 0 0 127 0" result="hardAlpha"/>
<feOffset/>
<feGaussianBlur stdDeviation="1.5"/>
<feComposite in2="hardAlpha" operator="out"/>
<feColorMatrix type="matrix" values="0 0 0 0 0 0 0 0 0 0 0 0 0 0 0 0 0 0 0.44 0"/>
<feBlend mode="normal" in2="BackgroundImageFix" result="effect1_dropShadow_2_199"/>
<feBlend mode="normal" in="SourceGraphic" in2="effect1_dropShadow_2_199" result="shape"/>
</filter>
</defs>
</svg>
