<svg width="223" height="69" viewBox="0 0 223 69" fill="none" xmlns="http://www.w3.org/2000/svg">
<rect x="0.5" y="0.5" width="195" height="68" rx="6.5" fill="#FFF8FE" stroke="url(#paint0_linear_425_30)"/>
<circle cx="196.5" cy="34.5" r="26" fill="white" stroke="url(#paint1_linear_425_30)"/>
<path d="M58.084 34.7246C58.084 35.9551 57.9912 37.1758 57.8057 38.3867C57.6299 39.5977 57.3174 40.7402 56.8682 41.8145C56.4189 42.8789 55.7891 43.8262 54.9785 44.6562C54.168 45.4766 53.1377 46.1211 51.8877 46.5898C50.6377 47.0586 49.124 47.293 47.3467 47.293C46.9268 47.293 46.4336 47.2734 45.8672 47.2344C45.3008 47.2051 44.832 47.1562 44.4609 47.0879V43.4551C44.8516 43.5527 45.2666 43.6309 45.7061 43.6895C46.1455 43.7383 46.5898 43.7627 47.0391 43.7627C48.8262 43.7627 50.2031 43.4795 51.1699 42.9131C52.1465 42.3467 52.8301 41.5605 53.2207 40.5547C53.6211 39.5488 53.8506 38.3867 53.9092 37.0684H53.7334C53.4502 37.5371 53.1133 37.9619 52.7227 38.3428C52.3418 38.7139 51.8535 39.0117 51.2578 39.2363C50.6621 39.4512 49.9053 39.5586 48.9873 39.5586C47.7666 39.5586 46.7021 39.2949 45.7939 38.7676C44.8955 38.2305 44.1973 37.459 43.6992 36.4531C43.2109 35.4375 42.9668 34.2119 42.9668 32.7764C42.9668 31.2236 43.2598 29.8955 43.8457 28.792C44.4414 27.6787 45.2861 26.8242 46.3799 26.2285C47.4736 25.6328 48.7627 25.335 50.2471 25.335C51.3408 25.335 52.3613 25.5254 53.3086 25.9062C54.2559 26.2773 55.0859 26.8486 55.7988 27.6201C56.5215 28.3916 57.083 29.3682 57.4834 30.5498C57.8838 31.7314 58.084 33.123 58.084 34.7246ZM50.335 28.9678C49.4561 28.9678 48.7383 29.2705 48.1816 29.876C47.625 30.4814 47.3467 31.4287 47.3467 32.7178C47.3467 33.7529 47.5859 34.5732 48.0645 35.1787C48.543 35.7842 49.2705 36.0869 50.2471 36.0869C50.9209 36.0869 51.5068 35.9404 52.0049 35.6475C52.5029 35.3447 52.8887 34.9688 53.1621 34.5195C53.4453 34.0605 53.5869 33.5918 53.5869 33.1133C53.5869 32.6152 53.5186 32.1221 53.3818 31.6338C53.2451 31.1455 53.04 30.7012 52.7666 30.3008C52.4932 29.9004 52.1514 29.5781 51.7412 29.334C51.3408 29.0898 50.8721 28.9678 50.335 28.9678ZM75.252 34.7246C75.252 35.9551 75.1592 37.1758 74.9736 38.3867C74.7979 39.5977 74.4854 40.7402 74.0361 41.8145C73.5869 42.8789 72.957 43.8262 72.1465 44.6562C71.3359 45.4766 70.3057 46.1211 69.0557 46.5898C67.8057 47.0586 66.292 47.293 64.5146 47.293C64.0947 47.293 63.6016 47.2734 63.0352 47.2344C62.4688 47.2051 62 47.1562 61.6289 47.0879V43.4551C62.0195 43.5527 62.4346 43.6309 62.874 43.6895C63.3135 43.7383 63.7578 43.7627 64.207 43.7627C65.9941 43.7627 67.3711 43.4795 68.3379 42.9131C69.3145 42.3467 69.998 41.5605 70.3887 40.5547C70.7891 39.5488 71.0186 38.3867 71.0771 37.0684H70.9014C70.6182 37.5371 70.2812 37.9619 69.8906 38.3428C69.5098 38.7139 69.0215 39.0117 68.4258 39.2363C67.8301 39.4512 67.0732 39.5586 66.1553 39.5586C64.9346 39.5586 63.8701 39.2949 62.9619 38.7676C62.0635 38.2305 61.3652 37.459 60.8672 36.4531C60.3789 35.4375 60.1348 34.2119 60.1348 32.7764C60.1348 31.2236 60.4277 29.8955 61.0137 28.792C61.6094 27.6787 62.4541 26.8242 63.5479 26.2285C64.6416 25.6328 65.9307 25.335 67.415 25.335C68.5088 25.335 69.5293 25.5254 70.4766 25.9062C71.4238 26.2773 72.2539 26.8486 72.9668 27.6201C73.6895 28.3916 74.251 29.3682 74.6514 30.5498C75.0518 31.7314 75.252 33.123 75.252 34.7246ZM67.5029 28.9678C66.624 28.9678 65.9062 29.2705 65.3496 29.876C64.793 30.4814 64.5146 31.4287 64.5146 32.7178C64.5146 33.7529 64.7539 34.5732 65.2324 35.1787C65.7109 35.7842 66.4385 36.0869 67.415 36.0869C68.0889 36.0869 68.6748 35.9404 69.1729 35.6475C69.6709 35.3447 70.0566 34.9688 70.3301 34.5195C70.6133 34.0605 70.7549 33.5918 70.7549 33.1133C70.7549 32.6152 70.6865 32.1221 70.5498 31.6338C70.4131 31.1455 70.208 30.7012 69.9346 30.3008C69.6611 29.9004 69.3193 29.5781 68.9092 29.334C68.5088 29.0898 68.04 28.9678 67.5029 28.9678ZM92.4199 34.7246C92.4199 35.9551 92.3271 37.1758 92.1416 38.3867C91.9658 39.5977 91.6533 40.7402 91.2041 41.8145C90.7549 42.8789 90.125 43.8262 89.3145 44.6562C88.5039 45.4766 87.4736 46.1211 86.2236 46.5898C84.9736 47.0586 83.46 47.293 81.6826 47.293C81.2627 47.293 80.7695 47.2734 80.2031 47.2344C79.6367 47.2051 79.168 47.1562 78.7969 47.0879V43.4551C79.1875 43.5527 79.6025 43.6309 80.042 43.6895C80.4814 43.7383 80.9258 43.7627 81.375 43.7627C83.1621 43.7627 84.5391 43.4795 85.5059 42.9131C86.4824 42.3467 87.166 41.5605 87.5566 40.5547C87.957 39.5488 88.1865 38.3867 88.2451 37.0684H88.0693C87.7861 37.5371 87.4492 37.9619 87.0586 38.3428C86.6777 38.7139 86.1895 39.0117 85.5938 39.2363C84.998 39.4512 84.2412 39.5586 83.3232 39.5586C82.1025 39.5586 81.0381 39.2949 80.1299 38.7676C79.2314 38.2305 78.5332 37.459 78.0352 36.4531C77.5469 35.4375 77.3027 34.2119 77.3027 32.7764C77.3027 31.2236 77.5957 29.8955 78.1816 28.792C78.7773 27.6787 79.6221 26.8242 80.7158 26.2285C81.8096 25.6328 83.0986 25.335 84.583 25.335C85.6768 25.335 86.6973 25.5254 87.6445 25.9062C88.5918 26.2773 89.4219 26.8486 90.1348 27.6201C90.8574 28.3916 91.4189 29.3682 91.8193 30.5498C92.2197 31.7314 92.4199 33.123 92.4199 34.7246ZM84.6709 28.9678C83.792 28.9678 83.0742 29.2705 82.5176 29.876C81.9609 30.4814 81.6826 31.4287 81.6826 32.7178C81.6826 33.7529 81.9219 34.5732 82.4004 35.1787C82.8789 35.7842 83.6064 36.0869 84.583 36.0869C85.2568 36.0869 85.8428 35.9404 86.3408 35.6475C86.8389 35.3447 87.2246 34.9688 87.498 34.5195C87.7812 34.0605 87.9229 33.5918 87.9229 33.1133C87.9229 32.6152 87.8545 32.1221 87.7178 31.6338C87.5811 31.1455 87.376 30.7012 87.1025 30.3008C86.8291 29.9004 86.4873 29.5781 86.0771 29.334C85.6768 29.0898 85.208 28.9678 84.6709 28.9678ZM100.008 43.5137L100.228 43.8506C100.052 44.5537 99.8223 45.3105 99.5391 46.1211C99.2656 46.9316 98.9629 47.7422 98.6309 48.5527C98.3086 49.3633 97.9814 50.1348 97.6494 50.8672H94.4268C94.6221 50.0762 94.8125 49.2461 94.998 48.377C95.1836 47.5078 95.3545 46.6533 95.5107 45.8135C95.6768 44.9736 95.8086 44.207 95.9062 43.5137H100.008ZM118.143 34.7246C118.143 35.9551 118.05 37.1758 117.864 38.3867C117.688 39.5977 117.376 40.7402 116.927 41.8145C116.478 42.8789 115.848 43.8262 115.037 44.6562C114.227 45.4766 113.196 46.1211 111.946 46.5898C110.696 47.0586 109.183 47.293 107.405 47.293C106.985 47.293 106.492 47.2734 105.926 47.2344C105.359 47.2051 104.891 47.1562 104.52 47.0879V43.4551C104.91 43.5527 105.325 43.6309 105.765 43.6895C106.204 43.7383 106.648 43.7627 107.098 43.7627C108.885 43.7627 110.262 43.4795 111.229 42.9131C112.205 42.3467 112.889 41.5605 113.279 40.5547C113.68 39.5488 113.909 38.3867 113.968 37.0684H113.792C113.509 37.5371 113.172 37.9619 112.781 38.3428C112.4 38.7139 111.912 39.0117 111.316 39.2363C110.721 39.4512 109.964 39.5586 109.046 39.5586C107.825 39.5586 106.761 39.2949 105.853 38.7676C104.954 38.2305 104.256 37.459 103.758 36.4531C103.27 35.4375 103.025 34.2119 103.025 32.7764C103.025 31.2236 103.318 29.8955 103.904 28.792C104.5 27.6787 105.345 26.8242 106.438 26.2285C107.532 25.6328 108.821 25.335 110.306 25.335C111.399 25.335 112.42 25.5254 113.367 25.9062C114.314 26.2773 115.145 26.8486 115.857 27.6201C116.58 28.3916 117.142 29.3682 117.542 30.5498C117.942 31.7314 118.143 33.123 118.143 34.7246ZM110.394 28.9678C109.515 28.9678 108.797 29.2705 108.24 29.876C107.684 30.4814 107.405 31.4287 107.405 32.7178C107.405 33.7529 107.645 34.5732 108.123 35.1787C108.602 35.7842 109.329 36.0869 110.306 36.0869C110.979 36.0869 111.565 35.9404 112.063 35.6475C112.562 35.3447 112.947 34.9688 113.221 34.5195C113.504 34.0605 113.646 33.5918 113.646 33.1133C113.646 32.6152 113.577 32.1221 113.44 31.6338C113.304 31.1455 113.099 30.7012 112.825 30.3008C112.552 29.9004 112.21 29.5781 111.8 29.334C111.399 29.0898 110.931 28.9678 110.394 28.9678ZM135.311 34.7246C135.311 35.9551 135.218 37.1758 135.032 38.3867C134.856 39.5977 134.544 40.7402 134.095 41.8145C133.646 42.8789 133.016 43.8262 132.205 44.6562C131.395 45.4766 130.364 46.1211 129.114 46.5898C127.864 47.0586 126.351 47.293 124.573 47.293C124.153 47.293 123.66 47.2734 123.094 47.2344C122.527 47.2051 122.059 47.1562 121.688 47.0879V43.4551C122.078 43.5527 122.493 43.6309 122.933 43.6895C123.372 43.7383 123.816 43.7627 124.266 43.7627C126.053 43.7627 127.43 43.4795 128.396 42.9131C129.373 42.3467 130.057 41.5605 130.447 40.5547C130.848 39.5488 131.077 38.3867 131.136 37.0684H130.96C130.677 37.5371 130.34 37.9619 129.949 38.3428C129.568 38.7139 129.08 39.0117 128.484 39.2363C127.889 39.4512 127.132 39.5586 126.214 39.5586C124.993 39.5586 123.929 39.2949 123.021 38.7676C122.122 38.2305 121.424 37.459 120.926 36.4531C120.438 35.4375 120.193 34.2119 120.193 32.7764C120.193 31.2236 120.486 29.8955 121.072 28.792C121.668 27.6787 122.513 26.8242 123.606 26.2285C124.7 25.6328 125.989 25.335 127.474 25.335C128.567 25.335 129.588 25.5254 130.535 25.9062C131.482 26.2773 132.312 26.8486 133.025 27.6201C133.748 28.3916 134.31 29.3682 134.71 30.5498C135.11 31.7314 135.311 33.123 135.311 34.7246ZM127.562 28.9678C126.683 28.9678 125.965 29.2705 125.408 29.876C124.852 30.4814 124.573 31.4287 124.573 32.7178C124.573 33.7529 124.812 34.5732 125.291 35.1787C125.77 35.7842 126.497 36.0869 127.474 36.0869C128.147 36.0869 128.733 35.9404 129.231 35.6475C129.729 35.3447 130.115 34.9688 130.389 34.5195C130.672 34.0605 130.813 33.5918 130.813 33.1133C130.813 32.6152 130.745 32.1221 130.608 31.6338C130.472 31.1455 130.267 30.7012 129.993 30.3008C129.72 29.9004 129.378 29.5781 128.968 29.334C128.567 29.0898 128.099 28.9678 127.562 28.9678ZM152.479 34.7246C152.479 35.9551 152.386 37.1758 152.2 38.3867C152.024 39.5977 151.712 40.7402 151.263 41.8145C150.813 42.8789 150.184 43.8262 149.373 44.6562C148.562 45.4766 147.532 46.1211 146.282 46.5898C145.032 47.0586 143.519 47.293 141.741 47.293C141.321 47.293 140.828 47.2734 140.262 47.2344C139.695 47.2051 139.227 47.1562 138.855 47.0879V43.4551C139.246 43.5527 139.661 43.6309 140.101 43.6895C140.54 43.7383 140.984 43.7627 141.434 43.7627C143.221 43.7627 144.598 43.4795 145.564 42.9131C146.541 42.3467 147.225 41.5605 147.615 40.5547C148.016 39.5488 148.245 38.3867 148.304 37.0684H148.128C147.845 37.5371 147.508 37.9619 147.117 38.3428C146.736 38.7139 146.248 39.0117 145.652 39.2363C145.057 39.4512 144.3 39.5586 143.382 39.5586C142.161 39.5586 141.097 39.2949 140.188 38.7676C139.29 38.2305 138.592 37.459 138.094 36.4531C137.605 35.4375 137.361 34.2119 137.361 32.7764C137.361 31.2236 137.654 29.8955 138.24 28.792C138.836 27.6787 139.681 26.8242 140.774 26.2285C141.868 25.6328 143.157 25.335 144.642 25.335C145.735 25.335 146.756 25.5254 147.703 25.9062C148.65 26.2773 149.48 26.8486 150.193 27.6201C150.916 28.3916 151.478 29.3682 151.878 30.5498C152.278 31.7314 152.479 33.123 152.479 34.7246ZM144.729 28.9678C143.851 28.9678 143.133 29.2705 142.576 29.876C142.02 30.4814 141.741 31.4287 141.741 32.7178C141.741 33.7529 141.98 34.5732 142.459 35.1787C142.938 35.7842 143.665 36.0869 144.642 36.0869C145.315 36.0869 145.901 35.9404 146.399 35.6475C146.897 35.3447 147.283 34.9688 147.557 34.5195C147.84 34.0605 147.981 33.5918 147.981 33.1133C147.981 32.6152 147.913 32.1221 147.776 31.6338C147.64 31.1455 147.435 30.7012 147.161 30.3008C146.888 29.9004 146.546 29.5781 146.136 29.334C145.735 29.0898 145.267 28.9678 144.729 28.9678Z" fill="#6A10B3"/>
<path d="M64.4492 15H63.7852V9.28906H66.9648V9.875H64.4492V11.9688H66.8125V12.5508H64.4492V15ZM71.5117 12.8516C71.5117 13.2031 71.4661 13.5169 71.375 13.793C71.2839 14.069 71.1523 14.3021 70.9805 14.4922C70.8086 14.6823 70.6003 14.8281 70.3555 14.9297C70.1133 15.0286 69.8385 15.0781 69.5312 15.0781C69.2448 15.0781 68.9818 15.0286 68.7422 14.9297C68.5052 14.8281 68.2995 14.6823 68.125 14.4922C67.9531 14.3021 67.819 14.069 67.7227 13.793C67.6289 13.5169 67.582 13.2031 67.582 12.8516C67.582 12.3828 67.6615 11.9844 67.8203 11.6562C67.9792 11.3255 68.2057 11.0742 68.5 10.9023C68.7969 10.7279 69.1497 10.6406 69.5586 10.6406C69.9492 10.6406 70.2904 10.7279 70.582 10.9023C70.8763 11.0768 71.1042 11.3294 71.2656 11.6602C71.4297 11.9883 71.5117 12.3854 71.5117 12.8516ZM68.2539 12.8516C68.2539 13.1953 68.2995 13.4935 68.3906 13.7461C68.4818 13.9987 68.6224 14.194 68.8125 14.332C69.0026 14.4701 69.2474 14.5391 69.5469 14.5391C69.8438 14.5391 70.0872 14.4701 70.2773 14.332C70.4701 14.194 70.612 13.9987 70.7031 13.7461C70.7943 13.4935 70.8398 13.1953 70.8398 12.8516C70.8398 12.5104 70.7943 12.2161 70.7031 11.9688C70.612 11.7188 70.4714 11.526 70.2812 11.3906C70.0911 11.2552 69.8451 11.1875 69.543 11.1875C69.0977 11.1875 68.7708 11.3346 68.5625 11.6289C68.3568 11.9232 68.2539 12.3307 68.2539 12.8516ZM73.2852 15H72.6328V8.92188H73.2852V15ZM75.3086 15H74.6562V8.92188H75.3086V15ZM80.3711 12.8516C80.3711 13.2031 80.3255 13.5169 80.2344 13.793C80.1432 14.069 80.0117 14.3021 79.8398 14.4922C79.668 14.6823 79.4596 14.8281 79.2148 14.9297C78.9727 15.0286 78.6979 15.0781 78.3906 15.0781C78.1042 15.0781 77.8411 15.0286 77.6016 14.9297C77.3646 14.8281 77.1589 14.6823 76.9844 14.4922C76.8125 14.3021 76.6784 14.069 76.582 13.793C76.4883 13.5169 76.4414 13.2031 76.4414 12.8516C76.4414 12.3828 76.5208 11.9844 76.6797 11.6562C76.8385 11.3255 77.0651 11.0742 77.3594 10.9023C77.6562 10.7279 78.0091 10.6406 78.418 10.6406C78.8086 10.6406 79.1497 10.7279 79.4414 10.9023C79.7357 11.0768 79.9635 11.3294 80.125 11.6602C80.2891 11.9883 80.3711 12.3854 80.3711 12.8516ZM77.1133 12.8516C77.1133 13.1953 77.1589 13.4935 77.25 13.7461C77.3411 13.9987 77.4818 14.194 77.6719 14.332C77.862 14.4701 78.1068 14.5391 78.4062 14.5391C78.7031 14.5391 78.9466 14.4701 79.1367 14.332C79.3294 14.194 79.4714 13.9987 79.5625 13.7461C79.6536 13.4935 79.6992 13.1953 79.6992 12.8516C79.6992 12.5104 79.6536 12.2161 79.5625 11.9688C79.4714 11.7188 79.3307 11.526 79.1406 11.3906C78.9505 11.2552 78.7044 11.1875 78.4023 11.1875C77.957 11.1875 77.6302 11.3346 77.4219 11.6289C77.2161 11.9232 77.1133 12.3307 77.1133 12.8516ZM84.9766 14.9922L84.2148 12.5C84.181 12.3932 84.1484 12.2891 84.1172 12.1875C84.0885 12.0833 84.0612 11.9844 84.0352 11.8906C84.0117 11.7943 83.9896 11.7057 83.9688 11.625C83.9505 11.5417 83.9349 11.4701 83.9219 11.4102H83.8945C83.8841 11.4701 83.8698 11.5417 83.8516 11.625C83.8333 11.7057 83.8112 11.7943 83.7852 11.8906C83.7617 11.987 83.7357 12.0885 83.707 12.1953C83.6784 12.2995 83.6458 12.4049 83.6094 12.5117L82.8125 14.9922H82.082L80.9023 10.7109H81.5742L82.1914 13.0742C82.2331 13.2305 82.2721 13.3854 82.3086 13.5391C82.3477 13.6901 82.3802 13.8333 82.4062 13.9688C82.4349 14.1016 82.4557 14.2174 82.4688 14.3164H82.5C82.5156 14.2513 82.5326 14.1732 82.5508 14.082C82.5716 13.9909 82.5938 13.8945 82.6172 13.793C82.6432 13.6888 82.6706 13.5859 82.6992 13.4844C82.7279 13.3802 82.7565 13.2826 82.7852 13.1914L83.5742 10.7109H84.2734L85.0352 13.1875C85.0742 13.3125 85.112 13.4427 85.1484 13.5781C85.1875 13.7135 85.2227 13.8451 85.2539 13.9727C85.2852 14.0977 85.3073 14.2096 85.3203 14.3086H85.3516C85.362 14.2201 85.3815 14.1107 85.4102 13.9805C85.4388 13.8503 85.4714 13.707 85.5078 13.5508C85.5469 13.3945 85.5872 13.2357 85.6289 13.0742L86.2539 10.7109H86.9141L85.7305 14.9922H84.9766ZM89.3438 10.6406C89.7083 10.6406 90.0208 10.7214 90.2812 10.8828C90.5417 11.0443 90.7409 11.2708 90.8789 11.5625C91.0169 11.8516 91.0859 12.1901 91.0859 12.5781V12.9805H88.1289C88.1367 13.4831 88.2617 13.8659 88.5039 14.1289C88.7461 14.3919 89.0872 14.5234 89.5273 14.5234C89.7982 14.5234 90.0378 14.4987 90.2461 14.4492C90.4544 14.3997 90.6706 14.3268 90.8945 14.2305V14.8008C90.6784 14.8971 90.4635 14.9674 90.25 15.0117C90.0391 15.056 89.7891 15.0781 89.5 15.0781C89.0885 15.0781 88.7292 14.9948 88.4219 14.8281C88.1172 14.6589 87.8802 14.4115 87.7109 14.0859C87.5417 13.7604 87.457 13.362 87.457 12.8906C87.457 12.4297 87.5339 12.0312 87.6875 11.6953C87.8438 11.3568 88.0625 11.0964 88.3438 10.9141C88.6276 10.7318 88.9609 10.6406 89.3438 10.6406ZM89.3359 11.1719C88.9896 11.1719 88.7135 11.2852 88.5078 11.5117C88.3021 11.7383 88.1797 12.0547 88.1406 12.4609H90.4062C90.4036 12.2057 90.3633 11.9818 90.2852 11.7891C90.2096 11.5938 90.0938 11.4427 89.9375 11.3359C89.7812 11.2266 89.5807 11.1719 89.3359 11.1719ZM94.1328 10.6406C94.2188 10.6406 94.3086 10.6458 94.4023 10.6562C94.4961 10.6641 94.5794 10.6758 94.6523 10.6914L94.5703 11.293C94.5 11.2747 94.4219 11.2604 94.3359 11.25C94.25 11.2396 94.1693 11.2344 94.0938 11.2344C93.9219 11.2344 93.7591 11.2695 93.6055 11.3398C93.4544 11.4076 93.3216 11.5065 93.207 11.6367C93.0924 11.7643 93.0026 11.9193 92.9375 12.1016C92.8724 12.2812 92.8398 12.4818 92.8398 12.7031V15H92.1875V10.7188H92.7266L92.7969 11.5078H92.8242C92.9128 11.349 93.0195 11.2044 93.1445 11.0742C93.2695 10.9414 93.4141 10.8359 93.5781 10.7578C93.7448 10.6797 93.9297 10.6406 94.1328 10.6406ZM98.2305 13.8281C98.2305 14.1016 98.1615 14.332 98.0234 14.5195C97.888 14.7044 97.6927 14.8438 97.4375 14.9375C97.1849 15.0312 96.8828 15.0781 96.5312 15.0781C96.2318 15.0781 95.9727 15.0547 95.7539 15.0078C95.5352 14.9609 95.3438 14.8945 95.1797 14.8086V14.2109C95.3542 14.2969 95.5625 14.375 95.8047 14.4453C96.0469 14.5156 96.2943 14.5508 96.5469 14.5508C96.9167 14.5508 97.1849 14.4909 97.3516 14.3711C97.5182 14.2513 97.6016 14.0885 97.6016 13.8828C97.6016 13.7656 97.5677 13.6628 97.5 13.5742C97.4349 13.4831 97.3242 13.3958 97.168 13.3125C97.0117 13.2266 96.7956 13.1328 96.5195 13.0312C96.2461 12.9271 96.0091 12.8242 95.8086 12.7227C95.6107 12.6185 95.457 12.4922 95.3477 12.3438C95.2409 12.1953 95.1875 12.0026 95.1875 11.7656C95.1875 11.4036 95.3333 11.1263 95.625 10.9336C95.9193 10.7383 96.3047 10.6406 96.7812 10.6406C97.0391 10.6406 97.2799 10.6667 97.5039 10.7188C97.7305 10.7682 97.9414 10.8359 98.1367 10.9219L97.918 11.4414C97.7409 11.3659 97.5521 11.3021 97.3516 11.25C97.151 11.1979 96.9466 11.1719 96.7383 11.1719C96.4388 11.1719 96.2083 11.2214 96.0469 11.3203C95.888 11.4193 95.8086 11.5547 95.8086 11.7266C95.8086 11.8594 95.8451 11.9688 95.918 12.0547C95.9935 12.1406 96.1133 12.2214 96.2773 12.2969C96.4414 12.3724 96.6576 12.4609 96.9258 12.5625C97.194 12.6615 97.4258 12.7643 97.6211 12.8711C97.8164 12.9753 97.9661 13.1029 98.0703 13.2539C98.1771 13.4023 98.2305 13.5938 98.2305 13.8281ZM102.953 10.6484C103.464 10.6484 103.842 10.763 104.09 10.9922C104.337 11.2214 104.461 11.5872 104.461 12.0898V15H103.988L103.863 14.3672H103.832C103.712 14.5234 103.587 14.6549 103.457 14.7617C103.327 14.8659 103.176 14.9453 103.004 15C102.835 15.0521 102.626 15.0781 102.379 15.0781C102.118 15.0781 101.887 15.0326 101.684 14.9414C101.483 14.8503 101.324 14.7122 101.207 14.5273C101.092 14.3424 101.035 14.1081 101.035 13.8242C101.035 13.3971 101.204 13.069 101.543 12.8398C101.882 12.6107 102.397 12.4857 103.09 12.4648L103.828 12.4336V12.1719C103.828 11.8021 103.749 11.543 103.59 11.3945C103.431 11.2461 103.207 11.1719 102.918 11.1719C102.694 11.1719 102.48 11.2044 102.277 11.2695C102.074 11.3346 101.882 11.4115 101.699 11.5L101.5 11.0078C101.693 10.9089 101.914 10.8242 102.164 10.7539C102.414 10.6836 102.677 10.6484 102.953 10.6484ZM103.82 12.8906L103.168 12.918C102.634 12.9388 102.258 13.026 102.039 13.1797C101.82 13.3333 101.711 13.5508 101.711 13.832C101.711 14.0768 101.785 14.2578 101.934 14.375C102.082 14.4922 102.279 14.5508 102.523 14.5508C102.904 14.5508 103.215 14.4453 103.457 14.2344C103.699 14.0234 103.82 13.707 103.82 13.2852V12.8906ZM110.445 10.6406C110.917 10.6406 111.272 10.7643 111.512 11.0117C111.751 11.2565 111.871 11.651 111.871 12.1953V15H111.23V12.2266C111.23 11.8802 111.155 11.6211 111.004 11.4492C110.855 11.2747 110.634 11.1875 110.34 11.1875C109.926 11.1875 109.625 11.3073 109.438 11.5469C109.25 11.7865 109.156 12.1393 109.156 12.6055V15H108.512V12.2266C108.512 11.9948 108.478 11.8021 108.41 11.6484C108.345 11.4948 108.246 11.3802 108.113 11.3047C107.983 11.2266 107.818 11.1875 107.617 11.1875C107.333 11.1875 107.105 11.2461 106.934 11.3633C106.762 11.4805 106.637 11.6549 106.559 11.8867C106.483 12.1159 106.445 12.3984 106.445 12.7344V15H105.797V10.7188H106.32L106.418 11.3242H106.453C106.539 11.1758 106.647 11.0508 106.777 10.9492C106.908 10.8477 107.053 10.7708 107.215 10.7188C107.376 10.6667 107.548 10.6406 107.73 10.6406C108.056 10.6406 108.328 10.7018 108.547 10.8242C108.768 10.944 108.928 11.1276 109.027 11.375H109.062C109.203 11.1276 109.396 10.944 109.641 10.8242C109.885 10.7018 110.154 10.6406 110.445 10.6406ZM116.895 12.8516C116.895 13.2031 116.849 13.5169 116.758 13.793C116.667 14.069 116.535 14.3021 116.363 14.4922C116.191 14.6823 115.983 14.8281 115.738 14.9297C115.496 15.0286 115.221 15.0781 114.914 15.0781C114.628 15.0781 114.365 15.0286 114.125 14.9297C113.888 14.8281 113.682 14.6823 113.508 14.4922C113.336 14.3021 113.202 14.069 113.105 13.793C113.012 13.5169 112.965 13.2031 112.965 12.8516C112.965 12.3828 113.044 11.9844 113.203 11.6562C113.362 11.3255 113.589 11.0742 113.883 10.9023C114.18 10.7279 114.533 10.6406 114.941 10.6406C115.332 10.6406 115.673 10.7279 115.965 10.9023C116.259 11.0768 116.487 11.3294 116.648 11.6602C116.812 11.9883 116.895 12.3854 116.895 12.8516ZM113.637 12.8516C113.637 13.1953 113.682 13.4935 113.773 13.7461C113.865 13.9987 114.005 14.194 114.195 14.332C114.385 14.4701 114.63 14.5391 114.93 14.5391C115.227 14.5391 115.47 14.4701 115.66 14.332C115.853 14.194 115.995 13.9987 116.086 13.7461C116.177 13.4935 116.223 13.1953 116.223 12.8516C116.223 12.5104 116.177 12.2161 116.086 11.9688C115.995 11.7188 115.854 11.526 115.664 11.3906C115.474 11.2552 115.228 11.1875 114.926 11.1875C114.48 11.1875 114.154 11.3346 113.945 11.6289C113.74 11.9232 113.637 12.3307 113.637 12.8516ZM121.551 10.7188V15H121.02L120.926 14.3984H120.891C120.802 14.5469 120.688 14.6719 120.547 14.7734C120.406 14.875 120.247 14.9505 120.07 15C119.896 15.0521 119.71 15.0781 119.512 15.0781C119.173 15.0781 118.889 15.0234 118.66 14.9141C118.431 14.8047 118.258 14.6354 118.141 14.4062C118.026 14.1771 117.969 13.8828 117.969 13.5234V10.7188H118.625V13.4766C118.625 13.8333 118.706 14.1003 118.867 14.2773C119.029 14.4518 119.275 14.5391 119.605 14.5391C119.923 14.5391 120.176 14.4792 120.363 14.3594C120.553 14.2396 120.69 14.0638 120.773 13.832C120.857 13.5977 120.898 13.3112 120.898 12.9727V10.7188H121.551ZM124.949 10.6406C125.457 10.6406 125.841 10.7656 126.102 11.0156C126.362 11.263 126.492 11.6615 126.492 12.2109V15H125.852V12.2539C125.852 11.8971 125.77 11.6302 125.605 11.4531C125.444 11.276 125.195 11.1875 124.859 11.1875C124.385 11.1875 124.052 11.3216 123.859 11.5898C123.667 11.8581 123.57 12.2474 123.57 12.7578V15H122.922V10.7188H123.445L123.543 11.3359H123.578C123.669 11.1849 123.785 11.0586 123.926 10.957C124.066 10.8529 124.224 10.7747 124.398 10.7227C124.573 10.668 124.757 10.6406 124.949 10.6406ZM129.211 14.5469C129.318 14.5469 129.427 14.5378 129.539 14.5195C129.651 14.5013 129.742 14.4792 129.812 14.4531V14.957C129.737 14.9909 129.632 15.0195 129.496 15.043C129.363 15.0664 129.233 15.0781 129.105 15.0781C128.879 15.0781 128.673 15.0391 128.488 14.9609C128.303 14.8802 128.155 14.7448 128.043 14.5547C127.934 14.3646 127.879 14.1016 127.879 13.7656V11.2266H127.27V10.9102L127.883 10.6562L128.141 9.72656H128.531V10.7188H129.785V11.2266H128.531V13.7461C128.531 14.0143 128.592 14.2148 128.715 14.3477C128.84 14.4805 129.005 14.5469 129.211 14.5469Z" fill="#A77EC9"/>
<path d="M196.528 20C191.765 20 188.68 21.9162 186.258 25.3336C185.818 25.9535 185.954 26.8034 186.567 27.2598L189.141 29.1763C189.76 29.6371 190.641 29.5294 191.125 28.9333C192.62 27.0945 193.729 26.0359 196.064 26.0359C197.9 26.0359 200.17 27.196 200.17 28.9439C200.17 30.2653 199.059 30.944 197.247 31.9418C195.133 33.1055 192.336 34.5537 192.336 38.1765V38.75C192.336 39.5267 192.977 40.1562 193.768 40.1562H198.092C198.883 40.1562 199.525 39.5267 199.525 38.75V38.4117C199.525 35.9004 207 35.7958 207 29C207 23.8822 201.593 20 196.528 20ZM195.93 41.8824C193.651 41.8824 191.796 43.7032 191.796 45.9412C191.796 48.1792 193.651 50 195.93 50C198.209 50 200.064 48.1792 200.064 45.9412C200.064 43.7031 198.209 41.8824 195.93 41.8824Z" fill="url(#paint2_linear_425_30)"/>
<defs>
<linearGradient id="paint0_linear_425_30" x1="-31.5782" y1="-9.07948" x2="138.797" y2="117.011" gradientUnits="userSpaceOnUse">
<stop stop-color="#C43B56"/>
<stop offset="0.3395" stop-color="#982684"/>
<stop offset="0.726" stop-color="#6A10B3"/>
<stop offset="0.9195" stop-color="#5908C5"/>
</linearGradient>
<linearGradient id="paint1_linear_425_30" x1="161.461" y1="1.02591" x2="228.233" y2="18.4224" gradientUnits="userSpaceOnUse">
<stop stop-color="#C43B56"/>
<stop offset="0.3395" stop-color="#982684"/>
<stop offset="0.726" stop-color="#6A10B3"/>
<stop offset="0.9195" stop-color="#5908C5"/>
</linearGradient>
<linearGradient id="paint2_linear_425_30" x1="182.617" y1="16.0524" x2="209.96" y2="21.0391" gradientUnits="userSpaceOnUse">
<stop stop-color="#C43B56"/>
<stop offset="0.3395" stop-color="#982684"/>
<stop offset="0.726" stop-color="#6A10B3"/>
<stop offset="0.9195" stop-color="#5908C5"/>
</linearGradient>
</defs>
</svg>
