<svg width="140" height="114" viewBox="0 0 140 114" fill="none" xmlns="http://www.w3.org/2000/svg">
<rect x="0.5" y="0.5" width="113" height="113" rx="56.5" fill="#FFF8FE" stroke="url(#paint0_linear_506_243)"/>
<path fill-rule="evenodd" clip-rule="evenodd" d="M65.3355 56.7696C69.4018 53.9448 72.0639 49.2403 72.0639 43.914C72.0639 35.2752 65.0607 28.272 56.4218 28.272C47.783 28.272 40.7798 35.2752 40.7798 43.914C40.7798 49.2654 43.4671 53.9892 47.5658 56.8094C39.6659 60.403 33.939 68.5461 33.939 77.5993C36.7465 80.1467 46.3146 85.3659 56.4218 85.3659C66.5289 85.3659 74.9516 80.6212 78.3207 78.6398V76.9416C78.3207 67.9486 72.9873 60.2114 65.3355 56.7696Z" fill="url(#paint1_linear_506_243)"/>
<circle cx="113.5" cy="37.5" r="26" fill="white" stroke="url(#paint2_linear_506_243)"/>
<path d="M114.281 25C112.406 25 110.549 25.3694 108.816 26.0871C107.083 26.8048 105.509 27.8568 104.183 29.1829C102.857 30.5091 101.805 32.0834 101.087 33.8161C100.369 35.5488 100 37.4059 100 39.2814C100.006 40.8892 100.283 42.4845 100.821 44C100.593 43.0473 100.475 42.0717 100.47 41.0921C100.47 37.7003 101.817 34.4474 104.216 32.049C106.614 29.6506 109.867 28.3032 113.259 28.303C115.795 28.3055 118.273 29.062 120.378 30.4764L122.926 27.9288C120.442 26.0332 117.406 25.0044 114.281 25ZM125.169 29.2886C124.869 29.2936 124.565 29.4103 124.314 29.6233L113.373 38.8839C112.869 39.3099 111.687 40.5643 113.37 42.2474C115.054 43.9307 116.307 42.7458 116.734 42.2427L125.997 31.3062C126.423 30.8031 126.463 30.0895 125.997 29.6233C125.763 29.3902 125.469 29.2836 125.169 29.2886ZM127.37 33.5818L124.965 35.9876C125.656 37.5625 126.023 39.2607 126.043 40.9805H128.442C128.516 40.4171 128.556 39.8497 128.563 39.2814C128.561 37.3198 128.155 35.3796 127.37 33.5818Z" fill="url(#paint3_linear_506_243)"/>
<defs>
<linearGradient id="paint0_linear_506_243" x1="-18.3669" y1="-15.0009" x2="125.256" y2="22.418" gradientUnits="userSpaceOnUse">
<stop stop-color="#C43B56"/>
<stop offset="0.3395" stop-color="#982684"/>
<stop offset="0.726" stop-color="#6A10B3"/>
<stop offset="0.9195" stop-color="#5908C5"/>
</linearGradient>
<linearGradient id="paint1_linear_506_243" x1="26.7885" y1="20.7592" x2="84.1455" y2="32.3755" gradientUnits="userSpaceOnUse">
<stop stop-color="#C43B56"/>
<stop offset="0.3395" stop-color="#982684"/>
<stop offset="0.726" stop-color="#6A10B3"/>
<stop offset="0.9195" stop-color="#5908C5"/>
</linearGradient>
<linearGradient id="paint2_linear_506_243" x1="78.461" y1="4.02591" x2="145.233" y2="21.4224" gradientUnits="userSpaceOnUse">
<stop stop-color="#C43B56"/>
<stop offset="0.3395" stop-color="#982684"/>
<stop offset="0.726" stop-color="#6A10B3"/>
<stop offset="0.9195" stop-color="#5908C5"/>
</linearGradient>
<linearGradient id="paint3_linear_506_243" x1="95.3982" y1="22.4999" x2="128.715" y2="35.5488" gradientUnits="userSpaceOnUse">
<stop stop-color="#C43B56"/>
<stop offset="0.3395" stop-color="#982684"/>
<stop offset="0.726" stop-color="#6A10B3"/>
<stop offset="0.9195" stop-color="#5908C5"/>
</linearGradient>
</defs>
</svg>
