<svg width="189" height="53" viewBox="0 0 189 53" fill="none" xmlns="http://www.w3.org/2000/svg">
<rect x="0.5" y="0.5" width="188" height="52" rx="11.5" fill="#FFF8FE" stroke="url(#paint0_linear_506_240)"/>
<path fill-rule="evenodd" clip-rule="evenodd" d="M33.2877 22.5619C34.9699 21.3934 36.0711 19.4473 36.0711 17.2439C36.0711 13.6702 33.1741 10.7732 29.6004 10.7732C26.0267 10.7732 23.1297 13.6702 23.1297 17.2439C23.1297 19.4577 24.2414 21.4118 25.9369 22.5784C22.6689 24.065 20.2998 27.4336 20.2998 31.1787C21.4612 32.2325 25.4193 34.3915 29.6004 34.3915C33.7814 34.3915 37.2657 32.4287 38.6594 31.6091V30.9066C38.6594 27.1864 36.4531 23.9858 33.2877 22.5619Z" fill="url(#paint1_linear_506_240)"/>
<path fill-rule="evenodd" clip-rule="evenodd" d="M70.5 32L61.2761 23.8331C58.5271 21.3991 58.2259 17.1445 60.6034 14.3302C62.981 11.5158 67.1368 11.2075 69.8859 13.6415L70.5 14.1853L71.1141 13.6415C73.8632 11.2075 78.019 11.5158 80.3966 14.3302C82.7741 17.1445 82.4729 21.3991 79.7239 23.8331L70.5 32Z" fill="url(#paint2_linear_506_240)"/>
<path d="M116.376 13C108.144 13 103 22 103 22C103 22 108.095 31 116.376 31C124.121 31 130 22 130 22C130 22 124.169 13 116.376 13ZM116.449 26.0534C114.193 26.0534 112.367 24.2432 112.367 22.01C112.367 19.7768 114.194 17.9659 116.449 17.9659C118.704 17.9659 120.532 19.7768 120.532 22.01C120.532 24.2432 118.704 26.0534 116.449 26.0534ZM116.474 19.9883C115.352 19.9883 114.442 20.89 114.442 22.0008C114.442 23.1116 115.352 24.0132 116.474 24.0132C117.596 24.0132 118.506 23.1124 118.506 22.0008C118.507 20.89 117.597 19.9883 116.474 19.9883Z" fill="url(#paint3_linear_506_240)"/>
<path d="M42.5986 41.381C42.5986 41.5841 42.5492 41.7556 42.4504 41.8954C42.3517 42.0352 42.2072 42.1414 42.0171 42.2141C41.8289 42.2849 41.5977 42.3203 41.3238 42.3203C41.1076 42.3203 40.9212 42.3045 40.7646 42.2728C40.6099 42.243 40.4636 42.1964 40.3257 42.133V41.5655C40.4729 41.6345 40.6379 41.6941 40.8205 41.7444C41.005 41.7948 41.1793 41.8199 41.3433 41.8199C41.5595 41.8199 41.7152 41.7864 41.8102 41.7193C41.9053 41.6503 41.9528 41.559 41.9528 41.4453C41.9528 41.3782 41.9332 41.3185 41.8941 41.2664C41.8568 41.2123 41.786 41.1573 41.6816 41.1014C41.5791 41.0436 41.4281 40.9747 41.2287 40.8945C41.033 40.8162 40.8681 40.738 40.7339 40.6597C40.5997 40.5814 40.4981 40.4873 40.4291 40.3773C40.3602 40.2655 40.3257 40.1229 40.3257 39.9496C40.3257 39.6756 40.4338 39.4678 40.65 39.3261C40.8681 39.1826 41.156 39.1108 41.5139 39.1108C41.704 39.1108 41.8829 39.1304 42.0507 39.1696C42.2203 39.2068 42.3861 39.2618 42.5483 39.3345L42.3414 39.8293C42.2016 39.7678 42.0609 39.7175 41.9193 39.6784C41.7795 39.6374 41.6369 39.6169 41.4915 39.6169C41.3219 39.6169 41.1924 39.643 41.1029 39.6951C41.0153 39.7473 40.9715 39.8219 40.9715 39.9188C40.9715 39.9915 40.9929 40.053 41.0358 40.1033C41.0787 40.1537 41.1523 40.204 41.2567 40.2543C41.3629 40.3046 41.5101 40.3671 41.6984 40.4416C41.8829 40.5124 42.0423 40.587 42.1765 40.6653C42.3125 40.7417 42.4169 40.8358 42.4896 40.9476C42.5623 41.0595 42.5986 41.2039 42.5986 41.381Z" fill="#6A10B3"/>
<path d="M39.6155 39.1108C39.6677 39.1108 39.7246 39.1136 39.7861 39.1192C39.8476 39.1248 39.9007 39.1323 39.9454 39.1416L39.8839 39.7567C39.8448 39.7455 39.7963 39.7371 39.7385 39.7315C39.6826 39.7259 39.6323 39.7231 39.5876 39.7231C39.4702 39.7231 39.3583 39.7427 39.2521 39.7818C39.1458 39.8191 39.0517 39.8769 38.9697 39.9552C38.8877 40.0316 38.8234 40.1276 38.7768 40.2431C38.7302 40.3587 38.7069 40.4929 38.7069 40.6457V42.2644H38.0471V39.1696H38.5615L38.651 39.7147H38.6818C38.7433 39.6048 38.8197 39.5041 38.911 39.4128C39.0023 39.3215 39.1067 39.2488 39.2241 39.1947C39.3434 39.1388 39.4739 39.1108 39.6155 39.1108Z" fill="#6A10B3"/>
<path d="M35.9812 39.1108C36.257 39.1108 36.4937 39.1677 36.6913 39.2814C36.8889 39.3951 37.0408 39.5563 37.147 39.765C37.2532 39.9738 37.3064 40.2235 37.3064 40.5143V40.8666H35.2403C35.2478 41.1666 35.3279 41.3978 35.4807 41.5599C35.6354 41.7221 35.8516 41.8031 36.1293 41.8031C36.3269 41.8031 36.504 41.7845 36.6605 41.7472C36.819 41.7081 36.982 41.6512 37.1498 41.5767V42.1107C36.9951 42.1834 36.8376 42.2365 36.6773 42.27C36.517 42.3036 36.325 42.3203 36.1014 42.3203C35.7976 42.3203 35.5301 42.2616 35.299 42.1442C35.0698 42.0249 34.8899 41.8479 34.7594 41.613C34.6308 41.3782 34.5665 41.0865 34.5665 40.738C34.5665 40.3913 34.6252 40.0968 34.7427 39.8545C34.8601 39.6122 35.025 39.4277 35.2375 39.301C35.45 39.1742 35.6979 39.1108 35.9812 39.1108ZM35.9812 39.6057C35.7743 39.6057 35.6065 39.6728 35.4779 39.807C35.3512 39.9412 35.2766 40.1378 35.2543 40.3969H36.6633C36.6615 40.2422 36.6354 40.1052 36.5851 39.9859C36.5366 39.8666 36.462 39.7734 36.3614 39.7063C36.2626 39.6392 36.1359 39.6057 35.9812 39.6057Z" fill="#6A10B3"/>
<path d="M32.6095 42.2619L32.2181 40.8221C32.1994 40.7512 32.1771 40.6655 32.151 40.5649C32.1249 40.4642 32.0988 40.3608 32.0727 40.2545C32.0466 40.1464 32.0224 40.0467 32 39.9554C31.9795 39.8641 31.9636 39.7932 31.9525 39.7429H31.9301C31.9208 39.7932 31.9059 39.8641 31.8854 39.9554C31.8649 40.0467 31.8416 40.1464 31.8155 40.2545C31.7894 40.3626 31.7633 40.4679 31.7372 40.5705C31.713 40.673 31.6906 40.7606 31.6701 40.8333L31.2591 42.2619H30.5378L29.6711 39.167H30.3365L30.7391 40.7046C30.7652 40.809 30.7904 40.9218 30.8146 41.0429C30.8407 41.1641 30.8631 41.2796 30.8817 41.3896C30.9003 41.4996 30.9143 41.59 30.9236 41.6608H30.946C30.9535 41.6105 30.9637 41.5471 30.9768 41.4707C30.9898 41.3924 31.0047 41.3113 31.0215 41.2275C31.0383 41.1417 31.055 41.0616 31.0718 40.987C31.0886 40.9106 31.1044 40.8491 31.1193 40.8025L31.5946 39.167H32.3131L32.7688 40.8025C32.7893 40.8733 32.8117 40.9628 32.8359 41.0709C32.8601 41.1771 32.8816 41.2843 32.9002 41.3924C32.9207 41.4986 32.9338 41.5872 32.9394 41.658H32.9617C32.9692 41.5946 32.9822 41.5089 33.0009 41.4008C33.0214 41.2908 33.0447 41.1743 33.0708 41.0513C33.0969 40.9264 33.1239 40.8109 33.1518 40.7046L33.5628 39.167H34.217L33.3447 42.2619H32.6095Z" fill="#6A10B3"/>
<path d="M29.3244 40.71C29.3244 40.9672 29.2909 41.1955 29.2238 41.395C29.1567 41.5944 29.0588 41.7631 28.9302 41.901C28.8016 42.037 28.6469 42.1414 28.4661 42.2141C28.2854 42.2849 28.0813 42.3203 27.8539 42.3203C27.6414 42.3203 27.4466 42.2849 27.2696 42.2141C27.0925 42.1414 26.9387 42.037 26.8083 41.901C26.6797 41.7631 26.58 41.5944 26.5091 41.395C26.4383 41.1955 26.4029 40.9672 26.4029 40.71C26.4029 40.3689 26.4616 40.08 26.579 39.8433C26.6983 39.6048 26.8679 39.423 27.0878 39.2982C27.3078 39.1733 27.5696 39.1108 27.8735 39.1108C28.1586 39.1108 28.4102 39.1733 28.6283 39.2982C28.8464 39.423 29.0169 39.6048 29.1399 39.8433C29.2629 40.0819 29.3244 40.3708 29.3244 40.71ZM27.0795 40.71C27.0795 40.9355 27.1065 41.1284 27.1605 41.2887C27.2165 41.449 27.3022 41.572 27.4177 41.6578C27.5333 41.7416 27.6824 41.7836 27.8651 41.7836C28.0477 41.7836 28.1968 41.7416 28.3124 41.6578C28.4279 41.572 28.5127 41.449 28.5668 41.2887C28.6208 41.1284 28.6479 40.9355 28.6479 40.71C28.6479 40.4845 28.6208 40.2934 28.5668 40.1369C28.5127 39.9785 28.4279 39.8582 28.3124 39.7762C28.1968 39.6924 28.0468 39.6504 27.8623 39.6504C27.5902 39.6504 27.3917 39.7417 27.2668 39.9244C27.1419 40.1071 27.0795 40.3689 27.0795 40.71Z" fill="#6A10B3"/>
<path d="M25.6452 42.2645H24.9854V37.9143H25.6452V42.2645Z" fill="#6A10B3"/>
<path d="M24.0461 42.2645H23.3864V37.9143H24.0461V42.2645Z" fill="#6A10B3"/>
<path d="M22.6314 40.71C22.6314 40.9672 22.5979 41.1955 22.5308 41.395C22.4637 41.5944 22.3659 41.7631 22.2372 41.901C22.1086 42.037 21.9539 42.1414 21.7732 42.2141C21.5924 42.2849 21.3883 42.3203 21.1609 42.3203C20.9484 42.3203 20.7536 42.2849 20.5766 42.2141C20.3995 42.1414 20.2458 42.037 20.1153 41.901C19.9867 41.7631 19.887 41.5944 19.8161 41.395C19.7453 41.1955 19.7099 40.9672 19.7099 40.71C19.7099 40.3689 19.7686 40.08 19.886 39.8433C20.0053 39.6048 20.1749 39.423 20.3949 39.2982C20.6148 39.1733 20.8767 39.1108 21.1805 39.1108C21.4656 39.1108 21.7172 39.1733 21.9353 39.2982C22.1534 39.423 22.3239 39.6048 22.4469 39.8433C22.5699 40.0819 22.6314 40.3708 22.6314 40.71ZM20.3865 40.71C20.3865 40.9355 20.4135 41.1284 20.4675 41.2887C20.5235 41.449 20.6092 41.572 20.7248 41.6578C20.8403 41.7416 20.9894 41.7836 21.1721 41.7836C21.3547 41.7836 21.5038 41.7416 21.6194 41.6578C21.7349 41.572 21.8198 41.449 21.8738 41.2887C21.9279 41.1284 21.9549 40.9355 21.9549 40.71C21.9549 40.4845 21.9279 40.2934 21.8738 40.1369C21.8198 39.9785 21.7349 39.8582 21.6194 39.7762C21.5038 39.6924 21.3538 39.6504 21.1693 39.6504C20.8972 39.6504 20.6987 39.7417 20.5738 39.9244C20.4489 40.1071 20.3865 40.3689 20.3865 40.71Z" fill="#6A10B3"/>
<path d="M17.5711 42.2646H16.9058V38.1772H19.215V38.742H17.5711V40.0168H19.1088V40.5788H17.5711V42.2646Z" fill="#6A10B3"/>
<path d="M77.9172 41.381C77.9172 41.5841 77.8678 41.7556 77.769 41.8954C77.6703 42.0352 77.5258 42.1414 77.3357 42.2141C77.1475 42.2849 76.9163 42.3203 76.6424 42.3203C76.4262 42.3203 76.2398 42.3045 76.0832 42.2728C75.9285 42.243 75.7822 42.1964 75.6443 42.133V41.5655C75.7915 41.6345 75.9565 41.6941 76.1391 41.7444C76.3237 41.7948 76.4979 41.8199 76.6619 41.8199C76.8781 41.8199 77.0338 41.7864 77.1288 41.7193C77.2239 41.6503 77.2714 41.559 77.2714 41.4453C77.2714 41.3782 77.2518 41.3185 77.2127 41.2664C77.1754 41.2123 77.1046 41.1573 77.0002 41.1014C76.8977 41.0436 76.7467 40.9747 76.5473 40.8945C76.3516 40.8162 76.1867 40.738 76.0525 40.6597C75.9183 40.5814 75.8167 40.4873 75.7477 40.3773C75.6788 40.2655 75.6443 40.1229 75.6443 39.9496C75.6443 39.6756 75.7524 39.4678 75.9686 39.3261C76.1867 39.1826 76.4746 39.1108 76.8325 39.1108C77.0226 39.1108 77.2015 39.1304 77.3693 39.1696C77.5389 39.2068 77.7047 39.2618 77.8669 39.3345L77.66 39.8293C77.5202 39.7678 77.3795 39.7175 77.2379 39.6784C77.0981 39.6374 76.9555 39.6169 76.8101 39.6169C76.6405 39.6169 76.511 39.643 76.4215 39.6951C76.3339 39.7473 76.2901 39.8219 76.2901 39.9188C76.2901 39.9915 76.3115 40.053 76.3544 40.1033C76.3973 40.1537 76.4709 40.204 76.5753 40.2543C76.6815 40.3046 76.8287 40.3671 77.017 40.4416C77.2015 40.5124 77.3609 40.587 77.4951 40.6653C77.6311 40.7417 77.7355 40.8358 77.8082 40.9476C77.8809 41.0595 77.9172 41.2039 77.9172 41.381Z" fill="#6A10B3"/>
<path d="M73.7712 39.1108C74.047 39.1108 74.2837 39.1677 74.4813 39.2814C74.6788 39.3951 74.8307 39.5563 74.937 39.765C75.0432 39.9738 75.0963 40.2235 75.0963 40.5143V40.8666H73.0303C73.0377 41.1666 73.1179 41.3978 73.2707 41.5599C73.4254 41.7221 73.6416 41.8031 73.9193 41.8031C74.1169 41.8031 74.294 41.7845 74.4505 41.7472C74.6089 41.7081 74.772 41.6512 74.9398 41.5767V42.1107C74.7851 42.1834 74.6276 42.2365 74.4673 42.27C74.307 42.3036 74.115 42.3203 73.8914 42.3203C73.5876 42.3203 73.3201 42.2616 73.089 42.1442C72.8597 42.0249 72.6799 41.8479 72.5494 41.613C72.4208 41.3782 72.3565 41.0865 72.3565 40.738C72.3565 40.3913 72.4152 40.0968 72.5326 39.8545C72.6501 39.6122 72.815 39.4277 73.0275 39.301C73.24 39.1742 73.4878 39.1108 73.7712 39.1108ZM73.7712 39.6057C73.5643 39.6057 73.3965 39.6728 73.2679 39.807C73.1412 39.9412 73.0666 40.1378 73.0443 40.3969H74.4533C74.4514 40.2422 74.4254 40.1052 74.375 39.9859C74.3266 39.8666 74.252 39.7734 74.1514 39.7063C74.0526 39.6392 73.9258 39.6057 73.7712 39.6057Z" fill="#6A10B3"/>
<path d="M69.913 37.9143V40.0167C69.913 40.1118 69.9093 40.2161 69.9019 40.3298C69.8944 40.4417 69.8869 40.547 69.8795 40.6457H69.8935C69.9419 40.5805 69.9997 40.5041 70.0668 40.4165C70.1358 40.3289 70.201 40.2525 70.2625 40.1872L71.2075 39.1696H71.9623L70.7238 40.5004L72.0434 42.2645H71.2718L70.2821 40.9057L69.913 41.2217V42.2645H69.256V37.9143H69.913Z" fill="#6A10B3"/>
<path d="M68.3139 39.1695V42.2644H67.6569V39.1695H68.3139ZM67.9896 37.9841C68.0902 37.9841 68.1769 38.0112 68.2496 38.0652C68.3241 38.1193 68.3614 38.2124 68.3614 38.3448C68.3614 38.4752 68.3241 38.5684 68.2496 38.6244C68.1769 38.6784 68.0902 38.7054 67.9896 38.7054C67.8852 38.7054 67.7967 38.6784 67.724 38.6244C67.6531 38.5684 67.6177 38.4752 67.6177 38.3448C67.6177 38.2124 67.6531 38.1193 67.724 38.0652C67.7967 38.0112 67.8852 37.9841 67.9896 37.9841Z" fill="#6A10B3"/>
<path d="M64.6095 42.2646V38.1772H65.2805V41.6943H67.0166V42.2646H64.6095Z" fill="#6A10B3"/>
<path d="M123.927 41.3807C123.927 41.5839 123.877 41.7554 123.779 41.8952C123.68 42.0349 123.535 42.1412 123.345 42.2139C123.157 42.2847 122.926 42.3201 122.652 42.3201C122.436 42.3201 122.249 42.3043 122.093 42.2726C121.938 42.2428 121.792 42.1962 121.654 42.1328V41.5653C121.801 41.6342 121.966 41.6939 122.149 41.7442C122.333 41.7945 122.507 41.8197 122.671 41.8197C122.888 41.8197 123.043 41.7861 123.138 41.719C123.233 41.6501 123.281 41.5587 123.281 41.445C123.281 41.3779 123.261 41.3183 123.222 41.2661C123.185 41.2121 123.114 41.1571 123.01 41.1012C122.907 41.0434 122.756 40.9744 122.557 40.8943C122.361 40.816 122.196 40.7377 122.062 40.6594C121.928 40.5812 121.826 40.487 121.757 40.3771C121.688 40.2652 121.654 40.1227 121.654 39.9493C121.654 39.6753 121.762 39.4675 121.978 39.3259C122.196 39.1824 122.484 39.1106 122.842 39.1106C123.032 39.1106 123.211 39.1302 123.379 39.1693C123.548 39.2066 123.714 39.2616 123.876 39.3343L123.669 39.8291C123.53 39.7676 123.389 39.7173 123.247 39.6781C123.108 39.6371 122.965 39.6166 122.82 39.6166C122.65 39.6166 122.52 39.6427 122.431 39.6949C122.343 39.7471 122.3 39.8216 122.3 39.9186C122.3 39.9913 122.321 40.0528 122.364 40.1031C122.407 40.1534 122.48 40.2037 122.585 40.2541C122.691 40.3044 122.838 40.3668 123.026 40.4414C123.211 40.5122 123.37 40.5867 123.505 40.665C123.641 40.7414 123.745 40.8356 123.818 40.9474C123.89 41.0592 123.927 41.2037 123.927 41.3807Z" fill="#6A10B3"/>
<path d="M119.708 42.2616L119.317 40.8218C119.298 40.751 119.276 40.6653 119.249 40.5646C119.223 40.464 119.197 40.3605 119.171 40.2543C119.145 40.1462 119.121 40.0465 119.098 39.9551C119.078 39.8638 119.062 39.793 119.051 39.7427H119.029C119.019 39.793 119.004 39.8638 118.984 39.9551C118.963 40.0465 118.94 40.1462 118.914 40.2543C118.888 40.3624 118.862 40.4677 118.836 40.5702C118.811 40.6727 118.789 40.7603 118.769 40.833L118.358 42.2616H117.636L116.77 39.1667H117.435L117.838 40.7044C117.864 40.8088 117.889 40.9215 117.913 41.0427C117.939 41.1638 117.962 41.2794 117.98 41.3894C117.999 41.4993 118.013 41.5897 118.022 41.6605H118.044C118.052 41.6102 118.062 41.5469 118.075 41.4704C118.088 41.3922 118.103 41.3111 118.12 41.2272C118.137 41.1415 118.153 41.0613 118.17 40.9868C118.187 40.9104 118.203 40.8489 118.218 40.8023L118.693 39.1667H119.412L119.867 40.8023C119.888 40.8731 119.91 40.9625 119.934 41.0706C119.959 41.1769 119.98 41.2841 119.999 41.3922C120.019 41.4984 120.032 41.5869 120.038 41.6578H120.06C120.068 41.5944 120.081 41.5086 120.099 41.4005C120.12 41.2906 120.143 41.1741 120.169 41.0511C120.195 40.9262 120.222 40.8106 120.25 40.7044L120.661 39.1667H121.315L120.443 42.2616H119.708Z" fill="#6A10B3"/>
<path d="M115.112 39.1106C115.388 39.1106 115.624 39.1674 115.822 39.2811C116.019 39.3948 116.171 39.5561 116.278 39.7648C116.384 39.9735 116.437 40.2233 116.437 40.5141V40.8663H114.371C114.378 41.1664 114.458 41.3975 114.611 41.5597C114.766 41.7218 114.982 41.8029 115.26 41.8029C115.457 41.8029 115.635 41.7843 115.791 41.747C115.95 41.7078 116.113 41.651 116.28 41.5764V42.1104C116.126 42.1831 115.968 42.2362 115.808 42.2698C115.648 42.3033 115.456 42.3201 115.232 42.3201C114.928 42.3201 114.661 42.2614 114.43 42.144C114.2 42.0247 114.02 41.8476 113.89 41.6128C113.761 41.3779 113.697 41.0863 113.697 40.7377C113.697 40.391 113.756 40.0966 113.873 39.8543C113.991 39.612 114.156 39.4274 114.368 39.3007C114.581 39.174 114.828 39.1106 115.112 39.1106ZM115.112 39.6054C114.905 39.6054 114.737 39.6725 114.608 39.8067C114.482 39.9409 114.407 40.1376 114.385 40.3966H115.794C115.792 40.2419 115.766 40.1049 115.716 39.9857C115.667 39.8664 115.593 39.7732 115.492 39.7061C115.393 39.639 115.266 39.6054 115.112 39.6054Z" fill="#6A10B3"/>
<path d="M112.937 39.1695V42.2644H112.28V39.1695H112.937ZM112.612 37.9841C112.713 37.9841 112.8 38.0112 112.872 38.0652C112.947 38.1193 112.984 38.2124 112.984 38.3448C112.984 38.4752 112.947 38.5684 112.872 38.6244C112.8 38.6784 112.713 38.7054 112.612 38.7054C112.508 38.7054 112.419 38.6784 112.347 38.6244C112.276 38.5684 112.24 38.4752 112.24 38.3448C112.24 38.2124 112.276 38.1193 112.347 38.0652C112.419 38.0112 112.508 37.9841 112.612 37.9841Z" fill="#6A10B3"/>
<path d="M111.81 38.1768L110.381 42.2641H109.671L108.243 38.1768H108.93L109.791 40.7377C109.818 40.8122 109.846 40.9026 109.875 41.0088C109.907 41.1151 109.936 41.2223 109.962 41.3304C109.99 41.4385 110.011 41.5344 110.026 41.6183C110.041 41.5344 110.062 41.4385 110.088 41.3304C110.116 41.2223 110.145 41.1151 110.174 41.0088C110.204 40.9026 110.232 40.8113 110.258 40.7349L111.122 38.1768H111.81Z" fill="#6A10B3"/>
<path d="M175.36 41.381C175.36 41.5841 175.311 41.7556 175.212 41.8954C175.113 42.0352 174.969 42.1414 174.778 42.2141C174.59 42.2849 174.359 42.3203 174.085 42.3203C173.869 42.3203 173.683 42.3045 173.526 42.2728C173.371 42.243 173.225 42.1964 173.087 42.133V41.5655C173.234 41.6345 173.399 41.6941 173.582 41.7444C173.766 41.7948 173.941 41.8199 174.105 41.8199C174.321 41.8199 174.477 41.7864 174.572 41.7193C174.667 41.6503 174.714 41.559 174.714 41.4453C174.714 41.3782 174.695 41.3185 174.655 41.2664C174.618 41.2123 174.547 41.1573 174.443 41.1014C174.34 41.0436 174.189 40.9747 173.99 40.8945C173.794 40.8162 173.629 40.738 173.495 40.6597C173.361 40.5814 173.259 40.4873 173.19 40.3773C173.122 40.2655 173.087 40.1229 173.087 39.9496C173.087 39.6756 173.195 39.4678 173.411 39.3261C173.629 39.1826 173.917 39.1108 174.275 39.1108C174.465 39.1108 174.644 39.1304 174.812 39.1696C174.982 39.2068 175.147 39.2618 175.31 39.3345L175.103 39.8293C174.963 39.7678 174.822 39.7175 174.681 39.6784C174.541 39.6374 174.398 39.6169 174.253 39.6169C174.083 39.6169 173.954 39.643 173.864 39.6951C173.777 39.7473 173.733 39.8219 173.733 39.9188C173.733 39.9915 173.754 40.053 173.797 40.1033C173.84 40.1537 173.914 40.204 174.018 40.2543C174.124 40.3046 174.271 40.3671 174.46 40.4416C174.644 40.5124 174.804 40.587 174.938 40.6653C175.074 40.7417 175.178 40.8358 175.251 40.9476C175.324 41.0595 175.36 41.2039 175.36 41.381Z" fill="#6A10B3"/>
<path d="M172.167 41.7888C172.253 41.7888 172.338 41.7814 172.422 41.7664C172.505 41.7497 172.582 41.7301 172.651 41.7077V42.2054C172.578 42.2371 172.484 42.2641 172.368 42.2864C172.253 42.3088 172.133 42.32 172.008 42.32C171.833 42.32 171.675 42.2911 171.535 42.2333C171.396 42.1737 171.285 42.0721 171.203 41.9286C171.121 41.7851 171.08 41.5866 171.08 41.3331V39.6696H170.658V39.3761L171.11 39.144L171.326 38.4814H171.739V39.1692H172.626V39.6696H171.739V41.3247C171.739 41.4813 171.779 41.5978 171.857 41.6742C171.935 41.7506 172.039 41.7888 172.167 41.7888Z" fill="#6A10B3"/>
<path d="M168.988 39.1108C169.337 39.1108 169.608 39.2012 169.802 39.382C169.998 39.561 170.096 39.8489 170.096 40.2459V42.2644H169.439V40.3689C169.439 40.1285 169.389 39.9486 169.29 39.8293C169.192 39.7082 169.039 39.6476 168.832 39.6476C168.532 39.6476 168.323 39.7399 168.206 39.9244C168.09 40.1089 168.032 40.3764 168.032 40.7268V42.2644H167.375V39.1696H167.887L167.979 39.5889H168.016C168.083 39.4808 168.166 39.3923 168.264 39.3233C168.365 39.2525 168.477 39.1994 168.6 39.164C168.725 39.1285 168.854 39.1108 168.988 39.1108Z" fill="#6A10B3"/>
<path d="M165.309 39.1108C165.585 39.1108 165.822 39.1677 166.019 39.2814C166.217 39.3951 166.369 39.5563 166.475 39.765C166.581 39.9738 166.634 40.2235 166.634 40.5143V40.8666H164.568C164.576 41.1666 164.656 41.3978 164.809 41.5599C164.964 41.7221 165.18 41.8031 165.457 41.8031C165.655 41.8031 165.832 41.7845 165.989 41.7472C166.147 41.7081 166.31 41.6512 166.478 41.5767V42.1107C166.323 42.1834 166.166 42.2365 166.005 42.27C165.845 42.3036 165.653 42.3203 165.429 42.3203C165.126 42.3203 164.858 42.2616 164.627 42.1442C164.398 42.0249 164.218 41.8479 164.088 41.613C163.959 41.3782 163.895 41.0865 163.895 40.738C163.895 40.3913 163.953 40.0968 164.071 39.8545C164.188 39.6122 164.353 39.4277 164.566 39.301C164.778 39.1742 165.026 39.1108 165.309 39.1108ZM165.309 39.6057C165.102 39.6057 164.935 39.6728 164.806 39.807C164.679 39.9412 164.605 40.1378 164.582 40.3969H165.991C165.99 40.2422 165.963 40.1052 165.913 39.9859C165.865 39.8666 165.79 39.7734 165.689 39.7063C165.591 39.6392 165.464 39.6057 165.309 39.6057Z" fill="#6A10B3"/>
<path d="M162.111 39.1108C162.458 39.1108 162.719 39.2003 162.894 39.3792C163.071 39.5582 163.159 39.8452 163.159 40.2403V42.2644H162.502V40.3577C162.502 40.1229 162.457 39.9458 162.365 39.8265C162.274 39.7073 162.135 39.6476 161.949 39.6476C161.688 39.6476 161.5 39.7315 161.384 39.8992C161.27 40.0651 161.214 40.3065 161.214 40.6233V42.2644H160.557V40.3577C160.557 40.2012 160.536 40.0707 160.495 39.9663C160.456 39.8601 160.395 39.7809 160.313 39.7287C160.231 39.6746 160.128 39.6476 160.003 39.6476C159.822 39.6476 159.678 39.6886 159.57 39.7706C159.463 39.8526 159.387 39.9738 159.34 40.1341C159.294 40.2925 159.27 40.4873 159.27 40.7184V42.2644H158.613V39.1696H159.125L159.217 39.5861H159.254C159.317 39.478 159.395 39.3895 159.489 39.3205C159.584 39.2497 159.689 39.1975 159.804 39.164C159.92 39.1285 160.04 39.1108 160.165 39.1108C160.396 39.1108 160.591 39.1518 160.749 39.2339C160.908 39.314 161.026 39.437 161.104 39.6029H161.155C161.252 39.4351 161.387 39.3112 161.56 39.2311C161.734 39.1509 161.917 39.1108 162.111 39.1108Z" fill="#6A10B3"/>
<path d="M156.648 39.1108C156.995 39.1108 157.256 39.2003 157.431 39.3792C157.608 39.5582 157.696 39.8452 157.696 40.2403V42.2644H157.039V40.3577C157.039 40.1229 156.994 39.9458 156.902 39.8265C156.811 39.7073 156.672 39.6476 156.486 39.6476C156.225 39.6476 156.037 39.7315 155.921 39.8992C155.807 40.0651 155.751 40.3065 155.751 40.6233V42.2644H155.094V40.3577C155.094 40.2012 155.073 40.0707 155.032 39.9663C154.993 39.8601 154.932 39.7809 154.85 39.7287C154.768 39.6746 154.665 39.6476 154.54 39.6476C154.359 39.6476 154.215 39.6886 154.107 39.7706C154 39.8526 153.924 39.9738 153.877 40.1341C153.831 40.2925 153.808 40.4873 153.808 40.7184V42.2644H153.151V39.1696H153.662L153.754 39.5861H153.791C153.854 39.478 153.932 39.3895 154.026 39.3205C154.121 39.2497 154.226 39.1975 154.342 39.164C154.457 39.1285 154.577 39.1108 154.702 39.1108C154.933 39.1108 155.128 39.1518 155.287 39.2339C155.445 39.314 155.563 39.437 155.642 39.6029H155.692C155.789 39.4351 155.924 39.3112 156.097 39.2311C156.271 39.1509 156.454 39.1108 156.648 39.1108Z" fill="#6A10B3"/>
<path d="M152.396 40.71C152.396 40.9672 152.362 41.1955 152.295 41.395C152.228 41.5944 152.13 41.7631 152.002 41.901C151.873 42.037 151.718 42.1414 151.537 42.2141C151.357 42.2849 151.153 42.3203 150.925 42.3203C150.713 42.3203 150.518 42.2849 150.341 42.2141C150.164 42.1414 150.01 42.037 149.88 41.901C149.751 41.7631 149.651 41.5944 149.58 41.395C149.51 41.1955 149.474 40.9672 149.474 40.71C149.474 40.3689 149.533 40.08 149.65 39.8433C149.77 39.6048 149.939 39.423 150.159 39.2982C150.379 39.1733 150.641 39.1108 150.945 39.1108C151.23 39.1108 151.482 39.1733 151.7 39.2982C151.918 39.423 152.088 39.6048 152.211 39.8433C152.334 40.0819 152.396 40.3708 152.396 40.71ZM150.151 40.71C150.151 40.9355 150.178 41.1284 150.232 41.2887C150.288 41.449 150.373 41.572 150.489 41.6578C150.605 41.7416 150.754 41.7836 150.936 41.7836C151.119 41.7836 151.268 41.7416 151.384 41.6578C151.499 41.572 151.584 41.449 151.638 41.2887C151.692 41.1284 151.719 40.9355 151.719 40.71C151.719 40.4845 151.692 40.2934 151.638 40.1369C151.584 39.9785 151.499 39.8582 151.384 39.7762C151.268 39.6924 151.118 39.6504 150.934 39.6504C150.661 39.6504 150.463 39.7417 150.338 39.9244C150.213 40.1071 150.151 40.3689 150.151 40.71Z" fill="#6A10B3"/>
<path d="M147.836 38.6885C147.64 38.6885 147.465 38.7239 147.31 38.7947C147.157 38.8656 147.028 38.9681 146.922 39.1023C146.815 39.2346 146.734 39.3958 146.678 39.5859C146.623 39.7742 146.595 39.9867 146.595 40.2234C146.595 40.5402 146.639 40.8133 146.729 41.0425C146.818 41.2699 146.954 41.4451 147.137 41.5681C147.32 41.6893 147.551 41.7498 147.83 41.7498C148.004 41.7498 148.172 41.7331 148.336 41.6995C148.5 41.666 148.67 41.6203 148.845 41.5625V42.1328C148.679 42.1981 148.512 42.2456 148.342 42.2754C148.172 42.3053 147.977 42.3202 147.755 42.3202C147.337 42.3202 146.991 42.2335 146.715 42.0602C146.441 41.8868 146.236 41.6427 146.1 41.3277C145.966 41.0127 145.898 40.6436 145.898 40.2206C145.898 39.9112 145.941 39.6279 146.027 39.3707C146.113 39.1134 146.238 38.8917 146.402 38.7053C146.566 38.517 146.768 38.3726 147.008 38.2719C147.251 38.1694 147.527 38.1182 147.839 38.1182C148.044 38.1182 148.245 38.1415 148.443 38.1881C148.642 38.2328 148.827 38.2971 148.996 38.381L148.761 38.9345C148.62 38.8674 148.471 38.8096 148.317 38.7612C148.162 38.7127 148.002 38.6885 147.836 38.6885Z" fill="#6A10B3"/>
<path fill-rule="evenodd" clip-rule="evenodd" d="M160.579 12.9204C154.65 12.9204 149.843 17.1268 149.843 22.3141C149.843 25.2791 151.417 27.9194 153.869 29.6405V34.3917L158.572 31.538C159.223 31.6454 159.892 31.7078 160.579 31.7078C166.508 31.7078 171.314 27.5021 171.314 22.3141C171.314 17.1268 166.508 12.9204 160.579 12.9204Z" fill="url(#paint4_linear_506_240)"/>
<defs>
<linearGradient id="paint0_linear_506_240" x1="-30.4504" y1="-6.97409" x2="106.022" y2="119.82" gradientUnits="userSpaceOnUse">
<stop stop-color="#C43B56"/>
<stop offset="0.3395" stop-color="#982684"/>
<stop offset="0.726" stop-color="#6A10B3"/>
<stop offset="0.9195" stop-color="#5908C5"/>
</linearGradient>
<linearGradient id="paint1_linear_506_240" x1="17.3418" y1="7.66534" x2="41.069" y2="12.4707" gradientUnits="userSpaceOnUse">
<stop stop-color="#C43B56"/>
<stop offset="0.3395" stop-color="#982684"/>
<stop offset="0.726" stop-color="#6A10B3"/>
<stop offset="0.9195" stop-color="#5908C5"/>
</linearGradient>
<linearGradient id="paint2_linear_506_240" x1="85.7056" y1="34.6317" x2="57.3111" y2="26.1243" gradientUnits="userSpaceOnUse">
<stop stop-color="#C43B56"/>
<stop offset="0.3395" stop-color="#982684"/>
<stop offset="0.726" stop-color="#6A10B3"/>
<stop offset="0.9195" stop-color="#5908C5"/>
</linearGradient>
<linearGradient id="paint3_linear_506_240" x1="98.6499" y1="10.6314" x2="130.162" y2="22.9465" gradientUnits="userSpaceOnUse">
<stop stop-color="#C43B56"/>
<stop offset="0.3395" stop-color="#982684"/>
<stop offset="0.726" stop-color="#6A10B3"/>
<stop offset="0.9195" stop-color="#5908C5"/>
</linearGradient>
<linearGradient id="paint4_linear_506_240" x1="146.384" y1="10.0951" x2="173.434" y2="17.1427" gradientUnits="userSpaceOnUse">
<stop stop-color="#C43B56"/>
<stop offset="0.3395" stop-color="#982684"/>
<stop offset="0.726" stop-color="#6A10B3"/>
<stop offset="0.9195" stop-color="#5908C5"/>
</linearGradient>
</defs>
</svg>
