<svg width="193" height="71" viewBox="0 0 193 71" fill="none" xmlns="http://www.w3.org/2000/svg">
<rect x="0.5" y="0.5" width="154" height="54" rx="11.5" fill="#FFF8FE" stroke="url(#paint0_linear_506_119)"/>
<rect x="7.5" y="8.5" width="154" height="53" rx="11.5" fill="#FFF8FE" stroke="url(#paint1_linear_506_119)"/>
<rect x="14.5" y="16.5" width="154" height="54" rx="11.5" fill="#FFF8FE" stroke="url(#paint2_linear_506_119)"/>
<circle cx="166.5" cy="36.5" r="26" fill="white" stroke="url(#paint3_linear_506_119)"/>
<path d="M134.588 43.8985C134.588 44.8714 134.514 45.8366 134.368 46.7941C134.229 47.7516 133.981 48.655 133.626 49.5044C133.271 50.3461 132.773 51.0951 132.132 51.7514C131.491 52.4 130.677 52.9097 129.688 53.2803C128.7 53.6509 127.503 53.8363 126.098 53.8363C125.766 53.8363 125.376 53.8208 124.928 53.7899C124.48 53.7668 124.109 53.7282 123.816 53.6741V50.8017C124.125 50.8789 124.453 50.9406 124.8 50.987C125.148 51.0256 125.499 51.0449 125.854 51.0449C127.268 51.0449 128.356 50.821 129.121 50.3731C129.893 49.9252 130.433 49.3037 130.742 48.5083C131.059 47.713 131.24 46.7941 131.287 45.7517H131.148C130.924 46.1223 130.657 46.4582 130.348 46.7594C130.047 47.0528 129.661 47.2883 129.19 47.4659C128.719 47.6358 128.121 47.7207 127.395 47.7207C126.43 47.7207 125.588 47.5122 124.87 47.0953C124.16 46.6706 123.607 46.0606 123.214 45.2652C122.828 44.4622 122.635 43.4931 122.635 42.358C122.635 41.1303 122.866 40.0801 123.329 39.2076C123.8 38.3273 124.468 37.6517 125.333 37.1807C126.198 36.7096 127.217 36.4741 128.391 36.4741C129.256 36.4741 130.063 36.6247 130.812 36.9258C131.561 37.2193 132.217 37.671 132.781 38.281C133.352 38.891 133.796 39.6632 134.113 40.5975C134.429 41.5318 134.588 42.6321 134.588 43.8985ZM128.461 39.3466C127.766 39.3466 127.198 39.5859 126.758 40.0647C126.318 40.5434 126.098 41.2924 126.098 42.3117C126.098 43.1302 126.287 43.7788 126.665 44.2576C127.044 44.7363 127.619 44.9757 128.391 44.9757C128.924 44.9757 129.387 44.8598 129.781 44.6282C130.175 44.3888 130.48 44.0915 130.696 43.7363C130.92 43.3734 131.032 43.0028 131.032 42.6244C131.032 42.2306 130.978 41.8407 130.87 41.4546C130.762 41.0685 130.599 40.7172 130.383 40.4006C130.167 40.084 129.897 39.8292 129.572 39.6361C129.256 39.4431 128.885 39.3466 128.461 39.3466Z" fill="#6A10B3"/>
<path d="M121.013 43.8985C121.013 44.8714 120.94 45.8366 120.793 46.7941C120.654 47.7516 120.407 48.655 120.052 49.5044C119.696 50.3461 119.198 51.0951 118.558 51.7514C117.917 52.4 117.102 52.9097 116.114 53.2803C115.125 53.6509 113.928 53.8363 112.523 53.8363C112.191 53.8363 111.801 53.8208 111.353 53.7899C110.905 53.7668 110.535 53.7282 110.241 53.6741V50.8017C110.55 50.8789 110.878 50.9406 111.226 50.987C111.573 51.0256 111.925 51.0449 112.28 51.0449C113.693 51.0449 114.782 50.821 115.546 50.3731C116.318 49.9252 116.859 49.3037 117.168 48.5083C117.484 47.713 117.666 46.7941 117.712 45.7517H117.573C117.349 46.1223 117.083 46.4582 116.774 46.7594C116.473 47.0528 116.087 47.2883 115.616 47.4659C115.145 47.6358 114.546 47.7207 113.82 47.7207C112.855 47.7207 112.013 47.5122 111.295 47.0953C110.585 46.6706 110.033 46.0606 109.639 45.2652C109.253 44.4622 109.06 43.4931 109.06 42.358C109.06 41.1303 109.292 40.0801 109.755 39.2076C110.226 38.3273 110.894 37.6517 111.759 37.1807C112.623 36.7096 113.643 36.4741 114.816 36.4741C115.681 36.4741 116.488 36.6247 117.237 36.9258C117.986 37.2193 118.642 37.671 119.206 38.281C119.778 38.891 120.222 39.6632 120.538 40.5975C120.855 41.5318 121.013 42.6321 121.013 43.8985ZM114.886 39.3466C114.191 39.3466 113.623 39.5859 113.183 40.0647C112.743 40.5434 112.523 41.2924 112.523 42.3117C112.523 43.1302 112.712 43.7788 113.091 44.2576C113.469 44.7363 114.044 44.9757 114.816 44.9757C115.349 44.9757 115.812 44.8598 116.206 44.6282C116.6 44.3888 116.905 44.0915 117.121 43.7363C117.345 43.3734 117.457 43.0028 117.457 42.6244C117.457 42.2306 117.403 41.8407 117.295 41.4546C117.187 41.0685 117.025 40.7172 116.809 40.4006C116.592 40.084 116.322 39.8292 115.998 39.6361C115.681 39.4431 115.311 39.3466 114.886 39.3466Z" fill="#6A10B3"/>
<path d="M107.438 43.8985C107.438 44.8714 107.365 45.8366 107.218 46.7941C107.079 47.7516 106.832 48.655 106.477 49.5044C106.122 50.3461 105.624 51.0951 104.983 51.7514C104.342 52.4 103.527 52.9097 102.539 53.2803C101.551 53.6509 100.354 53.8363 98.9484 53.8363C98.6164 53.8363 98.2264 53.8208 97.7786 53.7899C97.3307 53.7668 96.9601 53.7282 96.6666 53.6741V50.8017C96.9755 50.8789 97.3037 50.9406 97.6512 50.987C97.9986 51.0256 98.35 51.0449 98.7052 51.0449C100.118 51.0449 101.207 50.821 101.971 50.3731C102.744 49.9252 103.284 49.3037 103.593 48.5083C103.91 47.713 104.091 46.7941 104.137 45.7517H103.998C103.774 46.1223 103.508 46.4582 103.199 46.7594C102.898 47.0528 102.512 47.2883 102.041 47.4659C101.57 47.6358 100.971 47.7207 100.246 47.7207C99.2804 47.7207 98.4388 47.5122 97.7206 47.0953C97.0103 46.6706 96.4582 46.0606 96.0644 45.2652C95.6783 44.4622 95.4852 43.4931 95.4852 42.358C95.4852 41.1303 95.7169 40.0801 96.1802 39.2076C96.6512 38.3273 97.3191 37.6517 98.1839 37.1807C99.0488 36.7096 100.068 36.4741 101.242 36.4741C102.107 36.4741 102.913 36.6247 103.662 36.9258C104.411 37.2193 105.068 37.671 105.631 38.281C106.203 38.891 106.647 39.6632 106.963 40.5975C107.28 41.5318 107.438 42.6321 107.438 43.8985ZM101.311 39.3466C100.616 39.3466 100.049 39.5859 99.6086 40.0647C99.1685 40.5434 98.9484 41.2924 98.9484 42.3117C98.9484 43.1302 99.1376 43.7788 99.5159 44.2576C99.8943 44.7363 100.47 44.9757 101.242 44.9757C101.775 44.9757 102.238 44.8598 102.632 44.6282C103.025 44.3888 103.33 44.0915 103.547 43.7363C103.771 43.3734 103.883 43.0028 103.883 42.6244C103.883 42.2306 103.828 41.8407 103.72 41.4546C103.612 41.0685 103.45 40.7172 103.234 40.4006C103.018 40.084 102.747 39.8292 102.423 39.6361C102.107 39.4431 101.736 39.3466 101.311 39.3466Z" fill="#6A10B3"/>
<path d="M93.0992 50.8479L93.2729 51.1143C93.134 51.6703 92.9525 52.2687 92.7286 52.9096C92.5124 53.5505 92.273 54.1914 92.0105 54.8323C91.7556 55.4732 91.497 56.0832 91.2344 56.6623H88.6863C88.8407 56.0369 88.9913 55.3805 89.138 54.6933C89.2847 54.0061 89.4198 53.3304 89.5434 52.6664C89.6747 52.0023 89.7789 51.3961 89.8561 50.8479H93.0992Z" fill="#6A10B3"/>
<path d="M87.0995 43.8985C87.0995 44.8714 87.0261 45.8366 86.8794 46.7941C86.7404 47.7516 86.4933 48.655 86.1381 49.5044C85.7829 50.3461 85.2849 51.0951 84.644 51.7514C84.0031 52.4 83.1885 52.9097 82.2001 53.2803C81.2117 53.6509 80.0149 53.8363 78.6095 53.8363C78.2775 53.8363 77.8876 53.8208 77.4397 53.7899C76.9918 53.7668 76.6212 53.7282 76.3278 53.6741V50.8017C76.6366 50.8789 76.9648 50.9406 77.3123 50.987C77.6598 51.0256 78.0111 51.0449 78.3663 51.0449C79.7794 51.0449 80.8681 50.821 81.6326 50.3731C82.4047 49.9252 82.9452 49.3037 83.2541 48.5083C83.5707 47.713 83.7521 46.7941 83.7985 45.7517H83.6595C83.4356 46.1223 83.1692 46.4582 82.8603 46.7594C82.5592 47.0528 82.1731 47.2883 81.702 47.4659C81.231 47.6358 80.6326 47.7207 79.9068 47.7207C78.9416 47.7207 78.0999 47.5122 77.3818 47.0953C76.6714 46.6706 76.1193 46.0606 75.7255 45.2652C75.3394 44.4622 75.1464 43.4931 75.1464 42.358C75.1464 41.1303 75.378 40.0801 75.8413 39.2076C76.3123 38.3273 76.9803 37.6517 77.8451 37.1807C78.7099 36.7096 79.7292 36.4741 80.9029 36.4741C81.7677 36.4741 82.5746 36.6247 83.3236 36.9258C84.0726 37.2193 84.7289 37.671 85.2926 38.281C85.864 38.891 86.308 39.6632 86.6246 40.5975C86.9412 41.5318 87.0995 42.6321 87.0995 43.8985ZM80.9724 39.3466C80.2774 39.3466 79.7099 39.5859 79.2697 40.0647C78.8296 40.5434 78.6095 41.2924 78.6095 42.3117C78.6095 43.1302 78.7987 43.7788 79.1771 44.2576C79.5554 44.7363 80.1307 44.9757 80.9029 44.9757C81.4357 44.9757 81.899 44.8598 82.2928 44.6282C82.6866 44.3888 82.9916 44.0915 83.2078 43.7363C83.4317 43.3734 83.5437 43.0028 83.5437 42.6244C83.5437 42.2306 83.4896 41.8407 83.3815 41.4546C83.2734 41.0685 83.1113 40.7172 82.895 40.4006C82.6788 40.084 82.4086 39.8292 82.0843 39.6361C81.7677 39.4431 81.397 39.3466 80.9724 39.3466Z" fill="#6A10B3"/>
<path d="M73.5248 43.8985C73.5248 44.8714 73.4514 45.8366 73.3047 46.7941C73.1657 47.7516 72.9186 48.655 72.5634 49.5044C72.2082 50.3461 71.7102 51.0951 71.0693 51.7514C70.4284 52.4 69.6138 52.9097 68.6254 53.2803C67.637 53.6509 66.4402 53.8363 65.0348 53.8363C64.7028 53.8363 64.3128 53.8208 63.865 53.7899C63.4171 53.7668 63.0465 53.7282 62.7531 53.6741V50.8017C63.0619 50.8789 63.3901 50.9406 63.7376 50.987C64.0851 51.0256 64.4364 51.0449 64.7916 51.0449C66.2046 51.0449 67.2934 50.821 68.0578 50.3731C68.83 49.9252 69.3705 49.3037 69.6794 48.5083C69.996 47.713 70.1774 46.7941 70.2238 45.7517H70.0848C69.8609 46.1223 69.5945 46.4582 69.2856 46.7594C68.9844 47.0528 68.5984 47.2883 68.1273 47.4659C67.6563 47.6358 67.0579 47.7207 66.3321 47.7207C65.3668 47.7207 64.5252 47.5122 63.8071 47.0953C63.0967 46.6706 62.5446 46.0606 62.1508 45.2652C61.7647 44.4622 61.5717 43.4931 61.5717 42.358C61.5717 41.1303 61.8033 40.0801 62.2666 39.2076C62.7376 38.3273 63.4055 37.6517 64.2704 37.1807C65.1352 36.7096 66.1545 36.4741 67.3282 36.4741C68.193 36.4741 68.9999 36.6247 69.7489 36.9258C70.4979 37.2193 71.1542 37.671 71.7179 38.281C72.2893 38.891 72.7333 39.6632 73.0499 40.5975C73.3665 41.5318 73.5248 42.6321 73.5248 43.8985ZM67.3976 39.3466C66.7027 39.3466 66.1352 39.5859 65.695 40.0647C65.2549 40.5434 65.0348 41.2924 65.0348 42.3117C65.0348 43.1302 65.224 43.7788 65.6024 44.2576C65.9807 44.7363 66.556 44.9757 67.3282 44.9757C67.8609 44.9757 68.3242 44.8598 68.718 44.6282C69.1119 44.3888 69.4169 44.0915 69.6331 43.7363C69.857 43.3734 69.969 43.0028 69.969 42.6244C69.969 42.2306 69.9149 41.8407 69.8068 41.4546C69.6987 41.0685 69.5365 40.7172 69.3203 40.4006C69.1041 40.084 68.8339 39.8292 68.5096 39.6361C68.193 39.4431 67.8223 39.3466 67.3976 39.3466Z" fill="#6A10B3"/>
<path d="M59.9501 43.8985C59.9501 44.8714 59.8768 45.8366 59.7301 46.7941C59.5911 47.7516 59.344 48.655 58.9888 49.5044C58.6336 50.3461 58.1355 51.0951 57.4946 51.7514C56.8538 52.4 56.0391 52.9097 55.0507 53.2803C54.0624 53.6509 52.8655 53.8363 51.4602 53.8363C51.1281 53.8363 50.7382 53.8208 50.2903 53.7899C49.8425 53.7668 49.4718 53.7282 49.1784 53.6741V50.8017C49.4873 50.8789 49.8155 50.9406 50.1629 50.987C50.5104 51.0256 50.8617 51.0449 51.2169 51.0449C52.63 51.0449 53.7188 50.821 54.4832 50.3731C55.2554 49.9252 55.7959 49.3037 56.1047 48.5083C56.4213 47.713 56.6028 46.7941 56.6491 45.7517H56.5101C56.2862 46.1223 56.0198 46.4582 55.7109 46.7594C55.4098 47.0528 55.0237 47.2883 54.5527 47.4659C54.0817 47.6358 53.4832 47.7207 52.7574 47.7207C51.7922 47.7207 50.9505 47.5122 50.2324 47.0953C49.522 46.6706 48.9699 46.0606 48.5761 45.2652C48.1901 44.4622 47.997 43.4931 47.997 42.358C47.997 41.1303 48.2287 40.0801 48.692 39.2076C49.163 38.3273 49.8309 37.6517 50.6957 37.1807C51.5606 36.7096 52.5798 36.4741 53.7535 36.4741C54.6183 36.4741 55.4252 36.6247 56.1742 36.9258C56.9232 37.2193 57.5796 37.671 58.1433 38.281C58.7147 38.891 59.1587 39.6632 59.4753 40.5975C59.7918 41.5318 59.9501 42.6321 59.9501 43.8985ZM53.823 39.3466C53.1281 39.3466 52.5605 39.5859 52.1204 40.0647C51.6802 40.5434 51.4602 41.2924 51.4602 42.3117C51.4602 43.1302 51.6494 43.7788 52.0277 44.2576C52.4061 44.7363 52.9813 44.9757 53.7535 44.9757C54.2863 44.9757 54.7496 44.8598 55.1434 44.6282C55.5372 44.3888 55.8422 44.0915 56.0584 43.7363C56.2823 43.3734 56.3943 43.0028 56.3943 42.6244C56.3943 42.2306 56.3403 41.8407 56.2322 41.4546C56.1241 41.0685 55.9619 40.7172 55.7457 40.4006C55.5295 40.084 55.2592 39.8292 54.9349 39.6361C54.6183 39.4431 54.2477 39.3466 53.823 39.3466Z" fill="#6A10B3"/>
<path d="M116.19 27.944C116.274 27.944 116.361 27.9368 116.449 27.9224C116.538 27.9079 116.61 27.8904 116.666 27.8699V28.2683C116.606 28.2951 116.523 28.3177 116.416 28.3362C116.31 28.3548 116.208 28.364 116.107 28.364C115.927 28.364 115.765 28.3331 115.619 28.2714C115.472 28.2075 115.355 28.1005 115.267 27.9502C115.18 27.7998 115.137 27.5919 115.137 27.3262V25.3186H114.655V25.0684L115.14 24.8677L115.344 24.1326H115.653V24.9171H116.644V25.3186H115.653V27.3108C115.653 27.5229 115.701 27.6814 115.798 27.7865C115.897 27.8915 116.027 27.944 116.19 27.944Z" fill="#A77EC9"/>
<path d="M112.82 24.8555C113.222 24.8555 113.526 24.9543 113.731 25.152C113.937 25.3476 114.04 25.6626 114.04 26.0971V28.3024H113.534V26.1311C113.534 25.849 113.469 25.6379 113.339 25.4979C113.212 25.3579 113.015 25.2879 112.749 25.2879C112.375 25.2879 112.111 25.3939 111.959 25.606C111.806 25.8181 111.73 26.1259 111.73 26.5295V28.3024H111.217V24.9172H111.631L111.708 25.4053H111.736C111.808 25.2858 111.9 25.186 112.011 25.1057C112.122 25.0233 112.247 24.9615 112.385 24.9203C112.523 24.8771 112.668 24.8555 112.82 24.8555Z" fill="#A77EC9"/>
<path d="M110.133 24.9172V28.3024H109.713L109.639 27.8268H109.611C109.541 27.9441 109.451 28.043 109.339 28.1233C109.228 28.2036 109.103 28.2633 108.963 28.3024C108.825 28.3436 108.677 28.3642 108.521 28.3642C108.253 28.3642 108.029 28.3209 107.848 28.2345C107.666 28.148 107.529 28.0141 107.437 27.8329C107.346 27.6517 107.301 27.4191 107.301 27.1349V24.9172H107.82V27.0978C107.82 27.3799 107.884 27.591 108.011 27.731C108.139 27.869 108.333 27.9379 108.595 27.9379C108.846 27.9379 109.046 27.8906 109.194 27.7959C109.345 27.7012 109.453 27.5622 109.519 27.3789C109.584 27.1936 109.617 26.9671 109.617 26.6994V24.9172H110.133Z" fill="#A77EC9"/>
<path d="M106.451 26.6037C106.451 26.8816 106.415 27.1298 106.343 27.348C106.271 27.5663 106.167 27.7506 106.031 27.9009C105.896 28.0512 105.731 28.1665 105.537 28.2468C105.346 28.3251 105.129 28.3642 104.886 28.3642C104.659 28.3642 104.451 28.3251 104.262 28.2468C104.074 28.1665 103.912 28.0512 103.774 27.9009C103.638 27.7506 103.532 27.5663 103.455 27.348C103.381 27.1298 103.344 26.8816 103.344 26.6037C103.344 26.233 103.407 25.918 103.533 25.6585C103.658 25.397 103.837 25.1983 104.07 25.0624C104.305 24.9244 104.584 24.8555 104.907 24.8555C105.216 24.8555 105.486 24.9244 105.716 25.0624C105.949 25.2004 106.129 25.4001 106.257 25.6616C106.387 25.9211 106.451 26.2351 106.451 26.6037ZM103.876 26.6037C103.876 26.8755 103.912 27.1112 103.984 27.311C104.056 27.5107 104.167 27.6651 104.317 27.7743C104.468 27.8834 104.661 27.938 104.898 27.938C105.133 27.938 105.325 27.8834 105.475 27.7743C105.628 27.6651 105.74 27.5107 105.812 27.311C105.884 27.1112 105.92 26.8755 105.92 26.6037C105.92 26.3339 105.884 26.1012 105.812 25.9056C105.74 25.7079 105.629 25.5556 105.479 25.4485C105.328 25.3414 105.134 25.2879 104.895 25.2879C104.543 25.2879 104.284 25.4042 104.12 25.6369C103.957 25.8696 103.876 26.1918 103.876 26.6037Z" fill="#A77EC9"/>
<path d="M101.352 24.8555C101.725 24.8555 102.006 24.9533 102.195 25.1489C102.385 25.3424 102.479 25.6544 102.479 26.0848V28.3024H101.973V26.1095C101.973 25.8356 101.913 25.6307 101.794 25.4948C101.676 25.3569 101.501 25.2879 101.269 25.2879C100.941 25.2879 100.703 25.3826 100.555 25.572C100.407 25.7615 100.333 26.0405 100.333 26.4091V28.3024H99.8232V26.1095C99.8232 25.9262 99.7964 25.7738 99.7429 25.6523C99.6914 25.5309 99.6132 25.4403 99.5082 25.3805C99.4052 25.3188 99.2744 25.2879 99.1159 25.2879C98.8914 25.2879 98.7113 25.3342 98.5754 25.4269C98.4395 25.5195 98.3406 25.6575 98.2789 25.8408C98.2191 26.022 98.1893 26.2454 98.1893 26.511V28.3024H97.6766V24.9172H98.0905L98.1677 25.396H98.1955C98.2634 25.2786 98.3489 25.1798 98.4518 25.0995C98.5548 25.0192 98.6701 24.9584 98.7978 24.9172C98.9254 24.8761 99.0613 24.8555 99.2055 24.8555C99.4629 24.8555 99.678 24.9039 99.851 25.0006C100.026 25.0954 100.153 25.2405 100.231 25.4361H100.259C100.37 25.2405 100.522 25.0954 100.716 25.0006C100.909 24.9039 101.121 24.8555 101.352 24.8555Z" fill="#A77EC9"/>
<path d="M95.428 24.8616C95.8316 24.8616 96.1312 24.9522 96.3268 25.1334C96.5224 25.3146 96.6203 25.6039 96.6203 26.0013V28.3023H96.2465L96.1477 27.802H96.123C96.0283 27.9255 95.9294 28.0295 95.8265 28.1139C95.7235 28.1963 95.6041 28.2591 95.4682 28.3023C95.3343 28.3435 95.1696 28.3641 94.974 28.3641C94.7681 28.3641 94.5848 28.3281 94.4242 28.256C94.2657 28.1839 94.1401 28.0748 94.0474 27.9286C93.9568 27.7824 93.9115 27.5971 93.9115 27.3727C93.9115 27.035 94.0453 26.7755 94.313 26.5943C94.5807 26.4131 94.9884 26.3143 95.5361 26.2978L96.1199 26.2731V26.0662C96.1199 25.7738 96.0571 25.5689 95.9315 25.4515C95.8059 25.3341 95.6288 25.2755 95.4002 25.2755C95.2232 25.2755 95.0543 25.3012 94.8937 25.3527C94.7331 25.4041 94.5807 25.4649 94.4366 25.5349L94.279 25.1457C94.4314 25.0675 94.6064 25.0006 94.8041 24.945C95.0018 24.8894 95.2098 24.8616 95.428 24.8616ZM96.1137 26.6345L95.5979 26.6561C95.1758 26.6726 94.8783 26.7415 94.7053 26.863C94.5323 26.9845 94.4458 27.1564 94.4458 27.3788C94.4458 27.5724 94.5045 27.7155 94.6219 27.8082C94.7393 27.9008 94.8947 27.9471 95.0883 27.9471C95.3889 27.9471 95.635 27.8638 95.8265 27.697C96.018 27.5302 96.1137 27.28 96.1137 26.9464V26.6345Z" fill="#A77EC9"/>
<path d="M91.6939 27.3758C91.6939 27.592 91.6393 27.7743 91.5302 27.9225C91.4231 28.0687 91.2687 28.1789 91.0669 28.253C90.8671 28.3271 90.6283 28.3642 90.3503 28.3642C90.1135 28.3642 89.9086 28.3457 89.7356 28.3086C89.5627 28.2715 89.4113 28.219 89.2816 28.1511V27.6785C89.4196 27.7465 89.5843 27.8082 89.7758 27.8638C89.9673 27.9194 90.1629 27.9472 90.3626 27.9472C90.655 27.9472 90.8671 27.8999 90.9989 27.8051C91.1307 27.7104 91.1966 27.5817 91.1966 27.4191C91.1966 27.3264 91.1698 27.2451 91.1163 27.1751C91.0648 27.103 90.9773 27.034 90.8537 26.9681C90.7302 26.9002 90.5593 26.826 90.341 26.7457C90.1248 26.6634 89.9374 26.582 89.7789 26.5017C89.6224 26.4194 89.5009 26.3195 89.4144 26.2021C89.33 26.0848 89.2878 25.9324 89.2878 25.745C89.2878 25.4588 89.4031 25.2395 89.6337 25.0871C89.8664 24.9327 90.1712 24.8555 90.548 24.8555C90.7518 24.8555 90.9423 24.8761 91.1194 24.9172C91.2985 24.9564 91.4653 25.0099 91.6197 25.0779L91.4468 25.4886C91.3067 25.4289 91.1575 25.3785 90.9989 25.3373C90.8404 25.2961 90.6787 25.2755 90.514 25.2755C90.2772 25.2755 90.095 25.3146 89.9673 25.3929C89.8417 25.4711 89.7789 25.5782 89.7789 25.7141C89.7789 25.8191 89.8077 25.9056 89.8654 25.9736C89.9251 26.0415 90.0198 26.1053 90.1495 26.1651C90.2793 26.2248 90.4502 26.2948 90.6622 26.3751C90.8743 26.4533 91.0576 26.5347 91.212 26.6191C91.3665 26.7015 91.4849 26.8024 91.5672 26.9218C91.6517 27.0392 91.6939 27.1905 91.6939 27.3758Z" fill="#A77EC9"/>
<path d="M88.4538 24.8555C88.5218 24.8555 88.5928 24.8596 88.6669 24.8678C88.741 24.874 88.8069 24.8833 88.8646 24.8956L88.7997 25.3713C88.7441 25.3569 88.6824 25.3455 88.6144 25.3373C88.5465 25.3291 88.4826 25.3249 88.4229 25.3249C88.287 25.3249 88.1583 25.3527 88.0368 25.4083C87.9174 25.4619 87.8124 25.5401 87.7218 25.6431C87.6312 25.744 87.5602 25.8665 87.5087 26.0106C87.4572 26.1527 87.4315 26.3113 87.4315 26.4863V28.3024H86.9156V24.9172H87.3419L87.3975 25.5412H87.4191C87.4891 25.4155 87.5735 25.3013 87.6724 25.1983C87.7712 25.0933 87.8855 25.0099 88.0152 24.9481C88.147 24.8864 88.2932 24.8555 88.4538 24.8555Z" fill="#A77EC9"/>
<path d="M84.6671 24.8555C84.9554 24.8555 85.2025 24.9193 85.4084 25.047C85.6143 25.1746 85.7718 25.3538 85.881 25.5844C85.9901 25.813 86.0447 26.0806 86.0447 26.3874V26.7056H83.7065C83.7127 27.103 83.8116 27.4057 84.0031 27.6136C84.1946 27.8216 84.4643 27.9256 84.8123 27.9256C85.0264 27.9256 85.2159 27.906 85.3806 27.8669C85.5453 27.8278 85.7162 27.7701 85.8933 27.6939V28.1449C85.7224 28.2211 85.5525 28.2767 85.3837 28.3117C85.2169 28.3467 85.0192 28.3642 84.7907 28.3642C84.4653 28.3642 84.1812 28.2983 83.9382 28.1665C83.6973 28.0327 83.5099 27.8371 83.3761 27.5797C83.2422 27.3223 83.1753 27.0072 83.1753 26.6345C83.1753 26.2701 83.236 25.955 83.3575 25.6894C83.4811 25.4217 83.654 25.2158 83.8764 25.0717C84.1009 24.9275 84.3644 24.8555 84.6671 24.8555ZM84.6609 25.2755C84.3871 25.2755 84.1688 25.3651 84.0061 25.5442C83.8435 25.7234 83.7467 25.9736 83.7158 26.2948H85.5072C85.5052 26.093 85.4733 25.9159 85.4115 25.7635C85.3518 25.6091 85.2601 25.4897 85.1366 25.4053C85.013 25.3188 84.8545 25.2755 84.6609 25.2755Z" fill="#A77EC9"/>
<path d="M81.214 28.2961L80.6117 26.3255C80.585 26.2411 80.5592 26.1587 80.5345 26.0784C80.5119 25.996 80.4903 25.9178 80.4697 25.8437C80.4511 25.7675 80.4336 25.6975 80.4172 25.6336C80.4027 25.5677 80.3904 25.5111 80.3801 25.4638H80.3585C80.3502 25.5111 80.3389 25.5677 80.3245 25.6336C80.3101 25.6975 80.2926 25.7675 80.272 25.8437C80.2535 25.9199 80.2329 26.0002 80.2102 26.0846C80.1876 26.1669 80.1618 26.2503 80.133 26.3348L79.5029 28.2961H78.9253L77.9926 24.9109H78.5238L79.0118 26.7795C79.0448 26.9031 79.0756 27.0256 79.1045 27.1471C79.1354 27.2665 79.1611 27.3798 79.1817 27.4868C79.2043 27.5918 79.2208 27.6835 79.2311 27.7617H79.2558C79.2682 27.7102 79.2816 27.6485 79.296 27.5764C79.3124 27.5043 79.3299 27.4281 79.3485 27.3478C79.3691 27.2655 79.3907 27.1841 79.4133 27.1038C79.436 27.0215 79.4586 26.9443 79.4813 26.8722L80.1052 24.9109H80.6581L81.2604 26.8691C81.2912 26.9679 81.3211 27.0709 81.3499 27.178C81.3808 27.285 81.4086 27.389 81.4333 27.4899C81.458 27.5888 81.4755 27.6773 81.4858 27.7555H81.5105C81.5188 27.6855 81.5342 27.5991 81.5569 27.4961C81.5795 27.3931 81.6053 27.2799 81.6341 27.1563C81.665 27.0328 81.6969 26.9072 81.7298 26.7795L82.224 24.9109H82.746L81.8101 28.2961H81.214Z" fill="#A77EC9"/>
<path d="M77.5725 26.6037C77.5725 26.8816 77.5364 27.1298 77.4644 27.348C77.3923 27.5663 77.2883 27.7506 77.1524 27.9009C77.0165 28.0512 76.8518 28.1665 76.6582 28.2468C76.4667 28.3251 76.2495 28.3642 76.0065 28.3642C75.78 28.3642 75.572 28.3251 75.3826 28.2468C75.1952 28.1665 75.0326 28.0512 74.8946 27.9009C74.7587 27.7506 74.6526 27.5663 74.5765 27.348C74.5023 27.1298 74.4653 26.8816 74.4653 26.6037C74.4653 26.233 74.5281 25.918 74.6537 25.6585C74.7793 25.397 74.9584 25.1983 75.1911 25.0624C75.4258 24.9244 75.7049 24.8555 76.0281 24.8555C76.337 24.8555 76.6067 24.9244 76.8374 25.0624C77.07 25.2004 77.2502 25.4001 77.3779 25.6616C77.5076 25.9211 77.5725 26.2351 77.5725 26.6037ZM74.9965 26.6037C74.9965 26.8755 75.0326 27.1112 75.1046 27.311C75.1767 27.5107 75.2879 27.6651 75.4382 27.7743C75.5885 27.8834 75.7821 27.938 76.0189 27.938C76.2536 27.938 76.4461 27.8834 76.5964 27.7743C76.7488 27.6651 76.861 27.5107 76.9331 27.311C77.0052 27.1112 77.0412 26.8755 77.0412 26.6037C77.0412 26.3339 77.0052 26.1012 76.9331 25.9056C76.861 25.7079 76.7499 25.5556 76.5995 25.4485C76.4492 25.3414 76.2546 25.2879 76.0158 25.2879C75.6637 25.2879 75.4053 25.4042 75.2405 25.6369C75.0779 25.8696 74.9965 26.1918 74.9965 26.6037Z" fill="#A77EC9"/>
<path d="M73.5696 28.3023H73.0538V23.4963H73.5696V28.3023Z" fill="#A77EC9"/>
<path d="M71.9697 28.3023H71.4539V23.4963H71.9697V28.3023Z" fill="#A77EC9"/>
<path d="M70.5674 26.6037C70.5674 26.8816 70.5314 27.1298 70.4593 27.348C70.3872 27.5663 70.2832 27.7506 70.1473 27.9009C70.0114 28.0512 69.8467 28.1665 69.6532 28.2468C69.4617 28.3251 69.2444 28.3642 69.0014 28.3642C68.7749 28.3642 68.567 28.3251 68.3775 28.2468C68.1902 28.1665 68.0275 28.0512 67.8895 27.9009C67.7536 27.7506 67.6476 27.5663 67.5714 27.348C67.4973 27.1298 67.4602 26.8816 67.4602 26.6037C67.4602 26.233 67.523 25.918 67.6486 25.6585C67.7742 25.397 67.9534 25.1983 68.186 25.0624C68.4208 24.9244 68.6998 24.8555 69.0231 24.8555C69.3319 24.8555 69.6017 24.9244 69.8323 25.0624C70.065 25.2004 70.2451 25.4001 70.3728 25.6616C70.5025 25.9211 70.5674 26.2351 70.5674 26.6037ZM67.9915 26.6037C67.9915 26.8755 68.0275 27.1112 68.0996 27.311C68.1716 27.5107 68.2828 27.6651 68.4331 27.7743C68.5834 27.8834 68.777 27.938 69.0138 27.938C69.2485 27.938 69.4411 27.8834 69.5914 27.7743C69.7438 27.6651 69.856 27.5107 69.928 27.311C70.0001 27.1112 70.0361 26.8755 70.0361 26.6037C70.0361 26.3339 70.0001 26.1012 69.928 25.9056C69.856 25.7079 69.7448 25.5556 69.5945 25.4485C69.4442 25.3414 69.2496 25.2879 69.0107 25.2879C68.6586 25.2879 68.4002 25.4042 68.2355 25.6369C68.0728 25.8696 67.9915 26.1918 67.9915 26.6037Z" fill="#A77EC9"/>
<path d="M64.9831 28.3022H64.458V23.7866H66.9722V24.2499H64.9831V25.9054H66.8517V26.3657H64.9831V28.3022Z" fill="#A77EC9"/>
<path d="M181 46.9073L173.813 39.7189C175.077 37.8453 175.752 35.636 175.75 33.3756C175.75 27.1036 170.649 22 164.376 22C158.104 22 153 27.1036 153 33.3756C153 39.6489 158.104 44.7513 164.376 44.7513C166.636 44.7539 168.846 44.0792 170.719 42.8142L177.905 50L181 46.9073ZM164.376 41.25C162.288 41.248 160.285 40.4176 158.809 38.941C157.332 37.4645 156.502 35.4625 156.5 33.3744C156.502 31.2863 157.333 29.2845 158.809 27.8081C160.286 26.3316 162.288 25.5011 164.376 25.4987C166.464 25.5011 168.465 26.3316 169.942 27.8081C171.418 29.2845 172.249 31.2863 172.251 33.3744C172.249 35.4624 171.418 37.4642 169.942 38.9407C168.465 40.4171 166.464 41.2476 164.376 41.25Z" fill="url(#paint4_linear_506_119)"/>
<defs>
<linearGradient id="paint0_linear_506_119" x1="-24.9726" y1="-7.23727" x2="110.516" y2="92.2439" gradientUnits="userSpaceOnUse">
<stop stop-color="#C43B56"/>
<stop offset="0.3395" stop-color="#982684"/>
<stop offset="0.726" stop-color="#6A10B3"/>
<stop offset="0.9195" stop-color="#5908C5"/>
</linearGradient>
<linearGradient id="paint1_linear_506_119" x1="-17.9726" y1="0.89432" x2="115.765" y2="100.908" gradientUnits="userSpaceOnUse">
<stop stop-color="#C43B56"/>
<stop offset="0.3395" stop-color="#982684"/>
<stop offset="0.726" stop-color="#6A10B3"/>
<stop offset="0.9195" stop-color="#5908C5"/>
</linearGradient>
<linearGradient id="paint2_linear_506_119" x1="-10.9726" y1="8.76273" x2="124.516" y2="108.244" gradientUnits="userSpaceOnUse">
<stop stop-color="#C43B56"/>
<stop offset="0.3395" stop-color="#982684"/>
<stop offset="0.726" stop-color="#6A10B3"/>
<stop offset="0.9195" stop-color="#5908C5"/>
</linearGradient>
<linearGradient id="paint3_linear_506_119" x1="131.461" y1="3.02591" x2="198.233" y2="20.4224" gradientUnits="userSpaceOnUse">
<stop stop-color="#C43B56"/>
<stop offset="0.3395" stop-color="#982684"/>
<stop offset="0.726" stop-color="#6A10B3"/>
<stop offset="0.9195" stop-color="#5908C5"/>
</linearGradient>
<linearGradient id="paint4_linear_506_119" x1="148.489" y1="18.3156" x2="183.765" y2="27.5062" gradientUnits="userSpaceOnUse">
<stop stop-color="#C43B56"/>
<stop offset="0.3395" stop-color="#982684"/>
<stop offset="0.726" stop-color="#6A10B3"/>
<stop offset="0.9195" stop-color="#5908C5"/>
</linearGradient>
</defs>
</svg>
