<svg width="181" height="57" viewBox="0 0 181 57" fill="none" xmlns="http://www.w3.org/2000/svg">
<rect x="0.5" y="0.5" width="153" height="56" rx="11.5" fill="#FFF8FE" stroke="url(#paint0_linear_506_299)"/>
<path d="M121.378 31.8232C121.378 32.8162 121.303 33.8013 121.153 34.7785C121.011 35.7558 120.759 36.6779 120.397 37.5448C120.034 38.4038 119.526 39.1683 118.872 39.8382C118.218 40.5002 117.386 41.0203 116.377 41.3986C115.369 41.7769 114.147 41.966 112.713 41.966C112.374 41.966 111.976 41.9503 111.519 41.9188C111.062 41.8951 110.683 41.8557 110.384 41.8005V38.8688C110.699 38.9476 111.034 39.0107 111.389 39.0579C111.743 39.0973 112.102 39.117 112.464 39.117C113.907 39.117 115.018 38.8885 115.798 38.4314C116.586 37.9743 117.138 37.3399 117.453 36.5281C117.776 35.7164 117.961 34.7785 118.009 33.7146H117.867C117.638 34.0929 117.366 34.4357 117.051 34.7431C116.744 35.0426 116.35 35.2829 115.869 35.4642C115.388 35.6376 114.778 35.7243 114.037 35.7243C113.052 35.7243 112.193 35.5115 111.46 35.0859C110.735 34.6524 110.171 34.0298 109.769 33.2181C109.375 32.3985 109.178 31.4094 109.178 30.2509C109.178 28.9978 109.414 27.926 109.887 27.0354C110.368 26.137 111.05 25.4474 111.932 24.9667C112.815 24.4859 113.855 24.2455 115.053 24.2455C115.936 24.2455 116.76 24.3992 117.524 24.7066C118.289 25.0061 118.958 25.4671 119.534 26.0897C120.117 26.7123 120.57 27.5004 120.893 28.454C121.216 29.4076 121.378 30.5307 121.378 31.8232ZM115.124 27.1773C114.415 27.1773 113.836 27.4216 113.387 27.9102C112.937 28.3988 112.713 29.1633 112.713 30.2036C112.713 31.039 112.906 31.701 113.292 32.1896C113.678 32.6782 114.265 32.9226 115.053 32.9226C115.597 32.9226 116.07 32.8043 116.472 32.5679C116.874 32.3236 117.185 32.0202 117.406 31.6577C117.634 31.2872 117.749 30.909 117.749 30.5228C117.749 30.1209 117.693 29.7229 117.583 29.3288C117.473 28.9348 117.307 28.5762 117.087 28.253C116.866 27.9299 116.59 27.6699 116.259 27.4728C115.936 27.2758 115.558 27.1773 115.124 27.1773Z" fill="#6A10B3"/>
<path d="M107.523 31.8232C107.523 32.8162 107.448 33.8013 107.298 34.7785C107.157 35.7558 106.904 36.6779 106.542 37.5448C106.179 38.4038 105.671 39.1683 105.017 39.8382C104.363 40.5002 103.531 41.0203 102.523 41.3986C101.514 41.7769 100.292 41.966 98.8578 41.966C98.5189 41.966 98.1209 41.9503 97.6638 41.9188C97.2067 41.8951 96.8285 41.8557 96.529 41.8005V38.8688C96.8442 38.9476 97.1792 39.0107 97.5338 39.0579C97.8885 39.0973 98.247 39.117 98.6096 39.117C100.052 39.117 101.163 38.8885 101.943 38.4314C102.731 37.9743 103.283 37.3399 103.598 36.5281C103.921 35.7164 104.107 34.7785 104.154 33.7146H104.012C103.783 34.0929 103.512 34.4357 103.196 34.7431C102.889 35.0426 102.495 35.2829 102.014 35.4642C101.533 35.6376 100.923 35.7243 100.182 35.7243C99.1967 35.7243 98.3377 35.5115 97.6047 35.0859C96.8797 34.6524 96.3162 34.0298 95.9143 33.2181C95.5202 32.3985 95.3232 31.4094 95.3232 30.2509C95.3232 28.9978 95.5596 27.926 96.0325 27.0354C96.5132 26.137 97.1949 25.4474 98.0776 24.9667C98.9603 24.4859 100.001 24.2455 101.198 24.2455C102.081 24.2455 102.905 24.3992 103.669 24.7066C104.434 25.0061 105.104 25.4671 105.679 26.0897C106.262 26.7123 106.715 27.5004 107.038 28.454C107.361 29.4076 107.523 30.5307 107.523 31.8232ZM101.269 27.1773C100.56 27.1773 99.9809 27.4216 99.5317 27.9102C99.0824 28.3988 98.8578 29.1633 98.8578 30.2036C98.8578 31.039 99.0509 31.701 99.4371 32.1896C99.8232 32.6782 100.41 32.9226 101.198 32.9226C101.742 32.9226 102.215 32.8043 102.617 32.5679C103.019 32.3236 103.33 32.0202 103.551 31.6577C103.78 31.2872 103.894 30.909 103.894 30.5228C103.894 30.1209 103.839 29.7229 103.728 29.3288C103.618 28.9348 103.452 28.5762 103.232 28.253C103.011 27.9299 102.735 27.6699 102.404 27.4728C102.081 27.2758 101.703 27.1773 101.269 27.1773Z" fill="#6A10B3"/>
<path d="M93.6682 31.8232C93.6682 32.8162 93.5933 33.8013 93.4435 34.7785C93.3017 35.7558 93.0495 36.6779 92.687 37.5448C92.3244 38.4038 91.8161 39.1683 91.162 39.8382C90.5079 40.5002 89.6764 41.0203 88.6676 41.3986C87.6589 41.7769 86.4373 41.966 85.003 41.966C84.6641 41.966 84.2661 41.9503 83.809 41.9188C83.3519 41.8951 82.9736 41.8557 82.6741 41.8005V38.8688C82.9894 38.9476 83.3243 39.0107 83.679 39.0579C84.0336 39.0973 84.3922 39.117 84.7547 39.117C86.1969 39.117 87.3082 38.8885 88.0884 38.4314C88.8765 37.9743 89.4282 37.3399 89.7434 36.5281C90.0665 35.7164 90.2517 34.7785 90.299 33.7146H90.1572C89.9286 34.0929 89.6567 34.4357 89.3415 34.7431C89.0341 35.0426 88.6401 35.2829 88.1593 35.4642C87.6786 35.6376 87.0678 35.7243 86.327 35.7243C85.3418 35.7243 84.4828 35.5115 83.7499 35.0859C83.0248 34.6524 82.4613 34.0298 82.0594 33.2181C81.6653 32.3985 81.4683 31.4094 81.4683 30.2509C81.4683 28.9978 81.7048 27.926 82.1776 27.0354C82.6584 26.137 83.3401 25.4474 84.2227 24.9667C85.1054 24.4859 86.1457 24.2455 87.3436 24.2455C88.2263 24.2455 89.0499 24.3992 89.8143 24.7066C90.5788 25.0061 91.2487 25.4671 91.824 26.0897C92.4072 26.7123 92.8604 27.5004 93.1835 28.454C93.5066 29.4076 93.6682 30.5307 93.6682 31.8232ZM87.4146 27.1773C86.7053 27.1773 86.126 27.4216 85.6768 27.9102C85.2276 28.3988 85.003 29.1633 85.003 30.2036C85.003 31.039 85.1961 31.701 85.5822 32.1896C85.9684 32.6782 86.5555 32.9226 87.3436 32.9226C87.8874 32.9226 88.3603 32.8043 88.7622 32.5679C89.1641 32.3236 89.4755 32.0202 89.6961 31.6577C89.9247 31.2872 90.0389 30.909 90.0389 30.5228C90.0389 30.1209 89.9838 29.7229 89.8734 29.3288C89.7631 28.9348 89.5976 28.5762 89.3769 28.253C89.1563 27.9299 88.8804 27.6699 88.5494 27.4728C88.2263 27.2758 87.848 27.1773 87.4146 27.1773Z" fill="#6A10B3"/>
<path d="M79.0331 38.9163L79.2104 39.1882C79.0686 39.7556 78.8834 40.3664 78.6548 41.0205C78.4342 41.6746 78.1899 42.3287 77.9219 42.9829C77.6618 43.637 77.3978 44.2596 77.1299 44.8507H74.5291C74.6867 44.2123 74.8404 43.5424 74.9902 42.841C75.1399 42.1396 75.2778 41.45 75.4039 40.7722C75.5379 40.0945 75.6443 39.4758 75.7231 38.9163H79.0331Z" fill="#6A10B3"/>
<path d="M72.9096 31.8232C72.9096 32.8162 72.8347 33.8013 72.6849 34.7785C72.5431 35.7558 72.2909 36.6779 71.9284 37.5448C71.5658 38.4038 71.0575 39.1683 70.4034 39.8382C69.7493 40.5002 68.9178 41.0203 67.909 41.3986C66.9003 41.7769 65.6787 41.966 64.2444 41.966C63.9055 41.966 63.5075 41.9503 63.0504 41.9188C62.5933 41.8951 62.215 41.8557 61.9155 41.8005V38.8688C62.2308 38.9476 62.5657 39.0107 62.9203 39.0579C63.275 39.0973 63.6336 39.117 63.9961 39.117C65.4383 39.117 66.5496 38.8885 67.3298 38.4314C68.1179 37.9743 68.6696 37.3399 68.9848 36.5281C69.3079 35.7164 69.4931 34.7785 69.5404 33.7146H69.3986C69.17 34.0929 68.8981 34.4357 68.5829 34.7431C68.2755 35.0426 67.8815 35.2829 67.4007 35.4642C66.92 35.6376 66.3092 35.7243 65.5684 35.7243C64.5832 35.7243 63.7242 35.5115 62.9913 35.0859C62.2662 34.6524 61.7027 34.0298 61.3008 33.2181C60.9067 32.3985 60.7097 31.4094 60.7097 30.2509C60.7097 28.9978 60.9461 27.926 61.419 27.0354C61.8998 26.137 62.5815 25.4474 63.4641 24.9667C64.3468 24.4859 65.3871 24.2455 66.585 24.2455C67.4677 24.2455 68.2913 24.3992 69.0557 24.7066C69.8202 25.0061 70.4901 25.4671 71.0654 26.0897C71.6486 26.7123 72.1017 27.5004 72.4249 28.454C72.748 29.4076 72.9096 30.5307 72.9096 31.8232ZM66.656 27.1773C65.9467 27.1773 65.3674 27.4216 64.9182 27.9102C64.469 28.3988 64.2444 29.1633 64.2444 30.2036C64.2444 31.039 64.4374 31.701 64.8236 32.1896C65.2098 32.6782 65.7969 32.9226 66.585 32.9226C67.1288 32.9226 67.6017 32.8043 68.0036 32.5679C68.4055 32.3236 68.7168 32.0202 68.9375 31.6577C69.1661 31.2872 69.2803 30.909 69.2803 30.5228C69.2803 30.1209 69.2252 29.7229 69.1148 29.3288C69.0045 28.9348 68.839 28.5762 68.6183 28.253C68.3977 27.9299 68.1218 27.6699 67.7908 27.4728C67.4677 27.2758 67.0894 27.1773 66.656 27.1773Z" fill="#6A10B3"/>
<path d="M59.0547 31.8232C59.0547 32.8162 58.9798 33.8013 58.8301 34.7785C58.6882 35.7558 58.436 36.6779 58.0735 37.5448C57.711 38.4038 57.2027 39.1683 56.5485 39.8382C55.8944 40.5002 55.063 41.0203 54.0542 41.3986C53.0454 41.7769 51.8238 41.966 50.3895 41.966C50.0506 41.966 49.6526 41.9503 49.1955 41.9188C48.7384 41.8951 48.3601 41.8557 48.0607 41.8005V38.8688C48.3759 38.9476 48.7108 39.0107 49.0655 39.0579C49.4201 39.0973 49.7787 39.117 50.1412 39.117C51.5835 39.117 52.6947 38.8885 53.4749 38.4314C54.263 37.9743 54.8147 37.3399 55.1299 36.5281C55.4531 35.7164 55.6383 34.7785 55.6856 33.7146H55.5437C55.3151 34.0929 55.0432 34.4357 54.728 34.7431C54.4206 35.0426 54.0266 35.2829 53.5459 35.4642C53.0651 35.6376 52.4543 35.7243 51.7135 35.7243C50.7284 35.7243 49.8694 35.5115 49.1364 35.0859C48.4114 34.6524 47.8479 34.0298 47.4459 33.2181C47.0519 32.3985 46.8549 31.4094 46.8549 30.2509C46.8549 28.9978 47.0913 27.926 47.5642 27.0354C48.0449 26.137 48.7266 25.4474 49.6093 24.9667C50.492 24.4859 51.5323 24.2455 52.7302 24.2455C53.6128 24.2455 54.4364 24.3992 55.2009 24.7066C55.9653 25.0061 56.6352 25.4671 57.2105 26.0897C57.7937 26.7123 58.2469 27.5004 58.57 28.454C58.8931 29.4076 59.0547 30.5307 59.0547 31.8232ZM52.8011 27.1773C52.0918 27.1773 51.5125 27.4216 51.0633 27.9102C50.6141 28.3988 50.3895 29.1633 50.3895 30.2036C50.3895 31.039 50.5826 31.701 50.9688 32.1896C51.3549 32.6782 51.9421 32.9226 52.7302 32.9226C53.274 32.9226 53.7468 32.8043 54.1488 32.5679C54.5507 32.3236 54.862 32.0202 55.0827 31.6577C55.3112 31.2872 55.4255 30.909 55.4255 30.5228C55.4255 30.1209 55.3703 29.7229 55.26 29.3288C55.1496 28.9348 54.9841 28.5762 54.7635 28.253C54.5428 27.9299 54.267 27.6699 53.936 27.4728C53.6128 27.2758 53.2346 27.1773 52.8011 27.1773Z" fill="#6A10B3"/>
<path d="M45.1998 31.8232C45.1998 32.8162 45.125 33.8014 44.9752 34.7786C44.8334 35.7559 44.5812 36.6779 44.2186 37.5448C43.8561 38.4039 43.3478 39.1683 42.6937 39.8382C42.0395 40.5002 41.2081 41.0204 40.1993 41.3987C39.1905 41.777 37.969 41.9661 36.5346 41.9661C36.1958 41.9661 35.7978 41.9503 35.3407 41.9188C34.8836 41.8952 34.5053 41.8558 34.2058 41.8006V38.8689C34.521 38.9477 34.856 39.0107 35.2106 39.058C35.5653 39.0974 35.9239 39.1171 36.2864 39.1171C37.7286 39.1171 38.8398 38.8886 39.6201 38.4315C40.4082 37.9744 40.9598 37.3399 41.2751 36.5282C41.5982 35.7164 41.7834 34.7786 41.8307 33.7147H41.6888C41.4603 34.093 41.1884 34.4358 40.8731 34.7431C40.5658 35.0426 40.1717 35.283 39.691 35.4643C39.2103 35.6376 38.5995 35.7243 37.8587 35.7243C36.8735 35.7243 36.0145 35.5115 35.2816 35.086C34.5565 34.6525 33.993 34.0299 33.5911 33.2182C33.197 32.3985 33 31.4095 33 30.251C33 28.9979 33.2364 27.926 33.7093 27.0355C34.19 26.1371 34.8717 25.4475 35.7544 24.9667C36.6371 24.486 37.6774 24.2456 38.8753 24.2456C39.758 24.2456 40.5816 24.3993 41.346 24.7066C42.1105 25.0061 42.7804 25.4672 43.3557 26.0898C43.9389 26.7124 44.392 27.5005 44.7152 28.4541C45.0383 29.4077 45.1998 30.5307 45.1998 31.8232ZM38.9462 27.1773C38.2369 27.1773 37.6577 27.4217 37.2085 27.9103C36.7593 28.3989 36.5346 29.1634 36.5346 30.2037C36.5346 31.0391 36.7277 31.7011 37.1139 32.1897C37.5001 32.6783 38.0872 32.9226 38.8753 32.9226C39.4191 32.9226 39.892 32.8044 40.2939 32.568C40.6958 32.3237 41.0071 32.0202 41.2278 31.6577C41.4563 31.2873 41.5706 30.909 41.5706 30.5228C41.5706 30.1209 41.5155 29.7229 41.4051 29.3289C41.2948 28.9348 41.1293 28.5762 40.9086 28.2531C40.6879 27.93 40.4121 27.6699 40.0811 27.4729C39.758 27.2759 39.3797 27.1773 38.9462 27.1773Z" fill="#6A10B3"/>
<path d="M102.601 15.5395C102.687 15.5395 102.775 15.5321 102.865 15.5174C102.956 15.5027 103.029 15.4848 103.086 15.4638V15.8705C103.025 15.8978 102.94 15.9209 102.831 15.9398C102.724 15.9588 102.618 15.9682 102.516 15.9682C102.333 15.9682 102.167 15.9367 102.017 15.8736C101.868 15.8085 101.748 15.6992 101.658 15.5458C101.57 15.3924 101.526 15.1801 101.526 14.909V12.8599H101.034V12.6046L101.529 12.3997L101.737 11.6494H102.052V12.4501H103.064V12.8599H102.052V14.8932C102.052 15.1097 102.101 15.2715 102.2 15.3787C102.301 15.4859 102.435 15.5395 102.601 15.5395Z" fill="#A77EC9"/>
<path d="M99.1613 12.387C99.5711 12.387 99.8811 12.4879 100.091 12.6897C100.301 12.8893 100.407 13.2109 100.407 13.6543V15.9051H99.8895V13.689C99.8895 13.401 99.8233 13.1856 99.6909 13.0427C99.5606 12.8998 99.3599 12.8284 99.0888 12.8284C98.7063 12.8284 98.4373 12.9366 98.2818 13.1531C98.1263 13.3695 98.0485 13.6837 98.0485 14.0956V15.9051H97.5252V12.4501H97.9476L98.0264 12.9482H98.0548C98.1284 12.8263 98.2219 12.7243 98.3354 12.6424C98.4489 12.5583 98.576 12.4953 98.7168 12.4532C98.8576 12.4091 99.0058 12.387 99.1613 12.387Z" fill="#A77EC9"/>
<path d="M96.4187 12.4502V15.9052H95.99L95.9143 15.4198H95.886C95.8145 15.5396 95.722 15.6404 95.6085 15.7224C95.4951 15.8044 95.3669 15.8653 95.224 15.9052C95.0831 15.9473 94.9329 15.9683 94.7732 15.9683C94.4999 15.9683 94.2709 15.9242 94.0859 15.8359C93.901 15.7476 93.7612 15.611 93.6667 15.4261C93.5742 15.2411 93.528 15.0036 93.528 14.7136V12.4502H94.0576V14.6758C94.0576 14.9637 94.1227 15.1791 94.253 15.322C94.3833 15.4629 94.5819 15.5333 94.8488 15.5333C95.1052 15.5333 95.3091 15.4849 95.4604 15.3882C95.6138 15.2916 95.7241 15.1497 95.7914 14.9627C95.8586 14.7735 95.8923 14.5423 95.8923 14.2691V12.4502H96.4187Z" fill="#A77EC9"/>
<path d="M92.6611 14.1713C92.6611 14.455 92.6243 14.7083 92.5507 14.931C92.4772 15.1538 92.3711 15.3419 92.2323 15.4953C92.0936 15.6487 91.9255 15.7664 91.728 15.8484C91.5325 15.9282 91.3108 15.9682 91.0628 15.9682C90.8316 15.9682 90.6194 15.9282 90.426 15.8484C90.2348 15.7664 90.0687 15.6487 89.9279 15.4953C89.7892 15.3419 89.681 15.1538 89.6032 14.931C89.5276 14.7083 89.4897 14.455 89.4897 14.1713C89.4897 13.793 89.5538 13.4715 89.682 13.2067C89.8102 12.9397 89.9931 12.7369 90.2306 12.5982C90.4701 12.4574 90.7549 12.387 91.0849 12.387C91.4001 12.387 91.6754 12.4574 91.9108 12.5982C92.1483 12.739 92.3322 12.9429 92.4625 13.2098C92.5949 13.4746 92.6611 13.7951 92.6611 14.1713ZM90.032 14.1713C90.032 14.4487 90.0687 14.6893 90.1423 14.8932C90.2159 15.097 90.3293 15.2547 90.4828 15.3661C90.6362 15.4774 90.8337 15.5331 91.0754 15.5331C91.315 15.5331 91.5115 15.4774 91.6649 15.3661C91.8204 15.2547 91.935 15.097 92.0085 14.8932C92.0821 14.6893 92.1189 14.4487 92.1189 14.1713C92.1189 13.896 92.0821 13.6585 92.0085 13.4588C91.935 13.2571 91.8215 13.1016 91.6681 12.9923C91.5146 12.883 91.316 12.8284 91.0723 12.8284C90.7129 12.8284 90.4491 12.9471 90.281 13.1846C90.115 13.4221 90.032 13.751 90.032 14.1713Z" fill="#A77EC9"/>
<path d="M87.4564 12.387C87.8368 12.387 88.1236 12.4869 88.317 12.6865C88.5103 12.8841 88.607 13.2024 88.607 13.6417V15.9051H88.09V13.6669C88.09 13.3874 88.0291 13.1783 87.9072 13.0396C87.7874 12.8988 87.6088 12.8284 87.3713 12.8284C87.0371 12.8284 86.7944 12.925 86.6431 13.1184C86.4917 13.3117 86.4161 13.5965 86.4161 13.9727V15.9051H85.8959V13.6669C85.8959 13.4799 85.8686 13.3243 85.814 13.2003C85.7614 13.0764 85.6816 12.9839 85.5744 12.9229C85.4693 12.8599 85.3359 12.8284 85.174 12.8284C84.945 12.8284 84.7611 12.8756 84.6224 12.9702C84.4837 13.0648 84.3828 13.2056 84.3197 13.3926C84.2588 13.5776 84.2283 13.8056 84.2283 14.0767V15.9051H83.705V12.4501H84.1274L84.2063 12.9387H84.2346C84.304 12.8189 84.3912 12.718 84.4963 12.6361C84.6014 12.5541 84.719 12.4921 84.8493 12.4501C84.9796 12.408 85.1183 12.387 85.2655 12.387C85.5282 12.387 85.7478 12.4364 85.9243 12.5352C86.103 12.6319 86.2322 12.78 86.3121 12.9797H86.3404C86.4539 12.78 86.6094 12.6319 86.807 12.5352C87.0045 12.4364 87.221 12.387 87.4564 12.387Z" fill="#A77EC9"/>
<path d="M81.4101 12.3934C81.822 12.3934 82.1278 12.4858 82.3274 12.6708C82.5271 12.8557 82.6269 13.151 82.6269 13.5566V15.9052H82.2455L82.1446 15.3945H82.1194C82.0227 15.5206 81.9218 15.6267 81.8167 15.7129C81.7117 15.7969 81.5898 15.861 81.4511 15.9052C81.3145 15.9472 81.1463 15.9682 80.9467 15.9682C80.7365 15.9682 80.5495 15.9314 80.3855 15.8579C80.2237 15.7843 80.0955 15.6729 80.0009 15.5237C79.9085 15.3745 79.8622 15.1854 79.8622 14.9563C79.8622 14.6116 79.9988 14.3468 80.2721 14.1619C80.5453 13.9769 80.9614 13.8761 81.5204 13.8592L82.1162 13.834V13.6228C82.1162 13.3244 82.0521 13.1153 81.9239 12.9955C81.7957 12.8757 81.615 12.8158 81.3817 12.8158C81.201 12.8158 81.0286 12.8421 80.8647 12.8946C80.7008 12.9471 80.5453 13.0091 80.3982 13.0806L80.2374 12.6834C80.3929 12.6035 80.5715 12.5352 80.7733 12.4785C80.975 12.4217 81.1873 12.3934 81.4101 12.3934ZM82.1099 14.2029L81.5835 14.2249C81.1526 14.2417 80.8489 14.3121 80.6724 14.4361C80.4959 14.5601 80.4076 14.7356 80.4076 14.9626C80.4076 15.1601 80.4675 15.3062 80.5873 15.4008C80.7071 15.4953 80.8658 15.5426 81.0633 15.5426C81.3701 15.5426 81.6213 15.4575 81.8167 15.2873C82.0122 15.1171 82.1099 14.8617 82.1099 14.5212V14.2029Z" fill="#A77EC9"/>
<path d="M77.5988 14.9594C77.5988 15.1801 77.5431 15.3661 77.4317 15.5174C77.3225 15.6666 77.1648 15.779 76.9589 15.8547C76.755 15.9303 76.5112 15.9682 76.2275 15.9682C75.9858 15.9682 75.7767 15.9492 75.6002 15.9114C75.4236 15.8736 75.2692 15.82 75.1368 15.7506V15.2683C75.2776 15.3377 75.4457 15.4007 75.6412 15.4575C75.8366 15.5142 76.0363 15.5426 76.2401 15.5426C76.5386 15.5426 76.755 15.4943 76.8895 15.3976C77.024 15.3009 77.0913 15.1696 77.0913 15.0035C77.0913 14.909 77.064 14.8259 77.0093 14.7545C76.9568 14.6809 76.8675 14.6105 76.7414 14.5433C76.6153 14.4739 76.4408 14.3983 76.2181 14.3163C75.9974 14.2322 75.8061 14.1492 75.6443 14.0673C75.4846 13.9832 75.3606 13.8813 75.2723 13.7615C75.1862 13.6417 75.1431 13.4862 75.1431 13.2949C75.1431 13.0028 75.2608 12.779 75.4962 12.6235C75.7336 12.4658 76.0447 12.387 76.4293 12.387C76.6373 12.387 76.8317 12.408 77.0125 12.4501C77.1953 12.49 77.3655 12.5446 77.5232 12.614L77.3466 13.0333C77.2037 12.9723 77.0513 12.9208 76.8895 12.8788C76.7277 12.8368 76.5627 12.8158 76.3946 12.8158C76.1529 12.8158 75.9669 12.8557 75.8366 12.9355C75.7084 13.0154 75.6443 13.1247 75.6443 13.2634C75.6443 13.3706 75.6737 13.4588 75.7326 13.5282C75.7935 13.5976 75.8902 13.6627 76.0226 13.7236C76.155 13.7846 76.3294 13.856 76.5459 13.938C76.7624 14.0179 76.9494 14.1009 77.107 14.1871C77.2647 14.2711 77.3855 14.3741 77.4696 14.496C77.5557 14.6158 77.5988 14.7702 77.5988 14.9594Z" fill="#A77EC9"/>
<path d="M74.2919 12.387C74.3613 12.387 74.4338 12.3912 74.5095 12.3996C74.5851 12.4059 74.6524 12.4154 74.7112 12.428L74.645 12.9135C74.5883 12.8988 74.5252 12.8872 74.4559 12.8788C74.3865 12.8704 74.3214 12.8662 74.2604 12.8662C74.1217 12.8662 73.9904 12.8946 73.8664 12.9513C73.7445 13.0059 73.6373 13.0858 73.5448 13.1909C73.4524 13.2939 73.3798 13.4189 73.3273 13.566C73.2748 13.711 73.2485 13.8729 73.2485 14.0515V15.9051H72.722V12.4501H73.1571L73.2138 13.0869H73.2359C73.3073 12.9587 73.3935 12.842 73.4944 12.7369C73.5953 12.6298 73.7119 12.5446 73.8443 12.4816C73.9788 12.4185 74.128 12.387 74.2919 12.387Z" fill="#A77EC9"/>
<path d="M70.4271 12.387C70.7213 12.387 70.9735 12.4522 71.1837 12.5825C71.3938 12.7128 71.5546 12.8956 71.666 13.131C71.7774 13.3643 71.8331 13.6375 71.8331 13.9506V14.2753H69.4467C69.453 14.6809 69.5539 14.9899 69.7493 15.2021C69.9448 15.4144 70.2201 15.5205 70.5753 15.5205C70.7938 15.5205 70.9872 15.5006 71.1553 15.4606C71.3234 15.4207 71.4979 15.3619 71.6786 15.2841V15.7443C71.5042 15.8221 71.3308 15.8788 71.1585 15.9146C70.9882 15.9503 70.7865 15.9682 70.5532 15.9682C70.2211 15.9682 69.9311 15.9009 69.6831 15.7664C69.4372 15.6298 69.246 15.4302 69.1094 15.1675C68.9728 14.9048 68.9045 14.5832 68.9045 14.2028C68.9045 13.8308 68.9665 13.5093 69.0905 13.2382C69.2166 12.965 69.3931 12.7548 69.6201 12.6077C69.8492 12.4606 70.1182 12.387 70.4271 12.387ZM70.4208 12.8158C70.1413 12.8158 69.9185 12.9072 69.7525 13.09C69.5865 13.2729 69.4877 13.5282 69.4562 13.856H71.2846C71.2824 13.6501 71.2499 13.4694 71.1868 13.3138C71.1259 13.1562 71.0324 13.0343 70.9063 12.9482C70.7802 12.8599 70.6183 12.8158 70.4208 12.8158Z" fill="#A77EC9"/>
<path d="M66.9027 15.899L66.288 13.8877C66.2607 13.8015 66.2344 13.7175 66.2092 13.6355C66.1861 13.5515 66.164 13.4716 66.143 13.3959C66.1241 13.3182 66.1062 13.2467 66.0894 13.1816C66.0747 13.1143 66.0621 13.0565 66.0516 13.0082H66.0295C66.0211 13.0565 66.0095 13.1143 65.9948 13.1816C65.9801 13.2467 65.9622 13.3182 65.9412 13.3959C65.9223 13.4737 65.9013 13.5557 65.8782 13.6418C65.8551 13.7259 65.8288 13.811 65.7994 13.8972L65.1563 15.899H64.5668L63.6147 12.4439H64.157L64.655 14.3511C64.6887 14.4772 64.7202 14.6023 64.7496 14.7263C64.7811 14.8481 64.8074 14.9637 64.8284 15.073C64.8515 15.1802 64.8684 15.2737 64.8789 15.3536H64.9041C64.9167 15.301 64.9304 15.238 64.9451 15.1644C64.9619 15.0909 64.9797 15.0131 64.9987 14.9312C65.0197 14.8471 65.0417 14.7641 65.0649 14.6821C65.088 14.5981 65.1111 14.5192 65.1342 14.4457L65.771 12.4439H66.3353L66.95 14.4425C66.9815 14.5434 67.012 14.6485 67.0414 14.7578C67.0729 14.8671 67.1013 14.9732 67.1265 15.0762C67.1518 15.1771 67.1696 15.2674 67.1801 15.3473H67.2053C67.2138 15.2758 67.2295 15.1876 67.2526 15.0825C67.2757 14.9774 67.302 14.8618 67.3314 14.7357C67.363 14.6096 67.3955 14.4814 67.4292 14.3511L67.9336 12.4439H68.4663L67.5111 15.899H66.9027Z" fill="#A77EC9"/>
<path d="M63.186 14.1713C63.186 14.455 63.1492 14.7083 63.0756 14.931C63.0021 15.1538 62.896 15.3419 62.7572 15.4953C62.6185 15.6487 62.4504 15.7664 62.2529 15.8484C62.0574 15.9282 61.8357 15.9682 61.5877 15.9682C61.3565 15.9682 61.1443 15.9282 60.9509 15.8484C60.7597 15.7664 60.5936 15.6487 60.4528 15.4953C60.3141 15.3419 60.2059 15.1538 60.1281 14.931C60.0525 14.7083 60.0146 14.455 60.0146 14.1713C60.0146 13.793 60.0787 13.4715 60.2069 13.2067C60.3351 12.9397 60.518 12.7369 60.7555 12.5982C60.995 12.4574 61.2798 12.387 61.6098 12.387C61.925 12.387 62.2003 12.4574 62.4357 12.5982C62.6732 12.739 62.8571 12.9429 62.9874 13.2098C63.1198 13.4746 63.186 13.7951 63.186 14.1713ZM60.5569 14.1713C60.5569 14.4487 60.5936 14.6893 60.6672 14.8932C60.7408 15.097 60.8542 15.2547 61.0077 15.3661C61.1611 15.4774 61.3586 15.5331 61.6003 15.5331C61.8399 15.5331 62.0364 15.4774 62.1898 15.3661C62.3453 15.2547 62.4599 15.097 62.5334 14.8932C62.607 14.6893 62.6438 14.4487 62.6438 14.1713C62.6438 13.896 62.607 13.6585 62.5334 13.4588C62.4599 13.2571 62.3464 13.1016 62.193 12.9923C62.0395 12.883 61.8409 12.8284 61.5972 12.8284C61.2378 12.8284 60.974 12.9471 60.8059 13.1846C60.6399 13.4221 60.5569 13.751 60.5569 14.1713Z" fill="#A77EC9"/>
<path d="M59.1005 15.9052H58.574V11H59.1005V15.9052Z" fill="#A77EC9"/>
<path d="M57.4676 15.9052H56.9411V11H57.4676V15.9052Z" fill="#A77EC9"/>
<path d="M56.0363 14.1713C56.0363 14.455 55.9995 14.7083 55.926 14.931C55.8524 15.1538 55.7463 15.3419 55.6076 15.4953C55.4689 15.6487 55.3008 15.7664 55.1032 15.8484C54.9078 15.9282 54.686 15.9682 54.438 15.9682C54.2069 15.9682 53.9946 15.9282 53.8013 15.8484C53.61 15.7664 53.444 15.6487 53.3032 15.4953C53.1645 15.3419 53.0562 15.1538 52.9785 14.931C52.9028 14.7083 52.865 14.455 52.865 14.1713C52.865 13.793 52.9291 13.4715 53.0573 13.2067C53.1855 12.9397 53.3683 12.7369 53.6058 12.5982C53.8454 12.4574 54.1302 12.387 54.4601 12.387C54.7754 12.387 55.0507 12.4574 55.286 12.5982C55.5235 12.739 55.7074 12.9429 55.8377 13.2098C55.9701 13.4746 56.0363 13.7951 56.0363 14.1713ZM53.4072 14.1713C53.4072 14.4487 53.444 14.6893 53.5175 14.8932C53.5911 15.097 53.7046 15.2547 53.858 15.3661C54.0114 15.4774 54.209 15.5331 54.4507 15.5331C54.6902 15.5331 54.8867 15.4774 55.0402 15.3661C55.1957 15.2547 55.3102 15.097 55.3838 14.8932C55.4573 14.6893 55.4941 14.4487 55.4941 14.1713C55.4941 13.896 55.4573 13.6585 55.3838 13.4588C55.3102 13.2571 55.1967 13.1016 55.0433 12.9923C54.8899 12.883 54.6913 12.8284 54.4475 12.8284C54.0881 12.8284 53.8244 12.9471 53.6562 13.1846C53.4902 13.4221 53.4072 13.751 53.4072 14.1713Z" fill="#A77EC9"/>
<path d="M50.3368 15.9051H49.8008V11.2963H52.3669V11.7691H50.3368V13.4588H52.244V13.9285H50.3368V15.9051Z" fill="#A77EC9"/>
<circle cx="154.5" cy="28.5" r="26" fill="white" stroke="url(#paint1_linear_506_299)"/>
<path d="M154.528 14C149.765 14 146.68 15.9162 144.258 19.3336C143.818 19.9535 143.954 20.8034 144.567 21.2598L147.141 23.1763C147.76 23.6371 148.641 23.5294 149.125 22.9333C150.62 21.0945 151.729 20.0359 154.064 20.0359C155.9 20.0359 158.17 21.196 158.17 22.9439C158.17 24.2653 157.059 24.944 155.247 25.9418C153.133 27.1055 150.336 28.5537 150.336 32.1765V32.75C150.336 33.5267 150.977 34.1562 151.768 34.1562H156.092C156.883 34.1562 157.525 33.5267 157.525 32.75V32.4117C157.525 29.9004 165 29.7958 165 23C165 17.8822 159.593 14 154.528 14ZM153.93 35.8824C151.651 35.8824 149.796 37.7032 149.796 39.9412C149.796 42.1792 151.651 44 153.93 44C156.209 44 158.064 42.1792 158.064 39.9412C158.064 37.7031 156.209 35.8824 153.93 35.8824Z" fill="url(#paint2_linear_506_299)"/>
<defs>
<linearGradient id="paint0_linear_506_299" x1="-24.8115" y1="-7.50044" x2="113.73" y2="90.0196" gradientUnits="userSpaceOnUse">
<stop stop-color="#C43B56"/>
<stop offset="0.3395" stop-color="#982684"/>
<stop offset="0.726" stop-color="#6A10B3"/>
<stop offset="0.9195" stop-color="#5908C5"/>
</linearGradient>
<linearGradient id="paint1_linear_506_299" x1="119.461" y1="-4.97409" x2="186.233" y2="12.4224" gradientUnits="userSpaceOnUse">
<stop stop-color="#C43B56"/>
<stop offset="0.3395" stop-color="#982684"/>
<stop offset="0.726" stop-color="#6A10B3"/>
<stop offset="0.9195" stop-color="#5908C5"/>
</linearGradient>
<linearGradient id="paint2_linear_506_299" x1="140.617" y1="10.0524" x2="167.96" y2="15.0391" gradientUnits="userSpaceOnUse">
<stop stop-color="#C43B56"/>
<stop offset="0.3395" stop-color="#982684"/>
<stop offset="0.726" stop-color="#6A10B3"/>
<stop offset="0.9195" stop-color="#5908C5"/>
</linearGradient>
</defs>
</svg>
