<svg width="140" height="113" viewBox="0 0 140 113" fill="none" xmlns="http://www.w3.org/2000/svg">
<rect x="0.5" y="0.5" width="112" height="112" rx="14.5" fill="#FFF8FE" stroke="url(#paint0_linear_425_36)"/>
<path d="M18 46L91 46" stroke="#F6ECFF" stroke-width="12" stroke-linecap="round"/>
<path d="M19 63L92 63" stroke="#6A10B3" stroke-width="12" stroke-linecap="round"/>
<path d="M15 16H61" stroke="#6A10B3" stroke-width="3" stroke-linecap="round"/>
<path d="M15 27H79" stroke="#6A10B3" stroke-width="3" stroke-linecap="round"/>
<circle cx="113.5" cy="48.5" r="26" fill="white" stroke="url(#paint1_linear_425_36)"/>
<path fill-rule="evenodd" clip-rule="evenodd" d="M120 35C118.895 35 118 35.8954 118 37V53.6957C118 54.8002 118.895 55.6957 120 55.6957H124.522C125.626 55.6957 126.522 54.8002 126.522 53.6957V37C126.522 35.8954 125.626 35 124.522 35H120ZM109 43C109 41.8954 109.895 41 111 41H115C116.105 41 117 41.8954 117 43V54C117 55.1046 116.105 56 115 56H111C109.895 56 109 55.1046 109 54V43ZM101 47C99.8954 47 99 47.8954 99 49V54C99 55.1046 99.8954 56 101 56H106C107.105 56 108 55.1046 108 54V49C108 47.8954 107.105 47 106 47H101ZM100.217 56.913C99.545 56.913 99 57.4581 99 58.1304C99 58.8028 99.545 59.3478 100.217 59.3478H125.783C126.455 59.3478 127 58.8028 127 58.1304C127 57.4581 126.455 56.913 125.783 56.913H100.217Z" fill="url(#paint2_linear_425_36)"/>
<rect x="28.5" y="81.5" width="55" height="19" rx="2.5" fill="#FFF8FE" stroke="url(#paint3_linear_425_36)"/>
<path d="M46.7529 91.1357C46.7529 91.4229 46.7313 91.7077 46.688 91.9902C46.647 92.2728 46.5741 92.5394 46.4692 92.79C46.3644 93.0384 46.2174 93.2594 46.0283 93.4531C45.8392 93.6445 45.5988 93.7949 45.3071 93.9043C45.0155 94.0137 44.6623 94.0684 44.2476 94.0684C44.1496 94.0684 44.0345 94.0638 43.9023 94.0547C43.7702 94.0479 43.6608 94.0365 43.5742 94.0205V93.1729C43.6654 93.1956 43.7622 93.2139 43.8647 93.2275C43.9673 93.2389 44.071 93.2446 44.1758 93.2446C44.5928 93.2446 44.9141 93.1785 45.1396 93.0464C45.3675 92.9142 45.527 92.7308 45.6182 92.4961C45.7116 92.2614 45.7651 91.9902 45.7788 91.6826H45.7378C45.6717 91.792 45.5931 91.8911 45.502 91.98C45.4131 92.0666 45.2992 92.1361 45.1602 92.1885C45.0212 92.2386 44.8446 92.2637 44.6304 92.2637C44.3455 92.2637 44.0972 92.2021 43.8853 92.0791C43.6756 91.9538 43.5127 91.7738 43.3965 91.5391C43.2826 91.3021 43.2256 91.0161 43.2256 90.6812C43.2256 90.3188 43.2939 90.009 43.4307 89.7515C43.5697 89.4917 43.7668 89.2923 44.022 89.1533C44.2772 89.0143 44.578 88.9448 44.9243 88.9448C45.1795 88.9448 45.4176 88.9893 45.6387 89.0781C45.8597 89.1647 46.0534 89.298 46.2197 89.478C46.3883 89.658 46.5194 89.8859 46.6128 90.1616C46.7062 90.4373 46.7529 90.762 46.7529 91.1357ZM44.9448 89.7925C44.7397 89.7925 44.5723 89.8631 44.4424 90.0044C44.3125 90.1457 44.2476 90.3667 44.2476 90.6675C44.2476 90.909 44.3034 91.1004 44.415 91.2417C44.5267 91.383 44.6965 91.4536 44.9243 91.4536C45.0815 91.4536 45.2183 91.4194 45.3345 91.3511C45.4507 91.2804 45.5407 91.1927 45.6045 91.0879C45.6706 90.9808 45.7036 90.8714 45.7036 90.7598C45.7036 90.6436 45.6877 90.5285 45.6558 90.4146C45.6239 90.3006 45.576 90.1969 45.5122 90.1035C45.4484 90.0101 45.3687 89.9349 45.2729 89.8779C45.1795 89.821 45.0701 89.7925 44.9448 89.7925ZM50.7588 91.1357C50.7588 91.4229 50.7371 91.7077 50.6938 91.9902C50.6528 92.2728 50.5799 92.5394 50.4751 92.79C50.3703 93.0384 50.2233 93.2594 50.0342 93.4531C49.8451 93.6445 49.6047 93.7949 49.313 93.9043C49.0213 94.0137 48.6681 94.0684 48.2534 94.0684C48.1554 94.0684 48.0404 94.0638 47.9082 94.0547C47.776 94.0479 47.6667 94.0365 47.5801 94.0205V93.1729C47.6712 93.1956 47.7681 93.2139 47.8706 93.2275C47.9731 93.2389 48.0768 93.2446 48.1816 93.2446C48.5986 93.2446 48.9199 93.1785 49.1455 93.0464C49.3734 92.9142 49.5329 92.7308 49.624 92.4961C49.7174 92.2614 49.771 91.9902 49.7847 91.6826H49.7437C49.6776 91.792 49.599 91.8911 49.5078 91.98C49.4189 92.0666 49.305 92.1361 49.166 92.1885C49.027 92.2386 48.8504 92.2637 48.6362 92.2637C48.3514 92.2637 48.103 92.2021 47.8911 92.0791C47.6815 91.9538 47.5186 91.7738 47.4023 91.5391C47.2884 91.3021 47.2314 91.0161 47.2314 90.6812C47.2314 90.3188 47.2998 90.009 47.4365 89.7515C47.5755 89.4917 47.7726 89.2923 48.0278 89.1533C48.283 89.0143 48.5838 88.9448 48.9302 88.9448C49.1854 88.9448 49.4235 88.9893 49.6445 89.0781C49.8656 89.1647 50.0592 89.298 50.2256 89.478C50.3942 89.658 50.5252 89.8859 50.6187 90.1616C50.7121 90.4373 50.7588 90.762 50.7588 91.1357ZM48.9507 89.7925C48.7456 89.7925 48.5781 89.8631 48.4482 90.0044C48.3184 90.1457 48.2534 90.3667 48.2534 90.6675C48.2534 90.909 48.3092 91.1004 48.4209 91.2417C48.5326 91.383 48.7023 91.4536 48.9302 91.4536C49.0874 91.4536 49.2241 91.4194 49.3403 91.3511C49.4565 91.2804 49.5465 91.1927 49.6104 91.0879C49.6764 90.9808 49.7095 90.8714 49.7095 90.7598C49.7095 90.6436 49.6935 90.5285 49.6616 90.4146C49.6297 90.3006 49.5819 90.1969 49.5181 90.1035C49.4543 90.0101 49.3745 89.9349 49.2788 89.8779C49.1854 89.821 49.076 89.7925 48.9507 89.7925ZM54.7646 91.1357C54.7646 91.4229 54.743 91.7077 54.6997 91.9902C54.6587 92.2728 54.5858 92.5394 54.481 92.79C54.3761 93.0384 54.2292 93.2594 54.04 93.4531C53.8509 93.6445 53.6105 93.7949 53.3188 93.9043C53.0272 94.0137 52.674 94.0684 52.2593 94.0684C52.1613 94.0684 52.0462 94.0638 51.9141 94.0547C51.7819 94.0479 51.6725 94.0365 51.5859 94.0205V93.1729C51.6771 93.1956 51.7739 93.2139 51.8765 93.2275C51.979 93.2389 52.0827 93.2446 52.1875 93.2446C52.6045 93.2446 52.9258 93.1785 53.1514 93.0464C53.3792 92.9142 53.5387 92.7308 53.6299 92.4961C53.7233 92.2614 53.7769 91.9902 53.7905 91.6826H53.7495C53.6834 91.792 53.6048 91.8911 53.5137 91.98C53.4248 92.0666 53.3109 92.1361 53.1719 92.1885C53.0329 92.2386 52.8563 92.2637 52.6421 92.2637C52.3573 92.2637 52.1089 92.2021 51.897 92.0791C51.6873 91.9538 51.5244 91.7738 51.4082 91.5391C51.2943 91.3021 51.2373 91.0161 51.2373 90.6812C51.2373 90.3188 51.3057 90.009 51.4424 89.7515C51.5814 89.4917 51.7785 89.2923 52.0337 89.1533C52.2889 89.0143 52.5897 88.9448 52.936 88.9448C53.1912 88.9448 53.4294 88.9893 53.6504 89.0781C53.8714 89.1647 54.0651 89.298 54.2314 89.478C54.4001 89.658 54.5311 89.8859 54.6245 90.1616C54.7179 90.4373 54.7646 90.762 54.7646 91.1357ZM52.9565 89.7925C52.7515 89.7925 52.584 89.8631 52.4541 90.0044C52.3242 90.1457 52.2593 90.3667 52.2593 90.6675C52.2593 90.909 52.3151 91.1004 52.4268 91.2417C52.5384 91.383 52.7082 91.4536 52.936 91.4536C53.0933 91.4536 53.23 91.4194 53.3462 91.3511C53.4624 91.2804 53.5524 91.1927 53.6162 91.0879C53.6823 90.9808 53.7153 90.8714 53.7153 90.7598C53.7153 90.6436 53.6994 90.5285 53.6675 90.4146C53.6356 90.3006 53.5877 90.1969 53.5239 90.1035C53.4601 90.0101 53.3804 89.9349 53.2847 89.8779C53.1912 89.821 53.0819 89.7925 52.9565 89.7925ZM56.5352 93.1865L56.5864 93.2651C56.5454 93.4292 56.4919 93.6058 56.4258 93.7949C56.362 93.984 56.2913 94.1732 56.2139 94.3623C56.1387 94.5514 56.0623 94.7314 55.9849 94.9023H55.2329C55.2785 94.7178 55.3229 94.5241 55.3662 94.3213C55.4095 94.1185 55.4494 93.9191 55.4858 93.7231C55.5246 93.5272 55.5553 93.3483 55.5781 93.1865H56.5352ZM60.7666 91.1357C60.7666 91.4229 60.745 91.7077 60.7017 91.9902C60.6606 92.2728 60.5877 92.5394 60.4829 92.79C60.3781 93.0384 60.2311 93.2594 60.042 93.4531C59.8529 93.6445 59.6125 93.7949 59.3208 93.9043C59.0291 94.0137 58.6759 94.0684 58.2612 94.0684C58.1632 94.0684 58.0482 94.0638 57.916 94.0547C57.7839 94.0479 57.6745 94.0365 57.5879 94.0205V93.1729C57.679 93.1956 57.7759 93.2139 57.8784 93.2275C57.981 93.2389 58.0846 93.2446 58.1895 93.2446C58.6064 93.2446 58.9277 93.1785 59.1533 93.0464C59.3812 92.9142 59.5407 92.7308 59.6318 92.4961C59.7253 92.2614 59.7788 91.9902 59.7925 91.6826H59.7515C59.6854 91.792 59.6068 91.8911 59.5156 91.98C59.4268 92.0666 59.3128 92.1361 59.1738 92.1885C59.0348 92.2386 58.8582 92.2637 58.644 92.2637C58.3592 92.2637 58.1108 92.2021 57.8989 92.0791C57.6893 91.9538 57.5264 91.7738 57.4102 91.5391C57.2962 91.3021 57.2393 91.0161 57.2393 90.6812C57.2393 90.3188 57.3076 90.009 57.4443 89.7515C57.5833 89.4917 57.7804 89.2923 58.0356 89.1533C58.2909 89.0143 58.5916 88.9448 58.938 88.9448C59.1932 88.9448 59.4313 88.9893 59.6523 89.0781C59.8734 89.1647 60.0671 89.298 60.2334 89.478C60.402 89.658 60.533 89.8859 60.6265 90.1616C60.7199 90.4373 60.7666 90.762 60.7666 91.1357ZM58.9585 89.7925C58.7534 89.7925 58.5859 89.8631 58.4561 90.0044C58.3262 90.1457 58.2612 90.3667 58.2612 90.6675C58.2612 90.909 58.3171 91.1004 58.4287 91.2417C58.5404 91.383 58.7101 91.4536 58.938 91.4536C59.0952 91.4536 59.2319 91.4194 59.3481 91.3511C59.4644 91.2804 59.5544 91.1927 59.6182 91.0879C59.6842 90.9808 59.7173 90.8714 59.7173 90.7598C59.7173 90.6436 59.7013 90.5285 59.6694 90.4146C59.6375 90.3006 59.5897 90.1969 59.5259 90.1035C59.4621 90.0101 59.3823 89.9349 59.2866 89.8779C59.1932 89.821 59.0838 89.7925 58.9585 89.7925ZM64.7725 91.1357C64.7725 91.4229 64.7508 91.7077 64.7075 91.9902C64.6665 92.2728 64.5936 92.5394 64.4888 92.79C64.384 93.0384 64.237 93.2594 64.0479 93.4531C63.8587 93.6445 63.6183 93.7949 63.3267 93.9043C63.035 94.0137 62.6818 94.0684 62.2671 94.0684C62.1691 94.0684 62.054 94.0638 61.9219 94.0547C61.7897 94.0479 61.6803 94.0365 61.5938 94.0205V93.1729C61.6849 93.1956 61.7817 93.2139 61.8843 93.2275C61.9868 93.2389 62.0905 93.2446 62.1953 93.2446C62.6123 93.2446 62.9336 93.1785 63.1592 93.0464C63.387 92.9142 63.5465 92.7308 63.6377 92.4961C63.7311 92.2614 63.7847 91.9902 63.7983 91.6826H63.7573C63.6912 91.792 63.6126 91.8911 63.5215 91.98C63.4326 92.0666 63.3187 92.1361 63.1797 92.1885C63.0407 92.2386 62.8641 92.2637 62.6499 92.2637C62.3651 92.2637 62.1167 92.2021 61.9048 92.0791C61.6951 91.9538 61.5322 91.7738 61.416 91.5391C61.3021 91.3021 61.2451 91.0161 61.2451 90.6812C61.2451 90.3188 61.3135 90.009 61.4502 89.7515C61.5892 89.4917 61.7863 89.2923 62.0415 89.1533C62.2967 89.0143 62.5975 88.9448 62.9438 88.9448C63.1991 88.9448 63.4372 88.9893 63.6582 89.0781C63.8792 89.1647 64.0729 89.298 64.2393 89.478C64.4079 89.658 64.5389 89.8859 64.6323 90.1616C64.7257 90.4373 64.7725 90.762 64.7725 91.1357ZM62.9644 89.7925C62.7593 89.7925 62.5918 89.8631 62.4619 90.0044C62.332 90.1457 62.2671 90.3667 62.2671 90.6675C62.2671 90.909 62.3229 91.1004 62.4346 91.2417C62.5462 91.383 62.716 91.4536 62.9438 91.4536C63.1011 91.4536 63.2378 91.4194 63.354 91.3511C63.4702 91.2804 63.5602 91.1927 63.624 91.0879C63.6901 90.9808 63.7231 90.8714 63.7231 90.7598C63.7231 90.6436 63.7072 90.5285 63.6753 90.4146C63.6434 90.3006 63.5955 90.1969 63.5317 90.1035C63.4679 90.0101 63.3882 89.9349 63.2925 89.8779C63.1991 89.821 63.0897 89.7925 62.9644 89.7925ZM68.7783 91.1357C68.7783 91.4229 68.7567 91.7077 68.7134 91.9902C68.6724 92.2728 68.5994 92.5394 68.4946 92.79C68.3898 93.0384 68.2428 93.2594 68.0537 93.4531C67.8646 93.6445 67.6242 93.7949 67.3325 93.9043C67.0409 94.0137 66.6877 94.0684 66.2729 94.0684C66.175 94.0684 66.0599 94.0638 65.9277 94.0547C65.7956 94.0479 65.6862 94.0365 65.5996 94.0205V93.1729C65.6908 93.1956 65.7876 93.2139 65.8901 93.2275C65.9927 93.2389 66.0964 93.2446 66.2012 93.2446C66.6182 93.2446 66.9395 93.1785 67.165 93.0464C67.3929 92.9142 67.5524 92.7308 67.6436 92.4961C67.737 92.2614 67.7905 91.9902 67.8042 91.6826H67.7632C67.6971 91.792 67.6185 91.8911 67.5273 91.98C67.4385 92.0666 67.3245 92.1361 67.1855 92.1885C67.0465 92.2386 66.87 92.2637 66.6558 92.2637C66.3709 92.2637 66.1226 92.2021 65.9106 92.0791C65.701 91.9538 65.5381 91.7738 65.4219 91.5391C65.3079 91.3021 65.251 91.0161 65.251 90.6812C65.251 90.3188 65.3193 90.009 65.4561 89.7515C65.5951 89.4917 65.7922 89.2923 66.0474 89.1533C66.3026 89.0143 66.6034 88.9448 66.9497 88.9448C67.2049 88.9448 67.443 88.9893 67.6641 89.0781C67.8851 89.1647 68.0788 89.298 68.2451 89.478C68.4137 89.658 68.5448 89.8859 68.6382 90.1616C68.7316 90.4373 68.7783 90.762 68.7783 91.1357ZM66.9702 89.7925C66.7651 89.7925 66.5977 89.8631 66.4678 90.0044C66.3379 90.1457 66.2729 90.3667 66.2729 90.6675C66.2729 90.909 66.3288 91.1004 66.4404 91.2417C66.5521 91.383 66.7218 91.4536 66.9497 91.4536C67.1069 91.4536 67.2437 91.4194 67.3599 91.3511C67.4761 91.2804 67.5661 91.1927 67.6299 91.0879C67.696 90.9808 67.729 90.8714 67.729 90.7598C67.729 90.6436 67.7131 90.5285 67.6812 90.4146C67.6493 90.3006 67.6014 90.1969 67.5376 90.1035C67.4738 90.0101 67.394 89.9349 67.2983 89.8779C67.2049 89.821 67.0955 89.7925 66.9702 89.7925Z" fill="#6A10B3"/>
<defs>
<linearGradient id="paint0_linear_425_36" x1="-18.2058" y1="-14.8693" x2="124.157" y2="22.2214" gradientUnits="userSpaceOnUse">
<stop stop-color="#C43B56"/>
<stop offset="0.3395" stop-color="#982684"/>
<stop offset="0.726" stop-color="#6A10B3"/>
<stop offset="0.9195" stop-color="#5908C5"/>
</linearGradient>
<linearGradient id="paint1_linear_425_36" x1="78.461" y1="15.0259" x2="145.233" y2="32.4224" gradientUnits="userSpaceOnUse">
<stop stop-color="#C43B56"/>
<stop offset="0.3395" stop-color="#982684"/>
<stop offset="0.726" stop-color="#6A10B3"/>
<stop offset="0.9195" stop-color="#5908C5"/>
</linearGradient>
<linearGradient id="paint2_linear_425_36" x1="94.4888" y1="31.7962" x2="129.056" y2="42.153" gradientUnits="userSpaceOnUse">
<stop stop-color="#C43B56"/>
<stop offset="0.3395" stop-color="#982684"/>
<stop offset="0.726" stop-color="#6A10B3"/>
<stop offset="0.9195" stop-color="#5908C5"/>
</linearGradient>
<linearGradient id="paint3_linear_425_36" x1="18.9777" y1="78.3683" x2="68.15" y2="114.24" gradientUnits="userSpaceOnUse">
<stop stop-color="#C43B56"/>
<stop offset="0.3395" stop-color="#982684"/>
<stop offset="0.726" stop-color="#6A10B3"/>
<stop offset="0.9195" stop-color="#5908C5"/>
</linearGradient>
</defs>
</svg>
