<svg width="1920" height="1346" viewBox="0 0 1920 1346" fill="none" xmlns="http://www.w3.org/2000/svg">
<g clip-path="url(#clip0_230_2)">
<rect width="1920" height="1346" fill="#4D05BB"/>
<circle opacity="0.25" cx="1020.5" cy="414.5" r="54.5" fill="url(#paint0_linear_230_2)"/>
<circle opacity="0.25" cx="1453.5" cy="724.5" r="54.5" transform="rotate(180 1453.5 724.5)" fill="url(#paint1_linear_230_2)"/>
<circle opacity="0.25" cx="1589.5" cy="594.5" r="54.5" transform="rotate(180 1589.5 594.5)" fill="url(#paint2_linear_230_2)"/>
<ellipse opacity="0.25" cx="55.5" cy="54.5" rx="55.5" ry="54.5" transform="matrix(1 0 0 -1 809 625)" fill="url(#paint3_linear_230_2)"/>
<circle opacity="0.25" cx="-9" cy="554" r="55" transform="rotate(180 -9 554)" fill="url(#paint4_linear_230_2)"/>
<circle opacity="0.25" cx="569.5" cy="233.5" r="54.5" transform="rotate(180 569.5 233.5)" fill="url(#paint5_linear_230_2)"/>
<circle opacity="0.25" cx="54.5" cy="54.5" r="54.5" transform="matrix(1 0 0 -1 231 272)" fill="url(#paint6_linear_230_2)"/>
<ellipse opacity="0.25" cx="1705.5" cy="454" rx="54.5" ry="55" transform="rotate(180 1705.5 454)" fill="url(#paint7_linear_230_2)"/>
<circle opacity="0.25" cx="1861.5" cy="594.5" r="54.5" transform="rotate(180 1861.5 594.5)" fill="url(#paint8_linear_230_2)"/>
<circle opacity="0.25" cx="1955.5" cy="815.5" r="54.5" transform="rotate(180 1955.5 815.5)" fill="url(#paint9_linear_230_2)"/>
<circle opacity="0.25" cx="1916.5" cy="1140.5" r="54.5" transform="rotate(180 1916.5 1140.5)" fill="url(#paint10_linear_230_2)"/>
<ellipse opacity="0.25" cx="679" cy="39.5" rx="55" ry="54.5" transform="rotate(180 679 39.5)" fill="url(#paint11_linear_230_2)"/>
<circle opacity="0.25" cx="54.5" cy="54.5" r="54.5" transform="matrix(1 0 0 -1 122 78)" fill="url(#paint12_linear_230_2)"/>
<circle opacity="0.25" cx="1814.5" cy="260.5" r="54.5" transform="rotate(180 1814.5 260.5)" fill="url(#paint13_linear_230_2)"/>
<circle opacity="0.25" cx="1245" cy="785" r="55" transform="rotate(180 1245 785)" fill="url(#paint14_linear_230_2)"/>
<circle opacity="0.25" cx="1119.5" cy="569.5" r="54.5" transform="rotate(180 1119.5 569.5)" fill="url(#paint15_linear_230_2)"/>
<circle opacity="0.25" cx="1050" cy="1005" r="55" fill="url(#paint16_linear_230_2)"/>
<circle opacity="0.25" cx="1507" cy="308" r="49" fill="url(#paint17_linear_230_2)"/>
<circle opacity="0.25" cx="1648.5" cy="128.5" r="48.5" fill="url(#paint18_linear_230_2)"/>
<circle opacity="0.25" cx="48.5" cy="48.5" r="48.5" transform="matrix(-1 0 0 1 951 212)" fill="url(#paint19_linear_230_2)"/>
<circle opacity="0.25" cx="55.5" cy="55.5" r="55.5" transform="matrix(1 0 0 -1 1350 545)" fill="url(#paint20_linear_230_2)"/>
<ellipse opacity="0.25" cx="54.5" cy="55" rx="54.5" ry="55" transform="matrix(1 0 0 -1 1174 363)" fill="url(#paint21_linear_230_2)"/>
<ellipse opacity="0.25" cx="54.5" cy="55" rx="54.5" ry="55" transform="matrix(1 0 0 -1 1327 190)" fill="url(#paint22_linear_230_2)"/>
<ellipse opacity="0.25" cx="54.5" cy="55" rx="54.5" ry="55" transform="matrix(1 0 0 -1 988 163)" fill="url(#paint23_linear_230_2)"/>
<circle opacity="0.25" cx="1021.16" cy="716.711" r="43.4542" transform="rotate(75 1021.16 716.711)" fill="url(#paint24_linear_230_2)"/>
<ellipse opacity="0.25" cx="1545" cy="915.5" rx="55" ry="54.5" fill="url(#paint25_linear_230_2)"/>
<circle opacity="0.25" cx="54.5" cy="54.5" r="54.5" transform="matrix(-1 0 0 1 902 797)" fill="url(#paint26_linear_230_2)"/>
<ellipse opacity="0.25" cx="7.5" cy="834.5" rx="54.5" ry="55.5" fill="url(#paint27_linear_230_2)"/>
<circle opacity="0.25" cx="55" cy="55" r="55" transform="matrix(-1 0 0 1 840 1004)" fill="url(#paint28_linear_230_2)"/>
<ellipse opacity="0.25" cx="70.5" cy="1042.5" rx="55.5" ry="54.5" fill="url(#paint29_linear_230_2)"/>
<circle opacity="0.25" cx="54.5" cy="54.5" r="54.5" transform="matrix(-1 0 0 1 721 681)" fill="url(#paint30_linear_230_2)"/>
<circle opacity="0.25" cx="188.5" cy="718.5" r="54.5" fill="url(#paint31_linear_230_2)"/>
<ellipse opacity="0.25" cx="55.5" cy="54.5" rx="55.5" ry="54.5" transform="matrix(-1 0 0 1 1858 901)" fill="url(#paint32_linear_230_2)"/>
<ellipse opacity="0.25" cx="54.5" cy="55" rx="54.5" ry="55" transform="matrix(-1 0 0 1 793 333)" fill="url(#paint33_linear_230_2)"/>
<circle opacity="0.25" cx="117" cy="371" r="55" fill="url(#paint34_linear_230_2)"/>
<circle opacity="0.25" cx="569.5" cy="544.5" r="54.5" fill="url(#paint35_linear_230_2)"/>
<circle opacity="0.25" cx="54.5" cy="54.5" r="54.5" transform="matrix(-1 0 0 1 340 474)" fill="url(#paint36_linear_230_2)"/>
<circle opacity="0.25" cx="55" cy="55" r="55" transform="matrix(-1 0 0 1 497 692)" fill="url(#paint37_linear_230_2)"/>
<circle opacity="0.25" cx="54.5" cy="54.5" r="54.5" transform="matrix(-1 0 0 1 483 313)" fill="url(#paint38_linear_230_2)"/>
<ellipse opacity="0.25" cx="54.5" cy="55" rx="54.5" ry="55" transform="matrix(-1 0 0 1 483 15)" fill="url(#paint39_linear_230_2)"/>
<circle opacity="0.25" cx="1705.5" cy="765.5" r="54.5" fill="url(#paint40_linear_230_2)"/>
<circle opacity="0.25" cx="1457.95" cy="1217.94" r="54.5683" transform="rotate(-135 1457.95 1217.94)" fill="url(#paint41_linear_230_2)"/>
<circle opacity="0.25" cx="54.5683" cy="54.5683" r="54.5683" transform="matrix(0.707107 -0.707107 -0.707107 -0.707107 949.988 1302.6)" fill="url(#paint42_linear_230_2)"/>
<circle opacity="0.25" cx="534.926" cy="927.242" r="54.5683" transform="rotate(-135 534.926 927.242)" fill="url(#paint43_linear_230_2)"/>
<circle opacity="0.25" cx="54.5683" cy="54.5683" r="54.5683" transform="matrix(0.707107 -0.707107 -0.707107 -0.707107 320.647 987.931)" fill="url(#paint44_linear_230_2)"/>
<circle opacity="0.25" cx="54.5683" cy="54.5683" r="54.5683" transform="matrix(0.707107 -0.707107 -0.707107 -0.707107 267.171 1208.34)" fill="url(#paint45_linear_230_2)"/>
<circle opacity="0.25" cx="54.5683" cy="54.5683" r="54.5683" transform="matrix(0.707107 -0.707107 -0.707107 -0.707107 408.171 1400.34)" fill="url(#paint46_linear_230_2)"/>
<circle opacity="0.25" cx="54.5683" cy="54.5683" r="54.5683" transform="matrix(0.707107 -0.707107 -0.707107 -0.707107 89.1712 1379.34)" fill="url(#paint47_linear_230_2)"/>
<circle opacity="0.25" cx="54.5683" cy="54.5683" r="54.5683" transform="matrix(0.707107 -0.707107 -0.707107 -0.707107 1785.17 1390.34)" fill="url(#paint48_linear_230_2)"/>
<circle opacity="0.25" cx="54.5683" cy="54.5683" r="54.5683" transform="matrix(0.707107 -0.707107 -0.707107 -0.707107 513.171 1236.34)" fill="url(#paint49_linear_230_2)"/>
<circle opacity="0.25" cx="54.5683" cy="54.5683" r="54.5683" transform="matrix(0.707107 -0.707107 -0.707107 -0.707107 696.171 1332.34)" fill="url(#paint50_linear_230_2)"/>
<circle opacity="0.25" cx="1670.73" cy="1147.51" r="54.5683" transform="rotate(-135 1670.73 1147.51)" fill="url(#paint51_linear_230_2)"/>
<ellipse opacity="0.25" cx="1314.5" cy="1059" rx="54.5" ry="55" fill="url(#paint52_linear_230_2)"/>
<circle opacity="0.25" cx="1197.5" cy="1256.5" r="51.6096" transform="rotate(-60 1197.5 1256.5)" fill="url(#paint53_linear_230_2)"/>
<path fill-rule="evenodd" clip-rule="evenodd" d="M1407.75 484.456C1415.2 484.456 1421.24 478.419 1421.24 470.971C1421.24 463.523 1415.2 457.485 1407.75 457.485C1400.31 457.485 1394.27 463.523 1394.27 470.971C1394.27 478.419 1400.31 484.456 1407.75 484.456ZM1391.28 485.955C1386.31 485.955 1382.28 489.984 1382.28 494.955V516.592C1382.28 517.073 1382.62 517.486 1383.1 517.575L1396.86 520.155C1403.07 521.32 1409.44 521.32 1415.65 520.155L1429.41 517.575C1429.89 517.486 1430.23 517.073 1430.23 516.592V494.955C1430.23 489.984 1426.2 485.955 1421.23 485.955H1391.28Z" fill="#4D05BB"/>
<path fill-rule="evenodd" clip-rule="evenodd" d="M1230.94 303.148C1238.39 303.148 1244.43 297.11 1244.43 289.662C1244.43 282.214 1238.39 276.176 1230.94 276.176C1223.49 276.176 1217.45 282.214 1217.45 289.662C1217.45 297.11 1223.49 303.148 1230.94 303.148ZM1214.47 304.646C1209.5 304.646 1205.47 308.676 1205.47 313.646V335.283C1205.47 335.765 1205.81 336.178 1206.28 336.266L1220.04 338.846C1226.25 340.011 1232.63 340.011 1238.84 338.846L1252.6 336.266C1253.07 336.178 1253.42 335.765 1253.42 335.283V313.646C1253.42 308.676 1249.39 304.646 1244.42 304.646H1214.47Z" fill="#4D05BB"/>
<path fill-rule="evenodd" clip-rule="evenodd" d="M1383.78 129.331C1391.23 129.331 1397.26 123.293 1397.26 115.845C1397.26 108.397 1391.23 102.359 1383.78 102.359C1376.33 102.359 1370.29 108.397 1370.29 115.845C1370.29 123.293 1376.33 129.331 1383.78 129.331ZM1367.31 130.83C1362.33 130.83 1358.31 134.859 1358.31 139.83V161.466C1358.31 161.948 1358.65 162.361 1359.12 162.449L1372.88 165.029C1379.09 166.194 1385.47 166.194 1391.68 165.029L1405.44 162.449C1405.91 162.361 1406.25 161.948 1406.25 161.466V139.83C1406.25 134.859 1402.23 130.83 1397.25 130.83H1367.31Z" fill="#4D05BB"/>
<path fill-rule="evenodd" clip-rule="evenodd" d="M1045.14 102.36C1052.58 102.36 1058.62 96.322 1058.62 88.874C1058.62 81.426 1052.58 75.3882 1045.14 75.3882C1037.69 75.3882 1031.65 81.426 1031.65 88.874C1031.65 96.322 1037.69 102.36 1045.14 102.36ZM1028.66 103.858C1023.69 103.858 1019.66 107.888 1019.66 112.858V134.495C1019.66 134.976 1020.01 135.389 1020.48 135.478L1034.24 138.058C1040.45 139.223 1046.82 139.223 1053.04 138.058L1066.8 135.478C1067.27 135.389 1067.61 134.976 1067.61 134.495V112.858C1067.61 107.888 1063.58 103.858 1058.61 103.858H1028.66Z" fill="#4D05BB"/>
<path fill-rule="evenodd" clip-rule="evenodd" d="M1245.92 779.645C1253.37 779.645 1259.41 773.608 1259.41 766.16C1259.41 758.712 1253.37 752.674 1245.92 752.674C1238.48 752.674 1232.44 758.712 1232.44 766.16C1232.44 773.608 1238.48 779.645 1245.92 779.645ZM1229.45 781.144C1224.48 781.144 1220.45 785.173 1220.45 790.144V811.781C1220.45 812.262 1220.79 812.675 1221.27 812.764L1235.03 815.344C1241.24 816.509 1247.61 816.509 1253.82 815.344L1267.58 812.764C1268.06 812.675 1268.4 812.262 1268.4 811.781V790.144C1268.4 785.173 1264.37 781.144 1259.4 781.144H1229.45Z" fill="#4D05BB"/>
<path fill-rule="evenodd" clip-rule="evenodd" d="M1120.06 563.873C1127.5 563.873 1133.54 557.835 1133.54 550.387C1133.54 542.939 1127.5 536.901 1120.06 536.901C1112.61 536.901 1106.57 542.939 1106.57 550.387C1106.57 557.835 1112.61 563.873 1120.06 563.873ZM1103.58 565.372C1098.61 565.372 1094.58 569.401 1094.58 574.372V596.008C1094.58 596.49 1094.93 596.903 1095.4 596.991L1109.16 599.571C1115.37 600.736 1121.75 600.736 1127.96 599.571L1141.72 596.991C1142.19 596.903 1142.53 596.49 1142.53 596.008V574.372C1142.53 569.401 1138.5 565.372 1133.53 565.372H1103.58Z" fill="#4D05BB"/>
<path fill-rule="evenodd" clip-rule="evenodd" d="M1455.7 719.708C1463.15 719.708 1469.19 713.671 1469.19 706.223C1469.19 698.775 1463.15 692.737 1455.7 692.737C1448.25 692.737 1442.22 698.775 1442.22 706.223C1442.22 713.671 1448.25 719.708 1455.7 719.708ZM1439.23 721.207C1434.26 721.207 1430.23 725.236 1430.23 730.207V751.844C1430.23 752.325 1430.57 752.738 1431.05 752.827L1444.81 755.407C1451.02 756.571 1457.39 756.571 1463.6 755.407L1477.36 752.827C1477.84 752.738 1478.18 752.325 1478.18 751.844V730.207C1478.18 725.236 1474.15 721.207 1469.18 721.207H1439.23Z" fill="#4D05BB"/>
<path fill-rule="evenodd" clip-rule="evenodd" d="M1592.06 589.346C1599.51 589.346 1605.54 583.308 1605.54 575.86C1605.54 568.412 1599.51 562.375 1592.06 562.375C1584.61 562.375 1578.57 568.412 1578.57 575.86C1578.57 583.308 1584.61 589.346 1592.06 589.346ZM1575.59 590.845C1570.62 590.845 1566.59 594.874 1566.59 599.845V621.482C1566.59 621.963 1566.93 622.376 1567.4 622.464L1581.16 625.045C1587.37 626.209 1593.75 626.209 1599.96 625.045L1613.72 622.464C1614.19 622.376 1614.54 621.963 1614.54 621.482V599.845C1614.54 594.874 1610.51 590.845 1605.54 590.845H1575.59Z" fill="#4D05BB"/>
<path fill-rule="evenodd" clip-rule="evenodd" d="M862.328 565.371C854.88 565.371 848.842 559.334 848.842 551.886C848.842 544.438 854.88 538.4 862.328 538.4C869.776 538.4 875.814 544.438 875.814 551.886C875.814 559.334 869.776 565.371 862.328 565.371ZM878.801 566.87C883.772 566.87 887.801 570.9 887.801 575.87V597.507C887.801 597.988 887.459 598.401 886.986 598.49L873.225 601.07C867.014 602.235 860.64 602.235 854.428 601.07L840.668 598.49C840.195 598.401 839.852 597.988 839.852 597.507V575.87C839.852 570.9 843.881 566.87 848.852 566.87H878.801Z" fill="#4D05BB"/>
<path fill-rule="evenodd" clip-rule="evenodd" d="M-6.75558 548.889C0.69241 548.889 6.7302 542.851 6.7302 535.403C6.7302 527.955 0.69241 521.917 -6.75558 521.917C-14.2036 521.917 -20.2414 527.955 -20.2414 535.403C-20.2414 542.851 -14.2036 548.889 -6.75558 548.889ZM-23.2287 550.387C-28.1993 550.387 -32.2287 554.417 -32.2287 559.387V581.024C-32.2287 581.505 -31.886 581.918 -31.413 582.007L-17.6527 584.587C-11.441 585.752 -5.06695 585.752 1.14474 584.587L14.905 582.007C15.378 581.918 15.7207 581.505 15.7207 581.024V559.387C15.7207 554.417 11.6913 550.387 6.72075 550.387H-23.2287Z" fill="#4D05BB"/>
<path fill-rule="evenodd" clip-rule="evenodd" d="M571.729 228.226C579.177 228.226 585.215 222.189 585.215 214.741C585.215 207.293 579.177 201.255 571.729 201.255C564.281 201.255 558.243 207.293 558.243 214.741C558.243 222.189 564.281 228.226 571.729 228.226ZM555.256 229.725C550.285 229.725 546.256 233.754 546.256 238.725V260.362C546.256 260.843 546.598 261.256 547.071 261.345L560.832 263.925C567.043 265.09 573.417 265.09 579.629 263.925L593.389 261.345C593.862 261.256 594.205 260.843 594.205 260.362V238.725C594.205 233.754 590.176 229.725 585.205 229.725H555.256Z" fill="#4D05BB"/>
<path fill-rule="evenodd" clip-rule="evenodd" d="M283.844 211.745C276.396 211.745 270.358 205.707 270.358 198.259C270.358 190.811 276.396 184.773 283.844 184.773C291.292 184.773 297.33 190.811 297.33 198.259C297.33 205.707 291.292 211.745 283.844 211.745ZM300.317 213.243C305.288 213.243 309.317 217.273 309.317 222.243V243.88C309.317 244.361 308.974 244.774 308.501 244.863L294.741 247.443C288.529 248.608 282.155 248.608 275.944 247.443L262.183 244.863C261.71 244.774 261.368 244.361 261.368 243.88V222.243C261.368 217.273 265.397 213.243 270.368 213.243H300.317Z" fill="#4D05BB"/>
<path fill-rule="evenodd" clip-rule="evenodd" d="M1707.53 448.495C1714.98 448.495 1721.02 442.457 1721.02 435.009C1721.02 427.561 1714.98 421.523 1707.53 421.523C1700.08 421.523 1694.05 427.561 1694.05 435.009C1694.05 442.457 1700.08 448.495 1707.53 448.495ZM1691.06 449.993C1686.09 449.993 1682.06 454.023 1682.06 458.993V480.63C1682.06 481.111 1682.4 481.524 1682.87 481.613L1696.63 484.193C1702.85 485.358 1709.22 485.358 1715.43 484.193L1729.19 481.613C1729.67 481.524 1730.01 481.111 1730.01 480.63V458.993C1730.01 454.023 1725.98 449.993 1721.01 449.993H1691.06Z" fill="#4D05BB"/>
<path fill-rule="evenodd" clip-rule="evenodd" d="M1863.27 589.346C1870.72 589.346 1876.76 583.308 1876.76 575.86C1876.76 568.412 1870.72 562.375 1863.27 562.375C1855.83 562.375 1849.79 568.412 1849.79 575.86C1849.79 583.308 1855.83 589.346 1863.27 589.346ZM1846.8 590.845C1841.83 590.845 1837.8 594.874 1837.8 599.845V621.482C1837.8 621.963 1838.14 622.376 1838.62 622.464L1852.38 625.045C1858.59 626.209 1864.96 626.209 1871.17 625.045L1884.93 622.464C1885.41 622.376 1885.75 621.963 1885.75 621.482V599.845C1885.75 594.874 1881.72 590.845 1876.75 590.845H1846.8Z" fill="#4D05BB"/>
<path fill-rule="evenodd" clip-rule="evenodd" d="M1918.71 1134.77C1926.16 1134.77 1932.2 1128.73 1932.2 1121.29C1932.2 1113.84 1926.16 1107.8 1918.71 1107.8C1911.27 1107.8 1905.23 1113.84 1905.23 1121.29C1905.23 1128.73 1911.27 1134.77 1918.71 1134.77ZM1902.24 1136.27C1897.27 1136.27 1893.24 1140.3 1893.24 1145.27V1166.91C1893.24 1167.39 1893.58 1167.8 1894.06 1167.89L1907.82 1170.47C1914.03 1171.63 1920.4 1171.63 1926.61 1170.47L1940.38 1167.89C1940.85 1167.8 1941.19 1167.39 1941.19 1166.91V1145.27C1941.19 1140.3 1937.16 1136.27 1932.19 1136.27H1902.24Z" fill="#4D05BB"/>
<path fill-rule="evenodd" clip-rule="evenodd" d="M681.019 34.9305C688.467 34.9305 694.505 28.8928 694.505 21.4448C694.505 13.9968 688.467 7.95898 681.019 7.95898C673.571 7.95898 667.534 13.9968 667.534 21.4448C667.534 28.8928 673.571 34.9305 681.019 34.9305ZM664.546 36.4291C659.576 36.4291 655.546 40.4586 655.546 45.4292V67.066C655.546 67.5473 655.889 67.9602 656.362 68.0489L670.122 70.629C676.334 71.7937 682.708 71.7937 688.92 70.629L702.68 68.0489C703.153 67.9602 703.496 67.5473 703.496 67.066V45.4291C703.496 40.4586 699.466 36.4291 694.496 36.4291H664.546Z" fill="#4D05BB"/>
<path fill-rule="evenodd" clip-rule="evenodd" d="M174.553 18.4476C167.105 18.4476 161.068 12.4098 161.068 4.96186C161.068 -2.48614 167.105 -8.52393 174.553 -8.52393C182.001 -8.52393 188.039 -2.48614 188.039 4.96186C188.039 12.4098 182.001 18.4476 174.553 18.4476ZM191.026 19.9462C195.997 19.9462 200.026 23.9757 200.026 28.9462V50.5831C200.026 51.0644 199.684 51.4773 199.211 51.566L185.45 54.1461C179.239 55.3108 172.865 55.3108 166.653 54.1461L152.893 51.566C152.42 51.4773 152.077 51.0644 152.077 50.5831V28.9462C152.077 23.9757 156.106 19.9462 161.077 19.9462H191.026Z" fill="#4D05BB"/>
<path fill-rule="evenodd" clip-rule="evenodd" d="M1816.82 255.198C1824.27 255.198 1830.31 249.16 1830.31 241.712C1830.31 234.264 1824.27 228.227 1816.82 228.227C1809.37 228.227 1803.34 234.264 1803.34 241.712C1803.34 249.16 1809.37 255.198 1816.82 255.198ZM1800.35 256.697C1795.38 256.697 1791.35 260.726 1791.35 265.697V287.334C1791.35 287.815 1791.69 288.228 1792.16 288.316L1805.92 290.897C1812.14 292.061 1818.51 292.061 1824.72 290.897L1838.48 288.316C1838.96 288.228 1839.3 287.815 1839.3 287.334V265.697C1839.3 260.726 1835.27 256.697 1830.3 256.697H1800.35Z" fill="#4D05BB"/>
<path fill-rule="evenodd" clip-rule="evenodd" d="M1051.13 1001.41C1058.58 1001.41 1064.61 995.374 1064.61 987.926C1064.61 980.478 1058.58 974.44 1051.13 974.44C1043.68 974.44 1037.64 980.478 1037.64 987.926C1037.64 995.374 1043.68 1001.41 1051.13 1001.41ZM1034.66 1002.91C1029.69 1002.91 1025.66 1006.94 1025.66 1011.91V1033.55C1025.66 1034.03 1026 1034.44 1026.47 1034.53L1040.23 1037.11C1046.44 1038.27 1052.82 1038.27 1059.03 1037.11L1072.79 1034.53C1073.26 1034.44 1073.61 1034.03 1073.61 1033.55V1011.91C1073.61 1006.94 1069.58 1002.91 1064.61 1002.91H1034.66Z" fill="#4D05BB"/>
<path fill-rule="evenodd" clip-rule="evenodd" d="M1316.35 1055.35C1323.8 1055.35 1329.84 1049.32 1329.84 1041.87C1329.84 1034.42 1323.8 1028.38 1316.35 1028.38C1308.9 1028.38 1302.86 1034.42 1302.86 1041.87C1302.86 1049.32 1308.9 1055.35 1316.35 1055.35ZM1299.88 1056.85C1294.91 1056.85 1290.88 1060.88 1290.88 1065.85V1087.49C1290.88 1087.97 1291.22 1088.38 1291.69 1088.47L1305.45 1091.05C1311.66 1092.22 1318.04 1092.22 1324.25 1091.05L1338.01 1088.47C1338.48 1088.38 1338.83 1087.97 1338.83 1087.49V1065.85C1338.83 1060.88 1334.8 1056.85 1329.83 1056.85H1299.88Z" fill="#4D05BB"/>
<path fill-rule="evenodd" clip-rule="evenodd" d="M1547.11 910.008C1554.55 910.008 1560.59 903.97 1560.59 896.522C1560.59 889.074 1554.55 883.036 1547.11 883.036C1539.66 883.036 1533.62 889.074 1533.62 896.522C1533.62 903.97 1539.66 910.008 1547.11 910.008ZM1530.63 911.506C1525.66 911.506 1521.63 915.536 1521.63 920.506V942.143C1521.63 942.624 1521.98 943.037 1522.45 943.126L1536.21 945.706C1542.42 946.871 1548.79 946.871 1555.01 945.706L1568.77 943.126C1569.24 943.037 1569.58 942.624 1569.58 942.143V920.506C1569.58 915.536 1565.55 911.506 1560.58 911.506H1530.63Z" fill="#4D05BB"/>
<path fill-rule="evenodd" clip-rule="evenodd" d="M845.846 845.576C838.398 845.576 832.36 839.538 832.36 832.09C832.36 824.642 838.398 818.604 845.846 818.604C853.294 818.604 859.331 824.642 859.331 832.09C859.331 839.538 853.294 845.576 845.846 845.576ZM862.319 847.075C867.289 847.075 871.319 851.104 871.319 856.075V877.712C871.319 878.193 870.976 878.606 870.503 878.694L856.743 881.274C850.531 882.439 844.157 882.439 837.945 881.274L824.185 878.694C823.712 878.606 823.369 878.193 823.369 877.712V856.075C823.369 851.104 827.399 847.075 832.369 847.075H862.319Z" fill="#4D05BB"/>
<path fill-rule="evenodd" clip-rule="evenodd" d="M9.72702 829.093C17.175 829.093 23.2128 823.055 23.2128 815.607C23.2128 808.159 17.175 802.122 9.72702 802.122C2.27903 802.122 -3.75876 808.159 -3.75876 815.607C-3.75876 823.055 2.27903 829.093 9.72702 829.093ZM-6.74609 830.592C-11.7167 830.592 -15.7461 834.621 -15.7461 839.592V861.229C-15.7461 861.71 -15.4034 862.123 -14.9304 862.212L-1.17008 864.792C5.0416 865.956 11.4157 865.956 17.6273 864.792L31.3876 862.212C31.8606 862.123 32.2034 861.71 32.2034 861.229V839.592C32.2034 834.621 28.1739 830.592 23.2034 830.592H-6.74609Z" fill="#4D05BB"/>
<path fill-rule="evenodd" clip-rule="evenodd" d="M782.912 1053.86C775.464 1053.86 769.426 1047.82 769.426 1040.37C769.426 1032.92 775.464 1026.88 782.912 1026.88C790.36 1026.88 796.398 1032.92 796.398 1040.37C796.398 1047.82 790.36 1053.86 782.912 1053.86ZM799.385 1055.35C804.356 1055.35 808.385 1059.38 808.385 1064.35V1085.99C808.385 1086.47 808.042 1086.89 807.569 1086.97L793.809 1089.55C787.597 1090.72 781.223 1090.72 775.012 1089.55L761.251 1086.97C760.778 1086.89 760.436 1086.47 760.436 1085.99V1064.35C760.436 1059.38 764.465 1055.35 769.436 1055.35H799.385Z" fill="#4D05BB"/>
<path fill-rule="evenodd" clip-rule="evenodd" d="M72.6608 1037.37C80.1088 1037.37 86.1466 1031.34 86.1466 1023.89C86.1466 1016.44 80.1088 1010.4 72.6608 1010.4C65.2128 1010.4 59.175 1016.44 59.175 1023.89C59.175 1031.34 65.2128 1037.37 72.6608 1037.37ZM56.1876 1038.87C51.2171 1038.87 47.1876 1042.9 47.1876 1047.87V1069.51C47.1876 1069.99 47.5304 1070.4 48.0033 1070.49L61.7636 1073.07C67.9753 1074.24 74.3494 1074.24 80.5611 1073.07L94.3214 1070.49C94.7943 1070.4 95.1371 1069.99 95.1371 1069.51V1047.87C95.1371 1042.9 91.1076 1038.87 86.1371 1038.87H56.1876Z" fill="#4D05BB"/>
<path fill-rule="evenodd" clip-rule="evenodd" d="M664.537 730.197C657.089 730.197 651.051 724.159 651.051 716.711C651.051 709.263 657.089 703.226 664.537 703.226C671.985 703.226 678.023 709.263 678.023 716.711C678.023 724.159 671.985 730.197 664.537 730.197ZM681.01 731.696C685.98 731.696 690.01 735.725 690.01 740.696V762.333C690.01 762.814 689.667 763.227 689.194 763.316L675.434 765.896C669.222 767.06 662.848 767.06 656.636 765.896L642.876 763.316C642.403 763.227 642.06 762.814 642.06 762.333V740.696C642.06 735.725 646.09 731.696 651.06 731.696H681.01Z" fill="#4D05BB"/>
<path fill-rule="evenodd" clip-rule="evenodd" d="M191.036 713.715C198.484 713.715 204.522 707.677 204.522 700.229C204.522 692.781 198.484 686.744 191.036 686.744C183.588 686.744 177.55 692.781 177.55 700.229C177.55 707.677 183.588 713.715 191.036 713.715ZM174.563 715.214C169.592 715.214 165.563 719.243 165.563 724.214V745.851C165.563 746.332 165.906 746.745 166.379 746.834L180.139 749.414C186.351 750.578 192.725 750.578 198.936 749.414L212.697 746.834C213.17 746.745 213.512 746.332 213.512 745.851V724.214C213.512 719.243 209.483 715.214 204.512 715.214H174.563Z" fill="#4D05BB"/>
<path fill-rule="evenodd" clip-rule="evenodd" d="M1800.34 950.465C1792.89 950.465 1786.85 944.427 1786.85 936.979C1786.85 929.531 1792.89 923.494 1800.34 923.494C1807.79 923.494 1813.83 929.531 1813.83 936.979C1813.83 944.427 1807.79 950.465 1800.34 950.465ZM1816.81 951.964C1821.78 951.964 1825.81 955.993 1825.81 960.964V982.601C1825.81 983.082 1825.47 983.495 1825 983.584L1811.24 986.164C1805.02 987.328 1798.65 987.328 1792.44 986.164L1778.68 983.584C1778.21 983.495 1777.86 983.082 1777.86 982.601V960.964C1777.86 955.993 1781.89 951.964 1786.86 951.964H1816.81Z" fill="#4D05BB"/>
<path fill-rule="evenodd" clip-rule="evenodd" d="M736.461 382.564C729.013 382.564 722.975 376.527 722.975 369.079C722.975 361.631 729.013 355.593 736.461 355.593C743.909 355.593 749.947 361.631 749.947 369.079C749.947 376.527 743.909 382.564 736.461 382.564ZM752.934 384.063C757.905 384.063 761.934 388.092 761.934 393.063V414.7C761.934 415.181 761.591 415.594 761.118 415.683L747.358 418.263C741.146 419.427 734.772 419.427 728.561 418.263L714.8 415.683C714.327 415.594 713.985 415.181 713.985 414.7V393.063C713.985 388.092 718.014 384.063 722.985 384.063H752.934Z" fill="#4D05BB"/>
<path fill-rule="evenodd" clip-rule="evenodd" d="M119.112 366.081C126.56 366.081 132.598 360.044 132.598 352.596C132.598 345.148 126.56 339.11 119.112 339.11C111.664 339.11 105.626 345.148 105.626 352.596C105.626 360.044 111.664 366.081 119.112 366.081ZM102.639 367.58C97.668 367.58 93.6386 371.609 93.6386 376.58V398.217C93.6386 398.698 93.9813 399.111 94.4543 399.2L108.215 401.78C114.426 402.945 120.8 402.945 127.012 401.78L140.772 399.2C141.245 399.111 141.588 398.698 141.588 398.217V376.58C141.588 371.609 137.559 367.58 132.588 367.58H102.639Z" fill="#4D05BB"/>
<path fill-rule="evenodd" clip-rule="evenodd" d="M571.729 539.898C579.177 539.898 585.215 533.86 585.215 526.412C585.215 518.964 579.177 512.926 571.729 512.926C564.281 512.926 558.243 518.964 558.243 526.412C558.243 533.86 564.281 539.898 571.729 539.898ZM555.256 541.396C550.285 541.396 546.256 545.426 546.256 550.396V572.033C546.256 572.515 546.598 572.928 547.071 573.016L560.832 575.596C567.043 576.761 573.417 576.761 579.629 575.596L593.389 573.016C593.862 572.928 594.205 572.515 594.205 572.033V550.396C594.205 545.426 590.176 541.396 585.205 541.396H555.256Z" fill="#4D05BB"/>
<path fill-rule="evenodd" clip-rule="evenodd" d="M283.844 523.415C276.396 523.415 270.358 517.378 270.358 509.93C270.358 502.482 276.396 496.444 283.844 496.444C291.292 496.444 297.33 502.482 297.33 509.93C297.33 517.378 291.292 523.415 283.844 523.415ZM300.317 524.914C305.288 524.914 309.317 528.943 309.317 533.914V555.551C309.317 556.032 308.974 556.445 308.501 556.534L294.741 559.114C288.529 560.279 282.155 560.279 275.944 559.114L262.183 556.534C261.71 556.445 261.368 556.032 261.368 555.551V533.914C261.368 528.943 265.397 524.914 270.368 524.914H300.317Z" fill="#4D05BB"/>
<path fill-rule="evenodd" clip-rule="evenodd" d="M439.774 742.184C432.326 742.184 426.288 736.147 426.288 728.699C426.288 721.251 432.326 715.213 439.774 715.213C447.222 715.213 453.26 721.251 453.26 728.699C453.26 736.147 447.222 742.184 439.774 742.184ZM456.247 743.683C461.217 743.683 465.247 747.712 465.247 752.683V774.32C465.247 774.801 464.904 775.214 464.431 775.303L450.671 777.883C444.459 779.048 438.085 779.048 431.873 777.883L418.113 775.303C417.64 775.214 417.297 774.801 417.297 774.32V752.683C417.297 747.712 421.327 743.683 426.297 743.683H456.247Z" fill="#4D05BB"/>
<path fill-rule="evenodd" clip-rule="evenodd" d="M426.288 361.586C418.84 361.586 412.802 355.548 412.802 348.1C412.802 340.652 418.84 334.614 426.288 334.614C433.736 334.614 439.774 340.652 439.774 348.1C439.774 355.548 433.736 361.586 426.288 361.586ZM442.761 363.084C447.732 363.084 451.761 367.114 451.761 372.084V393.721C451.761 394.203 451.418 394.616 450.945 394.704L437.185 397.284C430.973 398.449 424.599 398.449 418.388 397.284L404.627 394.704C404.154 394.616 403.812 394.203 403.812 393.721V372.084C403.812 367.114 407.841 363.084 412.812 363.084H442.761Z" fill="#4D05BB"/>
<path fill-rule="evenodd" clip-rule="evenodd" d="M426.288 64.8988C418.84 64.8988 412.802 58.861 412.802 51.413C412.802 43.965 418.84 37.9272 426.288 37.9272C433.736 37.9272 439.774 43.965 439.774 51.413C439.774 58.861 433.736 64.8988 426.288 64.8988ZM442.761 66.3974C447.732 66.3974 451.761 70.4269 451.761 75.3974V97.0343C451.761 97.5155 451.418 97.9285 450.945 98.0172L437.185 100.597C430.973 101.762 424.599 101.762 418.388 100.597L404.627 98.0172C404.154 97.9285 403.812 97.5155 403.812 97.0343V75.3974C403.812 70.4268 407.841 66.3974 412.812 66.3974H442.761Z" fill="#4D05BB"/>
<path fill-rule="evenodd" clip-rule="evenodd" d="M1707.53 760.166C1714.98 760.166 1721.02 754.128 1721.02 746.68C1721.02 739.232 1714.98 733.194 1707.53 733.194C1700.08 733.194 1694.05 739.232 1694.05 746.68C1694.05 754.128 1700.08 760.166 1707.53 760.166ZM1691.06 761.664C1686.09 761.664 1682.06 765.694 1682.06 770.665V792.301C1682.06 792.783 1682.4 793.196 1682.87 793.284L1696.63 795.864C1702.85 797.029 1709.22 797.029 1715.43 795.864L1729.19 793.284C1729.67 793.196 1730.01 792.783 1730.01 792.301V770.665C1730.01 765.694 1725.98 761.664 1721.01 761.664H1691.06Z" fill="#4D05BB"/>
<path fill-rule="evenodd" clip-rule="evenodd" d="M1021.16 409.536C1028.61 409.536 1034.65 403.498 1034.65 396.05C1034.65 388.602 1028.61 382.564 1021.16 382.564C1013.71 382.564 1007.67 388.602 1007.67 396.05C1007.67 403.498 1013.71 409.536 1021.16 409.536ZM1004.69 411.034C999.717 411.034 995.688 415.064 995.688 420.034V441.671C995.688 442.152 996.03 442.565 996.503 442.654L1010.26 445.234C1016.48 446.399 1022.85 446.399 1029.06 445.234L1042.82 442.654C1043.29 442.565 1043.64 442.152 1043.64 441.671V420.034C1043.64 415.064 1039.61 411.034 1034.64 411.034H1004.69Z" fill="#4D05BB"/>
<path fill-rule="evenodd" clip-rule="evenodd" d="M1021.64 712.374C1027.48 712.374 1032.21 707.643 1032.21 701.806C1032.21 695.97 1027.48 691.238 1021.64 691.238C1015.81 691.238 1011.08 695.97 1011.08 701.806C1011.08 707.643 1015.81 712.374 1021.64 712.374ZM1010.68 713.548C1005.71 713.548 1001.68 717.578 1001.68 722.548V737.377C1001.68 737.858 1002.02 738.271 1002.5 738.36L1011.07 739.967C1017.28 741.132 1023.66 741.132 1029.87 739.967L1038.44 738.36C1038.91 738.271 1039.26 737.858 1039.26 737.377V722.548C1039.26 717.578 1035.23 713.548 1030.26 713.548H1010.68Z" fill="#4D05BB"/>
<path fill-rule="evenodd" clip-rule="evenodd" d="M1198.96 1252.55C1206.32 1252.55 1212.28 1246.58 1212.28 1239.22C1212.28 1231.86 1206.32 1225.89 1198.96 1225.89C1191.59 1225.89 1185.63 1231.86 1185.63 1239.22C1185.63 1246.58 1191.59 1252.55 1198.96 1252.55ZM1182.78 1254.03C1177.81 1254.03 1173.78 1258.06 1173.78 1263.03V1284.29C1173.78 1284.78 1174.13 1285.19 1174.6 1285.28L1188.08 1287.8C1194.29 1288.97 1200.66 1288.97 1206.87 1287.8L1220.35 1285.28C1220.82 1285.19 1221.17 1284.78 1221.17 1284.29V1263.03C1221.17 1258.06 1217.14 1254.03 1212.17 1254.03H1182.78Z" fill="#4D05BB"/>
<path fill-rule="evenodd" clip-rule="evenodd" d="M1508.63 304.804C1514.47 304.804 1519.2 300.072 1519.2 294.236C1519.2 288.399 1514.47 283.668 1508.63 283.668C1502.79 283.668 1498.06 288.399 1498.06 294.236C1498.06 300.072 1502.79 304.804 1508.63 304.804ZM1497.67 305.978C1492.7 305.978 1488.67 310.008 1488.67 314.978V329.807C1488.67 330.288 1489.01 330.701 1489.48 330.79L1498.06 332.397C1504.27 333.562 1510.64 333.562 1516.85 332.397L1525.43 330.79C1525.9 330.701 1526.24 330.288 1526.24 329.807V314.978C1526.24 310.008 1522.21 305.978 1517.24 305.978H1497.67Z" fill="#4D05BB"/>
<path fill-rule="evenodd" clip-rule="evenodd" d="M1649.48 124.993C1655.32 124.993 1660.05 120.262 1660.05 114.425C1660.05 108.589 1655.32 103.857 1649.48 103.857C1643.64 103.857 1638.91 108.589 1638.91 114.425C1638.91 120.262 1643.64 124.993 1649.48 124.993ZM1638.52 126.168C1633.55 126.168 1629.52 130.197 1629.52 135.168V149.996C1629.52 150.477 1629.86 150.89 1630.34 150.979L1638.91 152.587C1645.12 153.751 1651.49 153.751 1657.71 152.587L1666.28 150.979C1666.75 150.89 1667.09 150.477 1667.09 149.996V135.168C1667.09 130.197 1663.07 126.168 1658.09 126.168H1638.52Z" fill="#4D05BB"/>
<path fill-rule="evenodd" clip-rule="evenodd" d="M900.805 256.855C894.968 256.855 890.237 252.123 890.237 246.287C890.237 240.45 894.968 235.719 900.805 235.719C906.641 235.719 911.373 240.45 911.373 246.287C911.373 252.123 906.641 256.855 900.805 256.855ZM911.767 258.029C916.737 258.029 920.767 262.058 920.767 267.029V281.858C920.767 282.339 920.424 282.752 919.951 282.84L911.378 284.448C905.166 285.613 898.792 285.613 892.58 284.448L884.007 282.84C883.534 282.752 883.192 282.339 883.192 281.858V267.029C883.192 262.058 887.221 258.029 892.192 258.029H911.767Z" fill="#4D05BB"/>
<path fill-rule="evenodd" clip-rule="evenodd" d="M1459.32 1214.17C1466.05 1214.17 1471.5 1208.72 1471.5 1201.99C1471.5 1195.26 1466.05 1189.81 1459.32 1189.81C1452.6 1189.81 1447.14 1195.26 1447.14 1201.99C1447.14 1208.72 1452.6 1214.17 1459.32 1214.17ZM1445.32 1215.52C1440.35 1215.52 1436.32 1219.55 1436.32 1224.52V1243.11C1436.32 1243.59 1436.66 1244 1437.13 1244.09L1448.57 1246.24C1454.78 1247.4 1461.16 1247.4 1467.37 1246.24L1478.8 1244.09C1479.28 1244 1479.62 1243.59 1479.62 1243.11V1224.52C1479.62 1219.55 1475.59 1215.52 1470.62 1215.52H1445.32Z" fill="#4D05BB"/>
<path fill-rule="evenodd" clip-rule="evenodd" d="M948.62 1221.66C941.894 1221.66 936.441 1216.21 936.441 1209.48C936.441 1202.76 941.894 1197.3 948.62 1197.3C955.346 1197.3 960.798 1202.76 960.798 1209.48C960.798 1216.21 955.346 1221.66 948.62 1221.66ZM962.624 1223.01C967.594 1223.01 971.624 1227.04 971.624 1232.01V1250.6C971.624 1251.08 971.281 1251.49 970.808 1251.58L959.372 1253.73C953.16 1254.89 946.786 1254.89 940.574 1253.73L929.138 1251.58C928.665 1251.49 928.322 1251.08 928.322 1250.6V1232.01C928.322 1227.04 932.352 1223.01 937.322 1223.01H962.624Z" fill="#4D05BB"/>
<path fill-rule="evenodd" clip-rule="evenodd" d="M536.294 923.474C543.021 923.474 548.473 918.022 548.473 911.296C548.473 904.57 543.021 899.117 536.294 899.117C529.568 899.117 524.116 904.57 524.116 911.296C524.116 918.022 529.568 923.474 536.294 923.474ZM522.291 924.828C517.32 924.828 513.291 928.857 513.291 933.828V952.414C513.291 952.896 513.633 953.308 514.106 953.397L525.543 955.541C531.754 956.706 538.128 956.706 544.34 955.541L555.776 953.397C556.249 953.308 556.592 952.896 556.592 952.414V933.828C556.592 928.857 552.563 924.828 547.592 924.828H522.291Z" fill="#4D05BB"/>
<path fill-rule="evenodd" clip-rule="evenodd" d="M319.278 906.991C312.552 906.991 307.1 901.539 307.1 894.813C307.1 888.087 312.552 882.634 319.278 882.634C326.004 882.634 331.457 888.087 331.457 894.813C331.457 901.539 326.004 906.991 319.278 906.991ZM333.282 908.345C338.253 908.345 342.282 912.374 342.282 917.345V935.931C342.282 936.413 341.939 936.826 341.466 936.914L330.03 939.059C323.818 940.223 317.444 940.223 311.233 939.059L299.796 936.914C299.323 936.826 298.981 936.413 298.981 935.931V917.345C298.981 912.374 303.01 908.345 307.981 908.345H333.282Z" fill="#4D05BB"/>
<path fill-rule="evenodd" clip-rule="evenodd" d="M265.803 1127.4C259.077 1127.4 253.624 1121.95 253.624 1115.22C253.624 1108.5 259.077 1103.05 265.803 1103.05C272.529 1103.05 277.981 1108.5 277.981 1115.22C277.981 1121.95 272.529 1127.4 265.803 1127.4ZM279.807 1128.76C284.777 1128.76 288.807 1132.79 288.807 1137.76V1156.34C288.807 1156.82 288.464 1157.24 287.991 1157.33L276.555 1159.47C270.343 1160.63 263.969 1160.63 257.757 1159.47L246.321 1157.33C245.848 1157.24 245.505 1156.82 245.505 1156.34V1137.76C245.505 1132.79 249.535 1128.76 254.505 1128.76H279.807Z" fill="#4D05BB"/>
<path fill-rule="evenodd" clip-rule="evenodd" d="M406.803 1319.4C400.077 1319.4 394.624 1313.95 394.624 1307.22C394.624 1300.5 400.077 1295.05 406.803 1295.05C413.529 1295.05 418.981 1300.5 418.981 1307.22C418.981 1313.95 413.529 1319.4 406.803 1319.4ZM420.807 1320.76C425.777 1320.76 429.807 1324.79 429.807 1329.76V1348.34C429.807 1348.82 429.464 1349.24 428.991 1349.33L417.555 1351.47C411.343 1352.63 404.969 1352.63 398.757 1351.47L387.321 1349.33C386.848 1349.24 386.505 1348.82 386.505 1348.34V1329.76C386.505 1324.79 390.535 1320.76 395.505 1320.76H420.807Z" fill="#4D05BB"/>
<path fill-rule="evenodd" clip-rule="evenodd" d="M87.8027 1298.4C81.0767 1298.4 75.6241 1292.95 75.6241 1286.22C75.6241 1279.5 81.0767 1274.05 87.8027 1274.05C94.5287 1274.05 99.9813 1279.5 99.9813 1286.22C99.9813 1292.95 94.5287 1298.4 87.8027 1298.4ZM101.807 1299.76C106.777 1299.76 110.807 1303.79 110.807 1308.76V1327.34C110.807 1327.82 110.464 1328.24 109.991 1328.33L98.5546 1330.47C92.3429 1331.63 85.9688 1331.63 79.7571 1330.47L68.3208 1328.33C67.8478 1328.24 67.5051 1327.82 67.5051 1327.34V1308.76C67.5051 1303.79 71.5345 1299.76 76.5051 1299.76H101.807Z" fill="#4D05BB"/>
<path fill-rule="evenodd" clip-rule="evenodd" d="M1783.8 1309.4C1777.08 1309.4 1771.62 1303.95 1771.62 1297.22C1771.62 1290.5 1777.08 1285.05 1783.8 1285.05C1790.53 1285.05 1795.98 1290.5 1795.98 1297.22C1795.98 1303.95 1790.53 1309.4 1783.8 1309.4ZM1797.81 1310.76C1802.78 1310.76 1806.81 1314.79 1806.81 1319.76V1338.34C1806.81 1338.82 1806.46 1339.24 1805.99 1339.33L1794.55 1341.47C1788.34 1342.63 1781.97 1342.63 1775.76 1341.47L1764.32 1339.33C1763.85 1339.24 1763.51 1338.82 1763.51 1338.34V1319.76C1763.51 1314.79 1767.53 1310.76 1772.51 1310.76H1797.81Z" fill="#4D05BB"/>
<path fill-rule="evenodd" clip-rule="evenodd" d="M511.803 1155.4C505.077 1155.4 499.624 1149.95 499.624 1143.22C499.624 1136.5 505.077 1131.05 511.803 1131.05C518.529 1131.05 523.981 1136.5 523.981 1143.22C523.981 1149.95 518.529 1155.4 511.803 1155.4ZM525.807 1156.76C530.777 1156.76 534.807 1160.79 534.807 1165.76V1184.34C534.807 1184.82 534.464 1185.24 533.991 1185.33L522.555 1187.47C516.343 1188.63 509.969 1188.63 503.757 1187.47L492.321 1185.33C491.848 1185.24 491.505 1184.82 491.505 1184.34V1165.76C491.505 1160.79 495.534 1156.76 500.505 1156.76H525.807Z" fill="#4D05BB"/>
<path fill-rule="evenodd" clip-rule="evenodd" d="M694.803 1251.4C688.077 1251.4 682.624 1245.95 682.624 1239.22C682.624 1232.5 688.077 1227.05 694.803 1227.05C701.529 1227.05 706.981 1232.5 706.981 1239.22C706.981 1245.95 701.529 1251.4 694.803 1251.4ZM708.807 1252.76C713.777 1252.76 717.807 1256.79 717.807 1261.76V1280.34C717.807 1280.82 717.464 1281.24 716.991 1281.33L705.555 1283.47C699.343 1284.63 692.969 1284.63 686.757 1283.47L675.321 1281.33C674.848 1281.24 674.505 1280.82 674.505 1280.34V1261.76C674.505 1256.79 678.534 1252.76 683.505 1252.76H708.807Z" fill="#4D05BB"/>
<path fill-rule="evenodd" clip-rule="evenodd" d="M1672.1 1143.74C1678.82 1143.74 1684.28 1138.29 1684.28 1131.56C1684.28 1124.84 1678.82 1119.39 1672.1 1119.39C1665.37 1119.39 1659.92 1124.84 1659.92 1131.56C1659.92 1138.29 1665.37 1143.74 1672.1 1143.74ZM1658.09 1145.1C1653.12 1145.1 1649.09 1149.13 1649.09 1154.1V1172.68C1649.09 1173.16 1649.44 1173.58 1649.91 1173.67L1661.34 1175.81C1667.56 1176.97 1673.93 1176.97 1680.14 1175.81L1691.58 1173.67C1692.05 1173.58 1692.39 1173.16 1692.39 1172.68V1154.1C1692.39 1149.13 1688.37 1145.1 1683.39 1145.1H1658.09Z" fill="#4D05BB"/>
</g>
<defs>
<linearGradient id="paint0_linear_230_2" x1="989.242" y1="379.628" x2="1046.29" y2="458.697" gradientUnits="userSpaceOnUse">
<stop stop-color="#C43B56"/>
<stop offset="0.99" stop-color="#5B09C3"/>
</linearGradient>
<linearGradient id="paint1_linear_230_2" x1="1422.24" y1="689.628" x2="1479.29" y2="768.697" gradientUnits="userSpaceOnUse">
<stop stop-color="#C43B56"/>
<stop offset="0.99" stop-color="#5B09C3"/>
</linearGradient>
<linearGradient id="paint2_linear_230_2" x1="1558.24" y1="559.628" x2="1615.29" y2="638.697" gradientUnits="userSpaceOnUse">
<stop stop-color="#C43B56"/>
<stop offset="0.99" stop-color="#5B09C3"/>
</linearGradient>
<linearGradient id="paint3_linear_230_2" x1="23.6685" y1="19.6276" x2="80.3819" y2="99.6754" gradientUnits="userSpaceOnUse">
<stop stop-color="#C43B56"/>
<stop offset="0.99" stop-color="#5B09C3"/>
</linearGradient>
<linearGradient id="paint4_linear_230_2" x1="-40.5447" y1="518.808" x2="17.0266" y2="598.602" gradientUnits="userSpaceOnUse">
<stop stop-color="#C43B56"/>
<stop offset="0.99" stop-color="#5B09C3"/>
</linearGradient>
<linearGradient id="paint5_linear_230_2" x1="538.242" y1="198.628" x2="595.29" y2="277.697" gradientUnits="userSpaceOnUse">
<stop stop-color="#C43B56"/>
<stop offset="0.99" stop-color="#5B09C3"/>
</linearGradient>
<linearGradient id="paint6_linear_230_2" x1="23.242" y1="19.6276" x2="80.29" y2="98.6968" gradientUnits="userSpaceOnUse">
<stop stop-color="#C43B56"/>
<stop offset="0.99" stop-color="#5B09C3"/>
</linearGradient>
<linearGradient id="paint7_linear_230_2" x1="1674.24" y1="418.808" x2="1731.98" y2="498.102" gradientUnits="userSpaceOnUse">
<stop stop-color="#C43B56"/>
<stop offset="0.99" stop-color="#5B09C3"/>
</linearGradient>
<linearGradient id="paint8_linear_230_2" x1="1830.24" y1="559.628" x2="1887.29" y2="638.697" gradientUnits="userSpaceOnUse">
<stop stop-color="#C43B56"/>
<stop offset="0.99" stop-color="#5B09C3"/>
</linearGradient>
<linearGradient id="paint9_linear_230_2" x1="1924.24" y1="780.628" x2="1981.29" y2="859.697" gradientUnits="userSpaceOnUse">
<stop stop-color="#C43B56"/>
<stop offset="0.99" stop-color="#5B09C3"/>
</linearGradient>
<linearGradient id="paint10_linear_230_2" x1="1885.24" y1="1105.63" x2="1942.29" y2="1184.7" gradientUnits="userSpaceOnUse">
<stop stop-color="#C43B56"/>
<stop offset="0.99" stop-color="#5B09C3"/>
</linearGradient>
<linearGradient id="paint11_linear_230_2" x1="647.455" y1="4.62763" x2="704.337" y2="84.1897" gradientUnits="userSpaceOnUse">
<stop stop-color="#C43B56"/>
<stop offset="0.99" stop-color="#5B09C3"/>
</linearGradient>
<linearGradient id="paint12_linear_230_2" x1="23.242" y1="19.6276" x2="80.29" y2="98.6968" gradientUnits="userSpaceOnUse">
<stop stop-color="#C43B56"/>
<stop offset="0.99" stop-color="#5B09C3"/>
</linearGradient>
<linearGradient id="paint13_linear_230_2" x1="1783.24" y1="225.628" x2="1840.29" y2="304.697" gradientUnits="userSpaceOnUse">
<stop stop-color="#C43B56"/>
<stop offset="0.99" stop-color="#5B09C3"/>
</linearGradient>
<linearGradient id="paint14_linear_230_2" x1="1213.46" y1="749.808" x2="1271.03" y2="829.602" gradientUnits="userSpaceOnUse">
<stop stop-color="#C43B56"/>
<stop offset="0.99" stop-color="#5B09C3"/>
</linearGradient>
<linearGradient id="paint15_linear_230_2" x1="1088.24" y1="534.628" x2="1145.29" y2="613.697" gradientUnits="userSpaceOnUse">
<stop stop-color="#C43B56"/>
<stop offset="0.99" stop-color="#5B09C3"/>
</linearGradient>
<linearGradient id="paint16_linear_230_2" x1="1018.46" y1="969.808" x2="1076.03" y2="1049.6" gradientUnits="userSpaceOnUse">
<stop stop-color="#C43B56"/>
<stop offset="0.99" stop-color="#5B09C3"/>
</linearGradient>
<linearGradient id="paint17_linear_230_2" x1="1478.9" y1="276.647" x2="1530.19" y2="347.737" gradientUnits="userSpaceOnUse">
<stop stop-color="#C43B56"/>
<stop offset="0.99" stop-color="#5B09C3"/>
</linearGradient>
<linearGradient id="paint18_linear_230_2" x1="1620.68" y1="97.4668" x2="1671.45" y2="167.831" gradientUnits="userSpaceOnUse">
<stop stop-color="#C43B56"/>
<stop offset="0.99" stop-color="#5B09C3"/>
</linearGradient>
<linearGradient id="paint19_linear_230_2" x1="20.6833" y1="17.4668" x2="71.4507" y2="87.8311" gradientUnits="userSpaceOnUse">
<stop stop-color="#C43B56"/>
<stop offset="0.99" stop-color="#5B09C3"/>
</linearGradient>
<linearGradient id="paint20_linear_230_2" x1="23.6685" y1="19.9878" x2="81.7632" y2="100.508" gradientUnits="userSpaceOnUse">
<stop stop-color="#C43B56"/>
<stop offset="0.99" stop-color="#5B09C3"/>
</linearGradient>
<linearGradient id="paint21_linear_230_2" x1="23.242" y1="19.8077" x2="80.9772" y2="99.1019" gradientUnits="userSpaceOnUse">
<stop stop-color="#C43B56"/>
<stop offset="0.99" stop-color="#5B09C3"/>
</linearGradient>
<linearGradient id="paint22_linear_230_2" x1="23.242" y1="19.8077" x2="80.9772" y2="99.1019" gradientUnits="userSpaceOnUse">
<stop stop-color="#C43B56"/>
<stop offset="0.99" stop-color="#5B09C3"/>
</linearGradient>
<linearGradient id="paint23_linear_230_2" x1="23.242" y1="19.8077" x2="80.9772" y2="99.1019" gradientUnits="userSpaceOnUse">
<stop stop-color="#C43B56"/>
<stop offset="0.99" stop-color="#5B09C3"/>
</linearGradient>
<linearGradient id="paint24_linear_230_2" x1="996.238" y1="688.907" x2="1041.72" y2="751.951" gradientUnits="userSpaceOnUse">
<stop stop-color="#C43B56"/>
<stop offset="0.99" stop-color="#5B09C3"/>
</linearGradient>
<linearGradient id="paint25_linear_230_2" x1="1513.46" y1="880.628" x2="1570.34" y2="960.19" gradientUnits="userSpaceOnUse">
<stop stop-color="#C43B56"/>
<stop offset="0.99" stop-color="#5B09C3"/>
</linearGradient>
<linearGradient id="paint26_linear_230_2" x1="23.242" y1="19.6276" x2="80.29" y2="98.6968" gradientUnits="userSpaceOnUse">
<stop stop-color="#C43B56"/>
<stop offset="0.99" stop-color="#5B09C3"/>
</linearGradient>
<linearGradient id="paint27_linear_230_2" x1="-23.758" y1="798.988" x2="34.662" y2="878.5" gradientUnits="userSpaceOnUse">
<stop stop-color="#C43B56"/>
<stop offset="0.99" stop-color="#5B09C3"/>
</linearGradient>
<linearGradient id="paint28_linear_230_2" x1="23.4553" y1="19.8077" x2="81.0266" y2="99.6022" gradientUnits="userSpaceOnUse">
<stop stop-color="#C43B56"/>
<stop offset="0.99" stop-color="#5B09C3"/>
</linearGradient>
<linearGradient id="paint29_linear_230_2" x1="38.6685" y1="1007.63" x2="95.3819" y2="1087.68" gradientUnits="userSpaceOnUse">
<stop stop-color="#C43B56"/>
<stop offset="0.99" stop-color="#5B09C3"/>
</linearGradient>
<linearGradient id="paint30_linear_230_2" x1="23.242" y1="19.6276" x2="80.29" y2="98.6968" gradientUnits="userSpaceOnUse">
<stop stop-color="#C43B56"/>
<stop offset="0.99" stop-color="#5B09C3"/>
</linearGradient>
<linearGradient id="paint31_linear_230_2" x1="157.242" y1="683.628" x2="214.29" y2="762.697" gradientUnits="userSpaceOnUse">
<stop stop-color="#C43B56"/>
<stop offset="0.99" stop-color="#5B09C3"/>
</linearGradient>
<linearGradient id="paint32_linear_230_2" x1="23.6685" y1="19.6276" x2="80.3819" y2="99.6754" gradientUnits="userSpaceOnUse">
<stop stop-color="#C43B56"/>
<stop offset="0.99" stop-color="#5B09C3"/>
</linearGradient>
<linearGradient id="paint33_linear_230_2" x1="23.242" y1="19.8077" x2="80.9772" y2="99.1019" gradientUnits="userSpaceOnUse">
<stop stop-color="#C43B56"/>
<stop offset="0.99" stop-color="#5B09C3"/>
</linearGradient>
<linearGradient id="paint34_linear_230_2" x1="85.4553" y1="335.808" x2="143.027" y2="415.602" gradientUnits="userSpaceOnUse">
<stop stop-color="#C43B56"/>
<stop offset="0.99" stop-color="#5B09C3"/>
</linearGradient>
<linearGradient id="paint35_linear_230_2" x1="538.242" y1="509.628" x2="595.29" y2="588.697" gradientUnits="userSpaceOnUse">
<stop stop-color="#C43B56"/>
<stop offset="0.99" stop-color="#5B09C3"/>
</linearGradient>
<linearGradient id="paint36_linear_230_2" x1="23.242" y1="19.6276" x2="80.29" y2="98.6968" gradientUnits="userSpaceOnUse">
<stop stop-color="#C43B56"/>
<stop offset="0.99" stop-color="#5B09C3"/>
</linearGradient>
<linearGradient id="paint37_linear_230_2" x1="23.4553" y1="19.8077" x2="81.0266" y2="99.6022" gradientUnits="userSpaceOnUse">
<stop stop-color="#C43B56"/>
<stop offset="0.99" stop-color="#5B09C3"/>
</linearGradient>
<linearGradient id="paint38_linear_230_2" x1="23.242" y1="19.6276" x2="80.29" y2="98.6968" gradientUnits="userSpaceOnUse">
<stop stop-color="#C43B56"/>
<stop offset="0.99" stop-color="#5B09C3"/>
</linearGradient>
<linearGradient id="paint39_linear_230_2" x1="23.242" y1="19.8077" x2="80.9772" y2="99.1019" gradientUnits="userSpaceOnUse">
<stop stop-color="#C43B56"/>
<stop offset="0.99" stop-color="#5B09C3"/>
</linearGradient>
<linearGradient id="paint40_linear_230_2" x1="1674.24" y1="730.628" x2="1731.29" y2="809.697" gradientUnits="userSpaceOnUse">
<stop stop-color="#C43B56"/>
<stop offset="0.99" stop-color="#5B09C3"/>
</linearGradient>
<linearGradient id="paint41_linear_230_2" x1="1426.66" y1="1183.02" x2="1483.78" y2="1262.19" gradientUnits="userSpaceOnUse">
<stop stop-color="#C43B56"/>
<stop offset="0.99" stop-color="#5B09C3"/>
</linearGradient>
<linearGradient id="paint42_linear_230_2" x1="23.2712" y1="19.6522" x2="80.3906" y2="98.8204" gradientUnits="userSpaceOnUse">
<stop stop-color="#C43B56"/>
<stop offset="0.99" stop-color="#5B09C3"/>
</linearGradient>
<linearGradient id="paint43_linear_230_2" x1="503.629" y1="892.326" x2="560.748" y2="971.494" gradientUnits="userSpaceOnUse">
<stop stop-color="#C43B56"/>
<stop offset="0.99" stop-color="#5B09C3"/>
</linearGradient>
<linearGradient id="paint44_linear_230_2" x1="23.2712" y1="19.6522" x2="80.3906" y2="98.8204" gradientUnits="userSpaceOnUse">
<stop stop-color="#C43B56"/>
<stop offset="0.99" stop-color="#5B09C3"/>
</linearGradient>
<linearGradient id="paint45_linear_230_2" x1="23.2712" y1="19.6522" x2="80.3906" y2="98.8204" gradientUnits="userSpaceOnUse">
<stop stop-color="#C43B56"/>
<stop offset="0.99" stop-color="#5B09C3"/>
</linearGradient>
<linearGradient id="paint46_linear_230_2" x1="23.2712" y1="19.6522" x2="80.3906" y2="98.8204" gradientUnits="userSpaceOnUse">
<stop stop-color="#C43B56"/>
<stop offset="0.99" stop-color="#5B09C3"/>
</linearGradient>
<linearGradient id="paint47_linear_230_2" x1="23.2712" y1="19.6522" x2="80.3906" y2="98.8204" gradientUnits="userSpaceOnUse">
<stop stop-color="#C43B56"/>
<stop offset="0.99" stop-color="#5B09C3"/>
</linearGradient>
<linearGradient id="paint48_linear_230_2" x1="23.2712" y1="19.6522" x2="80.3906" y2="98.8204" gradientUnits="userSpaceOnUse">
<stop stop-color="#C43B56"/>
<stop offset="0.99" stop-color="#5B09C3"/>
</linearGradient>
<linearGradient id="paint49_linear_230_2" x1="23.2712" y1="19.6522" x2="80.3906" y2="98.8204" gradientUnits="userSpaceOnUse">
<stop stop-color="#C43B56"/>
<stop offset="0.99" stop-color="#5B09C3"/>
</linearGradient>
<linearGradient id="paint50_linear_230_2" x1="23.2712" y1="19.6522" x2="80.3906" y2="98.8204" gradientUnits="userSpaceOnUse">
<stop stop-color="#C43B56"/>
<stop offset="0.99" stop-color="#5B09C3"/>
</linearGradient>
<linearGradient id="paint51_linear_230_2" x1="1639.43" y1="1112.59" x2="1696.55" y2="1191.76" gradientUnits="userSpaceOnUse">
<stop stop-color="#C43B56"/>
<stop offset="0.99" stop-color="#5B09C3"/>
</linearGradient>
<linearGradient id="paint52_linear_230_2" x1="1283.24" y1="1023.81" x2="1340.98" y2="1103.1" gradientUnits="userSpaceOnUse">
<stop stop-color="#C43B56"/>
<stop offset="0.99" stop-color="#5B09C3"/>
</linearGradient>
<linearGradient id="paint53_linear_230_2" x1="1167.9" y1="1223.48" x2="1221.92" y2="1298.35" gradientUnits="userSpaceOnUse">
<stop stop-color="#C43B56"/>
<stop offset="0.99" stop-color="#5B09C3"/>
</linearGradient>
<clipPath id="clip0_230_2">
<rect width="1920" height="1346" fill="white"/>
</clipPath>
</defs>
</svg>
