<svg width="505" height="110" viewBox="0 0 505 110" fill="none" xmlns="http://www.w3.org/2000/svg">
<rect width="38" height="38" rx="5" fill="#F9F4FF"/>
<circle cx="18.207" cy="13.4023" r="5.81609" fill="#4D05BB"/>
<path d="M9.48279 28.1503C9.48279 24.0204 12.8307 20.6725 16.9606 20.6725H19.4532C23.5831 20.6725 26.9311 24.0204 26.9311 28.1503V28.1503C26.9311 28.8386 26.3731 29.3966 25.6848 29.3966H10.7291C10.0408 29.3966 9.48279 28.8386 9.48279 28.1503V28.1503Z" fill="#4D05BB"/>
<rect y="72" width="38" height="38" rx="5" fill="#F9F4FF"/>
<path fill-rule="evenodd" clip-rule="evenodd" d="M18.5 85.2191C16.6006 82.8554 13.4268 82.1248 11.047 84.2894C8.66716 86.4539 8.33212 90.0728 10.201 92.6329C11.7548 94.7613 16.4573 99.2504 17.9985 100.703C18.1709 100.866 18.2571 100.947 18.3577 100.979C18.4454 101.007 18.5415 101.007 18.6293 100.979C18.7299 100.947 18.816 100.866 18.9885 100.703C20.5297 99.2504 25.2321 94.7613 26.786 92.6329C28.6549 90.0728 28.3607 86.4311 25.94 84.2894C23.5193 82.1476 20.3994 82.8554 18.5 85.2191Z" fill="#4D05BB"/>
<rect x="78" width="38" height="38" rx="5" fill="#F9F4FF"/>
<path d="M104.576 16.985C106.475 18.0812 106.475 20.9188 104.576 22.015L93.1128 28.6338C91.2676 29.6992 89 28.3125 89 26.1187V12.8813C89 10.6875 91.2676 9.30082 93.1128 10.3662L104.576 16.985Z" fill="#4D05BB"/>
<rect x="233" width="38" height="38" rx="5" fill="#F9F4FF"/>
<rect x="242.759" y="9.48279" width="17.069" height="18.9655" rx="2" fill="#4D05BB"/>
<path d="M253.53 24.6552H250.56V19.2989C250.56 19.2001 250.56 19.0199 250.56 18.7581C250.56 18.4914 250.562 18.1975 250.567 17.8765C250.577 17.5555 250.589 17.2665 250.604 17.0097C250.476 17.1628 250.355 17.2937 250.241 17.4024C250.132 17.511 250.026 17.6123 249.923 17.7061L248.693 18.7211L247.174 16.8541L250.893 13.8241H253.53V24.6552Z" fill="#F9F4FF"/>
<rect x="78" y="72" width="38" height="38" rx="5" fill="#F9F4FF"/>
<path fill-rule="evenodd" clip-rule="evenodd" d="M96.4853 85.5616C93.0402 85.5616 90.1427 87.9178 89.3216 91.1083C89.1761 91.6735 88.6 92.0137 88.0349 91.8682C87.4697 91.7228 87.1295 91.1467 87.2749 90.5815C88.3306 86.48 92.0526 83.4482 96.4853 83.4482C100.918 83.4482 104.64 86.48 105.696 90.5815C105.841 91.1467 105.501 91.7228 104.936 91.8682C104.371 92.0137 103.794 91.6735 103.649 91.1083C102.828 87.9178 99.9304 85.5616 96.4853 85.5616Z" fill="#4D05BB"/>
<path d="M101.768 92.9585C101.768 95.8764 99.403 98.2419 96.4851 98.2419C93.5672 98.2419 91.2018 95.8764 91.2018 92.9585C91.2018 90.0406 93.5672 87.6752 96.4851 87.6752C99.403 87.6752 101.768 90.0406 101.768 92.9585Z" fill="#4D05BB"/>
<rect x="156" width="37" height="38" rx="5" fill="#F9F4FF"/>
<path d="M184.115 15.9529C186.445 17.266 186.445 20.665 184.115 21.9781L170.047 29.9061C167.783 31.1823 165 29.5213 165 26.8936V11.0374C165 8.40968 167.783 6.74869 170.047 8.02483L184.115 15.9529Z" fill="#4D05BB"/>
<circle cx="178.276" cy="18.9655" r="9.48276" fill="#F9F4FF"/>
<path d="M176.379 24.6552H179.914H183.448M179.827 13.2759V21.4383M179.827 21.4383L182.7 18.5231M179.827 21.4383L176.954 18.5231" stroke="#4D05BB" stroke-width="1.5" stroke-linecap="round" stroke-linejoin="round"/>
<rect x="156" y="72" width="37" height="38" rx="5" fill="#F9F4FF"/>
<circle cx="174.483" cy="91.0345" r="11.3793" fill="#4D05BB"/>
<path d="M170.69 97.1405H174.483H178.276M174.389 84.9286V93.6883M174.389 93.6883L177.473 90.5598M174.389 93.6883L171.306 90.5598" stroke="#F9F4FF" stroke-width="1.5" stroke-linecap="round" stroke-linejoin="round"/>
<rect x="233" y="72" width="38" height="38" rx="5" fill="#F9F4FF"/>
<path d="M251.5 80C246.806 80 243 83.6939 243 88.25C243 90.044 243.606 91.6903 244.613 93.0384C244.631 93.0708 244.634 93.1068 244.655 93.1378L250.321 101.388C250.584 101.77 251.027 102 251.5 102C251.973 102 252.416 101.77 252.679 101.388L258.345 93.1378C258.366 93.1068 258.369 93.0708 258.387 93.0384C259.394 91.6903 260 90.044 260 88.25C260 83.6939 256.194 80 251.5 80ZM251.5 91C249.935 91 248.667 89.7687 248.667 88.25C248.667 86.7313 249.935 85.5 251.5 85.5C253.065 85.5 254.333 86.7313 254.333 88.25C254.333 89.7687 253.065 91 251.5 91Z" fill="#4D05BB"/>
<rect x="389" width="38" height="38" rx="5" fill="#F9F4FF"/>
<rect x="400.172" y="8.48279" width="15.1724" height="20.8621" rx="1" fill="#4D05BB"/>
<path d="M403.966 13.2241H411.552" stroke="#F9F4FF" stroke-width="1.5" stroke-linecap="round"/>
<path d="M403.966 17.0172H411.552" stroke="#F9F4FF" stroke-width="1.5" stroke-linecap="round"/>
<path d="M403.966 20.8104H411.552" stroke="#F9F4FF" stroke-width="1.5" stroke-linecap="round"/>
<rect x="311" width="38" height="38" rx="5" fill="#F9F4FF"/>
<rect x="318.621" y="9.48279" width="22.7586" height="18.9655" rx="1" fill="#4D05BB"/>
<path d="M322.414 15.1725H335.69" stroke="#F9F4FF" stroke-width="1.5" stroke-linecap="round"/>
<path d="M322.414 18.9656H335.69" stroke="#F9F4FF" stroke-width="1.5" stroke-linecap="round"/>
<path d="M322.414 22.7587H328.103" stroke="#F9F4FF" stroke-width="1.5" stroke-linecap="round"/>
<rect x="311" y="72" width="38" height="38" rx="5" fill="#F9F4FF"/>
<rect x="324.31" y="86.2413" width="17.069" height="13.2759" rx="1" fill="#4D05BB"/>
<rect x="320.017" y="81.9482" width="18.069" height="14.2759" rx="1.5" fill="#4D05BB" stroke="#F9F4FF"/>
<path d="M327.74 91.1327V90.7215C327.74 90.4697 327.776 90.2474 327.846 90.0548C327.916 89.8585 328.029 89.6733 328.185 89.4992C328.341 89.3214 328.546 89.1399 328.802 88.9546C329.031 88.7917 329.215 88.6453 329.352 88.5157C329.493 88.386 329.594 88.2583 329.657 88.1323C329.724 88.0027 329.757 87.8563 329.757 87.6934C329.757 87.4526 329.668 87.2692 329.491 87.1433C329.313 87.0173 329.065 86.9544 328.746 86.9544C328.428 86.9544 328.111 87.0044 327.796 87.1044C327.485 87.2044 327.168 87.3359 326.846 87.4989L326.24 86.2821C326.611 86.0746 327.013 85.9079 327.446 85.782C327.879 85.6523 328.353 85.5875 328.868 85.5875C329.661 85.5875 330.274 85.7783 330.708 86.1598C331.145 86.5377 331.363 87.0192 331.363 87.6045C331.363 87.9156 331.313 88.186 331.213 88.4157C331.117 88.6416 330.969 88.8528 330.769 89.0491C330.572 89.2417 330.326 89.4455 330.03 89.6603C329.807 89.8233 329.637 89.9603 329.518 90.0715C329.4 90.1826 329.318 90.2937 329.274 90.4048C329.233 90.5123 329.213 90.6438 329.213 90.7993V91.1327H327.74ZM327.563 93.033C327.563 92.6848 327.657 92.4403 327.846 92.2995C328.039 92.1588 328.27 92.0884 328.541 92.0884C328.804 92.0884 329.029 92.1588 329.218 92.2995C329.411 92.4403 329.507 92.6848 329.507 93.033C329.507 93.3663 329.411 93.6071 329.218 93.7553C329.029 93.9035 328.804 93.9775 328.541 93.9775C328.27 93.9775 328.039 93.9035 327.846 93.7553C327.657 93.6071 327.563 93.3663 327.563 93.033Z" fill="white"/>
<rect x="389" y="72" width="38" height="38" rx="5" fill="#F9F4FF"/>
<path d="M408 100.5C402.753 100.5 398.5 96.2467 398.5 91C398.5 85.7533 402.753 81.5 408 81.5C413.247 81.5 417.5 85.7533 417.5 91C417.5 92.5702 417.119 94.0516 416.444 95.3565L417.5 100.5L412.356 99.4444C411.052 100.119 409.57 100.5 408 100.5Z" fill="#4D05BB"/>
<rect x="467" y="72" width="38" height="38" rx="5" fill="#F9F4FF"/>
<path d="M495.5 82.9514V86.338M495.5 86.338L492.597 83.7174C491.056 82.3385 489.022 81.5 486.792 81.5C481.982 81.5 478.083 85.3989 478.083 90.2083C478.083 95.0179 481.982 98.9167 486.792 98.9167C490.936 98.9167 494.404 96.0216 495.284 92.1435M495.5 86.338H491.871" stroke="#4D05BB" stroke-width="1.5" stroke-linecap="round" stroke-linejoin="round"/>
<path d="M471 91C471 88.2386 473.239 86 476 86H483C486.866 86 490 89.134 490 93V104C490 105.105 489.105 106 488 106H471V91Z" fill="#F9F4FF"/>
<path fill-rule="evenodd" clip-rule="evenodd" d="M483.15 89.0739C481.441 87.0778 478.584 86.4609 476.442 88.2887C474.3 90.1166 473.999 93.1726 475.681 95.3344C477.079 97.1317 481.312 100.923 482.699 102.149C482.854 102.287 482.931 102.355 483.022 102.382C483.101 102.406 483.187 102.406 483.266 102.382C483.357 102.355 483.434 102.287 483.59 102.149C484.977 100.923 489.209 97.1317 490.607 95.3344C492.289 93.1726 492.025 90.0973 489.846 88.2887C487.667 86.4802 484.859 87.0778 483.15 89.0739Z" fill="#4D05BB"/>
<rect x="467" width="38" height="38" rx="5" fill="#F9F4FF"/>
<rect x="475" y="8" width="22" height="22" rx="2" fill="#4D05BB"/>
<rect x="475" y="8" width="22" height="22" rx="11" fill="white"/>
<path d="M495.586 9.42715C494.353 8.19351 492.612 8 490.557 8H486.786V13.9384C487.632 12.2815 489.082 11.2655 490.702 11.2655C492.564 11.2655 493.954 12.6685 493.954 14.5552C493.954 16.1759 492.83 17.5305 491.198 18.2562H497V14.4464C497 12.3782 496.819 10.6487 495.586 9.42715ZM484.586 18.0627H484.973V17.6877C484.973 15.2446 483.316 13.116 481.395 13.116C480.464 13.116 479.871 13.7328 479.871 14.6883C479.871 16.3211 482.035 18.0627 484.586 18.0627ZM487.414 18.0627C489.953 18.0627 492.129 16.3211 492.129 14.6883C492.129 13.7328 491.536 13.116 490.606 13.116C488.684 13.116 487.028 15.2446 487.028 17.6877V18.0627H487.414ZM475 18.2562H480.802C479.17 17.5305 478.046 16.1759 478.046 14.5552C478.046 12.6685 479.436 11.2655 481.298 11.2655C482.918 11.2655 484.368 12.2815 485.214 13.9384V8H481.419C479.388 8 477.647 8.19351 476.414 9.42715C475.181 10.6608 475 12.3903 475 14.4101V18.2562ZM493.059 23.7592C493.724 23.8318 494.099 24.243 494.099 24.884C494.099 25.4404 493.652 25.9725 492.914 25.8757C490.92 25.5734 487.729 23.2513 486.882 20.5904H486.786V30H490.557C492.612 30 494.353 29.8065 495.586 28.5729C496.819 27.3392 497 25.6218 497 23.5536V19.6955H488.043C488.792 21.2436 491.27 23.5778 493.059 23.7592ZM476.414 28.5729C477.647 29.8065 479.388 30 481.455 30H485.214V20.5904H485.118C484.271 23.2513 481.08 25.5734 479.086 25.8757C478.348 25.9725 477.901 25.4404 477.901 24.884C477.901 24.243 478.264 23.8318 478.941 23.7592C480.73 23.5778 483.208 21.2436 483.957 19.6955H475V23.5536C475 25.6218 475.181 27.3392 476.414 28.5729Z" fill="#4D05BB"/>
</svg>
