<svg width="212" height="190" viewBox="0 0 212 190" fill="none" xmlns="http://www.w3.org/2000/svg">
<g filter="url(#filter0_d_1_32)">
<circle cx="117" cy="95" r="85" fill="white"/>
</g>
<path d="M167.754 95.9955L167.755 95.9959C169.415 97.6554 169.415 100.345 167.755 102.004L167.754 102.005L124.004 145.755C123.174 146.585 122.089 147 121 147C119.911 147 118.826 146.585 117.995 145.755L74.2455 102.005C73.4479 101.207 73 100.128 73 99L73 55.25C73 52.8999 74.8999 51 77.25 51L121 51C122.128 51 123.207 51.4479 124.004 52.2455L167.754 95.9955ZM87.7499 80.2562C87.7499 88.2639 94.2422 94.7562 102.25 94.7562C110.258 94.7562 116.75 88.2639 116.75 80.2562C116.75 72.2486 110.258 65.7562 102.25 65.7562C94.2422 65.7562 87.7499 72.2486 87.7499 80.2562Z" stroke="#7218E0" stroke-width="4"/>
<circle cx="39.5" cy="43.5" r="39.5" fill="#2C2C2C"/>
<path d="M20 44.5H58.5" stroke="white" stroke-width="6"/>
<path d="M39 63.5L39 25" stroke="white" stroke-width="6"/>
<defs>
<filter id="filter0_d_1_32" x="22" y="0" width="190" height="190" filterUnits="userSpaceOnUse" color-interpolation-filters="sRGB">
<feFlood flood-opacity="0" result="BackgroundImageFix"/>
<feColorMatrix in="SourceAlpha" type="matrix" values="0 0 0 0 0 0 0 0 0 0 0 0 0 0 0 0 0 0 127 0" result="hardAlpha"/>
<feOffset/>
<feGaussianBlur stdDeviation="5"/>
<feComposite in2="hardAlpha" operator="out"/>
<feColorMatrix type="matrix" values="0 0 0 0 0.6875 0 0 0 0 0.6875 0 0 0 0 0.6875 0 0 0 1 0"/>
<feBlend mode="normal" in2="BackgroundImageFix" result="effect1_dropShadow_1_32"/>
<feBlend mode="normal" in="SourceGraphic" in2="effect1_dropShadow_1_32" result="shape"/>
</filter>
</defs>
</svg>
