<svg width="20" height="20" viewBox="0 0 20 20" fill="none" xmlns="http://www.w3.org/2000/svg">
<path fill-rule="evenodd" clip-rule="evenodd" d="M13.8571 1H6.14286C3.30253 1 1 3.30253 1 6.14286V13.8571C1 16.6974 3.30253 19 6.14286 19H13.8571C16.6974 19 19 16.6974 19 13.8571V6.14286C19 3.30253 16.6974 1 13.8571 1Z" stroke="#4D05BB" stroke-width="1.5" stroke-linecap="round" stroke-linejoin="round"/>
<path fill-rule="evenodd" clip-rule="evenodd" d="M10 14C7.7908 14 6 12.2092 6 10C6 7.7908 7.7908 6 10 6C12.2092 6 14 7.7908 14 10C14 11.0608 13.5785 12.0783 12.8284 12.8284C12.0783 13.5785 11.0608 14 10 14Z" stroke="#4D05BB" stroke-width="1.5" stroke-linecap="round" stroke-linejoin="round"/>
<path d="M15 4C14.4477 4 14 4.44772 14 5C14 5.55228 14.4477 6 15 6C15.5523 6 16 5.55228 16 5C16 4.44772 15.5523 4 15 4Z" fill="#4D05BB"/>
</svg>
