<svg width="212" height="190" viewBox="0 0 212 190" fill="none" xmlns="http://www.w3.org/2000/svg">
<g filter="url(#filter0_d_1_31)">
<circle cx="117" cy="95" r="85" fill="white"/>
</g>
<circle cx="39.5" cy="43.5" r="39.5" fill="#2C2C2C"/>
<path d="M61.2673 43.2325L43.7674 25.7325C43.2987 25.2638 42.6637 25 41.9999 25L24.5 25C23.1181 25 22 26.1181 22 27.5L22 45C22 45.6637 22.2637 46.2987 22.7325 46.7675L40.2324 64.2675C40.7206 64.7556 41.3605 65 41.9999 65C42.6393 65 43.2793 64.7556 43.7674 64.2675L61.2673 46.7675C62.2442 45.7913 62.2442 44.2087 61.2673 43.2325ZM34.5 42.5025C31.7387 42.5025 29.5 40.2638 29.5 37.5025C29.5 34.7413 31.7387 32.5025 34.5 32.5025C37.2612 32.5025 39.4999 34.7413 39.4999 37.5025C39.4999 40.2638 37.2612 42.5025 34.5 42.5025Z" fill="white"/>
<path d="M161.528 136.556V136.806H161.778H172.639V140.75H64.25V136.806H75.1111H75.3611V136.556V107.667C75.3611 106.578 76.2441 105.694 77.3333 105.694H92.8889C93.9781 105.694 94.8611 106.578 94.8611 107.667V136.556V136.806H95.1111H97.3333H97.5833V136.556V92.1111C97.5833 91.022 98.4663 90.1389 99.5556 90.1389H115.111C116.2 90.1389 117.083 91.022 117.083 92.1111V136.556V136.806H117.333H119.556H119.806V136.556V78.7778C119.806 77.6887 120.689 76.8055 121.778 76.8055H137.333C138.423 76.8055 139.306 77.6887 139.306 78.7778V136.556V136.806H139.556H141.778H142.028V136.556V58.7778C142.028 57.6887 142.911 56.8055 144 56.8055H159.556C160.645 56.8055 161.528 57.6887 161.528 58.7778V136.556ZM90.6667 136.806H90.9167V136.556V119.889V119.639H90.6667H79.5556H79.3056V119.889V136.556V136.806H79.5556H90.6667ZM90.6667 115.694H90.9167V115.444V109.889V109.639H90.6667H79.5556H79.3056V109.889V115.444V115.694H79.5556H90.6667ZM112.889 136.806H113.139V136.556V104.333V104.083H112.889H101.778H101.528V104.333V136.556V136.806H101.778H112.889ZM112.889 100.139H113.139V99.8889V94.3333V94.0833H112.889H101.778H101.528V94.3333V99.8889V100.139H101.778H112.889ZM135.111 136.806H135.361V136.556V91V90.75H135.111H124H123.75V91V136.556V136.806H124H135.111ZM135.111 86.8055H135.361V86.5555V81V80.75H135.111H124H123.75V81V86.5555V86.8055H124H135.111ZM157.333 136.806H157.583V136.556V71V70.75H157.333H146.222H145.972V71V136.556V136.806H146.222H157.333ZM157.333 66.8055H157.583V66.5555V61V60.75H157.333H146.222H145.972V61V66.5555V66.8055H146.222H157.333Z" fill="#7218E0" stroke="white" stroke-width="0.5"/>
<path d="M76.6827 98.8847L73.8933 96.0953L124.367 45.6212L124.794 45.1944H124.19H115.361V41.25H129.556C130.645 41.25 131.528 42.1332 131.528 43.2222V56.3056H127.583V48.5873V47.9838L127.157 48.4106L76.6827 98.8847Z" fill="#7218E0" stroke="white" stroke-width="0.5"/>
<defs>
<filter id="filter0_d_1_31" x="22" y="0" width="190" height="190" filterUnits="userSpaceOnUse" color-interpolation-filters="sRGB">
<feFlood flood-opacity="0" result="BackgroundImageFix"/>
<feColorMatrix in="SourceAlpha" type="matrix" values="0 0 0 0 0 0 0 0 0 0 0 0 0 0 0 0 0 0 127 0" result="hardAlpha"/>
<feOffset/>
<feGaussianBlur stdDeviation="5"/>
<feComposite in2="hardAlpha" operator="out"/>
<feColorMatrix type="matrix" values="0 0 0 0 0.6875 0 0 0 0 0.6875 0 0 0 0 0.6875 0 0 0 1 0"/>
<feBlend mode="normal" in2="BackgroundImageFix" result="effect1_dropShadow_1_31"/>
<feBlend mode="normal" in="SourceGraphic" in2="effect1_dropShadow_1_31" result="shape"/>
</filter>
</defs>
</svg>
