<svg width="142" height="141" viewBox="0 0 142 141" fill="none" xmlns="http://www.w3.org/2000/svg">
<circle cx="71" cy="70" r="49.5" fill="white" stroke="url(#paint0_linear_506_238)"/>
<path fill-rule="evenodd" clip-rule="evenodd" d="M81.3897 85.3274C86.4623 81.8037 89.7833 75.935 89.7833 69.2907C89.7833 58.5142 81.0472 49.7781 70.2707 49.7781C59.4942 49.7781 50.7581 58.5142 50.7581 69.2907C50.7581 75.935 54.0791 81.8037 59.1517 85.3274C49.6063 89.6209 42.9531 99.2726 42.9531 110.491C46.4554 113.669 57.6626 121 70.2707 121C82.8789 121 93.3856 115.081 97.5884 112.61V110.491C97.5884 99.2726 90.9352 89.6209 81.3897 85.3274Z" fill="url(#paint1_linear_506_238)"/>
<path d="M114 1H141V28" stroke="url(#paint2_linear_506_238)"/>
<path d="M28 1H1V28" stroke="url(#paint3_linear_506_238)"/>
<path d="M29 140L2 140L2 113" stroke="url(#paint4_linear_506_238)"/>
<path d="M114 140L141 140L141 113" stroke="url(#paint5_linear_506_238)"/>
<defs>
<linearGradient id="paint0_linear_506_238" x1="4.88867" y1="6.84133" x2="130.874" y2="39.665" gradientUnits="userSpaceOnUse">
<stop stop-color="#C43B56"/>
<stop offset="0.3395" stop-color="#982684"/>
<stop offset="0.726" stop-color="#6A10B3"/>
<stop offset="0.9195" stop-color="#5908C5"/>
</linearGradient>
<linearGradient id="paint1_linear_506_238" x1="34.1506" y1="40.4062" x2="104.832" y2="54.5326" gradientUnits="userSpaceOnUse">
<stop stop-color="#C43B56"/>
<stop offset="0.3395" stop-color="#982684"/>
<stop offset="0.726" stop-color="#6A10B3"/>
<stop offset="0.9195" stop-color="#5908C5"/>
</linearGradient>
<linearGradient id="paint2_linear_506_238" x1="109.65" y1="-2.55284" x2="143.666" y2="6.30954" gradientUnits="userSpaceOnUse">
<stop stop-color="#C43B56"/>
<stop offset="0.3395" stop-color="#982684"/>
<stop offset="0.726" stop-color="#6A10B3"/>
<stop offset="0.9195" stop-color="#5908C5"/>
</linearGradient>
<linearGradient id="paint3_linear_506_238" x1="32.3501" y1="-2.55284" x2="-1.66587" y2="6.30954" gradientUnits="userSpaceOnUse">
<stop stop-color="#C43B56"/>
<stop offset="0.3395" stop-color="#982684"/>
<stop offset="0.726" stop-color="#6A10B3"/>
<stop offset="0.9195" stop-color="#5908C5"/>
</linearGradient>
<linearGradient id="paint4_linear_506_238" x1="33.3501" y1="143.553" x2="-0.665873" y2="134.69" gradientUnits="userSpaceOnUse">
<stop stop-color="#C43B56"/>
<stop offset="0.3395" stop-color="#982684"/>
<stop offset="0.726" stop-color="#6A10B3"/>
<stop offset="0.9195" stop-color="#5908C5"/>
</linearGradient>
<linearGradient id="paint5_linear_506_238" x1="109.65" y1="143.553" x2="143.666" y2="134.69" gradientUnits="userSpaceOnUse">
<stop stop-color="#C43B56"/>
<stop offset="0.3395" stop-color="#982684"/>
<stop offset="0.726" stop-color="#6A10B3"/>
<stop offset="0.9195" stop-color="#5908C5"/>
</linearGradient>
</defs>
</svg>
