<svg width="175" height="57" viewBox="0 0 175 57" fill="none" xmlns="http://www.w3.org/2000/svg">
<rect x="0.5" y="0.5" width="153" height="56" rx="11.5" fill="#FFF8FE" stroke="url(#paint0_linear_506_319)"/>
<path fill-rule="evenodd" clip-rule="evenodd" d="M34.0631 33.2861C36.2387 31.7746 37.663 29.2575 37.663 26.4077C37.663 21.7853 33.9159 18.0381 29.2935 18.0381C24.6711 18.0381 20.9239 21.7853 20.9239 26.4077C20.9239 29.2575 22.3482 31.7746 24.5239 33.2861C20.4297 35.1278 17.5761 39.2676 17.5761 44.0794C19.0783 45.4424 23.8854 48.587 29.2935 48.587C34.7015 48.587 39.2082 46.0482 41.0109 44.9881V44.0794C41.0109 39.2676 38.1572 35.1278 34.0631 33.2861Z" fill="url(#paint1_linear_506_319)"/>
<circle cx="29.5" cy="28.5" r="20" stroke="url(#paint2_linear_506_319)"/>
<path d="M58 29H96" stroke="#6A10B3" stroke-width="4" stroke-linecap="round"/>
<circle cx="148.5" cy="28.5" r="26" fill="white" stroke="url(#paint3_linear_506_319)"/>
<path fill-rule="evenodd" clip-rule="evenodd" d="M161.188 20.2678C162.164 19.2915 162.164 17.7085 161.188 16.7322C160.212 15.7559 158.629 15.7559 157.653 16.7322L148.46 25.9247L139.268 16.7325C138.291 15.7562 136.709 15.7562 135.732 16.7325C134.756 17.7088 134.756 19.2917 135.732 20.268L144.924 29.4603L136.439 37.9454C135.463 38.9217 135.463 40.5047 136.439 41.481C137.416 42.4573 138.999 42.4573 139.975 41.481L148.46 32.9958L156.945 41.4812C157.922 42.4575 159.505 42.4575 160.481 41.4812C161.457 40.5049 161.457 38.922 160.481 37.9457L151.996 29.4603L161.188 20.2678Z" fill="url(#paint4_linear_506_319)"/>
<defs>
<linearGradient id="paint0_linear_506_319" x1="-24.8115" y1="-7.50044" x2="113.73" y2="90.0196" gradientUnits="userSpaceOnUse">
<stop stop-color="#C43B56"/>
<stop offset="0.3395" stop-color="#982684"/>
<stop offset="0.726" stop-color="#6A10B3"/>
<stop offset="0.9195" stop-color="#5908C5"/>
</linearGradient>
<linearGradient id="paint1_linear_506_319" x1="13.8004" y1="14.0183" x2="44.1178" y2="20.0776" gradientUnits="userSpaceOnUse">
<stop stop-color="#C43B56"/>
<stop offset="0.3395" stop-color="#982684"/>
<stop offset="0.726" stop-color="#6A10B3"/>
<stop offset="0.9195" stop-color="#5908C5"/>
</linearGradient>
<linearGradient id="paint2_linear_506_319" x1="2.39435" y1="2.60495" x2="54.0482" y2="16.0626" gradientUnits="userSpaceOnUse">
<stop stop-color="#C43B56"/>
<stop offset="0.3395" stop-color="#982684"/>
<stop offset="0.726" stop-color="#6A10B3"/>
<stop offset="0.9195" stop-color="#5908C5"/>
</linearGradient>
<linearGradient id="paint3_linear_506_319" x1="113.461" y1="-4.97409" x2="180.233" y2="12.4224" gradientUnits="userSpaceOnUse">
<stop stop-color="#C43B56"/>
<stop offset="0.3395" stop-color="#982684"/>
<stop offset="0.726" stop-color="#6A10B3"/>
<stop offset="0.9195" stop-color="#5908C5"/>
</linearGradient>
<linearGradient id="paint4_linear_506_319" x1="130.663" y1="12.5507" x2="164.461" y2="21.5937" gradientUnits="userSpaceOnUse">
<stop stop-color="#C43B56"/>
<stop offset="0.3395" stop-color="#982684"/>
<stop offset="0.726" stop-color="#6A10B3"/>
<stop offset="0.9195" stop-color="#5908C5"/>
</linearGradient>
</defs>
</svg>
