<svg width="180" height="57" viewBox="0 0 180 57" fill="none" xmlns="http://www.w3.org/2000/svg">
<rect x="0.5" y="0.5" width="153" height="56" rx="11.5" fill="#FFF8FE" stroke="url(#paint0_linear_506_310)"/>
<path fill-rule="evenodd" clip-rule="evenodd" d="M34.0631 33.286C36.2387 31.7746 37.663 29.2574 37.663 26.4076C37.663 21.7852 33.9159 18.038 29.2935 18.038C24.6711 18.038 20.9239 21.7852 20.9239 26.4076C20.9239 29.2574 22.3482 31.7746 24.5239 33.286C20.4297 35.1277 17.5761 39.2675 17.5761 44.0793C19.0783 45.4424 23.8854 48.5869 29.2935 48.5869C34.7015 48.5869 39.2082 46.0482 41.0109 44.988V44.0793C41.0109 39.2675 38.1572 35.1277 34.0631 33.286Z" fill="url(#paint1_linear_506_310)"/>
<circle cx="29.5" cy="28.5" r="20" stroke="url(#paint2_linear_506_310)"/>
<path d="M58 29H96" stroke="#6A10B3" stroke-width="4" stroke-linecap="round"/>
<circle cx="153.5" cy="28.5" r="26" fill="white" stroke="url(#paint3_linear_506_310)"/>
<path d="M150.057 15.9735C151.189 12.0088 156.811 12.0088 157.943 15.9735C158.551 18.1002 160.737 19.3617 162.884 18.8239C166.885 17.8215 169.696 22.6874 166.827 25.6495C165.288 27.2385 165.288 29.7615 166.827 31.3505C169.696 34.3126 166.885 39.1785 162.884 38.1761C160.737 37.6383 158.551 38.8998 157.943 41.0265C156.811 44.9912 151.189 44.9912 150.057 41.0265C149.449 38.8998 147.263 37.6383 145.116 38.1761C141.115 39.1785 138.304 34.3126 141.173 31.3505C142.712 29.7615 142.712 27.2385 141.173 25.6495C138.304 22.6874 141.115 17.8215 145.116 18.8239C147.263 19.3617 149.449 18.1002 150.057 15.9735Z" fill="url(#paint4_linear_506_310)"/>
<defs>
<linearGradient id="paint0_linear_506_310" x1="-24.8115" y1="-7.50044" x2="113.73" y2="90.0196" gradientUnits="userSpaceOnUse">
<stop stop-color="#C43B56"/>
<stop offset="0.3395" stop-color="#982684"/>
<stop offset="0.726" stop-color="#6A10B3"/>
<stop offset="0.9195" stop-color="#5908C5"/>
</linearGradient>
<linearGradient id="paint1_linear_506_310" x1="13.8004" y1="14.0182" x2="44.1178" y2="20.0775" gradientUnits="userSpaceOnUse">
<stop stop-color="#C43B56"/>
<stop offset="0.3395" stop-color="#982684"/>
<stop offset="0.726" stop-color="#6A10B3"/>
<stop offset="0.9195" stop-color="#5908C5"/>
</linearGradient>
<linearGradient id="paint2_linear_506_310" x1="2.39435" y1="2.60495" x2="54.0482" y2="16.0626" gradientUnits="userSpaceOnUse">
<stop stop-color="#C43B56"/>
<stop offset="0.3395" stop-color="#982684"/>
<stop offset="0.726" stop-color="#6A10B3"/>
<stop offset="0.9195" stop-color="#5908C5"/>
</linearGradient>
<linearGradient id="paint3_linear_506_310" x1="118.461" y1="-4.97409" x2="185.233" y2="12.4224" gradientUnits="userSpaceOnUse">
<stop stop-color="#C43B56"/>
<stop offset="0.3395" stop-color="#982684"/>
<stop offset="0.726" stop-color="#6A10B3"/>
<stop offset="0.9195" stop-color="#5908C5"/>
</linearGradient>
<linearGradient id="paint4_linear_506_310" x1="135.489" y1="8.92081" x2="171.182" y2="17.3203" gradientUnits="userSpaceOnUse">
<stop stop-color="#C43B56"/>
<stop offset="0.3395" stop-color="#982684"/>
<stop offset="0.726" stop-color="#6A10B3"/>
<stop offset="0.9195" stop-color="#5908C5"/>
</linearGradient>
</defs>
</svg>
