<svg width="93" height="17" viewBox="0 0 93 17" fill="none" xmlns="http://www.w3.org/2000/svg">
<rect width="17" height="17" rx="2" fill="#00800D"/>
<rect x="19" width="17" height="17" rx="2" fill="#00800D"/>
<rect x="38" width="17" height="17" rx="2" fill="#00800D"/>
<rect x="57" width="17" height="17" rx="2" fill="#00800D"/>
<rect x="76" width="17" height="17" rx="2" fill="#00800D"/>
<path d="M8.44534 3.38646C8.61992 2.87118 9.38008 2.87118 9.55466 3.38646L10.5713 6.38693C10.6493 6.61737 10.8733 6.77339 11.1259 6.77339H14.4157C14.9806 6.77339 15.2155 7.4667 14.7585 7.78517L12.097 9.63956C11.8926 9.78198 11.8071 10.0344 11.8851 10.2649L12.9017 13.2653C13.0763 13.7806 12.4613 14.2091 12.0043 13.8906L9.3428 12.0363C9.13839 11.8938 8.86161 11.8938 8.6572 12.0363L5.99573 13.8906C5.53866 14.2091 4.92368 13.7806 5.09827 13.2653L6.11486 10.2649C6.19293 10.0344 6.1074 9.78198 5.903 9.63956L3.24152 7.78517C2.78446 7.4667 3.01936 6.77339 3.58432 6.77339H6.87408C7.12674 6.77339 7.35067 6.61737 7.42875 6.38693L8.44534 3.38646Z" fill="white"/>
<path d="M26.9916 3.38646C27.1516 2.87118 27.8484 2.87118 28.0084 3.38646L28.9403 6.38693C29.0119 6.61737 29.2172 6.77339 29.4488 6.77339H32.4644C32.9823 6.77339 33.1976 7.4667 32.7786 7.78517L30.3389 9.63956C30.1515 9.78198 30.0731 10.0344 30.1447 10.2649L31.0766 13.2653C31.2366 13.7806 30.6729 14.2091 30.2539 13.8906L27.8142 12.0363C27.6269 11.8938 27.3731 11.8938 27.1858 12.0363L24.7461 13.8906C24.3271 14.2091 23.7634 13.7806 23.9234 13.2653L24.8553 10.2649C24.9269 10.0344 24.8485 9.78198 24.6611 9.63956L22.2214 7.78517C21.8024 7.4667 22.0177 6.77339 22.5356 6.77339H25.5512C25.7828 6.77339 25.9881 6.61737 26.0597 6.38693L26.9916 3.38646Z" fill="white"/>
<path d="M45.9916 3.38646C46.1516 2.87118 46.8484 2.87118 47.0084 3.38646L47.9403 6.38693C48.0119 6.61737 48.2172 6.77339 48.4488 6.77339H51.4644C51.9823 6.77339 52.1976 7.4667 51.7786 7.78517L49.3389 9.63956C49.1515 9.78198 49.0731 10.0344 49.1447 10.2649L50.0766 13.2653C50.2366 13.7806 49.6729 14.2091 49.2539 13.8906L46.8142 12.0363C46.6269 11.8938 46.3731 11.8938 46.1858 12.0363L43.7461 13.8906C43.3271 14.2091 42.7634 13.7806 42.9234 13.2653L43.8553 10.2649C43.9269 10.0344 43.8485 9.78198 43.6611 9.63956L41.2214 7.78517C40.8024 7.4667 41.0177 6.77339 41.5356 6.77339H44.5512C44.7828 6.77339 44.9881 6.61737 45.0597 6.38693L45.9916 3.38646Z" fill="white"/>
<path d="M64.9916 3.38646C65.1516 2.87118 65.8484 2.87118 66.0084 3.38646L66.9403 6.38693C67.0119 6.61737 67.2172 6.77339 67.4488 6.77339H70.4644C70.9823 6.77339 71.1976 7.4667 70.7786 7.78517L68.3389 9.63956C68.1515 9.78198 68.0731 10.0344 68.1447 10.2649L69.0766 13.2653C69.2366 13.7806 68.6729 14.2091 68.2539 13.8906L65.8142 12.0363C65.6269 11.8938 65.3731 11.8938 65.1858 12.0363L62.7461 13.8906C62.3271 14.2091 61.7634 13.7806 61.9234 13.2653L62.8553 10.2649C62.9269 10.0344 62.8485 9.78198 62.6611 9.63956L60.2214 7.78517C59.8024 7.4667 60.0177 6.77339 60.5356 6.77339H63.5512C63.7828 6.77339 63.9881 6.61737 64.0597 6.38693L64.9916 3.38646Z" fill="white"/>
<path d="M83.9916 3.38646C84.1516 2.87118 84.8484 2.87118 85.0084 3.38646L85.9403 6.38693C86.0119 6.61737 86.2172 6.77339 86.4488 6.77339H89.4644C89.9823 6.77339 90.1976 7.4667 89.7786 7.78517L87.3389 9.63956C87.1515 9.78198 87.0731 10.0344 87.1447 10.2649L88.0766 13.2653C88.2366 13.7806 87.6729 14.2091 87.2539 13.8906L84.8142 12.0363C84.6269 11.8938 84.3731 11.8938 84.1858 12.0363L81.7461 13.8906C81.3271 14.2091 80.7634 13.7806 80.9234 13.2653L81.8553 10.2649C81.9269 10.0344 81.8485 9.78198 81.6611 9.63956L79.2214 7.78517C78.8024 7.4667 79.0177 6.77339 79.5356 6.77339H82.5512C82.7828 6.77339 82.9881 6.61737 83.0597 6.38693L83.9916 3.38646Z" fill="white"/>
</svg>
