<svg width="189" height="287" viewBox="0 0 189 287" fill="none" xmlns="http://www.w3.org/2000/svg">
<path d="M0 21.9471C0 9.82604 9.7918 0 21.8706 0H121.129C133.208 0 143 9.82604 143 21.9471V265.053C143 277.174 133.208 287 121.129 287H21.8706C9.79179 287 0 277.174 0 265.053V21.9471Z" fill="#FFF8FE"/>
<path fill-rule="evenodd" clip-rule="evenodd" d="M121.129 1.68824H21.8706C10.7209 1.68824 1.68235 10.7584 1.68235 21.9471V265.053C1.68235 276.242 10.7209 285.312 21.8706 285.312H121.129C132.279 285.312 141.318 276.242 141.318 265.053V21.9471C141.318 10.7584 132.279 1.68824 121.129 1.68824ZM21.8706 0C9.7918 0 0 9.82604 0 21.9471V265.053C0 277.174 9.79179 287 21.8706 287H121.129C133.208 287 143 277.174 143 265.053V21.9471C143 9.82603 133.208 0 121.129 0H21.8706Z" fill="url(#paint0_linear_8_411)"/>
<path d="M189 110.5C189 135.077 169.077 155 144.5 155C119.923 155 100 135.077 100 110.5C100 85.9233 119.923 66 144.5 66C169.077 66 189 85.9233 189 110.5Z" fill="white"/>
<path fill-rule="evenodd" clip-rule="evenodd" d="M144.5 153.321C168.149 153.321 187.321 134.149 187.321 110.5C187.321 86.8507 168.149 67.6792 144.5 67.6792C120.851 67.6792 101.679 86.8507 101.679 110.5C101.679 134.149 120.851 153.321 144.5 153.321ZM144.5 155C169.077 155 189 135.077 189 110.5C189 85.9233 169.077 66 144.5 66C119.923 66 100 85.9233 100 110.5C100 135.077 119.923 155 144.5 155Z" fill="url(#paint1_linear_8_411)"/>
<path fill-rule="evenodd" clip-rule="evenodd" d="M71 107C73.327 107 75.2135 108.892 75.2135 111.226V149.671L85.3427 139.512C86.9882 137.861 89.656 137.861 91.3015 139.512C92.9469 141.162 92.9469 143.838 91.3015 145.488L73.9794 162.863C72.3339 164.513 69.6661 164.513 68.0206 162.863L50.6985 145.488C49.0531 143.838 49.0531 141.162 50.6985 139.512C52.344 137.861 55.0118 137.861 56.6573 139.512L66.7865 149.671V111.226C66.7865 108.892 68.673 107 71 107ZM46 173.774C46 171.44 47.8864 169.548 50.2135 169.548H91.7865C94.1136 169.548 96 171.44 96 173.774C96 176.108 94.1136 178 91.7865 178H50.2135C47.8864 178 46 176.108 46 173.774Z" fill="url(#paint2_linear_8_411)"/>
<path d="M35 36C35 42.0751 30.299 47 24.5 47C18.701 47 14 42.0751 14 36C14 29.9249 18.701 25 24.5 25C30.299 25 35 29.9249 35 36Z" fill="#6A10B3"/>
<path fill-rule="evenodd" clip-rule="evenodd" d="M41 36C41 35.4477 41.3699 35 41.8261 35H78.1739C78.6301 35 79 35.4477 79 36C79 36.5523 78.6301 37 78.1739 37H41.8261C41.3699 37 41 36.5523 41 36Z" fill="#6A10B3"/>
<path fill-rule="evenodd" clip-rule="evenodd" d="M13 15C13 14.4477 13.3753 14 13.8382 14H69.1618C69.6247 14 70 14.4477 70 15C70 15.5523 69.6247 16 69.1618 16H13.8382C13.3753 16 13 15.5523 13 15Z" fill="#6A10B3"/>
<path fill-rule="evenodd" clip-rule="evenodd" d="M75 15C75 14.4477 75.3753 14 75.8382 14L131.162 14C131.625 14 132 14.4477 132 15C132 15.5523 131.625 16 131.162 16L75.8382 16C75.3753 16 75 15.5523 75 15Z" fill="#DBAEFF"/>
<path fill-rule="evenodd" clip-rule="evenodd" d="M118.125 43.9163L129.975 32.1407L131.164 33.3376L119.315 45.1132L118.125 43.9163Z" fill="#6A10B3"/>
<path fill-rule="evenodd" clip-rule="evenodd" d="M119.277 32.0624L131.089 43.8749L129.896 45.0681L118.083 33.2556L119.277 32.0624Z" fill="#6A10B3"/>
<path d="M12 266C12 261.029 16.1619 257 21.2958 257H122.704C127.838 257 132 261.029 132 266C132 270.971 127.838 275 122.704 275H21.2958C16.1619 275 12 270.971 12 266Z" fill="#F6ECFF"/>
<path d="M144.547 86C136.608 86 131.466 89.2575 127.429 95.067C126.697 96.1209 126.923 97.5658 127.944 98.3416L132.235 101.6C133.266 102.383 134.734 102.2 135.542 101.187C138.033 98.0607 139.881 96.261 143.773 96.261C146.833 96.261 150.617 98.2331 150.617 101.205C150.617 103.451 148.766 104.605 145.745 106.301C142.221 108.279 137.559 110.741 137.559 116.9V117.875C137.559 119.195 138.628 120.266 139.946 120.266H147.154C148.472 120.266 149.541 119.195 149.541 117.875V117.3C149.541 113.031 162 112.853 162 101.3C162 92.5997 152.989 86 144.547 86ZM143.55 123.2C139.751 123.2 136.661 126.295 136.661 130.1C136.661 133.905 139.751 137 143.55 137C147.349 137 150.44 133.905 150.44 130.1C150.44 126.295 147.349 123.2 143.55 123.2Z" fill="url(#paint3_linear_8_411)"/>
<defs>
<linearGradient id="paint0_linear_8_411" x1="-23.0392" y1="-37.7654" x2="166.16" y2="-13.2047" gradientUnits="userSpaceOnUse">
<stop stop-color="#C43B56"/>
<stop offset="0.3395" stop-color="#982684"/>
<stop offset="0.726" stop-color="#6A10B3"/>
<stop offset="0.9195" stop-color="#5908C5"/>
</linearGradient>
<linearGradient id="paint1_linear_8_411" x1="85.6609" y1="54.2888" x2="197.788" y2="83.5018" gradientUnits="userSpaceOnUse">
<stop stop-color="#C43B56"/>
<stop offset="0.3395" stop-color="#982684"/>
<stop offset="0.726" stop-color="#6A10B3"/>
<stop offset="0.9195" stop-color="#5908C5"/>
</linearGradient>
<linearGradient id="paint2_linear_8_411" x1="37.9443" y1="97.6573" x2="103.022" y2="109.598" gradientUnits="userSpaceOnUse">
<stop stop-color="#C43B56"/>
<stop offset="0.3395" stop-color="#982684"/>
<stop offset="0.726" stop-color="#6A10B3"/>
<stop offset="0.9195" stop-color="#5908C5"/>
</linearGradient>
<linearGradient id="paint3_linear_8_411" x1="121.361" y1="79.2891" x2="166.99" y2="87.4475" gradientUnits="userSpaceOnUse">
<stop stop-color="#C43B56"/>
<stop offset="0.3395" stop-color="#982684"/>
<stop offset="0.726" stop-color="#6A10B3"/>
<stop offset="0.9195" stop-color="#5908C5"/>
</linearGradient>
</defs>
</svg>
