<svg width="112" height="170" viewBox="0 0 112 170" fill="none" xmlns="http://www.w3.org/2000/svg">
<rect x="0.5" y="0.5" width="84" height="169" rx="12.5" fill="#FFF8FE" stroke="url(#paint0_linear_233_10)"/>
<circle cx="85.5" cy="65.5" r="26" fill="white" stroke="url(#paint1_linear_233_10)"/>
<path fill-rule="evenodd" clip-rule="evenodd" d="M41.1282 91.5385C41.1282 92.2607 41.7137 92.8461 42.4359 92.8461C43.1581 92.8461 43.7436 92.2607 43.7436 91.5385V85.8718H49.4103C50.1325 85.8718 50.718 85.2863 50.718 84.5641C50.718 83.8419 50.1325 83.2564 49.4103 83.2564H43.7436V77.5897C43.7436 76.8675 43.1581 76.282 42.4359 76.282C41.7137 76.282 41.1282 76.8675 41.1282 77.5897V83.2564H35.4615C34.7393 83.2564 34.1539 83.8419 34.1539 84.5641C34.1539 85.2863 34.7393 85.8718 35.4615 85.8718H41.1282V91.5385Z" fill="url(#paint2_linear_233_10)"/>
<path d="M59 85C59 94.3889 51.3889 102 42 102C32.6112 102 25 94.3889 25 85C25 75.6112 32.6112 68 42 68C51.3889 68 59 75.6112 59 85Z" stroke="url(#paint3_linear_233_10)" stroke-width="2" stroke-linecap="round" stroke-linejoin="round" stroke-dasharray="8 8"/>
<path d="M78 76H93.3333M85.6667 53V70.8889M85.6667 70.8889L92.0556 64.5M85.6667 70.8889L79.2778 64.5" stroke="url(#paint4_linear_233_10)" stroke-width="3" stroke-linecap="round" stroke-linejoin="round"/>
<circle cx="14.5" cy="21.5" r="6.5" fill="#6A10B3"/>
<line x1="24.5" y1="21.5" x2="46.5" y2="21.5" stroke="#6A10B3" stroke-linecap="round"/>
<path d="M8 9H41" stroke="#6A10B3" stroke-linecap="round"/>
<path d="M45 9L78 9" stroke="#DBAEFF" stroke-linecap="round"/>
<line x1="77.3743" y1="19.4011" x2="70.3525" y2="26.3792" stroke="#6A10B3"/>
<line x1="77.3289" y1="26.3536" x2="70.3289" y2="19.3536" stroke="#6A10B3"/>
<rect x="7" y="152" width="71" height="11" rx="5.5" fill="#F6ECFF"/>
<defs>
<linearGradient id="paint0_linear_233_10" x1="-13.6946" y1="-22.3697" x2="98.7533" y2="-7.72136" gradientUnits="userSpaceOnUse">
<stop stop-color="#C43B56"/>
<stop offset="0.3395" stop-color="#982684"/>
<stop offset="0.726" stop-color="#6A10B3"/>
<stop offset="0.9195" stop-color="#5908C5"/>
</linearGradient>
<linearGradient id="paint1_linear_233_10" x1="50.461" y1="32.0259" x2="117.233" y2="49.4224" gradientUnits="userSpaceOnUse">
<stop stop-color="#C43B56"/>
<stop offset="0.3395" stop-color="#982684"/>
<stop offset="0.726" stop-color="#6A10B3"/>
<stop offset="0.9195" stop-color="#5908C5"/>
</linearGradient>
<linearGradient id="paint2_linear_233_10" x1="31.4852" y1="74.1024" x2="52.3534" y2="79.5394" gradientUnits="userSpaceOnUse">
<stop stop-color="#C43B56"/>
<stop offset="0.3395" stop-color="#982684"/>
<stop offset="0.726" stop-color="#6A10B3"/>
<stop offset="0.9195" stop-color="#5908C5"/>
</linearGradient>
<linearGradient id="paint3_linear_233_10" x1="19.5221" y1="63.5261" x2="62.357" y2="74.6861" gradientUnits="userSpaceOnUse">
<stop stop-color="#C43B56"/>
<stop offset="0.3395" stop-color="#982684"/>
<stop offset="0.726" stop-color="#6A10B3"/>
<stop offset="0.9195" stop-color="#5908C5"/>
</linearGradient>
<linearGradient id="paint4_linear_233_10" x1="75.5296" y1="49.9735" x2="95.5544" y2="53.4516" gradientUnits="userSpaceOnUse">
<stop stop-color="#C43B56"/>
<stop offset="0.3395" stop-color="#982684"/>
<stop offset="0.726" stop-color="#6A10B3"/>
<stop offset="0.9195" stop-color="#5908C5"/>
</linearGradient>
</defs>
</svg>
