<svg width="140" height="113" viewBox="0 0 140 113" fill="none" xmlns="http://www.w3.org/2000/svg">
<rect x="0.5" y="0.5" width="112" height="112" rx="14.5" fill="#FFF8FE" stroke="url(#paint0_linear_233_15)"/>
<path d="M18 49L91 49" stroke="#F6ECFF" stroke-width="12" stroke-linecap="round"/>
<path d="M19 66L92 66" stroke="#6A10B3" stroke-width="12" stroke-linecap="round"/>
<circle cx="113.5" cy="48.5" r="26" fill="white" stroke="url(#paint1_linear_233_15)"/>
<path d="M15 19H61" stroke="#6A10B3" stroke-width="3" stroke-linecap="round"/>
<path d="M15 30H79" stroke="#6A10B3" stroke-width="3" stroke-linecap="round"/>
<path d="M109.057 35.9735C110.189 32.0088 115.811 32.0088 116.943 35.9735C117.551 38.1002 119.737 39.3617 121.884 38.8239C125.885 37.8215 128.696 42.6874 125.827 45.6495C124.288 47.2385 124.288 49.7615 125.827 51.3505C128.696 54.3126 125.885 59.1785 121.884 58.1761C119.737 57.6383 117.551 58.8998 116.943 61.0265C115.811 64.9912 110.189 64.9912 109.057 61.0265C108.449 58.8998 106.263 57.6383 104.116 58.1761C100.115 59.1785 97.3036 54.3126 100.173 51.3505C101.712 49.7615 101.712 47.2385 100.173 45.6495C97.3036 42.6874 100.115 37.8215 104.116 38.8239C106.263 39.3617 108.449 38.1002 109.057 35.9735Z" fill="url(#paint2_linear_233_15)"/>
<defs>
<linearGradient id="paint0_linear_233_15" x1="-18.2058" y1="-14.8693" x2="124.157" y2="22.2214" gradientUnits="userSpaceOnUse">
<stop stop-color="#C43B56"/>
<stop offset="0.3395" stop-color="#982684"/>
<stop offset="0.726" stop-color="#6A10B3"/>
<stop offset="0.9195" stop-color="#5908C5"/>
</linearGradient>
<linearGradient id="paint1_linear_233_15" x1="78.461" y1="15.0259" x2="145.233" y2="32.4224" gradientUnits="userSpaceOnUse">
<stop stop-color="#C43B56"/>
<stop offset="0.3395" stop-color="#982684"/>
<stop offset="0.726" stop-color="#6A10B3"/>
<stop offset="0.9195" stop-color="#5908C5"/>
</linearGradient>
<linearGradient id="paint2_linear_233_15" x1="94.4888" y1="28.9208" x2="130.182" y2="37.3203" gradientUnits="userSpaceOnUse">
<stop stop-color="#C43B56"/>
<stop offset="0.3395" stop-color="#982684"/>
<stop offset="0.726" stop-color="#6A10B3"/>
<stop offset="0.9195" stop-color="#5908C5"/>
</linearGradient>
</defs>
</svg>
