<svg width="140" height="113" viewBox="0 0 140 113" fill="none" xmlns="http://www.w3.org/2000/svg">
<rect x="0.5" y="0.5" width="112" height="112" rx="14.5" fill="#FFF8FE" stroke="url(#paint0_linear_233_18)"/>
<path d="M18 49L91 49" stroke="#F6ECFF" stroke-width="12" stroke-linecap="round"/>
<path d="M19 66L92 66" stroke="#6A10B3" stroke-width="12" stroke-linecap="round"/>
<circle cx="113.5" cy="48.5" r="26" fill="white" stroke="url(#paint1_linear_233_18)"/>
<path d="M15 19H61" stroke="#6A10B3" stroke-width="3" stroke-linecap="round"/>
<path d="M15 30H79" stroke="#6A10B3" stroke-width="3" stroke-linecap="round"/>
<path d="M130 40.7286V49.9561C130 49.9561 127.991 50.3415 127.575 50.3958C127.16 50.4501 125.87 50.8572 124.929 49.9724C123.479 48.5828 118.336 43.562 118.336 43.562C118.013 43.3043 117.614 43.1543 117.198 43.1338C116.782 43.1133 116.37 43.2233 116.022 43.448C114.716 44.1211 112.773 45.1144 111.965 45.4998C111.692 45.656 111.384 45.7418 111.068 45.7493C110.752 45.7567 110.44 45.6855 110.16 45.5423C109.88 45.3992 109.642 45.1887 109.468 44.9306C109.293 44.6725 109.189 44.3753 109.164 44.0668C109.181 43.7156 109.3 43.3764 109.505 43.0883C109.711 42.8002 109.996 42.5749 110.326 42.4384C112.169 41.3528 116.061 39.1816 117.683 38.3565C118.668 37.8137 119.377 37.8137 120.733 38.8993C122.399 40.3052 123.911 41.5373 123.911 41.5373C124.09 41.6625 124.294 41.7482 124.51 41.7885C124.726 41.8288 124.948 41.8227 125.162 41.7707C127.027 41.3908 130 40.7286 130 40.7286ZM109.518 56.3177C109.643 56.0357 109.685 55.7247 109.637 55.4207C109.59 55.1167 109.455 54.832 109.25 54.5997C109.044 54.3674 108.775 54.197 108.475 54.1082C108.175 54.0193 107.855 54.0157 107.553 54.0977C107.644 53.8196 107.66 53.5228 107.598 53.237C107.536 52.9512 107.398 52.6864 107.198 52.4693C106.981 52.2662 106.714 52.122 106.423 52.0506C106.132 51.9792 105.827 51.9832 105.538 52.0622C105.629 51.7837 105.643 51.4866 105.58 51.2007C105.517 50.9149 105.378 50.6504 105.178 50.4338C104.819 50.1089 104.345 49.9343 103.857 49.9475C103.369 49.9607 102.905 50.1605 102.565 50.5044C101.801 51.2208 101.308 52.5236 102.011 53.2943C102.714 54.0651 103.473 53.5929 104.071 53.4572C103.905 54.038 103.406 54.5808 104.021 55.3407C104.635 56.1006 105.482 55.6392 106.08 55.5035C105.914 56.0843 105.438 56.676 106.025 57.3816C106.612 58.0872 107.597 57.7127 108.239 57.5173C107.99 58.1415 107.459 58.8146 108.139 59.5745C108.82 60.3344 110.398 59.9816 111.167 59.2597C111.533 58.9441 111.755 58.4994 111.786 58.0232C111.817 57.547 111.655 57.0781 111.334 56.7194C111.099 56.4928 110.805 56.335 110.484 56.264C110.163 56.193 109.829 56.2116 109.518 56.3177ZM123.551 51.5302L117.611 45.7332C117.336 45.4812 116.993 45.3123 116.623 45.2469C116.253 45.1814 115.871 45.2221 115.524 45.3641C114.694 45.7223 113.625 46.2108 112.817 46.5799C112.261 46.9048 111.64 47.1084 110.996 47.177C110.321 47.1833 109.662 46.9728 109.12 46.5777C108.578 46.1825 108.183 45.6243 107.994 44.9884C107.806 44.3524 107.835 43.6735 108.078 43.0553C108.32 42.4371 108.761 41.9135 109.335 41.5645C110.625 40.7014 113.443 39.2196 113.443 39.2196C113.088 38.8541 112.657 38.5679 112.18 38.3805C111.702 38.1932 111.189 38.1091 110.675 38.134C108.782 38.134 104.818 40.6851 104.818 40.6851C104.399 40.9 103.935 41.018 103.462 41.0302C102.989 41.0425 102.519 40.9486 102.089 40.7557L99 39.7027V50.233C99 50.233 99.8802 50.4826 100.661 50.7758C100.838 50.2689 101.134 49.8098 101.524 49.435C102.154 48.8424 102.992 48.5087 103.865 48.5027C104.738 48.4966 105.58 48.8186 106.219 49.4025C106.574 49.7621 106.829 50.205 106.96 50.6889C107.441 50.8355 107.876 51.0966 108.228 51.4488C108.585 51.8152 108.838 52.2659 108.964 52.757C109.47 52.911 109.927 53.1926 110.287 53.5736C110.647 53.9546 110.899 54.4217 111.018 54.9282C111.521 55.0685 111.977 55.3362 112.341 55.7044C112.681 56.0526 112.932 56.4744 113.074 56.9355C113.217 57.3967 113.246 57.8842 113.16 58.3586C113.16 58.3586 113.603 58.8472 113.874 59.1131C114.13 59.3636 114.476 59.5043 114.838 59.5043C115.199 59.5043 115.545 59.3636 115.801 59.1131C116.056 58.8626 116.2 58.5229 116.2 58.1687C116.2 57.8144 116.056 57.4747 115.801 57.2242C115.801 57.2242 116.908 58.5703 118.17 57.767C119.277 57.0071 119.106 56.106 118.58 55.5958C118.74 55.7832 118.94 55.9351 119.164 56.0415C119.389 56.1479 119.634 56.2064 119.884 56.213C120.133 56.2197 120.382 56.1744 120.612 56.0802C120.842 55.986 121.05 55.8449 121.22 55.6664C121.458 55.4304 121.597 55.1158 121.61 54.7844C121.624 54.453 121.51 54.1287 121.292 53.8751C121.292 53.8751 122.029 54.8576 123.507 53.9403C124.553 53.0718 124.06 52.0785 123.507 51.5574L123.551 51.5302Z" fill="url(#paint2_linear_233_18)"/>
<defs>
<linearGradient id="paint0_linear_233_18" x1="-18.2058" y1="-14.8693" x2="124.157" y2="22.2214" gradientUnits="userSpaceOnUse">
<stop stop-color="#C43B56"/>
<stop offset="0.3395" stop-color="#982684"/>
<stop offset="0.726" stop-color="#6A10B3"/>
<stop offset="0.9195" stop-color="#5908C5"/>
</linearGradient>
<linearGradient id="paint1_linear_233_18" x1="78.461" y1="15.0259" x2="145.233" y2="32.4224" gradientUnits="userSpaceOnUse">
<stop stop-color="#C43B56"/>
<stop offset="0.3395" stop-color="#982684"/>
<stop offset="0.726" stop-color="#6A10B3"/>
<stop offset="0.9195" stop-color="#5908C5"/>
</linearGradient>
<linearGradient id="paint2_linear_233_18" x1="94.0055" y1="35.1051" x2="130.758" y2="48.5978" gradientUnits="userSpaceOnUse">
<stop stop-color="#C43B56"/>
<stop offset="0.3395" stop-color="#982684"/>
<stop offset="0.726" stop-color="#6A10B3"/>
<stop offset="0.9195" stop-color="#5908C5"/>
</linearGradient>
</defs>
</svg>
