<svg width="264" height="21" viewBox="0 0 264 21" fill="none" xmlns="http://www.w3.org/2000/svg">
<path fill-rule="evenodd" clip-rule="evenodd" d="M20.0435 4.87931C20.6613 4.87931 21.275 4.88162 21.8885 4.88591L24.3513 9.84701V4.87898H25.829V12.7419L24.2048 12.7443L21.5211 7.15786V12.7419H20.0435V4.87898V4.87931Z" fill="#141515"/>
<path fill-rule="evenodd" clip-rule="evenodd" d="M42.4966 6.79015C44.0933 6.79015 45.3884 8.1423 45.3884 9.80942C45.3884 11.4765 44.0933 12.831 42.4966 12.831C40.8998 12.831 39.6025 11.4788 39.6025 9.80942C39.6025 8.14 40.8976 6.79015 42.4966 6.79015ZM42.4966 8.31083C43.2885 8.31083 43.9319 8.98262 43.9319 9.80942C43.9319 10.6362 43.2885 11.3103 42.4966 11.3103C41.7047 11.3103 41.059 10.6385 41.059 9.80942C41.059 8.98031 41.7025 8.31083 42.4966 8.31083Z" fill="#141515"/>
<path fill-rule="evenodd" clip-rule="evenodd" d="M29.1797 6.79015C30.7764 6.79015 32.0715 8.1423 32.0715 9.80942C32.0715 11.4765 30.7764 12.831 29.1797 12.831C27.5829 12.831 26.2856 11.4788 26.2856 9.80942C26.2856 8.14 27.5807 6.79015 29.1797 6.79015ZM29.1797 8.31083C29.9716 8.31083 30.615 8.98262 30.615 9.80942C30.615 10.6362 29.9716 11.3103 29.1797 11.3103C28.3878 11.3103 27.7421 10.6385 27.7421 9.80942C27.7421 8.98031 28.3856 8.31083 29.1797 8.31083Z" fill="#141515"/>
<path fill-rule="evenodd" clip-rule="evenodd" d="M32.5491 6.96527V12.7423H34.1926V10.0178C34.1926 9.77841 34.2286 9.6277 34.3031 9.39717C34.4538 8.93381 34.7087 8.53938 35.1525 8.27323C35.3796 8.13571 35.4052 8.13802 35.6557 8.13802H36.6899V11.2658C36.7429 12.9837 38.4332 13.0282 39.6666 12.678C39.5965 12.2944 39.5286 11.9109 39.4585 11.5273C38.7535 11.6981 38.2503 11.7466 38.2503 10.8245V8.13769H39.437V6.92074H38.2926V5.29123H36.9827C36.8573 5.8344 36.7322 6.37757 36.6068 6.92074H35.698C35.301 6.92074 34.9548 7.02925 34.6237 7.27099C34.3391 7.47711 34.1183 7.77194 33.9847 8.1799C33.8255 7.78316 33.6663 7.38411 33.5071 6.98505C33.1887 6.97846 32.87 6.97186 32.5494 6.96527H32.5491Z" fill="#141515"/>
<path fill-rule="evenodd" clip-rule="evenodd" d="M45.7959 6.93425V12.769H47.3544V8.90939C47.3544 8.36853 48.6009 7.88538 49.1211 8.54794C49.2569 8.72306 49.2443 8.76956 49.2443 8.9803V12.74H50.8325V8.72075C50.8325 8.26399 50.6224 7.81843 50.3527 7.4639C49.9597 6.94514 49.395 6.7123 48.5797 6.87192C48.0275 6.97845 47.5904 7.30857 47.0787 7.84284C46.9681 7.54569 46.8579 7.24657 46.7473 6.94942C46.4308 6.94514 46.1124 6.94052 45.7962 6.93392L45.7959 6.93425Z" fill="#141515"/>
<path d="M51.1381 7.05596H51.3269V6.92075H50.8193V7.05596H51.0082V7.68323H51.1377V7.05596H51.1381ZM52.0001 6.92075H51.8131L51.7025 7.52163H51.7003L51.5879 6.92075H51.3968V7.68323H51.5177V7.04706H51.5199L51.6346 7.68323H51.7619L51.8766 7.04706H51.8788V7.68323H51.9998V6.92075H52.0001Z" fill="#141515"/>
<path d="M8.70957 21C3.90893 21 0 16.9208 0 11.9066C0 6.89237 3.90893 2.81314 8.70957 2.81314C13.5102 2.81314 17.4191 6.89435 17.4191 11.9066C17.4191 16.9188 13.5124 21 8.70957 21ZM8.70957 5.6906C7.12136 5.6906 5.62665 6.33799 4.4993 7.51073C3.37605 8.68579 2.75599 10.2464 2.75599 11.9066C2.75599 13.5668 3.37605 15.1277 4.4993 16.3024C5.62476 17.4751 7.12136 18.1225 8.70957 18.1225C10.2978 18.1225 11.7947 17.4751 12.9221 16.3024C14.0453 15.1273 14.6654 13.5668 14.6654 11.9066C14.6654 10.2464 14.0453 8.68546 12.9221 7.51073C11.7947 6.33799 10.3 5.6906 8.70957 5.6906Z" fill="#F7B512"/>
<path d="M18.8774 1.41415H18.198V2.12123H18.8774V1.41415Z" fill="#F7B512"/>
<path d="M18.8774 0H18.198V0.709388H18.8774V0Z" fill="#F7B512"/>
<path d="M16.9223 2.11696H16.2874V2.80854H16.9223V2.11696Z" fill="#F7B512"/>
<path d="M15.6695 3.47603H15.0305V4.13892H15.6695V3.47603Z" fill="#141515"/>
<path d="M17.6337 2.80885H16.9224V3.47603H17.6337V2.80885Z" fill="#141515"/>
<path d="M15.0304 2.84184H14.3933V3.47571H15.0304V2.84184Z" fill="#141515"/>
<path d="M16.9223 3.47603H16.2874V4.13892H16.9223V3.47603Z" fill="#141515"/>
<path d="M18.198 0.709381H17.5271V1.41448H18.198V0.709381Z" fill="#141515"/>
<path d="M17.5275 1.41415H16.2874V2.11695H17.5275V1.41415Z" fill="#141515"/>
<path d="M16.2873 2.11696H15.6694V3.47571H16.2873V2.11696Z" fill="#141515"/>
<path d="M15.6695 4.13892V4.80609H15.0305V4.13892H13.9688V4.62009H13.3999V5.21207H14.0348V5.87265H13.3999V5.21207H12.7268V6.2496H12.0878V6.91018H11.6633V7.57538H11.1983C10.6739 8.38667 9.3637 10.9182 8.96665 11.9514C7.53764 9.87437 6.42924 9.05187 5.5568 8.75472C5.0833 8.60631 4.51631 9.14256 5.29999 9.98518C7.09636 12.049 7.66304 13.758 8.20887 15.1214C8.49758 15.8397 9.79487 15.9505 10.0561 15.221C10.6082 13.6713 11.4109 11.9336 12.3598 10.5059V9.76785H12.8674V9.10068H13.4002V8.32698H14.0374V7.58197H13.3939V6.90358H14.0374V7.58197H14.6678L14.6656 6.91018H15.1732V6.10119H15.7402V5.54483H16.288V4.13925H15.6701L15.6695 4.13892Z" fill="#141515"/>
<path d="M27.2561 18.1156L27.0776 18.4128C27.2157 18.5236 27.409 18.6433 27.6509 18.7297C27.861 18.8052 28.1096 18.8537 28.3876 18.8537C28.825 18.8537 29.1668 18.7406 29.3984 18.5434C29.6362 18.3395 29.7613 18.0447 29.7613 17.6945C29.7613 17.3198 29.6277 17.0649 29.4151 16.8697C29.1965 16.6701 28.8885 16.5306 28.5468 16.3974C28.2325 16.2777 28.0139 16.1711 27.8695 16.0429C27.7166 15.9053 27.6487 15.7457 27.6487 15.5287C27.6487 15.3117 27.7081 15.1409 27.8484 15.0165C27.9842 14.8968 28.1924 14.8302 28.4959 14.8302C28.7423 14.8302 28.9438 14.8701 29.1115 14.9278C29.2452 14.972 29.3557 15.0297 29.4492 15.0808L29.5914 14.7573C29.4596 14.6841 29.326 14.6178 29.1668 14.571C28.9842 14.5156 28.7657 14.4823 28.4789 14.4823C28.0733 14.4823 27.7697 14.5865 27.566 14.7616C27.3474 14.9479 27.239 15.2184 27.239 15.5287C27.239 15.8902 27.3578 16.1382 27.5533 16.3268C27.753 16.5197 28.0332 16.6526 28.3452 16.7813C28.6488 16.9053 28.8889 17.0118 29.0544 17.1493C29.2306 17.2957 29.3241 17.4728 29.3241 17.7367C29.3241 17.9804 29.2351 18.171 29.0714 18.2996C28.91 18.4306 28.6785 18.4969 28.3961 18.4969C28.1137 18.4969 27.897 18.4438 27.6996 18.3616C27.5297 18.293 27.3831 18.2043 27.2558 18.1156H27.2561Z" fill="#989898"/>
<path d="M30.0247 15.7569H30.4685L31.2648 18.4504L32.027 15.7569H32.4559L31.4199 19.171C31.2544 19.7273 30.972 20.0222 30.4391 20.0222C30.3307 20.0222 30.2057 19.9954 30.1163 19.9644L30.1693 19.6274C30.235 19.6386 30.3137 19.6584 30.4094 19.6584C30.7682 19.6584 30.9783 19.4345 31.0803 19.071L30.025 15.7569H30.0247Z" fill="#989898"/>
<path d="M36.093 15.7015C36.6875 15.7015 36.8362 16.2203 36.8362 16.7255V18.8824H36.4051V16.7321C36.4051 16.3997 36.3561 16.087 35.9613 16.087C35.6915 16.087 35.4113 16.2622 35.1289 16.5636V18.8824H34.6978V16.7321C34.6978 16.3997 34.651 16.087 34.254 16.087C33.9779 16.087 33.6914 16.2889 33.4216 16.5702V18.8824H32.9905V15.7566H33.2369L33.3623 16.2688C33.6383 15.9627 33.9779 15.7012 34.3857 15.7012C34.7935 15.7012 34.9442 15.9251 35.0629 16.251C35.3453 15.9317 35.7041 15.7012 36.0927 15.7012L36.093 15.7015Z" fill="#989898"/>
<path d="M39.2862 17.2268C38.6342 17.3577 38.2034 17.5019 38.042 17.7146C37.9633 17.8142 37.9399 17.9075 37.9399 18.0516C37.9399 18.3709 38.0887 18.5638 38.4475 18.5638C38.8064 18.5638 39.0824 18.3775 39.2862 18.2136V17.2271V17.2268ZM39.2862 16.77C39.2862 16.3133 39.1545 16.0808 38.681 16.0808C38.3752 16.0808 38.1013 16.2137 37.8316 16.3624L37.6702 16.0564C37.9503 15.8568 38.2732 15.7018 38.717 15.7018C39.4432 15.7018 39.717 16.1207 39.717 16.8014V18.883H39.4729C39.4729 18.883 39.3456 18.5018 39.3411 18.5018C39.1311 18.7211 38.7956 18.9342 38.4068 18.9342C37.8865 18.9342 37.5024 18.5905 37.5024 18.0764C37.5024 17.7327 37.6342 17.489 37.9207 17.3139C38.1967 17.1454 38.6936 17.0214 39.2859 16.926V16.7707L39.2862 16.77Z" fill="#989898"/>
<path d="M40.677 15.7569H40.9234L41.0488 16.2889C41.3249 15.963 41.6774 15.7015 42.1316 15.7015C42.7687 15.7015 42.9342 16.2203 42.9342 16.7255V18.8824H42.5053V16.7321C42.5053 16.3997 42.431 16.0871 42.0021 16.0871C41.6963 16.0871 41.3779 16.2889 41.1082 16.588V18.8824H40.677V15.7566V15.7569Z" fill="#989898"/>
<path d="M43.5305 16.0808V15.7573H43.9933L44.1187 14.8638H44.4118V15.7573H45.0827V16.0808H44.4118V18.1136C44.4118 18.4151 44.4608 18.5836 44.7473 18.5836C44.8727 18.5836 44.9573 18.5592 45.0954 18.5193L45.1592 18.8319C45.0467 18.8896 44.8853 18.9338 44.728 18.9338C44.2014 18.9338 43.9806 18.6588 43.9806 18.1446V16.0808H43.5305Z" fill="#989898"/>
<path d="M47.4394 17.1203C47.416 16.4086 47.1889 16.0452 46.7388 16.0452C46.3332 16.0452 46.0508 16.3822 46.0148 17.1203H47.4394ZM46.8108 18.5701C47.1589 18.5701 47.3756 18.4391 47.6324 18.2574L47.8172 18.519C47.5307 18.7762 47.2673 18.9335 46.7748 18.9335C46.0274 18.9335 45.554 18.3082 45.554 17.3198C45.554 16.3314 46.0211 15.7015 46.7344 15.7015C47.4476 15.7015 47.8829 16.2625 47.8829 17.3442V17.4438H46.0082C46.0379 18.1753 46.2716 18.5701 46.8108 18.5701Z" fill="#989898"/>
<path d="M48.4116 17.3442C48.4116 16.5771 48.7111 15.7015 49.6284 15.7015C50.0106 15.7015 50.2993 15.8123 50.5434 16.0251L50.365 16.3265C50.178 16.1758 49.9212 16.0626 49.6284 16.0626C48.9448 16.0626 48.8684 16.8185 48.8684 17.3505C48.8684 17.8515 48.9638 18.5697 49.6517 18.5697C49.9701 18.5697 50.1909 18.4457 50.395 18.2571L50.5987 18.5143C50.395 18.7383 50.0829 18.9332 49.6284 18.9332C48.7367 18.9332 48.4116 18.0952 48.4116 17.3436V17.3442Z" fill="#989898"/>
<path d="M22.8606 15.7569H23.3044L24.1007 18.4504L24.8629 15.7569H25.2919L24.2558 19.171C24.0903 19.7273 23.8079 20.0222 23.275 20.0222C23.1667 20.0222 23.0416 19.9954 22.9522 19.9644L23.0053 19.6274C23.071 19.6386 23.1496 19.6584 23.2453 19.6584C23.6042 19.6584 23.8142 19.4345 23.9162 19.071L22.8609 15.7569H22.8606Z" fill="#989898"/>
<path d="M22.0498 16.9785C22.0583 17.0428 22.0624 17.1094 22.0669 17.1737C22.071 17.2423 22.0732 17.3089 22.0732 17.3709C22.0732 17.4131 22.071 17.4531 22.0691 17.493C22.0669 17.5329 22.065 17.5705 22.0606 17.6084C22.0564 17.6483 22.0498 17.6839 22.0435 17.7215C22.0372 17.7571 22.0287 17.7947 22.0201 17.828C22.0116 17.8636 22.0012 17.8966 21.9904 17.9299C21.9797 17.9609 21.9693 17.9942 21.9544 18.0229C21.9418 18.0539 21.9288 18.0826 21.914 18.1093C21.8969 18.138 21.8821 18.1648 21.865 18.1892H21.8628C21.8458 18.2159 21.8287 18.238 21.8098 18.2601C21.7886 18.2845 21.7693 18.3043 21.7459 18.3244C21.7248 18.3442 21.7014 18.362 21.678 18.3798C21.6547 18.3953 21.6313 18.4108 21.6038 18.424C21.5804 18.4372 21.5529 18.4507 21.5251 18.4616C21.4977 18.4705 21.468 18.4794 21.438 18.486C21.408 18.4926 21.3786 18.4992 21.3467 18.5015C21.3148 18.5058 21.281 18.5081 21.2491 18.5081C21.2257 18.5081 21.2045 18.5058 21.1812 18.5058C21.16 18.5034 21.1388 18.5015 21.1174 18.4969C21.0984 18.4926 21.0769 18.4879 21.058 18.4837C21.0409 18.4794 21.0261 18.4748 21.0112 18.4705L21.0071 18.4682L21.0008 18.4659C20.9818 18.4593 20.9626 18.4504 20.9455 18.4438C20.9266 18.4372 20.9095 18.4283 20.8925 18.4194C20.8754 18.4128 20.8583 18.4039 20.8435 18.3926C20.8264 18.3837 20.8116 18.3748 20.7967 18.3659V18.3636H20.7945C20.7797 18.3547 20.7671 18.3438 20.7522 18.3349C20.7396 18.3237 20.7247 18.3128 20.7118 18.3039C20.6991 18.2927 20.6862 18.2818 20.6736 18.2706C20.6628 18.2594 20.6502 18.2485 20.6394 18.235C20.6287 18.2238 20.6183 18.2129 20.6075 18.2017C20.599 18.1905 20.5886 18.1796 20.5801 18.1707C20.5715 18.1595 20.563 18.1486 20.5545 18.1397C20.5459 18.1285 20.5396 18.1199 20.5333 18.1087L20.5311 18.1064L20.5289 18.1041V16.4815L20.5311 16.4792L20.5352 16.4749C20.5586 16.4505 20.582 16.4284 20.6094 16.4063C20.635 16.3842 20.6603 16.3641 20.6881 16.3443L20.6903 16.342C20.7159 16.3242 20.7434 16.3044 20.7731 16.2889C20.8005 16.2711 20.8302 16.2533 20.8621 16.2378C20.894 16.2223 20.9237 16.2091 20.9556 16.1979C20.9897 16.1866 21.0213 16.1781 21.0554 16.1692C21.0873 16.1626 21.1211 16.156 21.1553 16.1514C21.1894 16.149 21.2254 16.1471 21.2592 16.1471C21.2826 16.1471 21.3037 16.1471 21.3271 16.1494C21.3505 16.1517 21.3738 16.1537 21.3972 16.1583C21.4206 16.1626 21.4418 16.1672 21.4651 16.1738C21.4885 16.1781 21.5119 16.185 21.5353 16.1936C21.5586 16.2002 21.5798 16.2091 21.6032 16.2203C21.6243 16.2315 21.6477 16.2447 21.6689 16.2579C21.69 16.2711 21.7134 16.2866 21.7327 16.3044C21.7538 16.3222 21.775 16.34 21.7965 16.3598C21.8154 16.3819 21.8347 16.404 21.8537 16.4284C21.8726 16.4528 21.8897 16.4772 21.9067 16.5059C21.9238 16.5346 21.9386 16.5636 21.9535 16.5969C21.9683 16.6279 21.981 16.6612 21.9939 16.6965C22.0065 16.7298 22.0173 16.7697 22.0258 16.8162C22.0343 16.865 22.0429 16.9204 22.0492 16.9781L22.0498 16.9785ZM22.4788 17.7034C22.4873 17.6457 22.4936 17.5879 22.4977 17.5259C22.5018 17.4639 22.504 17.3996 22.504 17.333C22.504 17.2799 22.5018 17.2199 22.4999 17.1579C22.4977 17.1002 22.4936 17.0382 22.4873 16.9805C22.4832 16.9274 22.4788 16.8739 22.4702 16.8274C22.4639 16.7832 22.4576 16.7453 22.4491 16.7143C22.4405 16.6767 22.432 16.6411 22.4216 16.6078C22.4109 16.5745 22.3982 16.5412 22.3875 16.5102C22.3748 16.4769 22.3619 16.4482 22.3493 16.4191C22.3344 16.3905 22.3196 16.3614 22.3047 16.337C22.2899 16.3103 22.275 16.2839 22.258 16.2595C22.2409 16.2351 22.2261 16.213 22.2071 16.1909C22.1901 16.1688 22.173 16.1487 22.1541 16.1289C22.1351 16.1091 22.1158 16.089 22.0969 16.0712C22.0779 16.0534 22.0564 16.0379 22.0375 16.0201C22.0163 16.0046 21.9952 15.9891 21.9759 15.9759C21.9547 15.9604 21.9336 15.9472 21.9121 15.936C21.8909 15.9228 21.8698 15.9116 21.8483 15.9004C21.8271 15.8892 21.806 15.8783 21.7845 15.8694C21.7633 15.8605 21.7422 15.8516 21.7188 15.845C21.6976 15.8361 21.6765 15.8295 21.655 15.8229C21.6316 15.8186 21.6104 15.8117 21.5893 15.8074C21.5681 15.8031 21.5447 15.8008 21.5236 15.7962C21.5024 15.7939 21.4831 15.7896 21.462 15.7873C21.443 15.7873 21.4215 15.785 21.4026 15.783H21.3432C21.3028 15.783 21.2627 15.783 21.2244 15.7873C21.184 15.7915 21.148 15.7962 21.1098 15.8051C21.0738 15.8117 21.0397 15.8206 21.0059 15.8318C20.9698 15.843 20.9379 15.8562 20.906 15.8717C20.8719 15.8849 20.8422 15.9027 20.8125 15.9182C20.7828 15.936 20.7532 15.9558 20.7254 15.9759C20.6979 15.998 20.6701 16.0201 20.6448 16.0425C20.6173 16.0669 20.5917 16.0936 20.5684 16.12L20.5662 16.1223L20.5639 16.1246H20.5298V14.4776H20.1157V18.7917H20.4237L20.515 18.4856L20.5172 18.479V18.4724H20.5491L20.5513 18.4767L20.5535 18.481C20.5576 18.4876 20.5621 18.4942 20.5684 18.5008C20.5725 18.5074 20.5791 18.5163 20.5854 18.5252L20.5895 18.5318C20.5958 18.5384 20.6003 18.545 20.6066 18.5516C20.6151 18.5628 20.6236 18.5737 20.6322 18.5826C20.6407 18.5938 20.6511 18.6047 20.6619 18.6159C20.6726 18.6271 20.683 18.6357 20.696 18.6469C20.7086 18.6581 20.7216 18.669 20.7342 18.6802C20.7468 18.6891 20.7617 18.7 20.7765 18.7112H20.7787C20.7936 18.7201 20.8084 18.731 20.8255 18.7399C20.8425 18.7511 20.8596 18.7597 20.8786 18.7686C20.8975 18.7775 20.9168 18.7864 20.9379 18.7953C20.955 18.8019 20.9739 18.8108 20.9932 18.8174L21.0017 18.8197C21.0229 18.8263 21.0463 18.8329 21.0697 18.8395C21.093 18.8438 21.1164 18.8484 21.142 18.8527C21.1676 18.857 21.1951 18.8593 21.2206 18.8616C21.2481 18.8639 21.2759 18.8639 21.3056 18.8639C21.3438 18.8639 21.3821 18.8616 21.4203 18.8596C21.4585 18.8553 21.4945 18.8484 21.5327 18.8418C21.5687 18.8329 21.607 18.824 21.6433 18.8131C21.6793 18.8019 21.7134 18.7887 21.7472 18.7732H21.7513C21.7873 18.7577 21.8214 18.7399 21.8552 18.7201C21.8894 18.7023 21.9209 18.6802 21.9528 18.6581C21.9847 18.6337 22.0166 18.6093 22.0463 18.5826C22.076 18.5539 22.1035 18.5249 22.1335 18.4939L22.1357 18.4916C22.1613 18.4606 22.1888 18.4273 22.2122 18.394C22.2378 18.3583 22.2611 18.3207 22.2845 18.2808C22.3057 18.2409 22.3268 18.1987 22.3483 18.1545C22.3673 18.1123 22.3865 18.0658 22.4036 18.017C22.4206 17.9705 22.4355 17.9194 22.4481 17.8663C22.4608 17.8132 22.4715 17.7598 22.48 17.7024L22.4788 17.7034Z" fill="#989898"/>
<path d="M94.8996 6.23125C94.3247 5.83606 93.5746 5.63799 92.6492 5.63799H89.0665C88.7828 5.63799 88.626 5.77987 88.5962 6.06336L87.1408 15.1994C87.1257 15.2891 87.1481 15.3712 87.2079 15.4458C87.2674 15.5205 87.3422 15.5577 87.4318 15.5577H89.1336C89.4321 15.5577 89.5961 15.4161 89.6263 15.1323L90.0292 12.6693C90.044 12.5499 90.0965 12.4529 90.186 12.3781C90.2756 12.3035 90.3875 12.2547 90.5219 12.2324C90.6563 12.2102 90.7829 12.199 90.9026 12.199C91.0219 12.199 91.1636 12.2066 91.3281 12.2214C91.4922 12.2363 91.5967 12.2436 91.6416 12.2436C92.9253 12.2436 93.9329 11.8819 94.6645 11.1577C95.3958 10.4337 95.7618 9.42995 95.7618 8.14589C95.7618 7.26523 95.4742 6.62706 94.8996 6.23125ZM93.0523 8.97446C92.9774 9.49703 92.7836 9.8402 92.4701 10.0045C92.1566 10.1689 91.7088 10.2507 91.1267 10.2507L90.3877 10.2731L90.7684 7.87711C90.7981 7.71305 90.8951 7.63092 91.0595 7.63092H91.485C92.0819 7.63092 92.515 7.71695 92.7837 7.88833C93.0523 8.06013 93.1419 8.42226 93.0523 8.97446Z" fill="#003087"/>
<path d="M132.708 5.63799H131.052C130.887 5.63799 130.79 5.72012 130.761 5.88438L129.305 15.1995L129.282 15.2442C129.282 15.3192 129.312 15.3898 129.372 15.457C129.432 15.5241 129.507 15.5577 129.596 15.5577H131.074C131.357 15.5577 131.514 15.4161 131.544 15.1323L133 5.9737V5.95146C133 5.7425 132.902 5.63799 132.708 5.63799Z" fill="#009CDE"/>
<path d="M112.69 9.24296C112.69 9.16849 112.66 9.09745 112.6 9.03037C112.541 8.96323 112.473 8.92949 112.399 8.92949H110.675C110.51 8.92949 110.376 9.0045 110.272 9.15337L107.898 12.6467L106.913 9.28786C106.838 9.0492 106.674 8.92949 106.42 8.92949H104.741C104.666 8.92949 104.599 8.96316 104.539 9.03037C104.479 9.09745 104.45 9.16856 104.45 9.24296C104.45 9.27307 104.595 9.71323 104.886 10.5641C105.177 11.4152 105.491 12.3333 105.827 13.3186C106.163 14.3037 106.338 14.8265 106.353 14.8858C105.129 16.5579 104.517 17.4536 104.517 17.5729C104.517 17.7671 104.614 17.864 104.808 17.864H106.532C106.696 17.864 106.831 17.7896 106.935 17.6402L112.645 9.39969C112.675 9.37006 112.69 9.31804 112.69 9.24296Z" fill="#003087"/>
<path d="M128.745 8.9295H127.043C126.834 8.9295 126.708 9.1759 126.663 9.66855C126.274 9.07166 125.566 8.77277 124.536 8.77277C123.461 8.77277 122.546 9.1759 121.793 9.98202C121.039 10.7882 120.662 11.7363 120.662 12.8259C120.662 13.7068 120.919 14.4084 121.434 14.9307C121.949 15.4535 122.64 15.7144 123.506 15.7144C123.939 15.7144 124.379 15.6247 124.827 15.4457C125.275 15.2666 125.625 15.0279 125.879 14.7292C125.879 14.7442 125.864 14.8112 125.834 14.9306C125.804 15.0503 125.79 15.14 125.79 15.1993C125.79 15.4385 125.886 15.5576 126.081 15.5576H127.626C127.909 15.5576 128.074 15.416 128.118 15.1322L129.037 9.2878C129.051 9.19821 129.029 9.11622 128.969 9.04148C128.909 8.96694 128.835 8.9295 128.745 8.9295ZM125.823 13.3409C125.443 13.7141 124.984 13.9006 124.446 13.9006C124.013 13.9006 123.663 13.7814 123.394 13.5424C123.125 13.3039 122.991 12.9755 122.991 12.5571C122.991 12.0051 123.177 11.5383 123.55 11.1577C123.923 10.777 124.386 10.5867 124.939 10.5867C125.356 10.5867 125.704 10.7099 125.98 10.956C126.256 11.2024 126.394 11.5421 126.394 11.9751C126.394 12.5124 126.204 12.9679 125.823 13.3409Z" fill="#009CDE"/>
<path d="M103.308 8.9295H101.606C101.397 8.9295 101.27 9.1759 101.225 9.66855C100.822 9.07166 100.113 8.77277 99.0979 8.77277C98.0231 8.77277 97.1086 9.1759 96.3549 9.98202C95.6009 10.7882 95.2241 11.7363 95.2241 12.8259C95.2241 13.7068 95.4817 14.4084 95.9967 14.9307C96.5117 15.4535 97.202 15.7144 98.0679 15.7144C98.4857 15.7144 98.9189 15.6247 99.3667 15.4457C99.8145 15.2666 100.173 15.0279 100.441 14.7292C100.382 14.9083 100.352 15.0651 100.352 15.1993C100.352 15.4385 100.449 15.5576 100.643 15.5576H102.188C102.471 15.5576 102.636 15.416 102.681 15.1322L103.599 9.2878C103.613 9.19821 103.591 9.11622 103.532 9.04148C103.472 8.96694 103.397 8.9295 103.308 8.9295ZM100.386 13.352C100.005 13.7181 99.5381 13.9006 98.9861 13.9006C98.5529 13.9006 98.2059 13.7814 97.9448 13.5424C97.6834 13.3039 97.5529 12.9755 97.5529 12.5571C97.5529 12.0051 97.7394 11.5383 98.1128 11.1577C98.4857 10.777 98.9485 10.5867 99.5011 10.5867C99.9189 10.5867 100.266 10.7099 100.542 10.956C100.818 11.2024 100.957 11.5421 100.957 11.9751C100.957 12.5274 100.766 12.9866 100.386 13.352Z" fill="#003087"/>
<path d="M120.337 6.23125C119.763 5.83606 119.013 5.63799 118.087 5.63799H114.527C114.228 5.63799 114.064 5.77987 114.034 6.06336L112.579 15.1994C112.563 15.2891 112.586 15.3712 112.646 15.4458C112.705 15.5205 112.78 15.5577 112.87 15.5577H114.706C114.885 15.5577 115.004 15.4608 115.064 15.2667L115.467 12.6693C115.482 12.5499 115.534 12.4529 115.624 12.3781C115.713 12.3035 115.825 12.2547 115.96 12.2324C116.094 12.2102 116.221 12.199 116.34 12.199C116.46 12.199 116.601 12.2066 116.766 12.2214C116.93 12.2363 117.035 12.2436 117.079 12.2436C118.363 12.2436 119.371 11.8819 120.102 11.1577C120.834 10.4337 121.199 9.42995 121.199 8.14589C121.199 7.26523 120.912 6.62706 120.337 6.23125ZM118.042 9.91487C117.714 10.1388 117.221 10.2507 116.564 10.2507L115.848 10.273L116.228 7.87704C116.258 7.71298 116.355 7.63085 116.52 7.63085H116.922C117.251 7.63085 117.512 7.64577 117.706 7.67554C117.9 7.70559 118.087 7.79867 118.266 7.95541C118.445 8.11214 118.535 8.33992 118.535 8.6384C118.535 9.26548 118.37 9.69079 118.042 9.91487Z" fill="#009CDE"/>
<path d="M80.5067 7.46219L70.9161 17.9273H67.3984C67.1541 17.9273 66.9587 17.683 67.0075 17.4387L69.3527 2.58628C69.4015 2.24428 69.6947 2 70.0367 2H75.9972C80.1012 2.14657 81.2249 4.24741 80.492 7.47196L80.5067 7.46219Z" fill="#002C8A"/>
<path d="M80.6633 6.49483C82.129 7.27654 82.471 8.74224 81.9824 10.6965C81.3473 13.5791 79.4419 14.8005 76.657 14.8493L75.8753 14.8982C75.5822 14.8982 75.3868 15.0936 75.3379 15.3868L74.7028 19.2464C74.6539 19.5884 74.3608 19.8327 74.0188 19.8327H71.0874C70.8431 19.8327 70.6476 19.5884 70.6965 19.3442L71.7714 12.3576C71.8202 12.1134 80.6633 6.49483 80.6633 6.49483Z" fill="#009BE1"/>
<path d="M71.7129 12.6996L72.69 6.49482C72.7221 6.34787 72.8017 6.21559 72.9165 6.11844C73.0313 6.02128 73.1749 5.96469 73.3252 5.9574H78.0154C79.1391 5.9574 79.9697 6.15282 80.6537 6.49482C80.4094 8.64452 79.3834 12.1134 74.4 12.2111H72.2503C72.006 12.2111 71.7617 12.4065 71.7129 12.6996Z" fill="#001F6B"/>
<path d="M157.07 16.2865L158.942 5.30534H161.935L160.062 16.2865H157.07Z" fill="#0E4595"/>
<path d="M170.875 5.54217C170.282 5.3197 169.353 5.08096 168.193 5.08096C165.235 5.08096 163.152 6.57032 163.134 8.70486C163.118 10.2827 164.621 11.163 165.757 11.6882C166.922 12.2266 167.314 12.5698 167.308 13.0504C167.3 13.7865 166.378 14.1227 165.517 14.1227C164.319 14.1227 163.683 13.9562 162.7 13.5463L162.314 13.3718L161.894 15.83C162.593 16.1366 163.886 16.4021 165.228 16.4159C168.374 16.4159 170.417 14.9435 170.44 12.6641C170.451 11.4149 169.654 10.4643 167.927 9.68056C166.881 9.17258 166.24 8.8336 166.247 8.31922C166.247 7.86278 166.789 7.37471 167.961 7.37471C168.94 7.3595 169.649 7.57294 170.201 7.79541L170.47 7.92213L170.875 5.54217Z" fill="#0E4595"/>
<path d="M178.577 5.30528H176.265C175.548 5.30528 175.012 5.50083 174.697 6.21591L170.252 16.2793H173.395C173.395 16.2793 173.909 14.9263 174.025 14.6291C174.369 14.6291 177.422 14.6338 177.858 14.6338C177.948 15.0183 178.223 16.2793 178.223 16.2793H181L178.577 5.30528ZM174.908 12.396C175.155 11.7633 176.1 9.32633 176.1 9.32633C176.083 9.35555 176.346 8.69056 176.497 8.27827L176.7 9.22502C176.7 9.22502 177.273 11.8462 177.392 12.3959H174.908V12.396Z" fill="#0E4595"/>
<path d="M144.038 5.30534L144 5.53377C145.183 5.82019 146.24 6.23474 147.165 6.75042L149.821 16.2689L152.988 16.2654L157.7 5.30534H154.529L151.599 12.7937L151.287 11.2718C151.272 11.2248 151.256 11.1777 151.24 11.1305L150.221 6.23243C150.04 5.53709 149.515 5.32958 148.865 5.30534H144.038Z" fill="#0E4595"/>
<path d="M243.549 20.5802V19.2927C243.549 18.7991 243.249 18.4772 242.734 18.4772C242.476 18.4772 242.197 18.5631 242.004 18.842C241.854 18.606 241.64 18.4772 241.318 18.4772C241.103 18.4772 240.888 18.5416 240.717 18.7777V18.5202H240.266V20.5802H240.717V19.4429C240.717 19.0781 240.91 18.9064 241.21 18.9064C241.511 18.9064 241.661 19.0996 241.661 19.4429V20.5802H242.112V19.4429C242.112 19.0781 242.326 18.9064 242.605 18.9064C242.906 18.9064 243.056 19.0996 243.056 19.4429V20.5802H243.549ZM250.223 18.5202H249.494V17.8978H249.043V18.5202H248.635V18.9279H249.043V19.8721C249.043 20.3442 249.236 20.6232 249.751 20.6232C249.944 20.6232 250.159 20.5588 250.309 20.4729L250.18 20.0867C250.052 20.1725 249.901 20.194 249.794 20.194C249.579 20.194 249.494 20.0652 249.494 19.8506V18.9279H250.223V18.5202ZM254.043 18.4772C253.785 18.4772 253.614 18.606 253.506 18.7777V18.5202H253.056V20.5802H253.506V19.4214C253.506 19.0781 253.657 18.885 253.936 18.885C254.021 18.885 254.129 18.9064 254.215 18.9279L254.343 18.4987C254.258 18.4772 254.129 18.4772 254.043 18.4772ZM248.27 18.6918C248.056 18.5416 247.755 18.4772 247.433 18.4772C246.918 18.4772 246.575 18.7348 246.575 19.1425C246.575 19.4858 246.833 19.679 247.283 19.7433L247.498 19.7648C247.734 19.8077 247.863 19.8721 247.863 19.9794C247.863 20.1296 247.691 20.2369 247.391 20.2369C247.09 20.2369 246.854 20.1296 246.704 20.0223L246.489 20.3657C246.725 20.5373 247.047 20.6232 247.369 20.6232C247.97 20.6232 248.313 20.3442 248.313 19.9579C248.313 19.5931 248.034 19.4 247.605 19.3356L247.391 19.3142C247.197 19.2927 247.047 19.2498 247.047 19.121C247.047 18.9708 247.197 18.885 247.433 18.885C247.691 18.885 247.949 18.9923 248.077 19.0566L248.27 18.6918ZM260.245 18.4772C259.987 18.4772 259.815 18.606 259.708 18.7777V18.5202H259.257V20.5802H259.708V19.4214C259.708 19.0781 259.858 18.885 260.137 18.885C260.223 18.885 260.33 18.9064 260.416 18.9279L260.545 18.4987C260.459 18.4772 260.33 18.4772 260.245 18.4772ZM254.494 19.5502C254.494 20.1725 254.923 20.6232 255.588 20.6232C255.888 20.6232 256.103 20.5588 256.318 20.3871L256.103 20.0223C255.931 20.1511 255.76 20.2154 255.567 20.2154C255.202 20.2154 254.944 19.9579 254.944 19.5502C254.944 19.1639 255.202 18.9064 255.567 18.885C255.76 18.885 255.931 18.9493 256.103 19.0781L256.318 18.7133C256.103 18.5416 255.888 18.4772 255.588 18.4772C254.923 18.4772 254.494 18.9279 254.494 19.5502ZM258.657 19.5502V18.5202H258.206V18.7777C258.056 18.5845 257.841 18.4772 257.562 18.4772C256.983 18.4772 256.532 18.9279 256.532 19.5502C256.532 20.1725 256.983 20.6232 257.562 20.6232C257.863 20.6232 258.077 20.5159 258.206 20.3227V20.5802H258.657V19.5502ZM257.004 19.5502C257.004 19.1854 257.24 18.885 257.627 18.885C257.991 18.885 258.249 19.1639 258.249 19.5502C258.249 19.915 257.991 20.2154 257.627 20.2154C257.24 20.194 257.004 19.915 257.004 19.5502ZM251.618 18.4772C251.017 18.4772 250.588 18.9064 250.588 19.5502C250.588 20.194 251.017 20.6232 251.639 20.6232C251.94 20.6232 252.24 20.5373 252.476 20.3442L252.262 20.0223C252.09 20.1511 251.876 20.2369 251.661 20.2369C251.382 20.2369 251.103 20.1081 251.039 19.7433H252.562V19.5717C252.584 18.9064 252.197 18.4772 251.618 18.4772ZM251.618 18.8635C251.897 18.8635 252.09 19.0352 252.133 19.3571H251.06C251.103 19.0781 251.296 18.8635 251.618 18.8635ZM262.798 19.5502V17.7047H262.348V18.7777C262.197 18.5845 261.983 18.4772 261.704 18.4772C261.124 18.4772 260.674 18.9279 260.674 19.5502C260.674 20.1725 261.124 20.6232 261.704 20.6232C262.004 20.6232 262.219 20.5159 262.348 20.3227V20.5802H262.798V19.5502ZM261.146 19.5502C261.146 19.1854 261.382 18.885 261.768 18.885C262.133 18.885 262.391 19.1639 262.391 19.5502C262.391 19.915 262.133 20.2154 261.768 20.2154C261.382 20.194 261.146 19.915 261.146 19.5502ZM246.082 19.5502V18.5202H245.631V18.7777C245.481 18.5845 245.266 18.4772 244.987 18.4772C244.408 18.4772 243.957 18.9279 243.957 19.5502C243.957 20.1725 244.408 20.6232 244.987 20.6232C245.288 20.6232 245.502 20.5159 245.631 20.3227V20.5802H246.082V19.5502ZM244.408 19.5502C244.408 19.1854 244.644 18.885 245.03 18.885C245.395 18.885 245.652 19.1639 245.652 19.5502C245.652 19.915 245.395 20.2154 245.03 20.2154C244.644 20.194 244.408 19.915 244.408 19.5502Z" fill="black"/>
<path d="M254.88 2.8764H248.12V15.0223H254.88V2.8764Z" fill="#FF5F00"/>
<path d="M248.549 8.94935C248.549 6.48155 249.708 4.29271 251.489 2.8764C250.18 1.84636 248.528 1.22404 246.725 1.22404C242.455 1.22404 239 4.67897 239 8.94935C239 13.2197 242.455 16.6747 246.725 16.6747C248.528 16.6747 250.18 16.0523 251.489 15.0223C249.708 13.6275 248.549 11.4172 248.549 8.94935Z" fill="#EB001B"/>
<path d="M264 8.94935C264 13.2197 260.545 16.6747 256.275 16.6747C254.472 16.6747 252.82 16.0523 251.511 15.0223C253.313 13.606 254.451 11.4172 254.451 8.94935C254.451 6.48155 253.292 4.29271 251.511 2.8764C252.82 1.84636 254.472 1.22404 256.275 1.22404C260.545 1.22404 264 4.70043 264 8.94935Z" fill="#F79E1B"/>
<path d="M224 2H196V20H224V2Z" fill="#2557D6"/>
<path d="M196 10.4768H197.345L197.648 9.76388H198.327L198.63 10.4768H201.276V9.9318L201.512 10.4792H202.886L203.122 9.92368V10.4769H209.699L209.695 9.30655H209.823C209.912 9.30958 209.938 9.31758 209.938 9.46098V10.4769H213.339V10.2044C213.614 10.3477 214.04 10.4769 214.602 10.4769H216.033L216.339 9.76392H217.018L217.317 10.4769H220.075V9.79966L220.492 10.4769H222.702V6H220.515V6.5287L220.209 6H217.965V6.5287L217.684 6H214.653C214.145 6 213.699 6.06903 213.339 6.26139V6H211.248V6.26139C211.018 6.06311 210.706 6 210.358 6H202.717L202.204 7.15625L201.677 6H199.27V6.5287L199.006 6H196.953L196 8.12848V10.4768H196L196 10.4768ZM204.49 9.83112H203.683L203.68 7.31719L202.538 9.83108H201.847L200.703 7.31496V9.83108H199.102L198.8 9.11514H197.161L196.855 9.83108H196L197.41 6.62127H198.579L199.918 9.66032V6.62127H201.203L202.233 8.79875L203.179 6.62127H204.49L204.49 9.83112ZM198.53 8.44896L197.992 7.16934L197.456 8.44896H198.53ZM207.701 9.83105H205.072V6.62123H207.701V7.28964H205.859V7.86822H207.657V8.52617H205.859V9.16721H207.701L207.701 9.83105ZM211.407 7.48572C211.407 7.99747 211.056 8.2619 210.852 8.34127C211.024 8.40514 211.171 8.51806 211.242 8.61157C211.353 8.77123 211.372 8.91382 211.372 9.2005V9.83105H210.578L210.575 9.42626C210.575 9.23313 210.594 8.95537 210.451 8.80094C210.336 8.68802 210.16 8.66354 209.877 8.66354H209.032V9.83108H208.245V6.62123H210.055C210.457 6.62123 210.754 6.63157 211.008 6.77497C211.257 6.91836 211.407 7.12768 211.407 7.48572ZM210.412 7.96232C210.303 8.02634 210.176 8.02846 210.022 8.02846H209.066V7.31551H210.035C210.172 7.31551 210.316 7.3215 210.409 7.37339C210.511 7.42017 210.574 7.51967 210.574 7.65715C210.574 7.79747 210.514 7.91035 210.412 7.96232ZM212.669 9.83105H211.866V6.62123H212.669V9.83105ZM221.993 9.83105H220.877L219.385 7.42188V9.83105H217.782L217.476 9.1151H215.841L215.544 9.83105H214.622C214.24 9.83105 213.755 9.74857 213.481 9.47603C213.204 9.2035 213.061 8.83434 213.061 8.25064C213.061 7.7746 213.147 7.33941 213.485 6.9955C213.739 6.73934 214.138 6.62123 214.68 6.62123H215.442V7.309H214.696C214.409 7.309 214.247 7.35066 214.091 7.49914C213.956 7.63431 213.864 7.88978 213.864 8.22623C213.864 8.5701 213.934 8.81808 214.081 8.98004C214.202 9.10706 214.422 9.14558 214.629 9.14558H214.983L216.092 6.62134H217.272L218.604 9.65736V6.62138H219.803L221.187 8.85685V6.62138H221.993V9.83105ZM217.208 8.449L216.663 7.16937L216.122 8.449H217.208ZM223.999 14.9566C223.807 15.2291 223.435 15.3672 222.93 15.3672H221.41V14.6788H222.924C223.074 14.6788 223.18 14.6595 223.243 14.5993C223.303 14.5454 223.336 14.4694 223.336 14.3899C223.336 14.2963 223.298 14.2221 223.24 14.1776C223.183 14.1285 223.1 14.1063 222.962 14.1063C222.223 14.0818 221.301 14.1285 221.301 13.1126C221.301 12.6469 221.605 12.1567 222.431 12.1567H223.998V11.518H222.542C222.102 11.518 221.783 11.6207 221.557 11.7802V11.518H219.402C219.057 11.518 218.653 11.6013 218.461 11.7802V11.518H214.614V11.7802C214.307 11.5649 213.791 11.518 213.552 11.518H211.014V11.7802C210.772 11.5515 210.233 11.518 209.905 11.518H207.064L206.414 12.2037L205.805 11.518H201.562V15.9978H205.725L206.395 15.3012L207.026 15.9978L209.592 16V14.9462H209.844C210.185 14.9513 210.587 14.9378 210.941 14.7886V15.9976H213.058V14.83H213.16C213.29 14.83 213.303 14.8353 213.303 14.9621V15.9975H219.733C220.141 15.9975 220.568 15.8957 220.804 15.7108V15.9975H222.844C223.268 15.9975 223.683 15.9395 223.998 15.791L223.998 14.9564L223.999 14.9566ZM211.249 13.2334C211.249 14.1252 210.566 14.3094 209.878 14.3094H208.896V15.3863H207.366L206.397 14.3234L205.389 15.3863H202.271V12.1756H205.437L206.406 13.228L207.407 12.1756H209.922C210.547 12.1756 211.249 12.3442 211.249 13.2334ZM204.991 14.7109H203.055V14.0722H204.783V13.4171H203.055V12.8334H205.029L205.89 13.769L204.991 14.7109ZM208.109 15.0786L206.9 13.7707L208.109 12.5045V15.0786ZM209.896 13.651H208.879V12.8334H209.905C210.19 12.8334 210.387 12.9463 210.387 13.227C210.387 13.5047 210.199 13.651 209.896 13.651ZM215.226 12.1756H217.853V12.8396H216.009V13.4233H217.808V14.0784H216.009V14.7172L217.853 14.7201V15.3863H215.225L215.226 12.1756ZM214.215 13.8942C214.391 13.9573 214.534 14.0702 214.601 14.1637C214.712 14.3205 214.728 14.4668 214.731 14.7498V15.3863H213.941V14.9846C213.941 14.7914 213.96 14.5054 213.814 14.3561C213.699 14.2411 213.524 14.2136 213.236 14.2136H212.395V15.3863H211.604V12.1757H213.422C213.82 12.1757 214.11 12.1929 214.369 12.3272C214.617 12.4735 214.773 12.6739 214.773 13.0402C214.773 13.5526 214.423 13.8141 214.215 13.8942ZM213.771 13.4883C213.665 13.5493 213.535 13.5545 213.382 13.5545H212.426V12.8334H213.395C213.535 12.8334 213.675 12.8364 213.771 12.8914C213.873 12.9434 213.934 13.0429 213.934 13.1802C213.934 13.3176 213.873 13.4282 213.771 13.4883ZM220.876 13.6929C221.03 13.8474 221.112 14.0426 221.112 14.373C221.112 15.0637 220.669 15.3861 219.875 15.3861H218.342V14.6976H219.869C220.019 14.6976 220.124 14.6785 220.191 14.6182C220.245 14.5685 220.284 14.4964 220.284 14.4088C220.284 14.3152 220.242 14.241 220.188 14.1965C220.127 14.1475 220.044 14.1252 219.907 14.1252C219.171 14.1008 218.249 14.1475 218.249 13.1316C218.249 12.6659 218.549 12.1757 219.375 12.1757H220.953V12.859H219.509C219.366 12.859 219.273 12.8643 219.194 12.917C219.107 12.969 219.075 13.0462 219.075 13.1479C219.075 13.269 219.149 13.3515 219.248 13.3871C219.331 13.4153 219.42 13.4235 219.554 13.4235L219.978 13.4347C220.405 13.4448 220.698 13.5168 220.876 13.6929ZM224 12.8334H222.565C222.422 12.8334 222.327 12.8386 222.247 12.8914C222.164 12.9434 222.132 13.0205 222.132 13.1224C222.132 13.2435 222.202 13.3259 222.304 13.3615C222.387 13.3897 222.476 13.3979 222.607 13.3979L223.034 13.409C223.464 13.4194 223.752 13.4916 223.927 13.6675C223.959 13.692 223.978 13.7194 224 13.7469V12.8334H224Z" fill="white"/>
</svg>
