<svg width="153" height="170" viewBox="0 0 153 170" fill="none" xmlns="http://www.w3.org/2000/svg">
<rect x="35.5" y="0.5" width="84" height="169" rx="12.5" fill="#FFF8FE" stroke="url(#paint0_linear_233_26)"/>
<path d="M14.7259 18.4122C16.3838 12.5293 24.6163 12.5293 26.2741 18.4122C27.1634 21.568 30.3648 23.4399 33.5081 22.642C39.3677 21.1545 43.484 28.3748 39.2821 32.7703C37.0281 35.1281 37.0281 38.8719 39.2821 41.2297C43.484 45.6252 39.3677 52.8455 33.5081 51.358C30.3648 50.5601 27.1634 52.432 26.2741 55.5878C24.6163 61.4707 16.3838 61.4707 14.7259 55.5878C13.8366 52.432 10.6352 50.5601 7.49192 51.358C1.63227 52.8455 -2.48397 45.6252 1.71787 41.2297C3.97185 38.8719 3.97185 35.1281 1.71786 32.7703C-2.48397 28.3748 1.63227 21.1545 7.49192 22.642C10.6352 23.4399 13.8366 21.568 14.7259 18.4122Z" fill="url(#paint1_linear_233_26)"/>
<path d="M126.726 118.412C128.384 112.529 136.616 112.529 138.274 118.412C139.163 121.568 142.365 123.44 145.508 122.642C151.368 121.154 155.484 128.375 151.282 132.77C149.028 135.128 149.028 138.872 151.282 141.23C155.484 145.625 151.368 152.846 145.508 151.358C142.365 150.56 139.163 152.432 138.274 155.588C136.616 161.471 128.384 161.471 126.726 155.588C125.837 152.432 122.635 150.56 119.492 151.358C113.632 152.846 109.516 145.625 113.718 141.23C115.972 138.872 115.972 135.128 113.718 132.77C109.516 128.375 113.632 121.154 119.492 122.642C122.635 123.44 125.837 121.568 126.726 118.412Z" fill="url(#paint2_linear_233_26)"/>
<path d="M94 77.8038C98 80.1132 98 85.8868 94 88.1962L70 102.053C66 104.362 61 101.475 61 96.8564L61 69.1436C61 64.5248 66 61.638 70 63.9474L94 77.8038Z" fill="#6A10B3"/>
<defs>
<linearGradient id="paint0_linear_233_26" x1="21.3054" y1="-22.3697" x2="133.753" y2="-7.72136" gradientUnits="userSpaceOnUse">
<stop stop-color="#C43B56"/>
<stop offset="0.3395" stop-color="#982684"/>
<stop offset="0.726" stop-color="#6A10B3"/>
<stop offset="0.9195" stop-color="#5908C5"/>
</linearGradient>
<linearGradient id="paint1_linear_233_26" x1="-6.60565" y1="7.94701" x2="45.7321" y2="20.1007" gradientUnits="userSpaceOnUse">
<stop stop-color="#C43B56"/>
<stop offset="0.3395" stop-color="#982684"/>
<stop offset="0.726" stop-color="#6A10B3"/>
<stop offset="0.9195" stop-color="#5908C5"/>
</linearGradient>
<linearGradient id="paint2_linear_233_26" x1="105.394" y1="107.947" x2="157.732" y2="120.101" gradientUnits="userSpaceOnUse">
<stop stop-color="#C43B56"/>
<stop offset="0.3395" stop-color="#982684"/>
<stop offset="0.726" stop-color="#6A10B3"/>
<stop offset="0.9195" stop-color="#5908C5"/>
</linearGradient>
</defs>
</svg>
