<svg width="110" height="170" viewBox="0 0 110 170" fill="none" xmlns="http://www.w3.org/2000/svg">
<rect x="0.5" y="0.5" width="84" height="169" rx="12.5" fill="#FFF8FE" stroke="url(#paint0_linear_233_19)"/>
<circle cx="83.5" cy="49.5" r="26" fill="white" stroke="url(#paint1_linear_233_19)"/>
<path d="M77.2752 39.2138C78.3216 37.0297 81.5515 37.4607 81.9887 39.8427L82.5279 42.7803C82.7234 43.8456 83.5826 44.6638 84.6562 44.8071L87.6167 45.2021C90.0172 45.5224 90.6055 48.7274 88.4751 49.8792L85.8478 51.2998C84.8951 51.815 84.3825 52.885 84.578 53.9502L85.1172 56.8879C85.5544 59.2699 82.688 60.8198 80.9342 59.1497L78.7713 57.09C77.9869 56.3431 76.8109 56.1861 75.8582 56.7013L73.2309 58.1219C71.1005 59.2737 68.7408 57.0266 69.7872 54.8425L71.0777 52.149C71.5457 51.1722 71.3315 50.0052 70.5472 49.2583L68.3843 47.1986C66.6305 45.5285 68.0384 42.5899 70.439 42.9102L73.3995 43.3052C74.473 43.4484 75.5167 42.8841 75.9847 41.9073L77.2752 39.2138Z" fill="url(#paint2_linear_233_19)"/>
<path d="M87.896 40.2794C86.5031 38.2983 83.3888 39.257 83.3512 41.6785L83.2947 45.3172C83.2846 45.9669 82.8573 46.5363 82.2362 46.7275L78.7582 47.7982C76.4436 48.5108 76.393 51.7689 78.6844 52.5529L82.1275 53.7311C82.7424 53.9414 83.1518 54.5238 83.1417 55.1735L83.0853 58.8122C83.0477 61.2337 86.1307 62.2887 87.5844 60.3517L89.7689 57.4412C90.159 56.9214 90.8394 56.712 91.4542 56.9223L94.8974 58.1005C97.1887 58.8845 99.1447 56.2784 97.7518 54.2972L95.6587 51.3203C95.285 50.7887 95.296 50.0769 95.6861 49.5571L97.8706 46.6466C99.3243 44.7096 97.4501 42.044 95.1355 42.7565L91.6575 43.8272C91.0364 44.0184 90.3628 43.788 89.9891 43.2564L87.896 40.2794Z" fill="url(#paint3_linear_233_19)" stroke="white"/>
<path d="M62 79.8038C66 82.1132 66 87.8868 62 90.1962L38 104.053C34 106.362 29 103.475 29 98.8564L29 71.1436C29 66.5248 34 63.638 38 65.9474L62 79.8038Z" fill="#6A10B3"/>
<defs>
<linearGradient id="paint0_linear_233_19" x1="-13.6946" y1="-22.3697" x2="98.7533" y2="-7.72136" gradientUnits="userSpaceOnUse">
<stop stop-color="#C43B56"/>
<stop offset="0.3395" stop-color="#982684"/>
<stop offset="0.726" stop-color="#6A10B3"/>
<stop offset="0.9195" stop-color="#5908C5"/>
</linearGradient>
<linearGradient id="paint1_linear_233_19" x1="48.461" y1="16.0259" x2="115.233" y2="33.4224" gradientUnits="userSpaceOnUse">
<stop stop-color="#C43B56"/>
<stop offset="0.3395" stop-color="#982684"/>
<stop offset="0.726" stop-color="#6A10B3"/>
<stop offset="0.9195" stop-color="#5908C5"/>
</linearGradient>
<linearGradient id="paint2_linear_233_19" x1="58.6545" y1="24.7799" x2="100.122" y2="41.7047" gradientUnits="userSpaceOnUse">
<stop stop-color="#C43B56"/>
<stop offset="0.3395" stop-color="#982684"/>
<stop offset="0.726" stop-color="#6A10B3"/>
<stop offset="0.9195" stop-color="#5908C5"/>
</linearGradient>
<linearGradient id="paint3_linear_233_19" x1="63.1847" y1="37.6603" x2="103.456" y2="35.8965" gradientUnits="userSpaceOnUse">
<stop stop-color="#C43B56"/>
<stop offset="0.3395" stop-color="#982684"/>
<stop offset="0.726" stop-color="#6A10B3"/>
<stop offset="0.9195" stop-color="#5908C5"/>
</linearGradient>
</defs>
</svg>
