<svg width="124" height="35" viewBox="0 0 124 35" fill="none" xmlns="http://www.w3.org/2000/svg">
<path d="M65.9558 20.6178C65.9558 21.4724 65.9006 22.2444 65.7901 22.9336H48.3569C48.4949 24.7531 49.1713 26.2143 50.386 27.3171C51.6006 28.4198 53.0913 28.9712 54.8581 28.9712C57.3979 28.9712 59.1923 27.9098 60.2413 25.787H65.3346C64.6445 27.8822 63.3884 29.6053 61.5664 30.9562C59.772 32.2795 57.5359 32.9412 54.8581 32.9412C52.6773 32.9412 50.7172 32.4587 48.978 31.4938C47.2665 30.5013 45.9138 29.1228 44.92 27.3584C43.9537 25.5664 43.4706 23.4987 43.4706 21.1554C43.4706 18.812 43.9399 16.7581 44.8786 14.9937C45.8448 13.2017 47.1837 11.8232 48.8952 10.8583C50.6344 9.89338 52.622 9.41092 54.8581 9.41092C57.0114 9.41092 58.93 9.8796 60.614 10.8169C62.298 11.7543 63.6093 13.0776 64.5479 14.7869C65.4865 16.4686 65.9558 18.4122 65.9558 20.6178ZM61.0281 19.129C61.0005 17.3922 60.3793 15.9999 59.1647 14.9523C57.95 13.9047 56.4455 13.3809 54.6511 13.3809C53.0223 13.3809 51.6282 13.9047 50.4688 14.9523C49.3093 15.9724 48.6192 17.3646 48.3983 19.129H61.0281Z" fill="white"/>
<path d="M76.1087 13.629V26.2419C76.1087 27.0965 76.302 27.7168 76.6885 28.1028C77.1026 28.4612 77.7927 28.6404 78.7589 28.6404H81.6576V32.569H77.9307C75.8051 32.569 74.1763 32.0727 73.0445 31.0803C71.9126 30.0878 71.3467 28.475 71.3467 26.2419V13.629H68.6551V9.7831H71.3467V4.11765H76.1087V9.7831H81.6576V13.629H76.1087Z" fill="white"/>
<path d="M90.7291 13.0914C91.4192 11.9335 92.3302 11.0375 93.4621 10.4034C94.6215 9.74175 95.988 9.41092 97.5616 9.41092V14.2907H96.3607C94.5111 14.2907 93.1032 14.7593 92.137 15.6967C91.1984 16.634 90.7291 18.2606 90.7291 20.5764V32.569H86.0084V9.7831H90.7291V13.0914Z" fill="white"/>
<path d="M100.327 21.0727C100.327 18.7844 100.797 16.7581 101.735 14.9937C102.701 13.2292 103.999 11.8646 105.628 10.8997C107.284 9.90716 109.106 9.41092 111.094 9.41092C112.888 9.41092 114.448 9.76932 115.773 10.4861C117.126 11.1753 118.202 12.0438 119.003 13.0914V9.7831H123.765V32.569H119.003V29.178C118.202 30.2532 117.112 31.1492 115.731 31.866C114.351 32.5828 112.778 32.9412 111.011 32.9412C109.051 32.9412 107.256 32.4449 105.628 31.4524C103.999 30.4324 102.701 29.0264 101.735 27.2344C100.797 25.4148 100.327 23.3609 100.327 21.0727ZM119.003 21.1554C119.003 19.5839 118.671 18.2193 118.009 17.0614C117.374 15.9034 116.532 15.0212 115.483 14.4147C114.434 13.8082 113.302 13.5049 112.087 13.5049C110.873 13.5049 109.741 13.8082 108.692 14.4147C107.643 14.9937 106.787 15.8621 106.125 17.02C105.49 18.1503 105.172 19.5012 105.172 21.0727C105.172 22.6441 105.49 24.0226 106.125 25.208C106.787 26.3935 107.643 27.3033 108.692 27.9374C109.768 28.5439 110.9 28.8472 112.087 28.8472C113.302 28.8472 114.434 28.5439 115.483 27.9374C116.532 27.3309 117.374 26.4486 118.009 25.2907C118.671 24.1053 119.003 22.7268 119.003 21.1554Z" fill="white"/>
<path d="M33.8627 10.647V21.3174C33.8627 22.5395 33.1378 23.7191 31.849 24.5764L24.8794 29.333C24.7921 29.3889 24.6915 29.4561 24.602 29.5098L24.6914 29.4449C25.9802 28.5764 26.7052 27.3968 26.7052 26.1724V15.5043C26.7052 14.2799 25.9802 13.1137 24.6914 12.2452L14.8176 5.61516C13.9963 5.10696 13.0468 4.84444 12.0812 4.85859C11.0623 4.84804 10.057 5.09274 9.15686 5.57039L15.9766 0.912333C16.953 0.293753 18.09 -0.0231273 19.2455 0.00131451C20.2091 -0.0190597 21.1574 0.244007 21.973 0.757885L31.849 7.38795C33.1378 8.24525 33.8627 9.43606 33.8627 10.647Z" fill="white"/>
<path d="M0.235291 24.353V13.6827C0.235291 12.4605 0.965626 11.2809 2.27028 10.4258L9.73191 5.66702C9.82236 5.61106 9.9241 5.54391 10.0145 5.49019L9.9241 5.5551C8.61945 6.42359 7.88911 7.60322 7.88911 8.82761V19.4957C7.88911 20.7201 8.61945 21.8863 9.9241 22.7548L19.9069 29.3849C20.7368 29.8931 21.6964 30.1556 22.6722 30.1415C23.7018 30.1517 24.7177 29.907 25.6274 29.4297L18.306 34.0877C17.319 34.7057 16.1701 35.0225 15.0025 34.9987C14.0295 35.0187 13.072 34.7556 12.2485 34.2422L2.27028 27.6121C0.965626 26.766 0.235291 25.5752 0.235291 24.353Z" fill="white"/>
</svg>
