<svg width="98" height="28" viewBox="0 0 98 28" fill="none" xmlns="http://www.w3.org/2000/svg">
<g id="Layer 2">
<g id="Layer 1">
<g id="etra">
<path d="M51.9848 16.6227C51.9848 17.2796 51.9408 17.873 51.8529 18.4028H37.9763C38.0862 19.8015 38.6246 20.9247 39.5914 21.7724C40.5583 22.6201 41.7449 23.0439 43.1512 23.0439C45.1728 23.0439 46.6011 22.228 47.4361 20.5962H51.4904C50.941 22.2068 49.9412 23.5313 48.4909 24.5698C47.0626 25.587 45.2827 26.0956 43.1512 26.0956C41.4153 26.0956 39.8551 25.7247 38.4707 24.983C37.1083 24.2201 36.0316 23.1605 35.2406 21.8042C34.4715 20.4267 34.0869 18.8373 34.0869 17.0359C34.0869 15.2346 34.4605 13.6557 35.2076 12.2994C35.9767 10.9219 37.0424 9.86233 38.4048 9.1206C39.7892 8.37887 41.3713 8.008 43.1512 8.008C44.8652 8.008 46.3924 8.36827 47.7328 9.08881C49.0732 9.80935 50.117 10.8266 50.8641 12.1405C51.6112 13.4332 51.9848 14.9273 51.9848 16.6227ZM48.0624 15.4783C48.0404 14.1432 47.546 13.073 46.5792 12.2677C45.6123 11.4623 44.4147 11.0597 42.9864 11.0597C41.6899 11.0597 40.5802 11.4623 39.6573 12.2677C38.7344 13.0518 38.1851 14.122 38.0093 15.4783H48.0624Z" fill="white"/>
<path d="M60.0664 11.2504V20.9459C60.0664 21.6028 60.2202 22.0797 60.5279 22.3764C60.8575 22.6519 61.4068 22.7896 62.1759 22.7896H64.4832V25.8095H61.5167C59.8247 25.8095 58.5282 25.4281 57.6273 24.6651C56.7264 23.9022 56.2759 22.6625 56.2759 20.9459V11.2504H54.1334V8.2941H56.2759V3.93909H60.0664V8.2941H64.4832V11.2504H60.0664Z" fill="white"/>
<path d="M71.704 10.8372C72.2533 9.9471 72.9785 9.25835 73.8794 8.77093C74.8023 8.26231 75.89 8.008 77.1426 8.008V11.759H76.1867C74.7144 11.759 73.5937 12.1193 72.8247 12.8398C72.0775 13.5604 71.704 14.8107 71.704 16.5909V25.8095H67.9464V8.2941H71.704V10.8372Z" fill="white"/>
<path d="M79.344 16.9723C79.344 15.2134 79.7176 13.6557 80.4647 12.2994C81.2338 10.9431 82.2665 9.89412 83.563 9.15239C84.8815 8.38947 86.3317 8.008 87.9139 8.008C89.3422 8.008 90.5837 8.2835 91.6385 8.8345C92.7152 9.36431 93.5722 10.0319 94.2094 10.8372V8.2941H98V25.8095H94.2094V23.2029C93.5722 24.0294 92.7042 24.7181 91.6055 25.2691C90.5068 25.8201 89.2543 26.0956 87.8479 26.0956C86.2878 26.0956 84.8595 25.7141 83.563 24.9512C82.2665 24.1671 81.2338 23.0863 80.4647 21.7088C79.7176 20.3101 79.344 18.7313 79.344 16.9723ZM94.2094 17.0359C94.2094 15.828 93.9457 14.7789 93.4184 13.8889C92.913 12.9988 92.2428 12.3206 91.4077 11.8544C90.5727 11.3882 89.6718 11.1551 88.7049 11.1551C87.7381 11.1551 86.8371 11.3882 86.0021 11.8544C85.1671 12.2994 84.4859 12.967 83.9585 13.8571C83.4531 14.726 83.2004 15.7644 83.2004 16.9723C83.2004 18.1803 83.4531 19.2399 83.9585 20.1512C84.4859 21.0624 85.1671 21.7618 86.0021 22.2492C86.8591 22.7154 87.7601 22.9486 88.7049 22.9486C89.6718 22.9486 90.5727 22.7154 91.4077 22.2492C92.2428 21.783 92.913 21.1048 93.4184 20.2148C93.9457 19.3035 94.2094 18.2439 94.2094 17.0359Z" fill="white"/>
</g>
<path id="Vector" d="M27.2696 8.83197V17.1516C27.2696 18.1045 26.6945 19.0242 25.6721 19.6927L20.1428 23.4013C20.0736 23.445 19.9937 23.4973 19.9227 23.5392L19.9937 23.4886C21.0161 22.8114 21.5913 21.8917 21.5913 20.937V12.6192C21.5913 11.6645 21.0161 10.7552 19.9937 10.0781L12.1605 4.90864C11.5089 4.5124 10.7556 4.30771 9.98959 4.31874C9.18129 4.31052 8.38373 4.50131 7.66962 4.87373L13.0799 1.24186C13.8546 0.759556 14.7566 0.512485 15.6733 0.531542C16.4377 0.515657 17.1901 0.720769 17.8371 1.12144L25.6721 6.29088C26.6945 6.95931 27.2696 7.88779 27.2696 8.83197Z" fill="white"/>
<path id="Vector_2" d="M0 19.1911V10.5633C0 9.5751 0.58825 8.62129 1.63909 7.92991L7.64908 4.08207C7.72192 4.03682 7.80388 3.98252 7.87673 3.93909L7.80388 3.99157C6.75304 4.69381 6.16479 5.64763 6.16479 6.63764V15.2636C6.16479 16.2536 6.75304 17.1966 7.80388 17.8988L15.8445 23.2597C16.513 23.6706 17.2859 23.8829 18.0719 23.8715C18.9012 23.8798 19.7194 23.6819 20.4522 23.2959L14.5551 27.0623C13.7601 27.562 12.8348 27.8182 11.8943 27.799C11.1106 27.8151 10.3394 27.6024 9.67608 27.1872L1.63909 21.8263C0.58825 21.1422 0 20.1793 0 19.1911Z" fill="white"/>
</g>
</g>
</svg>
