<svg width="22" height="23" viewBox="0 0 22 23" fill="none" xmlns="http://www.w3.org/2000/svg">
<path d="M22 11.4943C22 10.5715 21.9251 9.89799 21.763 9.19958H11.2245V13.3651H17.4104C17.2857 14.4002 16.6122 15.9592 15.1156 17.0068L15.0946 17.1462L18.4267 19.7276L18.6576 19.7506C20.7777 17.7925 22 14.9116 22 11.4943Z" fill="#4285F4"/>
<path d="M11.2245 22.4694C14.2551 22.4694 16.7992 21.4716 18.6576 19.7506L15.1156 17.0068C14.1678 17.6678 12.8957 18.1292 11.2245 18.1292C8.25625 18.1292 5.737 16.1712 4.83895 13.4649L4.70732 13.4761L1.24256 16.1575L1.19725 16.2834C3.04304 19.9501 6.83443 22.4694 11.2245 22.4694Z" fill="#34A853"/>
<path d="M4.83895 13.4649C4.602 12.7665 4.46486 12.0181 4.46486 11.2449C4.46486 10.4716 4.602 9.72335 4.82649 9.02495L4.82021 8.8762L1.31203 6.15172L1.19725 6.20631C0.436513 7.72788 0 9.43652 0 11.2449C0 13.0533 0.436513 14.7619 1.19725 16.2834L4.83895 13.4649Z" fill="#FBBC05"/>
<path d="M11.2245 4.36052C13.3322 4.36052 14.7539 5.27095 15.5646 6.03177L18.7324 2.93878C16.7869 1.1304 14.2551 0.0204163 11.2245 0.0204163C6.83443 0.0204163 3.04304 2.53967 1.19725 6.20631L4.82649 9.02494C5.737 6.3186 8.25625 4.36052 11.2245 4.36052Z" fill="#EB4335"/>
</svg>
