<svg width="21" height="24" viewBox="0 0 21 24" fill="none" xmlns="http://www.w3.org/2000/svg">
<path d="M19.2726 13.6596L20.1672 14.9358C20.4821 15.3747 20.6669 15.8998 20.6989 16.4467C20.7309 16.9936 20.6086 17.5382 20.3472 18.0137C20.0857 18.4891 19.6965 18.8745 19.2274 19.1226C18.7583 19.3706 18.2298 19.4704 17.7069 19.4097L16.2019 19.235C15.6336 19.1669 15.0592 19.288 14.5611 19.5809C14.063 19.8738 13.6668 20.3235 13.4294 20.8654L12.8189 22.3211C12.6066 22.8186 12.2603 23.2412 11.822 23.5379C11.3836 23.8345 10.8721 23.9924 10.3493 23.9924C9.82658 23.9924 9.31504 23.8345 8.87671 23.5379C8.43838 23.2412 8.09206 22.8186 7.87973 22.3211L7.26465 20.8654C7.03205 20.3215 6.63953 19.8686 6.14373 19.5721C5.64793 19.2756 5.07449 19.1507 4.50615 19.2156L2.99642 19.4097C2.47655 19.4669 1.9519 19.3659 1.48603 19.1189C1.02017 18.8719 0.633096 18.4895 0.371715 18.0181C0.110334 17.5466 -0.014134 17.0063 0.0133941 16.4627C0.0409221 15.9191 0.219265 15.3954 0.52681 14.9552L1.42612 13.679C1.7646 13.1975 1.94706 12.6162 1.94706 12.0195C1.94706 11.4227 1.7646 10.8415 1.42612 10.36L0.52681 9.06436C0.219265 8.62414 0.0409221 8.10048 0.0133941 7.55684C-0.014134 7.01321 0.110334 6.47292 0.371715 6.00146C0.633096 5.53 1.02017 5.1476 1.48603 4.9006C1.9519 4.6536 2.47655 4.55261 2.99642 4.60985L4.50615 4.78454C5.07566 4.84942 5.6502 4.72348 6.14628 4.42504C6.64236 4.1266 7.03413 3.6712 7.26465 3.12501L7.87973 1.66929C8.09206 1.17184 8.43838 0.74919 8.87671 0.452559C9.31504 0.155928 9.82658 -0.00195313 10.3493 -0.00195312C10.8721 -0.00195313 11.3836 0.155928 11.822 0.452559C12.2603 0.74919 12.6066 1.17184 12.8189 1.66929L13.4294 3.12501C13.6613 3.67111 14.054 4.12623 14.5508 4.42456C15.0475 4.72289 15.6225 4.84895 16.1925 4.78454L17.7069 4.60985C18.2275 4.55039 18.7534 4.64997 19.2205 4.89644C19.6876 5.14291 20.0757 5.52562 20.3376 5.99789C20.5994 6.47015 20.7236 7.01156 20.695 7.55606C20.6664 8.10057 20.4862 8.62465 20.1765 9.06436L19.2819 10.3405C18.942 10.821 18.7579 11.4017 18.7563 11.9985C18.7546 12.5952 18.9354 13.177 19.2726 13.6596Z" fill="url(#paint0_linear_3_331)"/>
<defs>
<linearGradient id="paint0_linear_3_331" x1="4.42227" y1="4.31871" x2="17.4474" y2="19.8887" gradientUnits="userSpaceOnUse">
<stop stop-color="#C43B56"/>
<stop offset="0.15" stop-color="#BD385E"/>
<stop offset="0.39" stop-color="#A92E72"/>
<stop offset="0.67" stop-color="#881E94"/>
<stop offset="0.99" stop-color="#5B09C3"/>
<stop offset="1" stop-color="#5908C5"/>
</linearGradient>
</defs>
</svg>
