<svg width="18" height="18" viewBox="0 0 18 18" fill="none" xmlns="http://www.w3.org/2000/svg">
<path d="M15.0004 15.1704C14.7363 15.4382 14.4558 15.6888 14.1603 15.9207C13.5375 16.4107 12.8516 16.8126 12.1215 17.1153C10.0513 17.9716 7.73634 17.9977 5.64773 17.1885C3.55911 16.3793 1.85387 14.7954 0.879083 12.7594C-0.0957044 10.7233 -0.266772 8.38806 0.4007 6.22893C1.06817 4.0698 2.52402 2.24907 4.47191 1.13733C3.58258 2.74838 3.21067 4.59932 3.40771 6.43369C3.60475 8.26805 4.36098 9.99502 5.57162 11.3753C6.78226 12.7556 8.38737 13.7209 10.1646 14.1374C11.9417 14.5539 13.803 14.401 15.4905 13.7C15.8212 13.5641 16.1428 13.4063 16.453 13.2277C16.0587 13.9393 15.57 14.5929 15.0004 15.1704Z" fill="#FF0043"/>
<path d="M17.4166 10.5392C17.242 11.4821 16.9165 12.3898 16.453 13.2266C16.1429 13.4062 15.8213 13.5647 15.4904 13.7011C13.8029 14.4021 11.9416 14.5548 10.1644 14.1381C8.38723 13.7214 6.78218 12.756 5.57165 11.3756C4.36112 9.99514 3.60505 8.26807 3.40819 6.43366C3.21134 4.59925 3.58345 2.74833 4.47296 1.13735C5.8166 0.375299 7.33446 -0.0166963 8.87482 0.000545162C10.4152 0.0177866 11.9241 0.443661 13.2507 1.2356C13.8826 1.61482 14.4655 2.07199 14.986 2.59659C16.001 3.6195 16.7531 4.87807 17.1768 6.26251C17.6005 7.64695 17.6828 9.11522 17.4166 10.5392Z" fill="#FFB000"/>
</svg>
