<svg width="64" height="18" viewBox="0 0 64 18" fill="none" xmlns="http://www.w3.org/2000/svg">
<g id="Layer 2">
<g id="Layer 1">
<path id="Vector" d="M21.8828 11.4838L23.564 10.9088C23.926 12.2486 24.7848 12.6572 25.595 12.6572C26.4295 12.6572 27.1669 12.2542 27.1669 11.4838C27.1669 10.6766 26.3688 10.4198 25.5708 10.163L24.7241 9.90621C23.7936 9.62486 22.2095 8.98846 22.2095 7.17865C22.2095 5.45368 23.6445 4.36511 25.4615 4.36511C27.2519 4.36511 28.4419 5.42912 28.7388 6.59138L27.0941 7.26127C26.8037 6.49089 26.2596 6.01416 25.4261 6.01416C24.6281 6.01416 24.1015 6.44177 24.1015 7.02904C24.1015 7.79941 24.9846 8.12989 25.733 8.36881L26.7265 8.68701C27.5842 8.96837 29.0843 9.4451 29.0843 11.2549C29.0843 12.9788 27.742 14.2996 25.6259 14.2996C23.7814 14.3085 22.3299 13.3059 21.8828 11.4838Z" fill="black"/>
<path id="Vector_2" d="M29.3923 7.27576H31.3273L32.7049 11.8868H32.7413C33.2491 10.3584 33.7447 8.81762 34.2536 7.27576H35.7405C36.2482 8.81762 36.7439 10.3584 37.2395 11.8868H37.2638C37.7395 10.3584 38.2076 8.82097 38.6668 7.27576H40.5897L38.3643 14.1008H36.3045C35.863 12.694 35.4215 11.2515 35.0108 9.84478H34.9865C34.5395 11.2515 34.0792 12.694 33.6078 14.1008H31.6209L29.3923 7.27576Z" fill="black"/>
<path id="Vector_3" d="M42.3558 4.12053C42.4917 4.11921 42.6265 4.1451 42.7524 4.19671C42.8784 4.24833 42.993 4.32465 43.0897 4.42127C43.1863 4.51789 43.2631 4.63291 43.3156 4.7597C43.3681 4.88648 43.3953 5.02252 43.3956 5.15998C43.3993 5.37036 43.341 5.5771 43.228 5.75378C43.115 5.93047 42.9525 6.06908 42.7613 6.15191C42.57 6.23474 42.3587 6.25803 42.1543 6.21882C41.9499 6.1796 41.7617 6.07965 41.6137 5.93174C41.4658 5.78382 41.3648 5.59466 41.3236 5.3884C41.2824 5.18213 41.303 4.96814 41.3826 4.77375C41.4622 4.57936 41.5974 4.41339 41.7707 4.29704C41.9441 4.18068 42.1478 4.11923 42.3558 4.12053ZM41.4926 7.27571H43.1848V14.1008H41.4926V7.27571Z" fill="black"/>
<path id="Vector_4" d="M47.6399 8.85335H44.5193V7.27576H49.8884V8.72718C48.8122 9.98657 47.7481 11.2594 46.6718 12.531H50.1302V14.0941H44.4476V12.6572L47.6399 8.85335Z" fill="black"/>
<path id="Vector_5" d="M54.1096 8.85335H50.9857V7.27576H56.3548V8.72718C55.2785 9.98657 54.2144 11.2594 53.1382 12.531H56.5965V14.0941H50.9172V12.6572L54.1096 8.85335Z" fill="black"/>
<path id="Vector_6" d="M59.6111 14.3944L56.9994 7.27576H58.8616C59.4301 8.83883 59.95 10.3829 60.5174 12.1068H60.5417C61.0936 10.3829 61.6455 8.84218 62.1853 7.27576H64L60.5063 16.7915H58.7038L59.6111 14.3944Z" fill="black"/>
<path id="Vector_7" d="M15.0004 15.1704C14.7363 15.4382 14.4558 15.6888 14.1603 15.9207C13.5375 16.4107 12.8516 16.8126 12.1215 17.1153C10.0513 17.9716 7.73634 17.9977 5.64773 17.1885C3.55911 16.3793 1.85387 14.7954 0.879083 12.7594C-0.0957044 10.7233 -0.266772 8.38806 0.4007 6.22893C1.06817 4.0698 2.52402 2.24907 4.47191 1.13733C3.58258 2.74838 3.21067 4.59932 3.40771 6.43369C3.60475 8.26805 4.36098 9.99502 5.57162 11.3753C6.78226 12.7556 8.38737 13.7209 10.1646 14.1374C11.9417 14.5539 13.803 14.401 15.4905 13.7C15.8212 13.5641 16.1428 13.4063 16.453 13.2277C16.0587 13.9393 15.57 14.5929 15.0004 15.1704Z" fill="#FF0043"/>
<path id="Vector_8" d="M17.4166 10.5392C17.242 11.4821 16.9165 12.3898 16.453 13.2266C16.1429 13.4062 15.8213 13.5647 15.4904 13.7011C13.8029 14.4021 11.9416 14.5548 10.1644 14.1381C8.38723 13.7214 6.78218 12.756 5.57165 11.3756C4.36112 9.99514 3.60505 8.26807 3.40819 6.43366C3.21134 4.59925 3.58345 2.74833 4.47296 1.13735C5.8166 0.375299 7.33446 -0.0166963 8.87482 0.000545162C10.4152 0.0177866 11.9241 0.443661 13.2507 1.2356C13.8826 1.61482 14.4655 2.07199 14.986 2.59659C16.001 3.6195 16.7531 4.87807 17.1768 6.26251C17.6005 7.64695 17.6828 9.11522 17.4166 10.5392Z" fill="#FFB000"/>
</g>
</g>
</svg>
