<svg width="12" height="18" viewBox="0 0 12 18" fill="none" xmlns="http://www.w3.org/2000/svg">
<path d="M7.3779 1.37675V7.14234H4.99513C4.64985 7.14234 4.31871 7.28695 4.07456 7.54435C3.83041 7.80176 3.69325 8.15087 3.69325 8.5149V10.8533H1.84088C1.50599 10.8528 1.17761 10.7559 0.891093 10.5731C0.60458 10.3903 0.370803 10.1286 0.214952 9.81607C0.0591006 9.50357 -0.0129177 9.15216 0.00665644 8.7997C0.0262306 8.44725 0.136655 8.1071 0.326033 7.81591L4.99513 0.614217C5.15056 0.370134 5.37622 0.185114 5.63888 0.0864005C5.90154 -0.0123129 6.18733 -0.0195038 6.45415 0.0658869C6.72098 0.151277 6.95476 0.324737 7.12105 0.560726C7.28735 0.796714 7.37738 1.08276 7.3779 1.37675Z" fill="url(#paint0_linear_132_2)"/>
<path d="M7.37734 7.14233V9.48077C7.37628 9.84445 7.23877 10.1929 6.99485 10.4501C6.75093 10.7072 6.42041 10.8522 6.07545 10.8533H3.69269V8.51489C3.69269 8.15087 3.82985 7.80175 4.074 7.54435C4.31815 7.28694 4.64929 7.14233 4.99457 7.14233H7.37734Z" fill="#E60157"/>
<path opacity="0.8" d="M10.7446 10.167L6.07545 17.3687C5.91771 17.6112 5.69051 17.794 5.4271 17.8905C5.16369 17.9869 4.87791 17.992 4.61159 17.9048C4.34526 17.8177 4.11239 17.643 3.94704 17.4063C3.78169 17.1696 3.69256 16.8832 3.69269 16.5893V10.8533H6.07545C6.42041 10.8522 6.75093 10.7072 6.99485 10.4501C7.23877 10.1929 7.37628 9.84445 7.37734 9.48077V7.14233H9.24176C9.57313 7.14812 9.8969 7.24795 10.179 7.4313C10.4611 7.61465 10.6912 7.87477 10.845 8.18428C10.9987 8.4938 11.0706 8.84128 11.0529 9.19019C11.0352 9.53911 10.9287 9.87655 10.7446 10.167Z" fill="url(#paint1_linear_132_2)"/>
<defs>
<linearGradient id="paint0_linear_132_2" x1="3.62494" y1="10.4805" x2="3.93309" y2="-0.181312" gradientUnits="userSpaceOnUse">
<stop stop-color="#ED28B0"/>
<stop offset="1" stop-color="#F51434"/>
</linearGradient>
<linearGradient id="paint1_linear_132_2" x1="3.69269" y1="12.569" x2="11.066" y2="12.569" gradientUnits="userSpaceOnUse">
<stop stop-color="#ED28B0"/>
<stop offset="1" stop-color="#F51434"/>
</linearGradient>
</defs>
</svg>
