<svg width="23" height="18" viewBox="0 0 23 18" fill="none" xmlns="http://www.w3.org/2000/svg">
<path d="M22.1576 12.8438C21.6527 12.7574 21.1163 12.7092 20.6177 12.8837C19.9093 13.1297 19.4029 13.8145 19.0636 14.521C18.7244 15.2274 18.4972 16.0003 18.0981 16.6818C17.6989 17.3633 17.071 17.9534 16.3168 18.0016C15.2976 18.0648 14.4677 17.134 13.9928 16.1732C13.5179 15.2125 13.2071 14.1287 12.464 13.384C12.1156 13.0116 11.6535 12.7809 11.1592 12.7324H11.0015C10.5067 12.7805 10.044 13.0113 9.69512 13.384C9.47493 13.6113 9.28445 13.8684 9.12871 14.1486C8.75164 14.7836 8.49762 15.5083 8.17103 16.1749C7.69772 17.129 6.86468 18.0598 5.84547 18.0033C5.09132 17.9551 4.45707 17.3584 4.0658 16.6835C3.67452 16.0086 3.43471 15.2357 3.09865 14.5226C2.76259 13.8096 2.24826 13.1314 1.53986 12.8837C1.0413 12.7092 0.504872 12.7574 0 12.8438C2.59693 9.74103 5.19808 6.63825 7.80342 3.53547C8.67748 2.49327 9.54681 1.44941 10.4224 0.408867C10.5455 0.233585 10.7127 0.0982373 10.9052 0.0182495C11.0202 -0.00168864 11.1374 -0.00168864 11.2523 0.0182495C11.4448 0.0982373 11.6121 0.233585 11.7351 0.408867L22.1576 12.8438Z" fill="#6200F5"/>
<path d="M22.1576 12.8438C21.6527 12.7574 21.1163 12.7092 20.6177 12.8837C19.9093 13.1297 19.4029 13.8145 19.0636 14.521C18.7244 15.2274 18.4972 16.0003 18.0981 16.6818C17.6989 17.3633 17.071 17.9534 16.3168 18.0016C15.2976 18.0648 14.4677 17.134 13.9928 16.1732C13.5179 15.2125 13.2071 14.1287 12.464 13.384C12.1156 13.0116 11.6535 12.7809 11.1592 12.7324H11.0015C10.5067 12.7805 10.044 13.0113 9.69512 13.384C9.47493 13.6113 9.28445 13.8684 9.12871 14.1486C8.0963 12.6305 7.43558 10.8674 7.20522 9.01566C6.97485 7.16394 7.18196 5.28095 7.80816 3.53381C8.67748 2.49327 9.54681 1.44941 10.4224 0.408867C10.5455 0.233585 10.7127 0.0982373 10.9052 0.0182495C11.0202 -0.00168864 11.1374 -0.00168864 11.2523 0.0182495C11.4448 0.0982373 11.6121 0.233585 11.7351 0.408867L22.1576 12.8438Z" fill="#FF1268"/>
</svg>
